<svg width="15" height="15" viewBox="0 0 15 15" fill="none" xmlns="http://www.w3.org/2000/svg">
<path fill-rule="evenodd" clip-rule="evenodd" d="M3.88976 0.194336C4.33465 0.194336 4.69531 0.554995 4.69531 0.999892V1.63878H10.3064V0.999892C10.3064 0.554995 10.6671 0.194336 11.112 0.194336C11.5569 0.194336 11.9175 0.554995 11.9175 0.999892V1.6389C12.2147 1.63947 12.4788 1.64273 12.7041 1.66114C12.9947 1.68488 13.2909 1.73779 13.5779 1.88402C14.0013 2.09973 14.3455 2.44394 14.5612 2.8673C14.7074 3.15428 14.7603 3.45046 14.7841 3.74114C14.8065 4.01512 14.8064 4.34656 14.8064 4.72511V11.7191C14.8064 12.0977 14.8065 12.4291 14.7841 12.7031C14.7603 12.9938 14.7074 13.2899 14.5612 13.5769C14.3455 14.0003 14.0013 14.3445 13.5779 14.5602C13.2909 14.7064 12.9947 14.7593 12.7041 14.7831C12.4301 14.8055 12.0986 14.8055 11.7201 14.8054H3.28164C2.9031 14.8055 2.57165 14.8055 2.29767 14.7831C2.00699 14.7593 1.71082 14.7064 1.42384 14.5602C1.00047 14.3445 0.656265 14.0003 0.440549 13.5769C0.294326 13.2899 0.241418 12.9938 0.217669 12.7031C0.195284 12.4291 0.195298 12.0977 0.195313 11.7191V4.72511C0.195298 4.34656 0.195284 4.01512 0.217669 3.74114C0.241418 3.45046 0.294326 3.15428 0.440549 2.8673C0.656265 2.44394 1.00047 2.09973 1.42384 1.88402C1.71082 1.73779 2.00699 1.68488 2.29767 1.66114C2.52293 1.64273 2.78703 1.63947 3.0842 1.6389V0.999892C3.0842 0.554995 3.44486 0.194336 3.88976 0.194336ZM3.31198 3.24989C2.89421 3.24989 2.62932 3.25052 2.42887 3.2669C2.23782 3.2825 2.17727 3.30831 2.15526 3.31953C2.03505 3.38078 1.93731 3.47852 1.87606 3.59873C1.86485 3.62073 1.83904 3.68129 1.82343 3.87234C1.81025 4.03367 1.80727 4.23674 1.80661 4.52767H13.1951C13.1945 4.23674 13.1915 4.03367 13.1783 3.87234C13.1627 3.68129 13.1369 3.62073 13.1257 3.59873C13.0644 3.47852 12.9667 3.38078 12.8465 3.31953C12.8245 3.30831 12.7639 3.2825 12.5729 3.2669C12.3724 3.25052 12.1075 3.24989 11.6898 3.24989H3.31198ZM13.1953 6.13878H1.80643V11.6888C1.80643 12.1066 1.80705 12.3714 1.82343 12.5719C1.83904 12.7629 1.86485 12.8235 1.87606 12.8455C1.93731 12.9657 2.03505 13.0634 2.15526 13.1247C2.17727 13.1359 2.23782 13.1617 2.42887 13.1773C2.62932 13.1937 2.89421 13.1943 3.31198 13.1943H11.6898C12.1075 13.1943 12.3724 13.1937 12.5729 13.1773C12.7639 13.1617 12.8245 13.1359 12.8465 13.1247C12.9667 13.0634 13.0644 12.9657 13.1257 12.8455C13.1369 12.8235 13.1627 12.7629 13.1783 12.5719C13.1947 12.3714 13.1953 12.1066 13.1953 11.6888V6.13878ZM10.2372 7.6525C10.5517 7.96709 10.5517 8.47714 10.2372 8.79173L7.34826 11.6806C7.03367 11.9952 6.52362 11.9952 6.20903 11.6806L4.76459 10.2362C4.45 9.92158 4.45 9.41153 4.76459 9.09694C5.07918 8.78235 5.58923 8.78235 5.90382 9.09694L6.77865 9.97178L9.09792 7.6525C9.41251 7.33791 9.92256 7.33791 10.2372 7.6525Z" fill="#7E5DDD"/>
</svg>
