<svg width="44" height="44" viewBox="0 0 44 44" fill="none" xmlns="http://www.w3.org/2000/svg">
<g clip-path="url(#clip0_206_2764)">
<path d="M42.1296 1.10144H11.3954C10.3629 1.10264 9.52614 1.93937 9.52493 2.9719V11.4491L8.11951 9.34101C7.4762 8.37062 6.18243 8.07948 5.18548 8.68085L2.29401 10.4193C1.34708 10.9749 0.652453 11.8759 0.356067 12.933C-0.698731 16.7738 0.0839233 23.3908 9.79639 33.1047C17.5202 40.8205 23.279 42.8986 27.2481 42.8986C28.167 42.9028 29.0823 42.7834 29.9694 42.5436C31.0261 42.2472 31.9271 41.5535 32.4839 40.6079L34.2201 37.7134C34.819 36.7172 34.5282 35.4261 33.5599 34.783L26.6363 30.1677C25.6865 29.5395 24.4135 29.746 23.711 30.6423L21.6953 33.2337C21.4846 33.511 21.1024 33.5918 20.7975 33.4237L20.4138 33.2124C19.1514 32.5244 17.5803 31.6677 14.4071 28.4945C14.0638 28.1512 13.7528 27.8299 13.4609 27.5226H42.1296C43.1595 27.5233 43.996 26.6908 44 25.6609V2.9719C43.9988 1.93937 43.1621 1.10264 42.1296 1.10144ZM19.7119 34.5006L20.0845 34.7053C21.0212 35.229 22.2003 34.986 22.8535 34.1346L24.8692 31.5431C25.0984 31.2512 25.5131 31.1839 25.8228 31.3883L32.7464 36.0036C33.0609 36.2132 33.1555 36.6329 32.9613 36.9571L31.2251 39.8516C30.8625 40.4733 30.2735 40.9306 29.5813 41.1279C26.114 42.0815 20.0457 41.2747 10.8356 32.0639C1.62559 22.8532 0.821791 16.7855 1.7731 13.3211C1.9702 12.629 2.42724 12.04 3.04864 11.6773L5.94312 9.94031C6.26744 9.74656 6.68684 9.84103 6.89666 10.1552L11.5141 17.0788C11.7189 17.3885 11.6515 17.8035 11.3593 18.0324L8.76704 20.0488C7.91579 20.7018 7.6727 21.8807 8.19636 22.8171L8.40171 23.1897C9.1352 24.535 10.047 26.2088 13.3706 29.5317C16.6942 32.8546 18.3674 33.767 19.7119 34.5006ZM42.5331 25.6609C42.5307 25.8816 42.3502 26.0587 42.1297 26.057H12.1376C11.185 24.9676 10.3635 23.7702 9.68989 22.4892L9.4786 22.1042C9.31012 21.7999 9.39075 21.418 9.66788 21.2078L12.2601 19.1914C13.1567 18.4891 13.3632 17.2159 12.7347 16.2661L10.9919 13.6504V2.9719C10.9907 2.86454 11.0328 2.76122 11.1087 2.68531C11.1846 2.60941 11.2879 2.56729 11.3953 2.5685H42.1296C42.2369 2.56729 42.3403 2.60941 42.4162 2.68531C42.4921 2.76122 42.5342 2.86454 42.533 2.9719V25.6609H42.5331Z" fill="#F6ECA2"/>
<path d="M39.6034 4.49767L27.3441 13.795C26.9973 14.047 26.5276 14.047 26.1807 13.795L13.926 4.49767C13.6032 4.25278 13.1429 4.31604 12.8981 4.6389C12.6532 4.96177 12.7164 5.42207 13.0393 5.66688L25.2955 14.9634C26.1675 15.6076 27.3576 15.6076 28.2296 14.9634L40.4895 5.66688C40.6447 5.54929 40.7467 5.3748 40.7731 5.18191C40.7995 4.98901 40.7482 4.79354 40.6303 4.63856C40.3855 4.3163 39.926 4.25329 39.6034 4.49767Z" fill="#F6ECA2"/>
<path d="M20.5026 15.0251L12.9885 23.0717C12.7123 23.368 12.7285 23.8323 13.0248 24.1086C13.3211 24.3849 13.7854 24.3686 14.0616 24.0723L21.5758 16.022C21.8241 15.7225 21.7953 15.2813 21.5103 15.0165C21.2253 14.7516 20.7831 14.7554 20.5026 15.0251Z" fill="#F6ECA2"/>
<path d="M33.0707 15.025C32.7944 14.7287 32.3303 14.7123 32.0339 14.9887C31.7376 15.265 31.7212 15.7291 31.9976 16.0255L39.5095 24.0722C39.7858 24.3685 40.25 24.3848 40.5464 24.1085C40.8427 23.8322 40.859 23.368 40.5826 23.0716L33.0707 15.025Z" fill="#F6ECA2"/>
</g>
<defs>
<clipPath id="clip0_206_2764">
<rect width="44" height="44" fill="white"/>
</clipPath>
</defs>
</svg>
