<svg width="18" height="20" viewBox="0 0 18 20" fill="none" xmlns="http://www.w3.org/2000/svg">
<path fill-rule="evenodd" clip-rule="evenodd" d="M10.1615 8.60109e-07L13 1.81378e-06C13.2652 1.81378e-06 13.5196 0.105359 13.7071 0.292895L17.7071 4.29289C17.8946 4.48043 18 4.73479 18 5V10.8386C18 11.3657 18 11.8205 17.9694 12.195C17.9371 12.5904 17.8658 12.9836 17.673 13.362C17.3854 13.9265 16.9265 14.3854 16.362 14.673C15.9836 14.8658 15.5904 14.9371 15.195 14.9694C14.8205 15 14.3657 15 13.8385 15H12V17C12 18.6569 10.6569 20 9 20H3C1.34315 20 0 18.6569 0 17V8C0 6.34315 1.34315 5 3 5H6L6 4.16146C5.99998 3.63431 5.99997 3.17955 6.03057 2.80497C6.06287 2.40963 6.13419 2.01641 6.32698 1.63803C6.6146 1.07354 7.07354 0.614602 7.63803 0.326982C8.01641 0.134188 8.40963 0.0628723 8.80497 0.0305713C9.17954 -3.25181e-05 9.63431 -1.70213e-05 10.1615 8.60109e-07ZM6 7H3C2.44772 7 2 7.44772 2 8V17C2 17.5523 2.44772 18 3 18H9C9.55228 18 10 17.5523 10 17V15C9.54097 14.9997 9.14075 14.9969 8.80497 14.9694C8.40963 14.9371 8.01641 14.8658 7.63803 14.673C7.07354 14.3854 6.6146 13.9265 6.32698 13.362C6.13419 12.9836 6.06287 12.5904 6.03057 12.195C5.99997 11.8205 5.99998 11.3657 6 10.8385L6 7ZM8.96784 2.02393C8.69617 2.04612 8.59545 2.0838 8.54601 2.109C8.35785 2.20487 8.20487 2.35785 8.10899 2.54601C8.0838 2.59546 8.04612 2.69617 8.02393 2.96784C8.00078 3.25118 8 3.62345 8 4.2V10.8C8 11.3766 8.00078 11.7488 8.02393 12.0322C8.04612 12.3038 8.0838 12.4045 8.10899 12.454C8.20487 12.6422 8.35785 12.7951 8.54601 12.891C8.59545 12.9162 8.69617 12.9539 8.96784 12.9761C9.25117 12.9992 9.62345 13 10.2 13H13.8C14.3766 13 14.7488 12.9992 15.0322 12.9761C15.3038 12.9539 15.4045 12.9162 15.454 12.891C15.6422 12.7951 15.7951 12.6422 15.891 12.454C15.9162 12.4045 15.9539 12.3038 15.9761 12.0322C15.9992 11.7488 16 11.3766 16 10.8V7L13.5681 7C13.3157 7.00003 13.0699 7.00006 12.8618 6.98306C12.6332 6.96438 12.3634 6.92031 12.092 6.78201C11.7157 6.59027 11.4097 6.28431 11.218 5.90798C11.0797 5.63656 11.0356 5.36683 11.0169 5.13823C10.9999 4.93007 11 4.68427 11 4.43188L11 2H10.2C9.62345 2 9.25117 2.00078 8.96784 2.02393ZM13 2.41422V4.4C13 4.69653 13.0008 4.85878 13.0103 4.97537C13.0107 4.98001 13.0111 4.9844 13.0114 4.98855C13.0156 4.98894 13.02 4.98932 13.0246 4.9897C13.1412 4.99922 13.3035 5 13.6 5H15.5858L13 2.41422Z" fill="#7E5DDD"/>
</svg>
