<svg width="22" height="22" viewBox="0 0 22 22" fill="none" xmlns="http://www.w3.org/2000/svg">
<path fill-rule="evenodd" clip-rule="evenodd" d="M4.82927 5.20575L8.93777 11.8821V17.875C8.93777 18.1304 9.00888 18.3807 9.14312 18.5979C9.27737 18.8151 9.46945 18.9906 9.69785 19.1048C9.92625 19.219 10.1819 19.2674 10.4363 19.2444C10.6906 19.2215 10.9335 19.1282 11.1378 18.975L12.5128 17.9438C12.8593 17.6839 13.0628 17.2769 13.0628 16.8438V11.8821L17.1713 5.20575C17.3635 4.89324 17.469 4.53509 17.4766 4.16825C17.4843 3.8014 17.394 3.43915 17.215 3.11885C17.036 2.79855 16.7748 2.5318 16.4584 2.34611C16.1419 2.16042 15.7816 2.06252 15.4147 2.0625H6.58583C6.21891 2.06252 5.85863 2.16042 5.54217 2.34611C5.2257 2.5318 4.9645 2.79855 4.7855 3.11885C4.60651 3.43915 4.5162 3.8014 4.52389 4.16825C4.53158 4.53509 4.637 4.89324 4.82927 5.20575ZM11.6878 16.8438L10.3128 17.875V11.6875C10.3128 11.5603 10.2776 11.4356 10.211 11.3272L6.00008 4.48525C5.93644 4.38098 5.90167 4.26166 5.89934 4.13953C5.89701 4.0174 5.92719 3.89684 5.9868 3.79022C6.04641 3.68359 6.1333 3.59474 6.23856 3.53276C6.34383 3.47078 6.46368 3.4379 6.58583 3.4375H15.4147C15.5369 3.43768 15.6569 3.47042 15.7623 3.53235C15.8677 3.59428 15.9547 3.68317 16.0144 3.78987C16.074 3.89657 16.1042 4.01723 16.1017 4.13945C16.0993 4.26166 16.0643 4.38102 16.0005 4.48525L11.7895 11.3272C11.7229 11.4356 11.6877 11.5603 11.6878 11.6875V16.8438Z" fill="#7E5DDD"/>
</svg>
