<svg width="18" height="17" viewBox="0 0 18 17" fill="none" xmlns="http://www.w3.org/2000/svg">
<path fill-rule="evenodd" clip-rule="evenodd" d="M9 1.75C5.27208 1.75 2.25 4.77208 2.25 8.5C2.25 12.2279 5.27208 15.25 9 15.25C12.7279 15.25 15.75 12.2279 15.75 8.5C15.75 4.77208 12.7279 1.75 9 1.75ZM0.75 8.5C0.75 3.94365 4.44365 0.25 9 0.25C13.5563 0.25 17.25 3.94365 17.25 8.5C17.25 13.0563 13.5563 16.75 9 16.75C4.44365 16.75 0.75 13.0563 0.75 8.5ZM8.97249 6.125C8.54639 6.125 8.18646 6.41642 8.08466 6.81194C7.98141 7.21308 7.57253 7.45457 7.17139 7.35133C6.77025 7.24808 6.52876 6.8392 6.63201 6.43806C6.90024 5.39589 7.84539 4.625 8.97249 4.625C10.3072 4.625 11.3892 5.70698 11.3892 7.04167C11.3892 7.78624 11.0275 8.28091 10.6392 8.65566C10.4809 8.80839 10.3007 8.95781 10.1359 9.09437C10.1116 9.11452 10.0876 9.13439 10.0641 9.15395C9.87175 9.31396 9.68556 9.47261 9.50284 9.65533C9.20995 9.94822 8.73507 9.94822 8.44218 9.65533C8.14929 9.36244 8.14929 8.88756 8.44218 8.59467C8.67613 8.36072 8.9066 8.16569 9.10486 8.00076C9.13109 7.97895 9.15646 7.95789 9.18104 7.93749C9.35112 7.79631 9.48311 7.68676 9.59749 7.57636C9.83421 7.34789 9.88916 7.21757 9.88916 7.04167C9.88916 6.53541 9.47875 6.125 8.97249 6.125ZM8.22251 11.625C8.22251 11.2108 8.5583 10.875 8.97251 10.875H8.98084C9.39506 10.875 9.73084 11.2108 9.73084 11.625C9.73084 12.0392 9.39506 12.375 8.98084 12.375H8.97251C8.5583 12.375 8.22251 12.0392 8.22251 11.625Z" fill="#FFA538"/>
</svg>
