<svg width="16" height="16" viewBox="0 0 16 16" fill="none" xmlns="http://www.w3.org/2000/svg">
<path fill-rule="evenodd" clip-rule="evenodd" d="M11.5375 2.32662C10.7474 1.53656 9.46644 1.53656 8.67638 2.32662L2.74987 8.25313C1.39547 9.60753 1.39547 11.8034 2.74987 13.1578C4.10426 14.5122 6.30017 14.5122 7.65457 13.1578L13.8282 6.98418C14.1668 6.64558 14.7158 6.64558 15.0544 6.98418C15.393 7.32278 15.393 7.87176 15.0544 8.21036L8.88074 14.384C6.84915 16.4156 3.55529 16.4156 1.52369 14.384C-0.507898 12.3524 -0.507898 9.05855 1.52369 7.02696L7.4502 1.10045C8.91747 -0.366815 11.2964 -0.366815 12.7636 1.10045C14.2309 2.56771 14.2309 4.94661 12.7636 6.41387L6.84662 12.3309C5.94369 13.2338 4.47975 13.2338 3.57682 12.3309C2.67389 11.4279 2.67389 9.96401 3.57682 9.06108L8.97104 3.66686C9.30964 3.32826 9.85862 3.32826 10.1972 3.66686C10.5358 4.00546 10.5358 4.55443 10.1972 4.89303L4.803 10.2872C4.57727 10.513 4.57727 10.879 4.803 11.1047C5.02873 11.3304 5.39472 11.3304 5.62045 11.1047L11.5375 5.1877C12.3275 4.39763 12.3275 3.11668 11.5375 2.32662Z" fill="#7E5DDD"/>
</svg>
