<svg width="20" height="20" viewBox="0 0 20 20" fill="none" xmlns="http://www.w3.org/2000/svg">
<path d="M10.3649 15.8333C4.38584 15.8333 0.975473 11.7668 0.833374 5H3.82838C3.92675 9.96663 6.13475 12.0704 7.88366 12.5042V5H10.7038V9.28345C12.4308 9.0991 14.2453 7.14715 14.8574 5H17.6775C17.4469 6.11357 16.9871 7.16795 16.3269 8.09717C15.6668 9.0264 14.8204 9.81049 13.8409 10.4004C14.9343 10.9394 15.9001 11.7024 16.6745 12.6389C17.4489 13.5754 18.0143 14.6641 18.3334 15.8333H15.2291C14.9426 14.8178 14.3604 13.9087 13.5554 13.22C12.7504 12.5314 11.7584 12.0937 10.7038 11.962V15.8333H10.3649Z" fill="#0077FF"/>
</svg>
