<svg width="128" height="128" viewBox="0 0 128 128" fill="none" xmlns="http://www.w3.org/2000/svg">
<g clip-path="url(#clip0_209_7374)">
<path d="M93.7824 40.4558C93.3438 37.9221 93.2679 36.2138 93.1951 35.4756C93.3662 35.4323 93.544 35.4015 93.7083 35.3456C95.6933 34.6999 96.8561 33.0061 97.1326 31.5619C97.4275 30.0916 97.0159 28.9038 96.601 28.2523C96.1793 27.5882 95.7959 27.357 95.6963 27.4429C95.5774 27.523 95.7356 27.9076 95.8887 28.5541C96.035 29.1881 96.1337 30.1553 95.7619 31.1811C95.4152 32.1934 94.5013 33.2351 93.1773 33.5742C91.892 33.9248 90.2634 33.4558 89.3524 32.2126C88.4094 30.9703 88.4234 29.2785 89.1238 28.1409C89.804 26.9656 91.0566 26.3734 92.1272 26.3163C93.2229 26.2457 94.1018 26.6155 94.6793 26.9367C95.2569 27.258 95.5774 27.523 95.6963 27.4429C95.8027 27.3695 95.7006 26.9385 95.1726 26.3478C94.6639 25.7628 93.6403 25.0335 92.1496 24.9115C90.6898 24.7567 88.7308 25.4208 87.569 27.1464C86.3928 28.815 86.2737 31.4864 87.7475 33.4151C88.1596 33.971 88.6771 34.4217 89.2363 34.769C88.9182 35.0209 88.4957 35.4099 87.9889 35.9738C86.9754 37.1015 85.7469 38.9439 84.6705 41.401C83.5748 43.8523 82.6312 46.9182 81.8642 50.3427C81.6896 51.1329 81.516 51.955 81.3492 52.7896L81.325 52.835C81.2989 52.8166 81.1937 52.7112 81.1348 52.6619L81.0363 52.5691L80.5526 52.1812C80.1605 51.8737 79.7685 51.5661 79.3765 51.2585C78.5615 50.6762 77.7523 50.0746 76.8871 49.5193C70.0154 45.05 63.029 42.537 57.9675 41.0141C54.6649 40.052 52.1416 39.5456 50.7582 39.3821C51.3443 38.6947 51.7101 37.8988 51.8354 37.1675C52.1303 35.6973 51.7187 34.5095 51.3037 33.8579C50.8821 33.1938 50.4987 32.9626 50.3991 33.0485C50.2802 33.1286 50.4383 33.5133 50.5914 34.1598C50.7378 34.7937 50.8365 35.7609 50.4647 36.7867C50.1179 37.799 49.204 38.8408 47.8927 39.173C46.6074 39.5237 44.9788 39.0547 44.0677 37.8115C43.1247 36.5692 43.1387 34.8774 43.8391 33.7398C44.5193 32.5645 45.772 31.9723 46.8425 31.9152C47.9382 31.8446 48.8172 32.2144 49.3947 32.5356C49.9722 32.8569 50.2928 33.1219 50.4117 33.0418C50.518 32.9684 50.4159 32.5374 49.8879 31.9467C49.3792 31.3617 48.3557 30.6324 46.8649 30.5104C45.4052 30.3556 43.4462 31.0197 42.2844 32.7453C41.1081 34.4139 40.9891 37.0853 42.4629 39.014C43.8864 40.9698 46.4907 41.627 48.4303 40.957C48.6768 40.8732 48.9165 40.7768 49.1494 40.6678C48.8738 42.1439 48.5702 44.8335 48.5991 48.4132C48.6564 54.0345 49.4733 61.8226 51.9061 70.0864C52.2299 71.1108 52.5344 72.1294 52.8892 73.121C53.0695 73.6071 53.2439 74.1126 53.4242 74.5987L53.5476 74.8887C53.6026 75.0211 53.6026 75.0211 53.5833 75.0153L53.5514 75.0162L52.9302 74.9452C51.9506 74.84 50.997 74.7533 50.0512 74.711C46.2987 74.5089 42.9245 74.7998 40.1358 75.2459C34.5534 76.1892 31.3618 77.6938 31.4447 77.9084C31.543 78.2118 34.8579 77.2078 40.324 76.6509C43.0546 76.398 46.3311 76.2567 49.9395 76.5524C50.8351 76.6217 51.7568 76.7094 52.6987 76.8348L53.5189 76.9447L54.9487 77.1642L56.3978 77.3895L56.5775 77.4225C56.6093 77.4216 56.648 77.4332 56.6605 77.4265L56.6326 77.3443L56.515 77.035L56.2604 76.4107C55.9229 75.5718 55.598 74.7261 55.2605 73.8872C55.087 73.4136 54.926 72.9333 54.7525 72.4597C54.3987 71.5 54.1203 70.4998 53.7974 69.5072C51.4407 61.4454 50.3996 53.8427 49.9886 48.3467C49.7028 44.5001 49.7351 41.6972 49.6821 40.3329C49.9199 40.1727 50.1258 40.0135 50.3308 39.8224C51.5449 40.3035 54.0708 41.1162 57.5161 42.3741C62.4016 44.2022 69.1636 46.9005 75.7881 51.2112C76.6206 51.7355 77.4036 52.3188 78.1858 52.8701C78.5711 53.1651 78.937 53.4543 79.3155 53.7367L79.5965 53.9582C79.6815 54.0259 79.7665 54.0936 79.9625 54.2474L80.9318 55.0868L81.8944 55.9137L82.3724 56.3209L82.608 56.5182C82.6447 56.466 82.6526 56.2998 82.6816 56.2032C82.8466 55.3048 82.999 54.4132 83.1515 53.5215C83.3339 52.5651 83.4979 51.6348 83.6687 50.7171C84.3285 47.3341 85.1019 44.3434 85.9812 41.9113C87.3051 38.1066 88.988 35.8741 89.5926 34.95C90.6753 35.518 91.9002 35.718 93.0047 35.5131C92.9669 35.744 92.9376 36.0512 92.9112 36.4541C92.8747 37.3807 92.8581 38.7662 93.0509 40.5412C93.2436 42.3162 93.6516 44.4615 94.3423 46.892C95.0331 49.3225 96 52.0257 97.1841 54.9522C98.2948 57.7725 99.7252 60.8258 101.609 63.8785C100.542 64.5163 98.3799 66.0672 95.4389 68.2793C91.3243 71.3813 85.63 75.6723 79.3363 80.415C73.0359 85.1451 67.3474 89.4168 63.2202 92.5255C60.3112 94.7367 58.2277 96.3746 57.3082 97.225C57.2947 97.1999 57.2754 97.1941 57.2619 97.1689C54.5993 94.5349 51.9103 92.3037 49.3031 90.4659C44.0954 86.8027 39.3793 84.6568 36.0683 83.4078C32.8287 82.2013 30.9343 81.8104 30.8154 81.8905C31.1879 81.3178 31.4444 80.7103 31.5492 80.1519C31.8441 78.6816 31.4325 77.4939 31.0176 76.8423C30.5959 76.1782 30.2125 75.947 30.1129 76.0329C29.994 76.113 30.1522 76.4977 30.3053 77.1442C30.4516 77.7781 30.5503 78.7453 30.1785 79.7711C29.8318 80.7834 28.9179 81.8251 27.6065 82.1574C26.3212 82.508 24.6926 82.0391 23.7815 80.7958C22.8386 79.5535 22.8525 77.8618 23.553 76.7242C24.2332 75.5489 25.4858 74.9567 26.5564 74.8996C27.6521 74.829 28.531 75.1988 29.1085 75.52C29.686 75.8412 30.0066 76.1062 30.1255 76.0261C30.2318 75.9528 30.1298 75.5218 29.6018 74.931C29.0931 74.3461 28.0695 73.6167 26.5788 73.4948C25.119 73.3399 23.16 74.004 21.9982 75.7297C20.822 77.3983 20.7029 80.0697 22.1767 81.9984C23.6002 83.9541 26.2045 84.6113 28.1442 83.9414C29.3455 83.555 30.2417 82.7818 30.8222 81.903C30.8462 82.0683 32.665 82.7103 35.7894 84.1244C38.966 85.5753 43.4955 87.8863 48.4944 91.613C50.9808 93.4672 53.5616 95.708 56.1025 98.3265C57.3729 99.6357 58.6462 101.041 59.9029 102.535C60.5313 103.283 61.1538 104.049 61.7706 104.835C62.0167 105.173 62.5273 105.822 63.1425 106.123C63.7586 106.455 64.4967 106.593 65.2088 106.502C65.5712 106.453 65.9124 106.334 66.2458 106.171C66.4159 106.096 66.5658 105.983 66.7098 105.89L67.0221 105.657C67.4407 105.351 67.8651 105.026 68.2963 104.713C69.1519 104.075 70.02 103.431 70.8882 102.786C72.6371 101.49 74.4169 100.161 76.2276 98.7989C79.8559 96.0878 83.5964 93.2841 87.4364 90.3945C95.1088 84.5708 102.413 79.026 109.061 73.9793C109.179 73.8673 109.297 73.7553 109.445 73.5786C109.586 73.3894 109.714 73.175 109.784 72.9431C109.943 72.4853 109.83 71.9142 109.654 71.5556C109.328 70.8887 108.966 70.5164 108.615 70.1055C107.973 69.333 107.345 68.5856 106.717 67.8382C106.088 67.0909 105.479 66.3493 104.871 65.6396C104.281 64.9039 103.774 64.1402 103.266 63.3765C101.262 60.3401 99.7484 57.2828 98.5149 54.4152C95.9022 48.7097 94.3564 43.9046 93.7824 40.4558ZM57.5997 97.5866C58.7509 97.0165 60.9829 95.6551 63.9951 93.6962C68.322 90.8688 74.1882 86.7769 80.4944 82.0275C86.8007 77.2781 92.3483 72.7744 96.2699 69.4036C99.0148 67.0378 100.941 65.2577 101.806 64.3067C102.308 65.0897 102.823 65.8979 103.407 66.6529C103.679 66.9768 103.951 67.3326 104.229 67.6691C101.657 69.2129 92.8394 76.0086 82.2117 83.9873C71.6158 91.9652 62.6569 98.5289 60.4262 100.586C59.4764 99.5418 58.5342 98.542 57.5997 97.5866ZM107.902 72.3348C107.95 72.4547 107.923 72.4044 107.931 72.4489C107.931 72.4489 107.92 72.4875 107.746 72.6458C101.108 77.6221 93.8269 83.0896 86.171 88.8234C82.331 91.713 78.5973 94.5293 74.9825 97.2655C73.1718 98.6273 71.4054 99.9814 69.6759 101.283C68.8145 101.941 67.9531 102.598 67.0975 103.236C66.6731 103.561 66.2487 103.886 65.83 104.192L65.5178 104.425C65.4491 104.478 65.3931 104.524 65.3109 104.552C65.1727 104.627 65.021 104.676 64.875 104.706C64.5571 104.747 64.2238 104.699 63.9447 104.542C63.6338 104.385 63.488 104.204 63.1232 103.736C62.4804 102.932 61.8259 102.166 61.1782 101.413C61.0392 101.244 60.8944 101.096 60.7496 100.947C61.9008 100.377 64.1019 99.0479 67.0764 97.1093C71.3598 94.3215 77.1699 90.276 83.4075 85.5796C89.6451 80.8833 95.1434 76.4385 99.0147 73.0948C101.76 70.7289 103.673 68.9556 104.52 68.0307C104.765 68.3362 105.011 68.6417 105.256 68.9472C105.885 69.7265 106.514 70.5057 107.17 71.3033C107.461 71.6649 107.792 72.07 107.902 72.3348Z" fill="white"/>
<path d="M46.3203 62.0431C46.5841 61.9013 45.1728 59.275 44.6597 55.7287C44.1022 52.1901 44.6543 49.2698 44.3587 49.2019C44.126 49.1003 43.0849 52.1052 43.6683 55.8729C44.2333 59.6665 46.1211 62.2149 46.3203 62.0431Z" fill="white"/>
<path d="M41.7942 56.8155C41.3699 53.4644 41.4736 50.7041 41.179 50.6681C40.9162 50.6312 40.3612 53.4559 40.7893 56.9345C41.2048 60.4198 42.424 63.0198 42.6637 62.9234C42.9478 62.8193 42.1992 60.1607 41.7942 56.8155Z" fill="white"/>
<path d="M101.185 36.51C100.94 36.447 100.272 39.5431 101.306 43.2145C102.327 46.8926 104.501 49.19 104.681 49.0124C104.924 48.8329 103.212 46.4006 102.262 42.9438C101.286 39.5005 101.485 36.5267 101.185 36.51Z" fill="white"/>
<path d="M98.602 44.6026C99.4301 48.0119 100.963 50.4431 101.19 50.3216C101.448 50.1991 100.371 47.6523 99.5713 44.357C98.7469 41.0752 98.5124 38.3185 98.2129 38.3337C97.951 38.3286 97.742 41.1942 98.602 44.6026Z" fill="white"/>
</g>
<defs>
<clipPath id="clip0_209_7374">
<rect width="94.1523" height="94.1523" fill="white" transform="translate(0.326172 44.6541) rotate(-28.2541)"/>
</clipPath>
</defs>
</svg>
