<svg width="120" height="120" viewBox="0 0 120 120" fill="none" xmlns="http://www.w3.org/2000/svg">
<g clip-path="url(#clip0_119_5204)">
<path d="M92.8161 41.5709C92.8133 38.9996 93.028 37.3032 93.0814 36.5633C93.2573 36.5495 93.4378 36.5494 93.6091 36.5221C95.6749 36.2222 97.1079 34.75 97.6252 33.3735C98.1651 31.9745 97.9607 30.7342 97.6622 30.0217C97.3592 29.2957 97.0205 29.0029 96.9078 29.0707C96.7771 29.1295 96.8677 29.5354 96.909 30.1985C96.9458 30.848 96.8792 31.818 96.3389 32.7659C95.8256 33.7048 94.7484 34.5766 93.3861 34.6863C92.06 34.814 90.5344 34.0758 89.8473 32.6962C89.1285 31.312 89.429 29.6471 90.3121 28.6447C91.1816 27.6016 92.5165 27.2303 93.5813 27.3555C94.6731 27.4716 95.4766 27.985 95.9914 28.3995C96.5061 28.814 96.7771 29.1295 96.9078 29.0707C97.0251 29.0164 96.9975 28.5743 96.5773 27.9026C96.1751 27.2399 95.2899 26.3477 93.8415 25.9748C92.429 25.5748 90.3858 25.8973 88.9484 27.401C87.5064 28.8461 86.9362 31.4587 88.0618 33.6093C88.3738 34.227 88.8074 34.7589 89.2996 35.1959C88.9434 35.3903 88.461 35.7021 87.8661 36.1719C86.6761 37.1115 85.1531 38.7191 83.6758 40.9582C82.1805 43.1883 80.731 46.0499 79.3947 49.2949C79.0887 50.044 78.7783 50.8248 78.4724 51.6191L78.4408 51.6597C78.4182 51.6372 78.3324 51.5155 78.2827 51.4569L78.2014 51.3487L77.7904 50.8845C77.4562 50.5149 77.1219 50.1454 76.7877 49.7758C76.0832 49.0638 75.3877 48.3338 74.6291 47.6399C68.6143 42.0705 62.1549 38.4099 57.4247 36.0511C54.333 34.5432 51.932 33.6164 50.5963 33.2209C51.2904 32.6427 51.7859 31.9204 52.0332 31.2209C52.5731 29.8219 52.3687 28.5815 52.0702 27.8691C51.7672 27.1431 51.4286 26.8502 51.3159 26.918C51.1851 26.9768 51.2758 27.3827 51.3171 28.0458C51.3539 28.6954 51.2872 29.6654 50.7469 30.6133C50.2336 31.5521 49.1564 32.4239 47.8077 32.5291C46.4815 32.6569 44.956 31.9187 44.2688 30.539C43.5501 29.1549 43.8505 27.4899 44.7336 26.4875C45.6032 25.4445 46.9381 25.0732 48.0028 25.1983C49.0947 25.3144 49.8982 25.8279 50.4129 26.2423C50.9276 26.6568 51.1986 26.9723 51.3294 26.9135C51.4466 26.8592 51.4191 26.4172 50.9988 25.7455C50.5966 25.0828 49.7115 24.1905 48.263 23.8176C46.8506 23.4177 44.8074 23.7401 43.3699 25.2439C41.9279 26.689 41.3578 29.3016 42.4834 31.4522C43.5548 33.6209 46.0101 34.71 48.0352 34.3785C48.2923 34.3376 48.5449 34.2832 48.7929 34.2153C48.2711 35.6233 47.516 38.2225 46.9379 41.7554C46.0416 47.3051 45.5267 55.1189 46.5238 63.6755C46.6693 64.74 46.7967 65.7954 46.9783 66.8328C47.0735 67.3425 47.1598 67.8702 47.2551 68.3798L47.3276 68.6865C47.3593 68.8263 47.3593 68.8263 47.3413 68.8173L47.3097 68.8129L46.7095 68.6376C45.7619 68.3679 44.8368 68.1208 43.9118 67.9188C40.2479 67.0836 36.8733 66.7985 34.0492 66.7655C28.3877 66.749 24.9873 67.6909 25.0327 67.9164C25.0781 68.2322 28.5152 67.8044 33.9966 68.182C36.7306 68.3956 39.9836 68.8117 43.4897 69.7147C44.3606 69.9348 45.2541 70.1774 46.1611 70.4607L46.9508 70.7079L48.3227 71.1666L49.7127 71.6343L49.8841 71.6972C49.9157 71.7017 49.9518 71.7197 49.9654 71.7152L49.9517 71.6295L49.8882 71.3048L49.7432 70.6463C49.5528 69.7623 49.3759 68.8738 49.1855 67.9898C49.0947 67.4937 49.0175 66.993 48.9267 66.4969C48.7407 65.4911 48.6358 64.4582 48.4859 63.4253C47.5296 55.0807 47.792 47.4114 48.3185 41.9253C48.6888 38.0859 49.1956 35.3291 49.3746 33.9755C49.6361 33.858 49.8661 33.7359 50.1005 33.5823C51.2155 34.2623 53.5671 35.4913 56.7494 37.3149C61.2543 39.9446 67.4612 43.7499 73.2593 49.121C73.9908 49.7788 74.6637 50.4864 75.3411 51.1623C75.6708 51.5183 75.9825 51.8653 76.3076 52.2078L76.547 52.4737C76.6193 52.5549 76.6915 52.636 76.8587 52.8208L77.6717 53.8124L78.4803 54.7904L78.8823 55.2727L79.081 55.507C79.1261 55.4619 79.162 55.2994 79.207 55.2092C79.5219 54.3517 79.8232 53.4988 80.1245 52.6459C80.4664 51.7342 80.7857 50.8452 81.1096 49.9697C82.3332 46.7474 83.6023 43.9311 84.8811 41.6832C86.8306 38.1579 88.8676 36.243 89.6201 35.4347C90.5908 36.178 91.7641 36.5827 92.8874 36.568C92.811 36.7891 92.7301 37.0869 92.6358 37.4795C92.4428 38.3865 92.1916 39.7491 92.0807 41.5311C91.9698 43.3131 92.0083 45.4965 92.2771 48.0089C92.546 50.5213 93.0407 53.3493 93.7117 56.4342C94.3284 59.4019 95.2205 62.6535 96.5594 65.9813C95.4005 66.4291 93.0063 67.591 89.733 69.2727C85.1522 71.6324 78.8131 74.8962 71.8066 78.5036C64.7956 82.0975 58.4654 85.3433 53.8711 87.7075C50.6294 89.3937 48.2985 90.6548 47.2481 91.3371C47.239 91.31 47.221 91.301 47.2119 91.274C45.0343 88.2268 42.7624 85.5721 40.5044 83.319C35.9929 78.8262 31.7087 75.9121 28.6573 74.1199C25.669 72.3818 23.8683 71.6755 23.7376 71.7342C24.2017 71.233 24.5575 70.6778 24.7554 70.1452C25.2952 68.7462 25.0909 67.5058 24.7924 66.7934C24.4894 66.0674 24.1507 65.7746 24.038 65.8424C23.9073 65.9012 23.9979 66.3071 24.0392 66.9701C24.076 67.6197 24.0094 68.5897 23.4691 69.5376C22.9558 70.4765 21.8786 71.3483 20.5298 71.4535C19.2037 71.5812 17.6781 70.843 16.991 69.4633C16.2722 68.0792 16.5727 66.4142 17.4558 65.4118C18.3253 64.3688 19.6602 63.9975 20.725 64.1227C21.8168 64.2388 22.6203 64.7522 23.1351 65.1667C23.6498 65.5811 23.9208 65.8966 24.0515 65.8378C24.1688 65.7836 24.1412 65.3415 23.721 64.6698C23.3188 64.0071 22.4336 63.1148 20.9852 62.742C19.5727 62.342 17.5295 62.6645 16.0921 64.1682C14.6501 65.6133 14.0799 68.2259 15.2055 70.3765C16.277 72.5452 18.7322 73.6343 20.7574 73.3028C22.0068 73.1255 23.0211 72.5154 23.7421 71.7478C23.7378 71.9147 25.4214 72.8557 28.261 74.7789C31.1457 76.7472 35.218 79.7924 39.513 84.3125C41.6492 86.5613 43.8128 89.207 45.8731 92.2182C46.9033 93.7239 47.92 95.3242 48.9052 97.0103C49.3979 97.8534 49.8815 98.7145 50.3561 99.5937C50.5415 99.9679 50.9347 100.694 51.49 101.095C52.0408 101.527 52.7448 101.788 53.4622 101.819C53.8276 101.832 54.1839 101.773 54.5402 101.669C54.7206 101.624 54.8874 101.538 55.0452 101.47L55.3924 101.293C55.8568 101.063 56.3302 100.814 56.8081 100.579C57.7594 100.096 58.7243 99.6073 59.6892 99.119C61.6324 98.138 63.6117 97.1299 65.6271 96.0947C69.6624 94.0378 73.8239 91.9086 78.0981 89.7116C86.6465 85.2725 94.7846 81.0459 102.192 77.199C102.328 77.1086 102.463 77.0182 102.639 76.8692C102.81 76.7066 102.972 76.517 103.08 76.3003C103.314 75.876 103.3 75.2941 103.187 74.9107C102.979 74.1982 102.685 73.77 102.409 73.3056C101.908 72.4355 101.415 71.5924 100.922 70.7494C100.43 69.9063 99.9551 69.0723 99.476 68.2698C99.0195 67.4447 98.6487 66.6061 98.2779 65.7674C96.8172 62.4352 95.8438 59.1657 95.1143 56.1305C93.5064 50.0647 92.7973 45.0671 92.8161 41.5709ZM47.4741 91.7428C48.7052 91.3761 51.1357 90.4126 54.4364 88.9926C59.1799 86.9395 65.6547 83.901 72.6746 80.2891C79.6946 76.6772 85.9253 73.1789 90.3614 70.5216C93.4676 68.6552 95.6675 67.2273 96.6817 66.4368C97.0435 67.2935 97.4144 68.1773 97.8619 69.0204C98.0743 69.3856 98.2822 69.7823 98.4992 70.161C95.7034 71.2467 85.8611 76.4496 74.0349 82.5117C62.2402 88.5783 52.2984 93.5286 49.7514 95.1779C48.9922 93.9878 48.2331 92.8428 47.4741 91.7428ZM101.329 75.3819C101.356 75.5082 101.338 75.4541 101.338 75.4992C101.338 75.4992 101.32 75.5353 101.122 75.6618C93.7363 79.441 85.6342 83.5955 77.1173 87.9488C72.8431 90.1458 68.6861 92.2885 64.6599 94.3725C62.6445 95.4077 60.6742 96.4429 58.749 97.4329C57.7887 97.9346 56.8284 98.4364 55.877 98.9201C55.4036 99.1687 54.9302 99.4173 54.4658 99.6479L54.1186 99.8242C54.042 99.8649 53.9789 99.9011 53.8932 99.9147C53.7444 99.9645 53.5865 99.9872 53.4376 99.9919C53.1173 99.9787 52.7969 99.8753 52.5486 99.6725C52.2687 99.4653 52.1557 99.2624 51.8754 98.7394C51.3782 97.8377 50.863 96.9722 50.3524 96.1201C50.2439 95.9307 50.1264 95.7594 50.009 95.5881C51.2401 95.2214 53.6345 94.285 56.8946 92.8786C61.5885 90.8571 68.0002 87.8548 74.9435 84.2836C81.8869 80.7123 88.0589 77.2637 92.4409 74.6245C95.5471 72.7581 97.7335 71.3347 98.7251 70.5668C98.915 70.9094 99.1048 71.2521 99.2946 71.5947C99.7828 72.4694 100.271 73.344 100.782 74.2412C101.008 74.6469 101.265 75.1023 101.329 75.3819Z" fill="white"/>
<path d="M42.3824 54.802C42.6665 54.7069 41.7206 51.8795 41.8161 48.2975C41.8664 44.7156 42.9055 41.9311 42.6256 41.8141C42.4135 41.6745 40.8781 44.4595 40.8146 48.2715C40.7284 52.1061 42.157 54.9375 42.3824 54.802Z" fill="white"/>
<path d="M38.8079 48.8827C38.9577 45.5082 39.5277 42.8054 39.2434 42.72C38.9907 42.6391 37.965 45.3288 37.7973 48.8296C37.6161 52.335 38.377 55.104 38.6295 55.0496C38.9272 54.9952 38.6401 52.2482 38.8079 48.8827Z" fill="white"/>
<path d="M100.78 38.9369C100.55 38.8334 99.3665 41.7714 99.763 45.5649C100.146 49.3629 101.899 51.9955 102.107 51.8509C102.377 51.7153 101.102 49.028 100.751 45.4601C100.373 41.9012 101.073 39.0043 100.78 38.9369Z" fill="white"/>
<path d="M96.8632 46.4747C97.1016 49.9751 98.2006 52.631 98.4441 52.5496C98.7192 52.4726 98.0893 49.7801 97.8601 46.397C97.6039 43.0229 97.84 40.2663 97.5423 40.2306C97.2851 40.1812 96.5933 42.9699 96.8632 46.4747Z" fill="white"/>
</g>
<defs>
<clipPath id="clip0_119_5204">
<rect width="94.1523" height="94.1523" fill="white" transform="translate(0 29.8691) rotate(-18.4963)"/>
</clipPath>
</defs>
</svg>
