<svg width="109" height="107" viewBox="0 0 109 107" fill="none" xmlns="http://www.w3.org/2000/svg">
<g clip-path="url(#clip0_330_12565)">
<path d="M93.0434 61.7101C95.8538 56.5526 96.116 49.9437 93.726 44.4783C91.7046 39.8521 88.0056 36.6234 83.3145 35.3743C77.2724 33.7797 72.0789 34.5975 66.5754 35.4712C65.7331 35.6071 64.8641 35.7414 63.995 35.8757C63.425 34.4566 62.9161 33.0039 62.4265 31.5895C60.25 25.3565 58.0059 18.9071 50.5641 15.5576C41.2433 11.3432 33.5567 17.3213 30.6872 20.092C23.0974 27.3976 21.9384 40.9652 27.2309 60.4511C30.226 71.4462 33.7052 77.491 38.8778 80.6424L39.1898 80.8201C43.194 83.1008 48.6665 83.1806 56.8583 81.102L57.2788 80.9995C69.6403 77.8619 86.5653 73.5614 93.0434 61.7101ZM56.8469 79.3443L56.4263 79.4468C48.5134 81.4518 43.385 81.3764 39.7901 79.1783C35.0899 76.3097 31.7323 70.3888 28.8998 59.9926C23.7771 41.1643 24.7892 28.1559 31.8987 21.3156C34.5109 18.795 41.5039 13.3385 49.851 17.1078C50.3639 17.3452 50.8499 17.581 51.3179 17.8475C56.9238 21.0405 58.8121 26.4391 60.8003 32.1408C61.3783 33.7834 61.9635 35.4847 62.6487 37.1336C62.799 37.4929 63.1839 37.7121 63.5744 37.6609C64.6923 37.5041 65.779 37.3296 66.8657 37.1551C72.4125 36.2786 77.199 35.5164 82.8811 37.0153C87.0485 38.1167 90.3379 41.0026 92.147 45.1385C94.3395 50.1358 94.0963 56.1672 91.5278 60.8878C85.4011 72.0912 68.9027 76.2789 56.8469 79.3443Z" fill="white"/>
<path d="M84.8742 49.0127C84.6268 48.3929 84.436 48.0791 84.3808 48.1024C84.2272 48.1517 84.8661 49.5006 84.8245 51.7752C84.8218 54.031 83.9302 57.1895 81.8188 59.968C79.6806 62.7448 77.0309 64.6421 75.1213 65.9622C73.1908 67.2704 71.9494 68.0409 72.013 68.1455C72.0618 68.228 73.4051 67.6388 75.4364 66.4427C77.4468 65.2347 80.2453 63.3675 82.478 60.4529C84.7166 57.528 85.5571 54.1488 85.4115 51.7675C85.3499 50.5696 85.1217 49.6325 84.8742 49.0127Z" fill="white"/>
<path d="M36.8807 22.306C36.838 22.2133 36.1637 22.4175 35.2077 23.0085C34.2517 23.5994 33.0687 24.6494 32.1148 26.0897C31.1669 27.5198 30.6775 29.0196 30.5191 30.1196C30.3443 31.2239 30.4425 31.9091 30.5393 31.9096C30.785 31.94 30.9939 29.2135 32.8144 26.5293C34.5725 23.8095 37.0079 22.5153 36.8807 22.306Z" fill="white"/>
</g>
<defs>
<clipPath id="clip0_330_12565">
<rect width="78.997" height="78.4632" fill="white" transform="matrix(0.868936 0.494924 -0.505093 0.863065 39.6309 0)"/>
</clipPath>
</defs>
</svg>
