<svg width="81" height="79" viewBox="0 0 81 79" fill="none" xmlns="http://www.w3.org/2000/svg">
<g clip-path="url(#clip0_119_5199)">
<path d="M68.7798 45.6172C70.8572 41.8047 71.051 36.9193 69.2843 32.8791C67.7901 29.4594 65.0557 27.0727 61.588 26.1493C57.1215 24.9706 53.2824 25.5751 49.2141 26.2209C48.5915 26.3214 47.9491 26.4207 47.3066 26.52C46.8852 25.4709 46.5091 24.3971 46.1471 23.3515C44.5382 18.7439 42.8794 13.9764 37.3783 11.5004C30.4881 8.38505 24.8061 12.8042 22.6849 14.8524C17.0744 20.2528 16.2176 30.2822 20.1299 44.6865C22.344 52.8143 24.9159 57.2827 28.7396 59.6123L28.9702 59.7436C31.9302 61.4296 35.9755 61.4886 42.031 59.952L42.3419 59.8762C51.4797 57.5569 63.991 54.3779 68.7798 45.6172ZM42.0226 58.6527L41.7117 58.7285C35.8624 60.2106 32.0714 60.1548 29.4139 58.53C25.9395 56.4095 23.4574 52.0327 21.3636 44.3476C17.5768 30.4294 18.325 20.8134 23.5804 15.7568C25.5114 13.8936 30.6808 9.86002 36.8511 12.6464C37.2302 12.8218 37.5895 12.9961 37.9355 13.1932C42.0795 15.5535 43.4753 19.5442 44.945 23.7591C45.3723 24.9733 45.8049 26.2309 46.3114 27.4498C46.4225 27.7154 46.707 27.8774 46.9957 27.8396C47.8221 27.7237 48.6254 27.5947 49.4287 27.4657C53.529 26.8178 57.0673 26.2543 61.2676 27.3624C64.3482 28.1765 66.7798 30.3098 68.1171 33.3672C69.7378 37.0612 69.558 41.5198 67.6593 45.0094C63.1304 53.2911 50.9345 56.3867 42.0226 58.6527Z" fill="white"/>
<path d="M62.7404 36.231C62.5574 35.7728 62.4164 35.5408 62.3756 35.558C62.262 35.5945 62.7343 36.5916 62.7036 38.2731C62.7016 39.9406 62.0425 42.2754 60.4817 44.3293C58.9011 46.382 56.9424 47.7845 55.5308 48.7603C54.1037 49.7274 53.1861 50.297 53.2331 50.3743C53.2692 50.4353 54.2622 49.9997 55.7637 49.1155C57.2499 48.2226 59.3186 46.8423 60.969 44.6877C62.6239 42.5256 63.2452 40.0277 63.1375 38.2674C63.0919 37.3818 62.9233 36.6891 62.7404 36.231Z" fill="white"/>
<path d="M27.2623 16.4889C27.2307 16.4204 26.7323 16.5713 26.0256 17.0082C25.3189 17.445 24.4444 18.2212 23.7393 19.2859C23.0386 20.3431 22.6768 21.4517 22.5597 22.2648C22.4305 23.0812 22.5031 23.5877 22.5747 23.588C22.7563 23.6106 22.9107 21.595 24.2564 19.6108C25.5561 17.6003 27.3563 16.6436 27.2623 16.4889Z" fill="white"/>
</g>
<defs>
<clipPath id="clip0_119_5199">
<rect width="58.396" height="58.0014" fill="white" transform="matrix(0.868936 0.494924 -0.505093 0.863065 29.2959 0)"/>
</clipPath>
</defs>
</svg>
