<svg width="200" height="198" viewBox="0 0 200 198" fill="none" xmlns="http://www.w3.org/2000/svg">
<g clip-path="url(#clip0_119_5194)">
<path d="M149.366 44.9116C143.599 35.7149 133.127 29.1986 122.06 27.9228C112.693 26.8404 104.043 29.6955 97.6863 35.9438C89.522 44.0048 86.0521 52.9543 82.3866 62.4448C81.8292 63.8992 81.2445 65.3945 80.6598 66.8897C77.8326 66.4788 75.0077 65.9402 72.2625 65.4068C60.1476 63.0853 47.6197 60.6706 35.3178 69.3198C19.8784 80.1348 22.4725 97.7831 24.3146 104.869C29.1501 123.591 50.0757 137.948 86.5535 147.59C107.144 153.017 120.157 153.109 130.043 147.858L130.619 147.53C138.014 143.318 143.196 134.757 147.391 119.912L147.613 119.154C153.941 96.7524 162.597 66.0766 149.366 44.9116ZM144.531 118.307L144.309 119.065C140.252 133.402 135.394 141.424 128.511 145.067C119.521 149.834 106.821 149.664 87.3513 144.534C52.0965 135.23 31.9417 121.622 27.417 104.088C25.7428 97.6385 23.3539 81.5661 37.1725 71.8763C38.0309 71.2863 38.8619 70.7372 39.7263 70.2449C50.0792 64.3481 60.575 66.3537 71.6547 68.4817C74.8513 69.0864 78.1499 69.7341 81.4559 70.1755C82.1771 70.2701 82.8878 69.8653 83.1654 69.2019C83.9435 67.2932 84.6641 65.4175 85.3846 63.5417C89.0856 53.9804 92.2697 45.7242 99.9466 38.143C105.58 32.5845 113.296 30.0592 121.672 31.0238C131.798 32.1789 141.352 38.1321 146.633 46.5438C159.139 66.5558 150.693 96.4545 144.531 118.307Z" fill="white"/>
<path d="M121.236 46.0773C120.003 45.8954 119.318 45.9066 119.305 46.0152C119.243 46.3032 122.02 46.5407 125.669 48.7066C129.324 50.7939 133.621 55.1173 136.176 61.0144C138.703 66.9523 139.332 72.8849 139.709 77.117C140.048 81.371 140.15 84.0411 140.379 84.0374C140.557 84.0366 140.843 81.3729 140.779 77.0635C140.677 72.7759 140.234 66.6361 137.571 60.422C134.896 54.189 130.194 49.7425 126.199 47.7734C124.2 46.7645 122.47 46.2591 121.236 46.0773Z" fill="white"/>
<path d="M33.6226 97.1425C33.4327 97.1243 33.1412 98.3767 33.2165 100.431C33.2918 102.485 33.9016 105.321 35.3559 108.156C36.7991 110.972 38.7786 113.129 40.4157 114.395C42.0446 115.691 43.2462 116.168 43.3363 116.016C43.6125 115.657 39.3851 112.809 36.7145 107.458C33.9287 102.173 34.0792 97.135 33.6226 97.1425Z" fill="white"/>
</g>
<defs>
<clipPath id="clip0_119_5194">
<rect width="145.891" height="144.906" fill="white" transform="matrix(0.868936 -0.494924 0.505093 0.863065 0 72.2051)"/>
</clipPath>
</defs>
</svg>
