<svg width="156" height="156" viewBox="0 0 156 156" fill="none" xmlns="http://www.w3.org/2000/svg">
<g clip-path="url(#clip0_330_12570)">
<path d="M94.819 32.3792C94.6504 32.6775 96.9424 34.0695 98.8291 36.6582C100.772 39.2089 101.431 41.8032 101.776 41.7355C102.082 41.7341 101.889 38.7646 99.7751 35.9597C97.6936 33.1121 94.9263 32.0812 94.819 32.3792Z" fill="white"/>
<path d="M71.2651 124.372C71.2333 124.66 75.2441 124.977 79.7742 123.199C84.3188 121.474 87.0963 118.557 86.8782 118.354C86.6502 118.077 83.6718 120.452 79.3536 122.087C75.0497 123.773 71.2493 124.013 71.2651 124.372Z" fill="white"/>
<path d="M56.8043 49.271C56.8784 48.9543 55.4826 48.3751 53.7098 47.9676C51.9229 47.5697 50.4256 47.5104 50.3515 47.8272C50.2774 48.1439 51.6732 48.7231 53.446 49.1305C55.2329 49.5285 56.7301 49.5877 56.8043 49.271Z" fill="white"/>
<path d="M55.2245 43.4789C54.0574 41.2884 52.6811 39.7929 52.4222 39.9877C52.1398 40.1779 53.0498 41.9258 54.1834 44.0362C55.317 46.1467 56.293 47.8706 56.5994 47.7465C56.8916 47.6318 56.4056 45.66 55.2245 43.4789Z" fill="white"/>
<path d="M66.3077 87.805C66.0564 87.5842 64.4477 88.9753 62.7046 90.9289C62.6389 91.0142 62.5637 91.0854 62.498 91.1707C60.8611 89.5017 59.5337 88.3839 59.3267 88.5643C59.1293 88.7588 60.1655 90.2369 61.7511 92.043C60.5488 93.4889 59.7938 94.6541 59.9929 94.8279C60.1921 95.0017 61.213 94.1706 62.4963 92.8755C62.5153 92.9037 62.5249 92.9179 62.558 92.9366C64.5845 95.1232 66.4053 96.73 66.6451 96.5069C66.8849 96.2839 65.4498 94.3353 63.4233 92.1487C63.3948 92.1063 63.3521 92.0735 63.3095 92.0406C63.4035 91.9363 63.4974 91.832 63.5914 91.7276C65.3108 89.7694 66.5354 88.0212 66.3077 87.805Z" fill="white"/>
<path d="M91.6811 19.6714C93.9768 21.8615 96.061 23.2498 96.2536 23.0175C96.4461 22.7852 94.7239 21.0505 92.5132 18.8647C93.8107 17.5601 94.6411 16.3851 94.4371 16.1736C94.2331 15.962 93.0326 16.7703 91.6925 18.0421C89.3916 15.7528 87.551 13.9336 87.3158 14.1331C87.0806 14.3325 88.545 16.5075 90.8698 18.8628C89.6713 20.1009 88.9065 21.1905 89.101 21.388C89.291 21.6091 90.4067 20.8578 91.6811 19.6714Z" fill="white"/>
<path d="M138.9 70.9909L138.575 71.2097L137.93 71.6235L136.649 72.4652C135.806 73.0121 134.884 73.6539 134.022 74.1726C133.504 74.5008 133.075 74.7484 132.604 75.0244C131.662 75.5765 130.725 76.105 129.759 76.5911C125.9 78.5733 121.846 80.0512 117.816 80.7733C115.806 81.1414 113.814 81.3536 111.878 81.405C109.947 81.4327 108.072 81.2996 106.244 81.2372C104.416 81.1747 102.631 81.2065 100.989 81.5115C99.3327 81.8261 97.8668 82.4231 96.647 83.1418C94.2027 84.6028 92.7759 86.5077 92.0549 87.8758C91.3529 89.2722 91.2436 90.1463 91.3003 90.1697C91.4044 90.2022 91.6604 89.3935 92.4621 88.1148C93.2828 86.8643 94.739 85.1859 97.0945 83.9284C98.2676 83.3233 99.6396 82.8306 101.169 82.6016C102.698 82.3726 104.384 82.4074 106.174 82.5361C107.964 82.6649 109.864 82.864 111.895 82.8924C113.906 82.8927 115.984 82.7462 118.098 82.4107C122.321 81.7632 126.603 80.3174 130.645 78.3344C131.659 77.8575 132.648 77.3146 133.627 76.7576C134.098 76.4815 134.635 76.1815 135.055 75.9199L135.233 75.8199C135.285 75.8055 135.361 75.7343 135.351 75.7816L135.291 75.966C135.081 76.5998 134.862 77.2194 134.643 77.8391C131.889 85.9129 127.884 92.9818 123.806 97.5341C120.046 101.646 115.832 104.319 111.738 105.311C110.699 105.476 109.718 105.726 108.741 105.83C107.764 105.872 106.815 105.895 105.913 105.928C104.137 105.851 102.487 105.443 101.044 104.916C98.1255 103.843 96.0165 102.204 94.5831 100.624C93.1307 99.0158 92.3726 97.4326 91.9557 96.1122C91.7779 95.4519 91.6004 94.8529 91.5838 94.3099C91.5057 93.7672 91.4611 93.3046 91.4923 92.8936C91.4555 92.0768 91.5285 91.5145 91.5691 91.1176C91.6128 90.3288 91.4753 90.2161 91.3145 90.1601C91.1632 90.1183 91.0026 90.1238 90.6662 90.9045C90.4791 91.2974 90.2787 91.8839 90.1743 92.7958C90.0725 93.2543 90.056 93.7786 90.092 94.4112C90.0749 94.8127 90.1336 95.2658 90.216 95.7235C89.8417 95.4419 89.4722 95.198 89.1125 95.0296C88.5727 94.7157 88.0759 94.496 87.6314 94.3847C86.7611 94.0676 86.1374 93.9949 85.7122 93.9732C84.8525 93.9158 84.7871 94.0625 84.7548 94.2279C84.7225 94.3933 84.7752 94.5631 85.4992 94.8762C85.8634 95.0209 86.4027 95.2121 87.1223 95.6102C87.4961 95.769 87.9033 96.008 88.344 96.3271C88.8175 96.6036 89.2633 97.0218 89.7754 97.4775C90.7622 98.4553 91.8405 99.8434 92.6006 101.856C93.3748 103.86 93.8686 106.483 93.5238 109.569C93.3467 111.104 92.9764 112.749 92.2424 114.373C91.8163 115.173 91.3479 116.001 90.8843 116.867C90.3686 117.687 89.7016 118.464 89.0916 119.327C86.3864 122.564 82.115 125.153 76.7715 126.698C70.843 128.35 62.7366 128.779 54.2781 127.618C53.6449 127.531 52.9976 127.454 52.3548 127.353L52.1612 127.34C52.1516 127.326 52.2318 127.292 52.2646 127.25L53.8701 126.189C54.8023 125.562 55.7154 124.906 56.6001 124.207C60.1624 121.48 63.3637 118.278 65.827 114.772C67.061 113.038 68.1247 111.234 69.0279 109.435C69.898 107.618 70.5792 105.825 71.2705 104.169C71.9619 102.513 72.6869 100.999 73.5736 99.7241C74.4603 98.4497 75.5041 97.439 76.5772 96.6549C78.7329 95.1008 80.9027 94.5431 82.3847 94.3663C83.8858 94.2177 84.7317 94.3461 84.7406 94.2374C84.764 94.1806 83.9268 93.8822 82.3542 93.8942C80.8007 93.9343 78.4604 94.3606 76.0637 95.8922C74.8819 96.6674 73.6825 97.7213 72.6733 99.0576C71.6641 100.394 70.8402 101.975 70.0734 103.641C69.316 105.321 68.5967 107.057 67.712 108.761C66.8036 110.461 65.7347 112.166 64.5096 113.791C62.0643 117.08 58.9423 120.065 55.4595 122.635C54.5982 123.277 53.7038 123.9 52.7904 124.494C52.3289 124.784 51.8769 125.089 51.406 125.365C50.888 125.693 50.2804 126.04 49.6964 126.393C49.2492 125.667 48.7829 124.914 48.3118 124.123C42.9686 115.425 32.9272 99.6271 27.6257 91.7838C31.0702 94.2473 35.4207 95.526 39.6705 95.4357C44.2039 95.4007 48.574 93.7515 51.9816 91.2519C55.4128 88.7568 57.8907 85.3642 59.1927 81.9628C60.5797 78.5658 60.7956 75.1977 60.4904 72.4884C60.1757 69.765 59.3586 67.6673 58.663 66.3293C57.9296 64.9962 57.4212 64.3327 57.3648 64.3707C57.0866 64.4759 59.2105 67.2949 59.5699 72.554C59.714 75.146 59.379 78.3068 57.9577 81.4396C56.6215 84.5767 54.2318 87.643 50.9978 89.8821C47.7874 92.1258 43.7513 93.5091 39.6379 93.4666C35.553 93.4664 31.4382 92.111 28.3289 89.6271C25.1726 87.1954 23.0883 83.7339 22.1895 80.2954C21.2952 76.8332 21.5109 73.4037 22.3577 70.6372C23.8596 65.5207 27.2005 61.8549 30.6331 59.6669C34.113 57.4881 37.6556 56.6218 40.6966 56.5653C43.7327 56.4711 46.2761 57.0781 48.2584 57.8577C50.236 58.6609 51.709 59.5986 52.8321 60.4435C53.9269 61.3074 54.7143 62.05 55.2742 62.6377C55.8765 63.1969 56.2045 63.6535 56.4938 63.9308C57.0489 64.4808 57.214 64.4517 57.3648 64.3707C57.506 64.2756 57.6141 64.1618 57.2565 63.4173C57.2185 63.3608 57.185 63.2806 57.1611 63.2146C57.7641 62.8907 58.8652 62.0262 60.1499 61.0381C61.8909 59.6606 64.0238 58.286 65.4468 57.5947C68.0571 56.2888 69.5616 55.8711 70.2537 55.4051C70.4186 55.3146 70.522 55.2244 70.6114 55.1437C71.207 56.3027 71.9346 57.4139 72.7989 58.4536C72.7611 58.4585 72.7516 58.4444 72.7139 58.4493C71.8829 58.4956 70.2167 58.6732 67.2672 60.146C65.6275 60.9421 63.4256 62.7326 61.9082 64.4727C60.3813 66.1986 59.392 67.7474 59.6197 67.9636C59.8568 68.1939 61.3107 67.0302 63.0566 65.6905C64.7976 64.313 66.9306 62.9385 68.3536 62.2472C70.9638 60.9413 72.4684 60.5235 73.1604 60.0576C73.4948 59.853 73.664 59.6775 73.7435 59.5212C74.4363 60.2453 75.1761 60.9172 76.0052 61.5085C79.4837 64.1749 83.9951 65.5095 88.4005 65.376C92.8298 65.3085 97.0867 63.6739 100.395 61.2408C103.751 58.817 106.173 55.5238 107.471 52.2075C108.839 48.9049 109.103 45.6075 108.821 42.9642C108.531 40.3068 107.742 38.2514 107.065 36.9417C106.351 35.6368 105.862 35.0016 105.796 35.0255C105.518 35.1306 107.594 37.879 107.901 43.0298C108.045 45.5604 107.653 48.6365 106.25 51.6747C104.918 54.7268 102.57 57.7032 99.4116 59.8711C96.2764 62.0437 92.349 63.4359 88.3442 63.4023C84.3492 63.4442 80.3434 62.1592 77.3053 59.7505C74.2156 57.4176 72.2025 54.0314 71.3371 50.673C70.4999 47.2956 70.7348 43.9557 71.5773 41.2742C73.0893 36.2946 76.3693 32.7519 79.7077 30.6068C83.0933 28.4709 86.5604 27.6144 89.5068 27.5395C92.472 27.4315 94.9397 27.9869 96.8793 28.7336C98.8143 29.5039 100.259 30.3993 101.353 31.2018C102.429 32.0374 103.197 32.7517 103.748 33.3253C104.341 33.8704 104.659 34.3129 104.939 34.5761C105.484 35.1119 105.65 35.0828 105.8 35.0018C105.942 34.9067 106.05 34.7929 105.702 34.0625C105.525 33.7092 105.291 33.1483 104.759 32.4801C104.26 31.7693 103.52 30.9132 102.415 29.9124C101.282 28.9306 99.7512 27.8467 97.6266 26.9167C95.5115 26.0008 92.7645 25.305 89.4543 25.358C86.1724 25.3919 82.29 26.3023 78.4709 28.6479C74.7226 31.0074 71.029 34.9723 69.3215 40.5762C68.3626 43.603 68.1013 47.3916 69.0918 51.2405C69.3176 52.0943 69.619 52.9382 69.9723 53.7677C69.9109 53.768 69.8636 53.7588 69.7786 53.7544C68.9477 53.8007 67.2815 53.9784 64.332 55.4511C62.6922 56.2473 60.4903 58.0378 58.9729 59.7778C57.9629 60.93 57.1932 61.9819 56.8562 62.6399C56.7087 62.3903 56.5231 62.0842 56.2666 61.7642C55.758 61.0393 54.9984 60.155 53.8744 59.1259C52.7223 58.1159 51.1493 56.9991 48.9961 56.0267C46.8384 55.078 44.0298 54.3211 40.6487 54.3602C37.2863 54.3662 33.2953 55.2675 29.4009 57.6844C25.5679 60.1009 21.7757 64.1938 20.0878 69.9487C19.1387 73.051 18.9062 76.9433 19.9442 80.8629C20.8474 84.2164 22.7706 87.5606 25.5781 90.145C29.4979 97.3996 40.4061 115.795 46.263 125.317C46.7388 126.085 47.1955 126.824 47.6332 127.535L47.3839 127.744L46.7198 128.13L46.3855 128.334C46.3431 128.363 46.2347 128.415 46.2583 128.42L46.4474 128.457L48.3663 128.807C59.7515 147.21 60.4322 147.368 60.9643 147.03C61.4681 146.711 61.6541 146.073 51.481 129.378L51.7646 129.434L52.346 129.535L53.9764 129.792C62.6291 131.089 71.0618 130.748 77.363 129.009C83.0791 127.378 87.8261 124.489 90.8271 120.868C91.5028 119.92 92.226 119.043 92.798 118.124C93.3036 117.168 93.8046 116.235 94.2728 115.346C95.1094 113.448 95.4881 111.571 95.6548 109.838C95.8577 107.73 95.693 105.809 95.3217 104.13C96.6537 105.224 98.2875 106.218 100.26 106.983C101.892 107.608 103.722 108.1 105.81 108.214C106.821 108.19 107.869 108.162 108.955 108.128C110.031 108.02 111.135 107.769 112.301 107.579C116.891 106.501 121.557 103.523 125.565 99.1411C129.916 94.2618 133.981 86.8856 136.71 78.5616L137.213 76.9914C137.269 76.8306 137.473 76.1591 137.599 75.7052L138.036 74.2203L138.896 71.2601L138.957 71.0757C138.919 71.0192 138.989 70.9102 138.9 70.9909Z" fill="white"/>
</g>
<defs>
<clipPath id="clip0_330_12570">
<rect width="112.377" height="112.377" fill="white" transform="translate(0 62.7634) rotate(-33.9527)"/>
</clipPath>
</defs>
</svg>
