<svg width="98" height="98" viewBox="0 0 98 98" fill="none" xmlns="http://www.w3.org/2000/svg">
<path d="M43.298 74.1236C42.9565 74.0642 41.1598 73.6336 39.2592 73.1585C33.6317 71.7924 30.9292 71.1391 29.5483 70.9015C29.2811 68.8672 28.9395 67.5309 28.5535 66.0312C28.0932 64.2791 27.5289 62.0815 26.8904 57.9239C26.8162 57.4636 26.4598 57.0924 25.9995 57.0182C25.5392 56.9291 25.0789 57.1518 24.8414 57.5527C22.7626 61.2351 21.7083 63.3436 20.6838 65.3779C20.1195 66.4915 19.5701 67.6051 18.8574 68.9415C14.0762 67.7833 8.6862 67.5309 3.90499 67.2933L2.8062 67.2339C2.36075 67.2191 1.94499 67.4715 1.75196 67.8724C1.55893 68.2882 1.64802 68.7633 1.95984 69.09C5.7759 73.0842 9.82954 76.93 13.9871 80.5678C12.9032 82.7357 11.5074 84.963 10.1562 87.116C8.7159 89.4027 7.23105 91.7785 6.08772 94.1394C5.86499 94.5848 5.98378 95.1342 6.35499 95.446C6.7262 95.7727 7.2756 95.8024 7.69136 95.5203C10.1711 93.7979 12.6508 92.1645 15.1156 90.5312C17.2983 89.0909 19.5404 87.606 21.7826 86.0618C23.1932 87.606 24.8265 89.18 26.4153 90.7094C28.212 92.4466 30.0829 94.2285 31.5677 95.936C31.7756 96.1736 32.0874 96.3072 32.3992 96.3072C32.5329 96.3072 32.6814 96.2775 32.815 96.233C33.2456 96.0548 33.5277 95.6242 33.498 95.1639C33.2901 91.0509 32.7111 86.6854 31.8498 80.6866C32.0132 80.6569 32.1914 80.6272 32.3844 80.5975C40.6401 79.1572 44.0404 78.1475 44.9759 76.8854C45.4065 76.2915 45.4065 75.5788 44.9759 74.9997C44.4859 74.3315 43.7138 74.1978 43.298 74.1236ZM32.028 78.4594C31.1965 78.6079 30.5877 78.7118 30.3798 78.7712C29.8304 78.9048 29.4889 79.4394 29.5632 79.9888C30.2759 84.9482 30.8104 88.7939 31.1223 92.2388C30.0977 91.1994 29.0286 90.1748 27.9744 89.1503C26.1777 87.413 24.3068 85.6312 22.822 83.9236C22.5992 83.6712 22.3023 83.5524 21.9904 83.5524C21.7677 83.5524 21.5598 83.6118 21.3668 83.7454C18.8871 85.4679 16.4074 87.1012 13.9426 88.7345C12.7398 89.5363 11.5074 90.3382 10.275 91.1697C10.8392 90.1897 11.4332 89.2394 12.0271 88.2891C13.5714 85.8242 15.1601 83.2851 16.3332 80.7609C16.5411 80.3154 16.4223 79.7957 16.0511 79.4691C12.4132 76.3212 8.86439 73.01 5.47893 69.58C10.0077 69.8027 14.9077 70.1442 19.1247 71.2875C19.6147 71.4212 20.1344 71.1985 20.372 70.753C21.3074 69.0306 21.9608 67.7091 22.6289 66.3727C23.3565 64.9324 24.0989 63.4476 25.2274 61.3688C25.6729 63.7297 26.0738 65.2739 26.4004 66.5806C26.8459 68.2733 27.1874 69.6245 27.4398 72.0151C27.4992 72.6239 28.0635 73.0545 28.6426 72.9951H28.6723C29.7562 73.1288 35.5471 74.5394 38.7098 75.2966C40.358 75.6975 41.5162 75.9797 42.2141 76.143C40.9074 76.6627 37.9971 77.4051 32.028 78.4594Z" fill="white"/>
<path d="M34.5674 66.9815C34.7753 67.1894 35.0574 67.2933 35.3247 67.2933C35.6068 67.2933 35.9038 67.1745 36.1117 66.9667C47.3223 55.3997 55.578 46.4461 66.9965 34.0476C74.4801 25.9254 82.9586 16.7342 94.6295 4.21696C95.0453 3.77151 95.0156 3.07363 94.5701 2.67272C94.1247 2.25696 93.4268 2.28666 93.0259 2.73212C81.355 15.2494 72.8617 24.4554 65.378 32.5776C53.9595 44.9612 45.7186 53.9 34.5229 65.4521C34.122 65.8679 34.122 66.5509 34.5674 66.9815Z" fill="white"/>
<path d="M29.1915 48.51C29.3549 48.5842 29.5182 48.6288 29.6815 48.6288C30.0825 48.6288 30.4685 48.406 30.6615 48.02C38.0858 33.0527 45.8515 17.9963 53.7361 3.29635C54.0182 2.7618 53.8252 2.09362 53.2906 1.8115C52.7561 1.52938 52.0879 1.72241 51.8058 2.25695C43.9064 16.9866 36.1258 32.0579 28.7015 47.0548C28.4194 47.5745 28.6422 48.2279 29.1915 48.51Z" fill="white"/>
<path d="M96.2178 49.9949C95.9506 49.4603 95.2824 49.2376 94.7478 49.5049L49.2966 72.3567C48.7621 72.6239 48.5393 73.2921 48.8066 73.8267C48.9996 74.2127 49.3857 74.4355 49.7866 74.4355C49.9499 74.4355 50.1133 74.3909 50.2766 74.3167L95.7278 51.4797C96.2772 51.1976 96.5 50.5442 96.2178 49.9949Z" fill="white"/>
<path d="M72.8317 42.3627C69.6541 43.5803 68.8078 46.5054 69.6096 48.7624C70.2035 50.4403 71.7775 51.9103 74.0344 51.9103C74.6135 51.9103 75.252 51.8063 75.9202 51.5985C76.039 51.5539 76.1429 51.5242 76.2617 51.4797C78.8453 50.4106 79.4244 47.3666 78.5038 45.0354C77.509 42.5557 75.1778 41.457 72.8317 42.3627ZM75.4153 49.4454C75.3559 49.4751 75.2965 49.49 75.2371 49.5048C73.2326 50.1582 72.0596 49.1188 71.6735 48.02C71.2281 46.7579 71.6587 45.1542 73.6187 44.3969C73.9305 44.2782 74.2275 44.2188 74.4799 44.2188C75.7123 44.2188 76.2914 45.3918 76.4547 45.8224C76.9002 46.9657 76.8853 48.8366 75.4153 49.4454Z" fill="white"/>
<path d="M48.6282 36.4827C49.0885 36.4827 49.5637 36.3788 50.0388 36.1709C50.1279 36.1263 50.2022 36.0966 50.2912 36.0521C52.5185 34.79 52.4443 31.2412 51.4197 29.3406C50.5585 27.7518 49.044 27.2024 47.5888 27.9745C45.1982 29.2218 44.6934 32.3548 45.7179 34.493C46.3416 35.7848 47.4255 36.4827 48.6282 36.4827ZM48.5985 29.9197C48.8064 29.8157 49.0885 29.6524 49.4894 30.3948C50.1725 31.6569 50.024 33.6912 49.2073 34.1366L49.7419 35.0869L49.1331 34.1663C48.8806 34.2851 48.1976 34.5821 47.6779 33.5278C47.2028 32.5033 47.2325 30.6324 48.5985 29.9197Z" fill="white"/>
<path d="M12.547 50.8857C13.0815 50.8857 13.6458 50.8115 14.2397 50.6333C14.3436 50.6036 14.4476 50.5739 14.5515 50.5294C16.9273 49.6385 17.4767 47.1291 16.7788 45.2285C16.0661 43.2685 14.0021 41.7539 11.4333 42.6448C8.46365 43.6694 7.75092 46.1194 8.34486 47.9606C8.86456 49.5642 10.3939 50.8857 12.547 50.8857ZM12.1609 44.7088C12.4579 44.6048 12.7103 44.5603 12.9479 44.5603C14.1506 44.5603 14.6258 45.6888 14.7297 45.956C14.9673 46.6094 15.0712 47.9903 13.7943 48.4654L13.6309 48.5248C11.8788 49.0445 10.7355 48.2427 10.4385 47.2924C10.1712 46.4757 10.4682 45.3027 12.1609 44.7088Z" fill="white"/>
<path d="M67.5308 15.5166C67.6941 15.5166 67.8723 15.4721 68.0208 15.3979L69.8768 14.4624L71.0647 17.6994C71.228 18.1448 71.6438 18.4269 72.0892 18.4269C72.208 18.4269 72.3417 18.4121 72.4604 18.3675C73.0247 18.1597 73.3217 17.536 73.1138 16.9569L71.8517 13.4824L74.658 12.0718C75.1926 11.8045 75.4153 11.1363 75.148 10.6018C74.8808 10.0672 74.2126 9.84452 73.678 10.1118L71.1092 11.4036L69.8768 8.033C69.6689 7.46876 69.0453 7.17179 68.4662 7.37967C67.902 7.58755 67.605 8.21119 67.8129 8.79028L69.1344 12.3985L67.0408 13.4527C66.5062 13.72 66.2835 14.3882 66.5508 14.9227C66.7438 15.3088 67.1298 15.5166 67.5308 15.5166Z" fill="white"/>
<path d="M17.9513 29.0585C18.0256 29.0585 18.0998 29.0585 18.1592 29.0436L20.0598 28.6724L20.5646 32.9339C20.6389 33.4982 21.0992 33.8991 21.6486 33.8991C21.6931 33.8991 21.7377 33.8991 21.7822 33.8842C22.3762 33.81 22.8068 33.2606 22.7474 32.6667L22.2128 28.2418L25.3904 27.6182C25.9843 27.4994 26.3704 26.9203 26.2516 26.3264C26.1328 25.7324 25.5537 25.3464 24.9598 25.4651L21.9456 26.0591L21.411 21.6045C21.3368 21.0106 20.7874 20.5651 20.1934 20.6394C19.5995 20.7136 19.1689 21.263 19.2283 21.857L19.7777 26.4748L17.7137 26.8757C17.1198 26.9945 16.7337 27.5736 16.8525 28.1676C16.9713 28.6873 17.4316 29.0585 17.9513 29.0585Z" fill="white"/>
<path d="M40.3132 7.55789H40.3429L42.8374 7.49849L42.8671 8.84971C42.882 9.44365 43.372 9.9188 43.9659 9.9188H43.9956C44.6044 9.90395 45.0796 9.3991 45.0647 8.80516L45.035 7.45395L46.3862 7.42425C46.995 7.4094 47.4702 6.90455 47.4553 6.31061C47.4405 5.71668 46.9505 5.24152 46.3565 5.24152C46.3417 5.24152 46.3417 5.24152 46.3268 5.24152L44.9608 5.27122L44.9162 3.41516C44.9014 2.82122 44.4114 2.34607 43.8174 2.34607C43.8026 2.34607 43.8026 2.34607 43.7877 2.34607C43.179 2.36092 42.7038 2.86577 42.7186 3.45971L42.7632 5.31577L40.2687 5.37516C39.6599 5.39001 39.1847 5.89486 39.1996 6.4888C39.2293 7.06789 39.7193 7.55789 40.3132 7.55789Z" fill="white"/>
<path d="M60.1065 56.1421C60.0916 55.5333 59.5422 55.0433 58.9928 55.073L57.6119 55.0878L57.5674 53.2318C57.5525 52.623 57.0477 52.1478 56.4538 52.1627C55.845 52.1775 55.3698 52.6824 55.3847 53.2763L55.4292 55.1324L52.9347 55.1918C52.3259 55.2066 51.8507 55.7115 51.8656 56.3054C51.8804 56.8994 52.3704 57.3745 52.9644 57.3745H52.9941L55.4886 57.3151L55.5183 58.6663C55.5331 59.2603 56.0232 59.7354 56.6171 59.7354H56.6468C57.2556 59.7206 57.7307 59.2157 57.7159 58.6218L57.6862 57.2706L59.0522 57.2409C59.6313 57.2409 60.1065 56.7509 60.1065 56.1421Z" fill="white"/>
<path d="M76.1723 76.4697L74.8063 76.4994L74.7617 74.6433C74.7469 74.0345 74.1975 73.5742 73.6481 73.5742C73.0393 73.5891 72.5642 74.0939 72.579 74.6879L72.6235 76.5439L70.129 76.6033C69.5202 76.6182 69.0451 77.123 69.0599 77.7169C69.0748 78.3109 69.5648 78.786 70.1587 78.786H70.1884L72.6829 78.7266L72.7126 80.0779C72.7275 80.6718 73.2175 81.1469 73.8114 81.1469H73.8411C74.4499 81.1321 74.9251 80.6273 74.9102 80.0333L74.8508 78.6969L76.2169 78.6672C76.8257 78.6524 77.3008 78.1476 77.286 77.5388C77.286 76.9448 76.8108 76.4697 76.1723 76.4697Z" fill="white"/>
</svg>
