<svg width="99" height="98" viewBox="0 0 99 98" fill="none" xmlns="http://www.w3.org/2000/svg">
<path d="M43.798 74.1237C43.4565 74.0643 41.6598 73.6337 39.7592 73.1586C34.1317 71.7925 31.4292 71.1392 30.0483 70.9016C29.7811 68.8674 29.4395 67.531 29.0535 66.0313C28.5932 64.2792 28.0289 62.0816 27.3904 57.924C27.3162 57.4637 26.9598 57.0925 26.4995 57.0183C26.0392 56.9292 25.5789 57.1519 25.3414 57.5528C23.2626 61.2352 22.2083 63.3437 21.1838 65.378C20.6195 66.4916 20.0701 67.6052 19.3574 68.9416C14.5762 67.7834 9.1862 67.531 4.40499 67.2934L3.3062 67.234C2.86075 67.2192 2.44499 67.4716 2.25196 67.8725C2.05893 68.2883 2.14802 68.7634 2.45984 69.0901C6.2759 73.0843 10.3295 76.9301 14.4871 80.568C13.4032 82.7358 12.0074 84.9631 10.6562 87.1162C9.2159 89.4028 7.73105 91.7786 6.58772 94.1395C6.36499 94.5849 6.48378 95.1343 6.85499 95.4462C7.2262 95.7728 7.7756 95.8025 8.19136 95.5204C10.6711 93.798 13.1508 92.1646 15.6156 90.5313C17.7983 89.091 20.0404 87.6062 22.2826 86.0619C23.6932 87.6062 25.3265 89.1801 26.9153 90.7095C28.712 92.4468 30.5829 94.2286 32.0677 95.9362C32.2756 96.1737 32.5874 96.3074 32.8992 96.3074C33.0329 96.3074 33.1814 96.2777 33.315 96.2331C33.7456 96.0549 34.0277 95.6243 33.998 95.164C33.7901 91.051 33.2111 86.6855 32.3498 80.6868C32.5132 80.6571 32.6914 80.6274 32.8844 80.5977C41.1401 79.1574 44.5404 78.1477 45.4759 76.8855C45.9065 76.2916 45.9065 75.5789 45.4759 74.9998C44.9859 74.3316 44.2138 74.198 43.798 74.1237ZM32.528 78.4595C31.6965 78.608 31.0877 78.7119 30.8798 78.7713C30.3304 78.9049 29.9889 79.4395 30.0632 79.9889C30.7759 84.9483 31.3104 88.794 31.6223 92.2389C30.5977 91.1995 29.5286 90.1749 28.4744 89.1504C26.6777 87.4131 24.8068 85.6313 23.322 83.9237C23.0992 83.6713 22.8023 83.5525 22.4904 83.5525C22.2677 83.5525 22.0598 83.6119 21.8668 83.7456C19.3871 85.468 16.9074 87.1013 14.4426 88.7346C13.2398 89.5365 12.0074 90.3383 10.775 91.1698C11.3392 90.1898 11.9332 89.2395 12.5271 88.2892C14.0714 85.8243 15.6601 83.2852 16.8332 80.761C17.0411 80.3155 16.9223 79.7959 16.5511 79.4692C12.9132 76.3213 9.36439 73.0101 5.97893 69.5801C10.5077 69.8028 15.4077 70.1443 19.6247 71.2877C20.1147 71.4213 20.6344 71.1986 20.872 70.7531C21.8074 69.0307 22.4608 67.7092 23.1289 66.3728C23.8565 64.9325 24.5989 63.4477 25.7274 61.3689C26.1729 63.7298 26.5738 65.274 26.9004 66.5807C27.3459 68.2734 27.6874 69.6246 27.9398 72.0152C27.9992 72.624 28.5635 73.0546 29.1426 72.9952H29.1723C30.2562 73.1289 36.0471 74.5395 39.2098 75.2968C40.858 75.6977 42.0162 75.9798 42.7141 76.1431C41.4074 76.6628 38.4971 77.4052 32.528 78.4595Z" fill="white"/>
<path d="M35.0669 66.9816C35.2748 67.1894 35.5569 67.2934 35.8242 67.2934C36.1063 67.2934 36.4033 67.1746 36.6112 66.9667C47.8218 55.3997 56.0775 46.4461 67.496 34.0476C74.9797 25.9255 83.4581 16.7343 95.129 4.21703C95.5448 3.77157 95.5151 3.07369 95.0697 2.67278C94.6242 2.25703 93.9263 2.28672 93.5254 2.73218C81.8545 15.2494 73.3612 24.4555 65.8775 32.5776C54.459 44.9613 46.2181 53.9001 35.0224 65.4522C34.6215 65.8679 34.6215 66.551 35.0669 66.9816Z" fill="white"/>
<path d="M29.692 48.51C29.8554 48.5842 30.0187 48.6288 30.182 48.6288C30.5829 48.6288 30.969 48.406 31.162 48.02C38.5863 33.0527 46.352 17.9963 54.2366 3.29635C54.5187 2.7618 54.3257 2.09362 53.7911 1.8115C53.2566 1.52938 52.5884 1.72241 52.3063 2.25695C44.4069 16.9866 36.6263 32.0579 29.202 47.0548C28.9199 47.5745 29.1426 48.2279 29.692 48.51Z" fill="white"/>
<path d="M96.7178 49.9949C96.4506 49.4603 95.7824 49.2376 95.2478 49.5049L49.7966 72.3567C49.2621 72.6239 49.0393 73.2921 49.3066 73.8267C49.4996 74.2127 49.8857 74.4355 50.2866 74.4355C50.4499 74.4355 50.6133 74.3909 50.7766 74.3167L96.2278 51.4797C96.7772 51.1976 97 50.5442 96.7178 49.9949Z" fill="white"/>
<path d="M73.3317 42.3626C70.1541 43.5802 69.3078 46.5054 70.1096 48.7623C70.7035 50.4402 72.2775 51.9102 74.5344 51.9102C75.1135 51.9102 75.752 51.8063 76.4202 51.5984C76.539 51.5539 76.6429 51.5242 76.7617 51.4796C79.3453 50.4105 79.9244 47.3666 79.0038 45.0354C78.009 42.5557 75.6778 41.4569 73.3317 42.3626ZM75.9153 49.4454C75.8559 49.4751 75.7965 49.4899 75.7371 49.5048C73.7326 50.1581 72.5596 49.1187 72.1735 48.0199C71.7281 46.7578 72.1587 45.1542 74.1187 44.3969C74.4305 44.2781 74.7275 44.2187 74.9799 44.2187C76.2123 44.2187 76.7914 45.3917 76.9547 45.8223C77.4002 46.9657 77.3853 48.8366 75.9153 49.4454Z" fill="white"/>
<path d="M49.1287 36.4828C49.589 36.4828 50.0642 36.3789 50.5393 36.171C50.6284 36.1265 50.7026 36.0968 50.7917 36.0522C53.019 34.7901 52.9448 31.2413 51.9202 29.3407C51.059 27.7519 49.5445 27.2025 48.0893 27.9746C45.6987 29.2219 45.1939 32.3549 46.2184 34.4931C46.842 35.7849 47.926 36.4828 49.1287 36.4828ZM49.099 29.9198C49.3069 29.8158 49.589 29.6525 49.9899 30.3949C50.673 31.6571 50.5245 33.6913 49.7078 34.1368L50.2423 35.0871L49.6336 34.1665C49.3811 34.2852 48.6981 34.5822 48.1784 33.528C47.7033 32.5034 47.7329 30.6325 49.099 29.9198Z" fill="white"/>
<path d="M13.047 50.8858C13.5815 50.8858 14.1458 50.8116 14.7397 50.6334C14.8436 50.6037 14.9476 50.574 15.0515 50.5294C17.4273 49.6385 17.9767 47.1291 17.2788 45.2285C16.5661 43.2685 14.5021 41.754 11.9333 42.6449C8.96365 43.6694 8.25092 46.1194 8.84486 47.9606C9.36456 49.5643 10.8939 50.8858 13.047 50.8858ZM12.6609 44.7088C12.9579 44.6049 13.2103 44.5603 13.4479 44.5603C14.6506 44.5603 15.1258 45.6888 15.2297 45.9561C15.4673 46.6094 15.5712 47.9903 14.2943 48.4655L14.1309 48.5249C12.3788 49.0446 11.2355 48.2428 10.9385 47.2925C10.6712 46.4758 10.9682 45.3028 12.6609 44.7088Z" fill="white"/>
<path d="M68.0308 15.5166C68.1941 15.5166 68.3723 15.4721 68.5208 15.3979L70.3768 14.4624L71.5647 17.6994C71.728 18.1448 72.1438 18.4269 72.5892 18.4269C72.708 18.4269 72.8417 18.4121 72.9604 18.3675C73.5247 18.1597 73.8217 17.536 73.6138 16.9569L72.3517 13.4824L75.158 12.0718C75.6926 11.8045 75.9153 11.1363 75.648 10.6018C75.3808 10.0672 74.7126 9.84452 74.178 10.1118L71.6092 11.4036L70.3768 8.033C70.1689 7.46876 69.5453 7.17179 68.9662 7.37967C68.402 7.58755 68.105 8.21119 68.3129 8.79028L69.6344 12.3985L67.5408 13.4527C67.0062 13.72 66.7835 14.3882 67.0508 14.9227C67.2438 15.3088 67.6298 15.5166 68.0308 15.5166Z" fill="white"/>
<path d="M18.4518 29.0585C18.526 29.0585 18.6003 29.0585 18.6597 29.0437L20.5603 28.6725L21.0651 32.934C21.1394 33.4982 21.5997 33.8991 22.1491 33.8991C22.1936 33.8991 22.2382 33.8991 22.2827 33.8843C22.8767 33.8101 23.3073 33.2607 23.2479 32.6667L22.7133 28.2419L25.8909 27.6182C26.4848 27.4994 26.8709 26.9204 26.7521 26.3264C26.6333 25.7325 26.0542 25.3464 25.4603 25.4652L22.446 26.0591L21.9115 21.6046C21.8373 21.0107 21.2879 20.5652 20.6939 20.6394C20.1 20.7137 19.6694 21.2631 19.7288 21.857L20.2782 26.4749L18.2142 26.8758C17.6203 26.9946 17.2342 27.5737 17.353 28.1676C17.4718 28.6873 17.9321 29.0585 18.4518 29.0585Z" fill="white"/>
<path d="M40.8137 7.55777H40.8434L43.3379 7.49837L43.3676 8.84958C43.3825 9.44352 43.8725 9.91867 44.4664 9.91867H44.4961C45.1049 9.90383 45.58 9.39898 45.5652 8.80504L45.5355 7.45383L46.8867 7.42413C47.4955 7.40928 47.9707 6.90443 47.9558 6.31049C47.941 5.71655 47.451 5.2414 46.857 5.2414C46.8422 5.2414 46.8422 5.2414 46.8273 5.2414L45.4613 5.2711L45.4167 3.41504C45.4019 2.8211 44.9119 2.34595 44.3179 2.34595C44.3031 2.34595 44.3031 2.34595 44.2882 2.34595C43.6794 2.3608 43.2043 2.86564 43.2191 3.45958L43.2637 5.31564L40.7691 5.37504C40.1604 5.38989 39.6852 5.89474 39.7 6.48867C39.7297 7.06777 40.2197 7.55777 40.8137 7.55777Z" fill="white"/>
<path d="M60.6065 56.1421C60.5916 55.5333 60.0422 55.0433 59.4928 55.073L58.1119 55.0878L58.0674 53.2318C58.0525 52.623 57.5477 52.1478 56.9538 52.1627C56.345 52.1775 55.8698 52.6824 55.8847 53.2763L55.9292 55.1324L53.4347 55.1918C52.8259 55.2066 52.3507 55.7115 52.3656 56.3054C52.3804 56.8994 52.8704 57.3745 53.4644 57.3745H53.4941L55.9886 57.3151L56.0183 58.6663C56.0331 59.2603 56.5232 59.7354 57.1171 59.7354H57.1468C57.7556 59.7206 58.2307 59.2157 58.2159 58.6218L58.1862 57.2706L59.5522 57.2409C60.1313 57.2409 60.6065 56.7509 60.6065 56.1421Z" fill="white"/>
<path d="M76.6723 76.4697L75.3063 76.4994L75.2617 74.6433C75.2469 74.0345 74.6975 73.5742 74.1481 73.5742C73.5393 73.5891 73.0642 74.0939 73.079 74.6879L73.1235 76.5439L70.629 76.6033C70.0202 76.6182 69.5451 77.123 69.5599 77.7169C69.5748 78.3109 70.0648 78.786 70.6587 78.786H70.6884L73.1829 78.7266L73.2126 80.0779C73.2275 80.6718 73.7175 81.1469 74.3114 81.1469H74.3411C74.9499 81.1321 75.4251 80.6273 75.4102 80.0333L75.3508 78.6969L76.7169 78.6672C77.3257 78.6524 77.8008 78.1476 77.786 77.5388C77.786 76.9448 77.3108 76.4697 76.6723 76.4697Z" fill="white"/>
</svg>
