<svg width="52" height="52" viewBox="0 0 52 52" fill="none" xmlns="http://www.w3.org/2000/svg">
<g clip-path="url(#clip0_119_5352)">
<path d="M11.0827 12.9965C10.7864 12.9965 10.4861 12.9209 10.211 12.7622L7.43917 11.1618C6.60361 10.6794 6.31741 9.61108 6.79973 8.77552C7.28215 7.94007 8.35059 7.65387 9.18604 8.13609L11.9579 9.73641C12.7933 10.2188 13.0796 11.2872 12.5973 12.1227C12.2737 12.683 11.6865 12.9965 11.0827 12.9965Z" fill="#43386B"/>
<path d="M24.7911 5.08186C24.4948 5.08186 24.1946 5.0063 23.9194 4.84756L21.1696 3.25994C20.3342 2.77751 20.0479 1.70918 20.5302 0.873623C21.0125 0.03817 22.0811 -0.247932 22.9165 0.234186L25.6663 1.82181C26.5017 2.30423 26.788 3.37257 26.3057 4.20812C25.9823 4.76854 25.3949 5.08186 24.7911 5.08186Z" fill="#43386B"/>
<path d="M11.376 41.4581L13.7164 40.1124L13.7165 40.1126C14.1431 39.8866 14.6913 39.9187 15.2893 40.264C16.6498 41.0494 17.7528 43.1569 17.7528 44.971C17.7528 45.9683 17.4189 46.6684 16.8926 46.967L16.8931 46.9678L14.646 48.2614L11.376 41.4581Z" fill="url(#paint0_linear_119_5352)"/>
<path d="M10.5537 43.4327C10.5537 41.6186 11.6567 40.7847 13.0172 41.5703C14.3777 42.3558 15.4807 44.4632 15.4807 46.2773C15.4807 48.0914 14.3777 48.9253 13.0172 48.1397C11.6567 47.3541 10.5537 45.2468 10.5537 43.4327Z" fill="url(#paint1_linear_119_5352)"/>
<path d="M13.9584 47.0085C14.6353 46.7201 14.7708 45.5163 14.261 44.3199C13.7512 43.1235 12.7892 42.3874 12.1123 42.6758C11.4354 42.9642 11.3 44.1679 11.8098 45.3643C12.3196 46.5608 13.2816 47.2969 13.9584 47.0085Z" fill="#E9E5F6"/>
<path d="M12.2354 44.4037C12.2354 43.8283 12.5852 43.5638 13.0168 43.8131C13.4483 44.0622 13.7982 44.7307 13.7982 45.3061C13.7982 45.8816 13.4483 46.146 13.0168 45.8968C12.5852 45.6476 12.2354 44.9792 12.2354 44.4037Z" fill="#7662BD"/>
<path d="M23.418 50.9042C23.1755 50.9042 22.9297 50.8425 22.7047 50.7126L13.9625 45.6652C13.5204 45.4099 13.2479 44.938 13.2479 44.4274V14.1484L10.3701 12.4869C9.6865 12.0923 9.45229 11.2182 9.84707 10.5345C10.2417 9.85102 11.1157 9.61641 11.7994 10.0115L15.3918 12.0855C15.8339 12.3408 16.1064 12.8127 16.1064 13.3233V43.6023L24.134 48.2371C24.8176 48.6317 25.0518 49.5059 24.657 50.1895C24.3923 50.6478 23.9118 50.9042 23.418 50.9042Z" fill="#7662BD"/>
<path d="M37.149 43.0027C36.9065 43.0027 36.6608 42.9409 36.4357 42.811L27.6935 37.7637C27.2514 37.5084 26.9789 37.0365 26.9789 36.5258V6.24691L24.0791 4.57255C23.3955 4.17798 23.1613 3.30383 23.5561 2.62021C23.9506 1.9367 24.8248 1.70219 25.5084 2.09706L29.1228 4.18387C29.5649 4.4392 29.8374 4.91106 29.8374 5.42171V35.7006L37.865 40.3354C38.5486 40.7301 38.7828 41.6043 38.388 42.2879C38.1234 42.7462 37.6429 43.0027 37.149 43.0027Z" fill="#7662BD"/>
<path d="M14.678 14.7528C14.1833 14.7528 13.7022 14.4958 13.4378 14.0363C13.044 13.3521 13.2796 12.4784 13.9637 12.0846L27.6945 4.18283C28.3789 3.78927 29.2526 4.02459 29.6463 4.70872C30.04 5.39284 29.8045 6.26669 29.1204 6.66045L15.3895 14.5622C15.1648 14.6914 14.9197 14.7528 14.678 14.7528Z" fill="#7662BD"/>
<path d="M14.678 23.0896C14.1839 23.0896 13.7036 22.8333 13.4388 22.3747C13.0441 21.6911 13.2783 20.817 13.9618 20.4223L27.6927 12.4948C28.3764 12.1003 29.2504 12.3347 29.645 13.018C30.0397 13.7016 29.8056 14.5757 29.1219 14.9704L15.391 22.8979C15.1662 23.0278 14.9203 23.0896 14.678 23.0896Z" fill="#7662BD"/>
<path d="M45.4351 42.3565V23.6101L15.3467 24.9004V43.6467C15.3467 44.0762 15.5591 44.5058 15.9843 44.7513L27.9036 51.6328C28.7513 52.1223 29.7957 52.1223 30.6434 51.6328L44.7975 43.461C45.2226 43.2156 45.4352 42.786 45.4351 42.3565Z" fill="url(#paint2_linear_119_5352)"/>
<path d="M15.9843 23.796L30.1384 15.6242C30.9861 15.1347 32.0305 15.1347 32.8782 15.6242L44.7975 22.5057C45.6477 22.9966 45.6477 24.2238 44.7975 24.7146L30.6434 32.8864C29.7957 33.3759 28.7513 33.3759 27.9036 32.8864L15.9843 26.0049C15.1341 25.514 15.1341 24.2868 15.9843 23.796Z" fill="url(#paint3_linear_119_5352)"/>
<path d="M20.5732 21.1463L35.7753 29.9233L39.808 27.595L24.6058 18.8181L20.5732 21.1463Z" fill="#DEA861"/>
<path d="M22.9842 19.7537L38.1864 28.5306L37.3964 28.9866L22.1943 20.2097L22.9842 19.7537Z" fill="#CC8241"/>
<path d="M35.7764 29.9234V33.2537L39.809 30.9254V27.5952L35.7764 29.9234Z" fill="#CC8241"/>
</g>
<defs>
<linearGradient id="paint0_linear_119_5352" x1="14.8001" y1="43.4423" x2="13.7871" y2="41.6879" gradientUnits="userSpaceOnUse">
<stop stop-color="#43386B"/>
<stop offset="1" stop-color="#7662BD"/>
</linearGradient>
<linearGradient id="paint1_linear_119_5352" x1="13.0172" y1="49.4461" x2="13.0172" y2="40.5572" gradientUnits="userSpaceOnUse">
<stop stop-color="#43386B"/>
<stop offset="1" stop-color="#7662BD"/>
</linearGradient>
<linearGradient id="paint2_linear_119_5352" x1="26.8686" y1="37.8051" x2="31.0018" y2="37.8051" gradientUnits="userSpaceOnUse">
<stop stop-color="#CC8241"/>
<stop offset="1" stop-color="#DEA861"/>
</linearGradient>
<linearGradient id="paint3_linear_119_5352" x1="22.0143" y1="19.419" x2="37.4929" y2="28.3556" gradientUnits="userSpaceOnUse">
<stop stop-color="#DEA861"/>
<stop offset="1" stop-color="#EBCBA0"/>
</linearGradient>
<clipPath id="clip0_119_5352">
<rect width="52" height="52" fill="white"/>
</clipPath>
</defs>
</svg>
