<svg width="52" height="52" viewBox="0 0 52 52" fill="none" xmlns="http://www.w3.org/2000/svg">
<path d="M38.1556 1.49207L41.9462 4.45586L38.052 31.8721L14.4521 51.6139L14.0403 51.3504L10.3597 47.8602C9.48948 48.3627 8.50108 48.2503 7.78029 47.7463C7.17548 47.3233 6.26965 46.3419 6.26965 45.4988L5.13672 20.3817C5.13672 18.8277 38.1556 1.49207 38.1556 1.49207Z" fill="url(#paint0_linear_119_5327)"/>
<path d="M44.6445 4.45581V32.8026C44.6445 34.5873 43.6924 36.2363 42.1469 37.1287L16.9523 51.6748C15.3519 52.5987 13.3516 51.4438 13.3516 49.5959V26.7876C13.3516 25.2336 14.1806 23.7977 15.5263 23.0207L41.206 8.19453L44.6445 4.45581Z" fill="url(#paint1_linear_119_5327)"/>
<path d="M42.9241 1.25111C40.0215 -0.419189 36.449 -0.416752 33.5488 1.25771L16.9204 10.8581L16.921 10.8584L5.69624 17.339C4.35044 18.116 3.52148 19.552 3.52148 21.1059V43.9143C3.52148 44.9134 4.10669 45.7091 4.89695 46.0839L7.95306 47.856V47.8558C7.25655 47.4507 6.7596 46.702 6.7596 45.7812V22.9729C6.7596 21.4189 7.58866 19.983 8.93436 19.206L20.1566 12.7269L20.1583 12.7279L36.645 3.20933C37.6355 2.63744 38.8559 2.63703 39.8468 3.20832C40.6293 3.65946 40.6297 4.78853 39.8474 5.24008L23.5191 14.6672L23.5215 14.6685L12.2887 21.1538C10.9429 21.9308 10.1139 23.3666 10.1139 24.9207V47.729C10.1139 48.7282 10.6991 49.5239 11.4894 49.8987L14.5454 51.6708V51.6707C13.8489 51.2656 13.3519 50.5169 13.3519 49.5961V26.7876C13.3519 25.2336 14.181 23.7977 15.5267 23.0207L41.2066 8.19453L42.9283 7.20044C45.2192 5.87789 45.2169 2.57051 42.9241 1.25111Z" fill="url(#paint2_linear_119_5327)"/>
<path d="M19.7582 38.2127V40.284C19.7582 41.707 18.999 43.0218 17.7667 43.7333L14.6103 45.5557C13.8317 46.0052 12.8724 46.0052 12.094 45.5557L3.52148 40.6064V36.8669L19.7582 38.2127Z" fill="url(#paint3_linear_119_5327)"/>
<path d="M18.6167 32.2368L12.8303 34.809L1.43164 28.2279V36.6461L1.43438 36.6475C1.41925 37.0567 1.61242 37.4726 2.01755 37.7066L11.6919 43.2921C12.7189 43.8851 13.9844 43.8851 15.0114 43.2921L19.0105 40.9831C21.2159 39.7097 22.5746 37.3565 22.5746 34.81C22.5746 33.789 21.9967 32.9681 21.2035 32.5568C20.4796 32.1814 19.4237 31.7708 18.6167 32.2368Z" fill="url(#paint4_linear_119_5327)"/>
<path d="M19.7951 31.7403C19.0541 31.3092 18.0993 31.2457 17.2507 31.7357V31.7361L17.2499 31.7358L13.3516 33.9864L3.52098 28.3107V26.2993L2.01755 27.1673C1.23634 27.6183 1.23634 28.746 2.01755 29.197L11.6919 34.7825C12.7189 35.3756 13.9844 35.3756 15.0114 34.7825L18.7693 32.6128C19.5941 32.1366 20.519 32.1841 21.2507 32.5831L21.2527 32.5829L19.7951 31.7403Z" fill="url(#paint5_linear_119_5327)"/>
<path d="M17.3857 37.8733V38.8847C17.3857 40.3681 18.2876 41.05 19.4001 40.4076C20.5126 39.7653 21.4145 38.0421 21.4145 36.5587C21.4145 36.3862 17.387 36.3905 17.3857 37.8733Z" fill="url(#paint6_linear_119_5327)"/>
<path d="M21.4421 34.3429L20.7047 33.9186C20.3532 33.7226 19.8979 33.7442 19.4001 34.0316C18.2876 34.674 17.3857 36.3972 17.3857 37.8805C17.3857 38.7202 17.6748 39.3026 18.1274 39.5339L18.835 39.9435L21.4421 34.3429Z" fill="url(#paint7_linear_119_5327)"/>
<path d="M22.1557 35.9817C22.1557 34.4983 21.2539 33.8165 20.1413 34.4588C19.0288 35.101 18.127 36.8244 18.127 38.3077C18.127 39.7911 19.0288 40.4729 20.1413 39.8305C21.2539 39.1883 22.1557 37.4651 22.1557 35.9817Z" fill="url(#paint8_linear_119_5327)"/>
<path d="M44.6451 32.8027V19.2356C44.5822 19.2123 44.5153 19.2009 44.4344 19.2104L37.7987 19.9906C37.6245 20.0111 37.4427 20.076 37.2608 20.1809C37.079 20.2859 36.8972 20.4309 36.723 20.6116L30.0873 27.4937C29.6563 27.9406 29.3672 28.6484 29.3672 29.2561V34.2399C29.3672 37.8572 30.5579 40.5461 32.5537 41.698L32.5535 41.6984L32.5732 41.7098C32.5763 41.7115 32.5793 41.7133 32.5823 41.715L33.3931 42.1831L42.1475 37.1287C43.6931 36.2365 44.6451 34.5873 44.6451 32.8027Z" fill="url(#paint9_linear_119_5327)"/>
<path d="M50.2085 22.4614L48.124 21.2578C47.947 21.151 47.8326 21.053 47.6346 21.0764L40.9989 21.8566C40.8247 21.8771 40.6428 21.942 40.461 22.0469C40.2792 22.1518 40.0974 22.2968 39.9231 22.4776L33.2875 29.3596C32.8565 29.8065 32.5674 30.5143 32.5674 31.122V36.1058C32.5674 39.7231 33.7581 42.412 35.7538 43.5639L35.7536 43.5644L35.7733 43.5758C35.7763 43.5775 35.7793 43.5794 35.7823 43.5811L37.5252 44.5873L50.2085 22.4614Z" fill="url(#paint10_linear_119_5327)"/>
<path d="M38.7848 40.02L32.5703 36.4321C32.64 39.8847 33.8181 42.4471 35.7534 43.564L35.7532 43.5645L35.7729 43.5758C35.7759 43.5776 35.7789 43.5794 35.7819 43.5811L37.5247 44.5873L38.6416 42.639L38.7848 40.02Z" fill="url(#paint11_linear_119_5327)"/>
<path d="M49.8484 22.3886L43.2127 23.1688C42.8641 23.2098 42.4855 23.4284 42.1369 23.7899L35.5013 30.6719C35.0704 31.1188 34.7812 31.8266 34.7812 32.4344V37.4181C34.7812 42.0679 36.7479 45.1846 39.864 45.4733L42.0205 45.6729C42.4323 45.711 42.9176 45.4309 43.3294 44.9173L45.4858 42.2275C48.6019 38.3408 50.5686 32.9531 50.5686 28.3034V23.3196C50.5684 22.7118 50.2793 22.3379 49.8484 22.3886Z" fill="url(#paint12_linear_119_5327)"/>
<path d="M42.675 24.8109C42.7374 24.7749 42.7989 24.7531 42.8579 24.7462L49.4799 23.9677V28.932C49.4799 30.9442 49.0613 33.1547 48.2691 35.3247C47.477 37.4947 46.3455 39.5307 44.997 41.2126L42.8406 43.9022C42.7895 43.966 42.7322 44.0172 42.675 44.0502C42.6178 44.0832 42.5605 44.0982 42.5095 44.0935L40.353 43.8938C39.0045 43.769 37.8731 43.0394 37.0809 41.784C36.2888 40.5287 35.8701 38.8017 35.8701 36.7895V31.8251L42.4921 24.9574C42.5511 24.8962 42.6126 24.847 42.675 24.8109Z" fill="url(#paint13_linear_119_5327)"/>
<path d="M42.1996 35.7327L38.8652 35.8694V37.4405L38.8681 37.4426C38.8516 37.8767 38.9636 38.2437 39.2069 38.4276L41.3747 40.0664C41.6024 40.2387 41.901 40.2181 42.1996 40.0458C42.4982 39.8735 42.7967 39.5492 43.0245 39.114L42.1996 35.7327Z" fill="url(#paint14_linear_119_5327)"/>
<path d="M46.7635 28.1145C46.308 27.7928 45.5694 28.1965 45.1138 29.067L42.2816 34.4783L41.952 34.2516L40.8013 33.5826L40.8011 33.5849C40.3429 33.3116 39.6446 33.736 39.2069 34.5723C38.7513 35.4428 38.7513 36.4275 39.2069 36.7719L41.3748 38.4107C41.4173 38.4429 41.4629 38.4662 41.51 38.4852L41.5091 38.4871L42.6651 39.1605L47.8392 28.7387C47.8392 28.7387 46.7668 28.117 46.7635 28.1145Z" fill="url(#paint15_linear_119_5327)"/>
<path d="M40.4291 37.4768L39.2061 36.7708C39.2066 36.7712 39.207 36.7717 39.2075 36.772L41.3753 38.4108C41.4179 38.443 41.4635 38.4662 41.5105 38.4852L41.5096 38.4872L42.6657 39.1605L42.722 39.0469L40.4291 37.4768Z" fill="url(#paint16_linear_119_5327)"/>
<path d="M46.7631 28.1145C46.3076 27.7928 45.569 28.1965 45.1134 29.067L42.2812 34.4783L43.4209 35.3399L47.8389 28.7387C47.8389 28.7387 46.7665 28.117 46.7631 28.1145Z" fill="url(#paint17_linear_119_5327)"/>
<path d="M43.4214 39.095C43.1228 39.2673 42.8243 39.2878 42.5965 39.1157L40.4286 37.4769C39.973 37.1325 39.973 36.1477 40.4286 35.2772C40.8841 34.4068 41.6228 33.9803 42.0783 34.3248L43.4213 35.34L46.3354 29.772C46.791 28.9015 47.5296 28.4751 47.9851 28.8196C48.4406 29.164 48.4406 30.1488 47.9851 31.0192L44.2461 38.1632C44.0185 38.5983 43.7199 38.9226 43.4214 39.095Z" fill="url(#paint18_linear_119_5327)"/>
<defs>
<linearGradient id="paint0_linear_119_5327" x1="23.5415" y1="47.96" x2="23.5415" y2="-0.111199" gradientUnits="userSpaceOnUse">
<stop offset="0.0319" stop-color="#8B451C"/>
<stop offset="0.2929" stop-color="#9C4D1F"/>
<stop offset="0.7237" stop-color="#B25823"/>
<stop offset="1" stop-color="#BA5C25"/>
</linearGradient>
<linearGradient id="paint1_linear_119_5327" x1="28.998" y1="49.8165" x2="28.998" y2="20.3963" gradientUnits="userSpaceOnUse">
<stop stop-color="#BA5C25"/>
<stop offset="0.3215" stop-color="#BE642B"/>
<stop offset="0.8231" stop-color="#C87A3B"/>
<stop offset="0.9681" stop-color="#CC8241"/>
</linearGradient>
<linearGradient id="paint2_linear_119_5327" x1="9.67292" y1="37.5082" x2="22.6082" y2="15.1036" gradientUnits="userSpaceOnUse">
<stop stop-color="#CC8241"/>
<stop offset="0.1464" stop-color="#D08A48"/>
<stop offset="0.3749" stop-color="#DAA05A"/>
<stop offset="0.4409" stop-color="#DEA861"/>
<stop offset="0.6189" stop-color="#E3B67A"/>
<stop offset="0.8581" stop-color="#E9C596"/>
<stop offset="0.9972" stop-color="#EBCBA0"/>
</linearGradient>
<linearGradient id="paint3_linear_119_5327" x1="11.6398" y1="38.6769" x2="11.6398" y2="47.2481" gradientUnits="userSpaceOnUse">
<stop offset="0.0319" stop-color="#8B451C"/>
<stop offset="1" stop-color="#8B451C" stop-opacity="0"/>
</linearGradient>
<linearGradient id="paint4_linear_119_5327" x1="11.9446" y1="35.9824" x2="15.568" y2="35.9824" gradientUnits="userSpaceOnUse">
<stop stop-color="#BA5C25"/>
<stop offset="0.3215" stop-color="#BE642B"/>
<stop offset="0.8231" stop-color="#C87A3B"/>
<stop offset="0.9681" stop-color="#CC8241"/>
</linearGradient>
<linearGradient id="paint5_linear_119_5327" x1="2.87088" y1="25.8102" x2="18.7331" y2="35.0042" gradientUnits="userSpaceOnUse">
<stop stop-color="#DEA861"/>
<stop offset="0.319" stop-color="#E3B67A"/>
<stop offset="0.7478" stop-color="#E9C596"/>
<stop offset="0.9972" stop-color="#EBCBA0"/>
</linearGradient>
<linearGradient id="paint6_linear_119_5327" x1="19.4001" y1="37.5953" x2="19.4001" y2="40.9404" gradientUnits="userSpaceOnUse">
<stop offset="0.0319" stop-color="#8B451C"/>
<stop offset="1" stop-color="#8B451C" stop-opacity="0"/>
</linearGradient>
<linearGradient id="paint7_linear_119_5327" x1="19.4139" y1="38.8384" x2="19.4139" y2="31.9861" gradientUnits="userSpaceOnUse">
<stop stop-color="#43386B"/>
<stop offset="1" stop-color="#7662BD"/>
</linearGradient>
<linearGradient id="paint8_linear_119_5327" x1="20.1413" y1="40.0887" x2="17.5503" y2="35.6011" gradientUnits="userSpaceOnUse">
<stop stop-color="#43386B"/>
<stop offset="1" stop-color="#7662BD"/>
</linearGradient>
<linearGradient id="paint9_linear_119_5327" x1="37.0062" y1="42.5277" x2="37.0062" y2="17.5143" gradientUnits="userSpaceOnUse">
<stop offset="0.0319" stop-color="#8B451C"/>
<stop offset="1" stop-color="#8B451C" stop-opacity="0"/>
</linearGradient>
<linearGradient id="paint10_linear_119_5327" x1="37.0963" y1="33.9786" x2="45.3578" y2="19.6691" gradientUnits="userSpaceOnUse">
<stop offset="0.0319" stop-color="#A996EB"/>
<stop offset="0.0645" stop-color="#B3A3ED"/>
<stop offset="0.1414" stop-color="#C7BBF0"/>
<stop offset="0.2286" stop-color="#D6CEF3"/>
<stop offset="0.3305" stop-color="#E1DBF5"/>
<stop offset="0.4611" stop-color="#E7E3F6"/>
<stop offset="0.719" stop-color="#E9E5F6"/>
<stop offset="0.7626" stop-color="#DFDAF0"/>
<stop offset="0.8254" stop-color="#D9D3EC"/>
<stop offset="1" stop-color="#D7D1EB"/>
</linearGradient>
<linearGradient id="paint11_linear_119_5327" x1="35.6775" y1="34.9814" x2="35.6775" y2="40.1715" gradientUnits="userSpaceOnUse">
<stop offset="0.0319" stop-color="#7662BD"/>
<stop offset="1" stop-color="#7662BD" stop-opacity="0"/>
</linearGradient>
<linearGradient id="paint12_linear_119_5327" x1="42.6748" y1="46.699" x2="42.6748" y2="27.8778" gradientUnits="userSpaceOnUse">
<stop stop-color="#DFDAEF"/>
<stop offset="1" stop-color="white"/>
</linearGradient>
<linearGradient id="paint13_linear_119_5327" x1="42.675" y1="47.6806" x2="42.675" y2="29.0728" gradientUnits="userSpaceOnUse">
<stop stop-color="#2F878A"/>
<stop offset="1" stop-color="#06DAAE"/>
</linearGradient>
<linearGradient id="paint14_linear_119_5327" x1="40.9449" y1="34.0274" x2="40.9449" y2="40.9723" gradientUnits="userSpaceOnUse">
<stop offset="0.0319" stop-color="#1A4C4E"/>
<stop offset="1" stop-color="#1A4C4E" stop-opacity="0"/>
</linearGradient>
<linearGradient id="paint15_linear_119_5327" x1="40.6664" y1="37.3265" x2="41.9147" y2="35.1819" gradientUnits="userSpaceOnUse">
<stop offset="0.0319" stop-color="#A996EB"/>
<stop offset="0.6819" stop-color="#D7CFF3"/>
<stop offset="1" stop-color="#E9E5F6"/>
</linearGradient>
<linearGradient id="paint16_linear_119_5327" x1="41.7369" y1="38.5455" x2="39.98" y2="37.0982" gradientUnits="userSpaceOnUse">
<stop offset="0.0319" stop-color="#7662BD"/>
<stop offset="1" stop-color="#7662BD" stop-opacity="0"/>
</linearGradient>
<linearGradient id="paint17_linear_119_5327" x1="43.1035" y1="34.6937" x2="45.7424" y2="30.1603" gradientUnits="userSpaceOnUse">
<stop offset="0.0319" stop-color="#A996EB"/>
<stop offset="0.6819" stop-color="#D7CFF3"/>
<stop offset="1" stop-color="#E9E5F6"/>
</linearGradient>
<linearGradient id="paint18_linear_119_5327" x1="44.2069" y1="38.9744" x2="44.2069" y2="31.0345" gradientUnits="userSpaceOnUse">
<stop stop-color="#DFDAEF"/>
<stop offset="1" stop-color="white"/>
</linearGradient>
</defs>
</svg>
