<svg width="49" height="48" viewBox="0 0 49 48" fill="none" xmlns="http://www.w3.org/2000/svg">
<g clip-path="url(#clip0_330_12443)">
<path d="M22.2139 1.58645L22.2128 1.58739C19.8368 -0.028296 16.4448 0.104079 12.1858 2.56314C5.73191 6.28924 0.5 13.7405 0.5 19.206L25.1286 33.5442L46.4008 15.6033L22.2139 1.58645Z" fill="url(#paint0_linear_330_12443)"/>
<path d="M15.2753 4.34767C19.2071 2.07771 22.3991 1.79167 24.7359 3.03199L23.8731 2.53202L23.872 2.53296C21.4961 0.917268 18.104 1.04964 13.8449 3.50861C7.39109 7.23489 2.15918 14.6861 2.15918 20.1517L3.58971 20.9845C3.59365 15.5195 8.82377 8.07246 15.2753 4.34767Z" fill="#AB2C37"/>
<path d="M21.7108 8.10181C25.6426 5.83184 28.8347 5.54581 31.1714 6.78612L30.3086 6.28615L30.3075 6.28709C27.9316 4.6715 24.5395 4.80387 20.2805 7.26284C13.8266 10.9889 8.59473 18.4403 8.59473 23.9057L10.0253 24.7386C10.0292 19.2736 15.2593 11.8265 21.7108 8.10181Z" fill="#AB2C37"/>
<path d="M28.1424 11.8384C32.0741 9.56843 35.2662 9.2824 37.603 10.5227L36.7402 10.0227L36.7391 10.0237C34.3631 8.40799 30.9711 8.54037 26.712 10.9993C20.2582 14.7256 15.0264 22.1769 15.0264 27.6424L16.4569 28.4752C16.4607 23.0102 21.691 15.5632 28.1424 11.8384Z" fill="#AB2C37"/>
<path d="M34.493 15.5434C38.4247 13.2734 41.6168 12.9874 43.9535 14.2277L43.0908 13.7278L43.0896 13.7287C40.7137 12.113 37.3217 12.2454 33.0626 14.7044C26.6089 18.4306 21.377 25.8819 21.377 31.3474L22.8075 32.1802C22.8113 26.7152 28.0415 19.2682 34.493 15.5434Z" fill="#AB2C37"/>
<path d="M36.8142 16.9014C30.4088 20.5995 25.2098 27.9662 25.1322 33.42L25.1307 33.4237L0.5 19.206V32.3422C0.5 33.2589 0.989094 34.1061 1.78297 34.5644L23.3113 46.9938C24.4371 47.6438 25.8241 47.6437 26.9498 46.9936L47.2172 35.2887C48.011 34.8303 48.4999 33.9833 48.4999 33.0667V20.0507C48.5 14.5853 43.2681 13.1752 36.8142 16.9014Z" fill="url(#paint1_linear_330_12443)"/>
<path d="M47.2173 32.2125L26.9499 43.9173C25.8242 44.5674 24.4372 44.5674 23.3113 43.9176L1.78297 31.4882C0.989094 31.0298 0.5 30.1827 0.5 29.2659V32.3421C0.5 33.2589 0.989094 34.1061 1.78297 34.5644L23.3113 46.9939C24.4371 47.6437 25.8241 47.6437 26.9499 46.9936L47.2173 35.2888C48.0111 34.8304 48.5 33.9833 48.5 33.0667V29.9905C48.5 30.907 48.011 31.7541 47.2173 32.2125Z" fill="url(#paint2_linear_330_12443)"/>
<path d="M34.0029 42.9176L42.4169 38.0598V29.7669L34.0029 34.6442V42.9176Z" fill="#43386B"/>
<path d="M7.98597 30.6547L5.28906 29.1038V24.8882L7.98597 26.4516V30.6547Z" fill="#43386B"/>
<path d="M17.8668 36.4212L15.1699 34.8704V30.6547L17.8668 32.218V36.4212Z" fill="#43386B"/>
<path d="M34.0029 32.1309L36.6998 30.5801V26.3644L34.0029 27.9277V32.1309Z" fill="#43386B"/>
<path d="M39.7197 28.8216L42.4166 27.2708V23.0552L39.7197 24.6185V28.8216Z" fill="#43386B"/>
</g>
<defs>
<linearGradient id="paint0_linear_330_12443" x1="16.0689" y1="28.5692" x2="29.1345" y2="5.9388" gradientUnits="userSpaceOnUse">
<stop stop-color="#AB2C37"/>
<stop offset="0.2007" stop-color="#B52F3B"/>
<stop offset="0.5471" stop-color="#D13846"/>
<stop offset="0.9952" stop-color="#FE4757"/>
<stop offset="1" stop-color="#FF4757"/>
</linearGradient>
<linearGradient id="paint1_linear_330_12443" x1="21.9342" y1="31.1502" x2="25.7815" y2="31.1502" gradientUnits="userSpaceOnUse">
<stop stop-color="#C5BAEB"/>
<stop offset="1" stop-color="#D7D1EB"/>
</linearGradient>
<linearGradient id="paint2_linear_330_12443" x1="22.5402" y1="38.3736" x2="27.9348" y2="38.3736" gradientUnits="userSpaceOnUse">
<stop stop-color="#AB2C37"/>
<stop offset="0.2007" stop-color="#B52F3B"/>
<stop offset="0.5471" stop-color="#D13846"/>
<stop offset="0.9952" stop-color="#FE4757"/>
<stop offset="1" stop-color="#FF4757"/>
</linearGradient>
<clipPath id="clip0_330_12443">
<rect width="48" height="48" fill="white" transform="translate(0.5)"/>
</clipPath>
</defs>
</svg>
