<svg width="49" height="48" viewBox="0 0 49 48" fill="none" xmlns="http://www.w3.org/2000/svg">
<g clip-path="url(#clip0_209_9145)">
<path d="M48.4999 21.5138L19.591 10.6989V12.8098C19.5685 13.149 19.8012 13.5168 20.3025 13.8062C20.7223 14.0485 21.2722 14.2032 21.8245 14.2153C23.0896 14.2429 24.4098 14.5913 25.3896 15.2453C26.869 16.2328 27.023 17.6228 25.7504 18.4849C24.2248 19.5183 12.6882 17.4205 12.6882 17.4205V19.4029L12.6891 19.403C12.7 22.34 14.9607 25.5173 19.3099 28.0283C26.9882 32.4614 38.2646 33.1383 44.4965 29.5404C47.2053 27.9765 48.5143 25.8622 48.499 23.6075L48.4999 23.6076V21.5138Z" fill="url(#paint0_linear_209_9145)"/>
<path d="M41.8773 12.888C35.6035 9.26579 26.9281 8.15185 20.5647 9.8281C19.3775 10.1408 19.2534 11.0896 20.3024 11.6952C20.7222 11.9377 21.2721 12.0923 21.8244 12.1043C23.0895 12.1319 24.4097 12.4804 25.3895 13.1344C26.869 14.1218 27.0229 15.5119 25.7503 16.3739C24.2247 17.4073 21.3307 17.3303 19.4448 16.2414C18.5027 15.6975 17.9988 15.0085 17.953 14.3452C17.9311 14.0297 17.6836 13.7149 17.2684 13.4752L17.2439 13.461C16.1949 12.8554 14.5515 12.927 14.0099 13.6124C11.1066 17.2864 13.0361 22.2951 19.3099 25.9173C26.9882 30.3503 38.2647 31.0273 44.4965 27.4294C50.7282 23.8315 49.5556 17.3211 41.8773 12.888Z" fill="url(#paint1_linear_209_9145)"/>
<path d="M40.8306 16.9665C42.2754 16.1323 42.0943 14.6753 40.4259 13.7121C38.7576 12.7489 36.2339 12.6443 34.7891 13.4784C33.3443 14.3126 33.5255 15.7697 35.1938 16.7329C36.8621 17.6961 39.3858 17.8006 40.8306 16.9665Z" fill="url(#paint2_linear_209_9145)"/>
<path d="M26.3741 25.3131C27.8189 24.4789 27.6378 23.0218 25.9694 22.0586C24.3011 21.0954 21.7774 20.9908 20.3326 21.825C18.8878 22.6592 19.0689 24.1163 20.7373 25.0794C22.4056 26.0426 24.9292 26.1472 26.3741 25.3131Z" fill="url(#paint3_linear_209_9145)"/>
<path d="M45.1488 23.4387C46.5935 22.6045 46.4124 21.1475 44.744 20.1843C43.0757 19.2211 40.552 19.1165 39.1072 19.9507C37.6625 20.7849 37.8436 22.2419 39.5119 23.2051C41.1803 24.1683 43.704 24.2729 45.1488 23.4387Z" fill="url(#paint4_linear_209_9145)"/>
<path d="M37.5843 27.8062C39.0291 26.972 38.848 25.5149 37.1796 24.5517C35.5113 23.5885 32.9876 23.4839 31.5428 24.3181C30.098 25.1523 30.2791 26.6094 31.9475 27.5725C33.6158 28.5356 36.1395 28.6403 37.5843 27.8062Z" fill="url(#paint5_linear_209_9145)"/>
<path d="M9.06069 28.5839C9.06069 28.5839 6.05863 29.1411 3.94251 27.3711C-0.151745 23.9465 0.544911 19.1968 0.544911 19.1968C0.544911 19.1968 5.06788 17.3414 8.56175 18.8457C12.0556 20.3501 11.7256 23.3641 11.7256 23.3641L9.06069 28.5839Z" fill="url(#paint6_linear_209_9145)"/>
<path d="M11.9682 22.4422L11.9679 22.4429C11.5661 22.2184 11.0456 22.2429 10.4765 22.5714C9.20551 23.3052 8.17529 25.2738 8.17529 26.9683C8.17529 27.8706 8.46742 28.5131 8.93232 28.806L12.601 30.9313L15.6937 24.6012L11.9682 22.4422Z" fill="url(#paint7_linear_209_9145)"/>
<path d="M15.9901 28.5659C16.7549 26.7709 16.5517 24.965 15.5362 24.5323C14.5207 24.0996 13.0774 25.204 12.3126 26.999C11.5478 28.794 11.751 30.5999 12.7665 31.0326C13.782 31.4653 15.2253 30.3609 15.9901 28.5659Z" fill="#E9E5F6"/>
<path d="M31.6002 35.766L29.9956 34.3734C25.7358 30.6767 21.0012 27.5656 15.9174 25.1229L15.5964 24.9686C15.5864 24.9634 15.576 24.9589 15.5659 24.9539L15.5299 24.9367L15.5298 24.9369C15.1855 24.7864 14.7561 24.8266 14.2902 25.0956C13.1586 25.7489 12.2412 27.5018 12.2412 29.0106C12.2412 29.8403 12.519 30.4226 12.9569 30.6709L12.9566 30.6715C17.9373 34.0719 23.3782 36.7434 29.1145 38.6049L29.8598 38.8467C30.5749 39.0788 31.3589 38.8434 31.8279 38.256C32.432 37.4993 32.3316 36.4006 31.6002 35.766Z" fill="url(#paint8_linear_209_9145)"/>
</g>
<defs>
<linearGradient id="paint0_linear_209_9145" x1="9.10745" y1="21.2753" x2="79.1599" y2="21.2753" gradientUnits="userSpaceOnUse">
<stop offset="0.0423" stop-color="#8B451C"/>
<stop offset="0.3203" stop-color="#9A5324"/>
<stop offset="0.8507" stop-color="#C0773A"/>
<stop offset="0.9972" stop-color="#CC8241"/>
</linearGradient>
<linearGradient id="paint1_linear_209_9145" x1="11.6796" y1="8.48053" x2="29.2272" y2="38.8729" gradientUnits="userSpaceOnUse">
<stop offset="0.0423" stop-color="#CC8241"/>
<stop offset="0.2452" stop-color="#D18D50"/>
<stop offset="0.6319" stop-color="#DDAB76"/>
<stop offset="0.9972" stop-color="#EBCBA0"/>
</linearGradient>
<linearGradient id="paint2_linear_209_9145" x1="35.2452" y1="18.0402" x2="37.4676" y2="11.8293" gradientUnits="userSpaceOnUse">
<stop stop-color="#AB2C37"/>
<stop offset="1" stop-color="#FF4F5E"/>
</linearGradient>
<linearGradient id="paint3_linear_209_9145" x1="20.0124" y1="25.4891" x2="23.1729" y2="20.0117" gradientUnits="userSpaceOnUse">
<stop offset="0.0028" stop-color="#80E37B"/>
<stop offset="0.7597" stop-color="#A6EBA2"/>
<stop offset="1" stop-color="#B3EEB0"/>
</linearGradient>
<linearGradient id="paint4_linear_209_9145" x1="37.7784" y1="24.1948" x2="41.0444" y2="18.5345" gradientUnits="userSpaceOnUse">
<stop stop-color="#0072BC"/>
<stop offset="1" stop-color="#59ACF9"/>
</linearGradient>
<linearGradient id="paint5_linear_209_9145" x1="31.3066" y1="27.9314" x2="34.0757" y2="23.1323" gradientUnits="userSpaceOnUse">
<stop stop-color="#FFC538"/>
<stop offset="0.508" stop-color="#FAD53D"/>
<stop offset="1" stop-color="#F7E041"/>
</linearGradient>
<linearGradient id="paint6_linear_209_9145" x1="11.2016" y1="26.3142" x2="0.839568" y2="19.5141" gradientUnits="userSpaceOnUse">
<stop offset="0.0423" stop-color="#CC8241"/>
<stop offset="0.2452" stop-color="#D18D50"/>
<stop offset="0.6319" stop-color="#DDAB76"/>
<stop offset="0.9972" stop-color="#EBCBA0"/>
</linearGradient>
<linearGradient id="paint7_linear_209_9145" x1="10.0496" y1="28.8354" x2="12.2186" y2="25.0787" gradientUnits="userSpaceOnUse">
<stop stop-color="#C5BAEB"/>
<stop offset="0.9627" stop-color="#E9E5F6"/>
</linearGradient>
<linearGradient id="paint8_linear_209_9145" x1="20.8411" y1="35.0967" x2="24.0608" y2="29.52" gradientUnits="userSpaceOnUse">
<stop stop-color="#00395E"/>
<stop offset="0.6173" stop-color="#0072BC"/>
<stop offset="1" stop-color="#0197F8"/>
</linearGradient>
<clipPath id="clip0_209_9145">
<rect width="48" height="48" fill="white" transform="translate(0.5)"/>
</clipPath>
</defs>
</svg>
