<svg width="49" height="48" viewBox="0 0 49 48" fill="none" xmlns="http://www.w3.org/2000/svg">
<g clip-path="url(#clip0_209_9224)">
<path d="M8.8251 20.9167L15.5443 17.0374C15.5443 17.0374 13.4762 10.7861 10.7982 12.1777C8.1201 13.5692 8.43519 15.9847 8.52706 17.9539C8.61894 19.9231 8.8251 20.9167 8.8251 20.9167Z" fill="url(#paint0_linear_209_9224)"/>
<path d="M38.4076 35.2427C38.3735 35.2275 38.3397 35.2119 38.3068 35.1929C36.5248 34.1641 35.4179 32.2468 35.4179 30.1892V6.71026C35.4179 4.1281 34.0287 1.72192 31.7924 0.430603C30.7977 -0.143616 29.6102 -0.143616 28.6158 0.430603C28.4646 0.517884 28.324 0.616697 28.1921 0.723759L8.82495 11.9054C14.3479 11.9054 15.5898 17.5339 15.5898 17.5339C15.5898 17.5339 15.5898 41.5534 15.5898 43.7589C15.5898 45.9643 20.4038 47.167 20.4038 47.167L38.4076 36.7726V35.2427Z" fill="url(#paint1_linear_209_9224)"/>
<path d="M40.6127 27.641C40.4979 27.641 40.3905 27.6696 40.2935 27.7164L40.2933 27.7145L40.236 27.7477C40.2227 27.7556 40.2086 27.762 40.1959 27.7708L20.8682 38.9298L20.7129 47.6586L40.0896 36.4688C40.8784 36.0133 41.3493 35.1977 41.3493 34.2869V28.3777C41.3493 27.9708 41.0196 27.641 40.6127 27.641Z" fill="url(#paint2_linear_209_9224)"/>
<path d="M19.4532 48C19.0204 48 18.5879 47.8862 18.1934 47.6585C15.9571 46.3673 14.5679 43.9611 14.5679 41.3788V17.9C14.5679 15.8424 13.461 13.9251 11.679 12.8963C11.1459 12.5884 10.5089 12.5884 9.97578 12.8963C9.44244 13.2041 9.12407 13.7557 9.12407 14.3715V20.3247C9.12407 20.7316 8.79435 21.0613 8.38747 21.0613C7.9806 21.0613 7.65088 20.7315 7.65088 20.3247V14.3715C7.65088 13.2231 8.2446 12.1946 9.23919 11.6204C10.2338 11.0463 11.4211 11.0463 12.4157 11.6204C14.652 12.9115 16.0412 15.3177 16.0412 17.9V41.3788C16.0412 43.4364 17.1481 45.3537 18.9301 46.3826C19.2576 46.5717 19.6487 46.5719 19.9762 46.3826C20.3038 46.1935 20.4993 45.8548 20.4993 45.4766V39.5674C20.4993 39.1606 20.829 38.8308 21.2359 38.8308C21.6428 38.8308 21.9725 39.1606 21.9725 39.5674V45.4766C21.9725 46.3874 21.5016 47.203 20.7128 47.6585C20.3184 47.8861 19.8858 48 19.4532 48Z" fill="#C5BAEB"/>
<path d="M31.8843 9.39141L19.9221 16.2863C19.3102 16.6396 18.8142 17.5872 18.8142 18.403C18.8142 19.2188 19.3102 19.5938 19.9221 19.2405L31.8843 12.3456C32.4961 11.9923 32.9921 11.0446 32.9921 10.2289C32.992 9.41306 32.4961 9.03816 31.8843 9.39141Z" fill="#43386B"/>
<path d="M31.8842 13.972L28.4294 15.9549C27.8176 16.3082 27.3215 17.2558 27.3215 18.0716C27.3215 18.8874 27.8176 19.2623 28.4294 18.9092L31.8842 16.9263C32.496 16.573 32.992 15.6254 32.992 14.8096C32.9919 13.9937 32.496 13.6188 31.8842 13.972Z" fill="#43386B"/>
<path d="M31.8843 21.669L19.9221 28.5639C19.3102 28.9172 18.8142 29.8648 18.8142 30.6806C18.8142 31.4964 19.3102 31.8713 19.9221 31.5182L31.8843 24.6232C32.4961 24.27 32.9921 23.3223 32.9921 22.5066C32.992 21.6907 32.4961 21.3157 31.8843 21.669Z" fill="#43386B"/>
<path d="M31.8842 26.2496L28.4294 28.2325C27.8176 28.5858 27.3215 29.5334 27.3215 30.3492C27.3215 31.165 27.8176 31.5399 28.4294 31.1867L31.8842 29.2038C32.496 28.8505 32.992 27.9029 32.992 27.0871C32.9919 26.2713 32.496 25.8964 31.8842 26.2496Z" fill="#43386B"/>
</g>
<defs>
<linearGradient id="paint0_linear_209_9224" x1="12.0055" y1="13.8055" x2="12.0055" y2="20.0208" gradientUnits="userSpaceOnUse">
<stop stop-color="#C5BAEB"/>
<stop offset="0.1208" stop-color="#CAC0EC"/>
<stop offset="0.642" stop-color="#D9D3EE"/>
<stop offset="1" stop-color="#DFDAEF"/>
</linearGradient>
<linearGradient id="paint1_linear_209_9224" x1="35.8419" y1="42.3839" x2="13.8145" y2="4.23132" gradientUnits="userSpaceOnUse">
<stop stop-color="#C5BAEB"/>
<stop offset="0.023" stop-color="#CAC0EC"/>
<stop offset="0.1222" stop-color="#D9D3EE"/>
<stop offset="0.1903" stop-color="#DFDAEF"/>
<stop offset="0.6648" stop-color="white"/>
<stop offset="0.7595" stop-color="#FCFBFD"/>
<stop offset="0.8544" stop-color="#F1EFF8"/>
<stop offset="0.949" stop-color="#E0DBEF"/>
<stop offset="0.986" stop-color="#D7D1EB"/>
</linearGradient>
<linearGradient id="paint2_linear_209_9224" x1="31.207" y1="38.2239" x2="26.6217" y2="30.2818" gradientUnits="userSpaceOnUse">
<stop stop-color="#C5BAEB"/>
<stop offset="0.1208" stop-color="#CAC0EC"/>
<stop offset="0.642" stop-color="#D9D3EE"/>
<stop offset="1" stop-color="#DFDAEF"/>
</linearGradient>
<clipPath id="clip0_209_9224">
<rect width="48" height="48" fill="white" transform="translate(0.5)"/>
</clipPath>
</defs>
</svg>
