<svg width="49" height="48" viewBox="0 0 49 48" fill="none" xmlns="http://www.w3.org/2000/svg">
<g clip-path="url(#clip0_330_12383)">
<path d="M39.3853 35.2902V17.0282L10.0742 18.2851V36.5471C10.0741 36.9656 10.2812 37.384 10.6954 37.6232L22.3067 44.327C23.1326 44.8038 24.1499 44.8038 24.9758 44.327L38.7642 36.3663C39.1783 36.1272 39.3854 35.7087 39.3853 35.2902Z" fill="url(#paint0_linear_330_12383)"/>
<path d="M47.7804 21.4418L40.8753 17.4551C40.6475 17.3236 40.6466 16.9951 40.8737 16.8623L47.8789 12.7675C48.692 12.2981 48.7104 11.131 47.9124 10.6362L36.7533 3.71615C35.9174 3.19781 34.8641 3.18121 34.0123 3.67302L26.9794 7.78302C26.3394 8.15709 25.5479 8.15915 24.9059 7.78846L17.8758 3.72965C16.8891 3.15993 15.6689 3.17915 14.7006 3.77962L1.77376 11.7959C0.849477 12.3691 0.870758 13.7211 1.81266 14.2649L8.27166 17.994C8.49995 18.1257 8.50023 18.4551 8.27232 18.5873L1.12107 22.7367C0.292977 23.2148 0.292977 24.4101 1.12107 24.8882L12.7329 31.5922C13.5586 32.069 14.576 32.069 15.4017 31.5922L22.1734 27.6632C22.8126 27.2923 23.6013 27.2915 24.2413 27.6609L31.2377 31.7002C32.1942 32.2525 33.3728 32.2525 34.3294 31.7002L47.7806 23.9342C48.7397 23.3802 48.7397 21.9956 47.7804 21.4418Z" fill="url(#paint1_linear_330_12383)"/>
<path d="M10.6954 17.2092L24.4837 9.24854C25.3096 8.77173 26.327 8.77173 27.1528 9.24854L38.7641 15.9523C39.5924 16.4305 39.5924 17.6259 38.7641 18.1042L24.9757 26.0649C24.1499 26.5417 23.1325 26.5417 22.3067 26.0649L10.6954 19.3611C9.86717 18.8829 9.86717 17.6874 10.6954 17.2092Z" fill="url(#paint2_linear_330_12383)"/>
<path d="M38.4048 33.1503L37.1024 31.1965L35.7998 34.6542L36.4857 34.2582V35.4295L37.719 34.7175V33.5462L38.4048 33.1503Z" fill="#5D3645"/>
<path d="M38.4048 34.6156L35.7998 36.1196V36.7532L38.4048 35.2492V34.6156Z" fill="#5D3645"/>
</g>
<defs>
<linearGradient id="paint0_linear_330_12383" x1="21.2985" y1="30.8564" x2="25.325" y2="30.8564" gradientUnits="userSpaceOnUse">
<stop stop-color="#CC8241"/>
<stop offset="1" stop-color="#DEA861"/>
</linearGradient>
<linearGradient id="paint1_linear_330_12383" x1="0.648758" y1="3.14887" x2="38.8998" y2="26.4769" gradientUnits="userSpaceOnUse">
<stop stop-color="#DEA861"/>
<stop offset="0.328" stop-color="#E3B67B"/>
<stop offset="0.7518" stop-color="#E9C596"/>
<stop offset="1" stop-color="#EBCBA0"/>
</linearGradient>
<linearGradient id="paint2_linear_330_12383" x1="28.8865" y1="17.6567" x2="15.312" y2="17.6567" gradientUnits="userSpaceOnUse">
<stop stop-color="#CC8241"/>
<stop offset="1" stop-color="#DEA861"/>
</linearGradient>
<clipPath id="clip0_330_12383">
<rect width="48" height="48" fill="white" transform="translate(0.5)"/>
</clipPath>
</defs>
</svg>
