<svg width="48" height="48" viewBox="0 0 48 48" fill="none" xmlns="http://www.w3.org/2000/svg">
<g clip-path="url(#clip0_330_12305)">
<path d="M27.3258 1.50477L24.8686 0.10518L24.8679 0.107055C24.6116 -0.0489448 24.2751 -0.0407886 23.905 0.172774L10.0222 8.18821C9.22088 8.65077 8.57129 9.89193 8.57129 10.9603V45.3378C8.57129 45.9557 8.78935 46.3788 9.1277 46.5376L9.12723 46.5388L11.5706 47.9302L27.3258 1.50477Z" fill="url(#paint0_linear_330_12305)"/>
<path d="M26.3485 39.8105L12.4655 47.8259C11.6642 48.2885 11.0146 47.7975 11.0146 46.7291V12.3516C11.0146 11.2833 11.6642 10.0422 12.4655 9.57955L26.3485 1.5642C27.1498 1.10155 27.7994 1.59261 27.7994 2.66098V37.0384C27.7994 38.1068 27.1498 39.3479 26.3485 39.8105Z" fill="#7662BD"/>
<path d="M12.5928 11.8696L26.3484 3.92773V35.3084L12.5928 43.2502V11.8696Z" fill="white"/>
<path d="M19.1426 40.6251L21.7636 39.1118V41.745L19.1426 43.2583V40.6251Z" fill="#594A8E"/>
<path d="M15.4502 17.8502L23.8019 13.0283V21.4186L15.4502 26.2404V17.8502Z" fill="#DEA861"/>
<path d="M16.7168 27.6365L22.5345 24.2776V25.9291L16.7168 29.2881V27.6365Z" fill="#D7D1EB"/>
<path d="M17.6094 31.6166L21.6427 29.288V31.5973L17.6094 33.9259V31.6166Z" fill="#F7E041"/>
<path d="M18.7988 15.9324L20.4537 14.977V17.595L18.7988 18.5504V15.9324Z" fill="#CC8241"/>
<path d="M16.0498 22.6692L18.7984 21.0823V21.5995L16.0498 23.1864V22.6692Z" fill="#8B451C"/>
<path d="M16.0498 23.5924L18.1366 22.3876V22.7803L16.0498 23.985V23.5924Z" fill="#8B451C"/>
<path d="M16.0498 24.3051L18.1366 23.1002V23.4929L16.0498 24.6977V24.3051Z" fill="#8B451C"/>
<path d="M39.4276 40.8471V30.3218L22.5342 31.0462V41.5715C22.5342 41.8126 22.6535 42.0538 22.8922 42.1917L29.5844 46.0554C30.0603 46.3302 30.6467 46.3302 31.1227 46.0554L39.0696 41.4672C39.3082 41.3294 39.4276 41.0882 39.4276 40.8471Z" fill="url(#paint1_linear_330_12305)"/>
<path d="M22.8922 30.4261L30.8391 25.838C31.3151 25.5632 31.9015 25.5632 32.3774 25.838L39.0695 29.7017C39.5469 29.9773 39.5469 30.6663 39.0695 30.9419L31.1226 35.53C30.6467 35.8048 30.0603 35.8048 29.5843 35.53L22.8921 31.6663C22.4148 31.3907 22.4148 30.7017 22.8922 30.4261Z" fill="url(#paint2_linear_330_12305)"/>
<path d="M25.4688 28.9384L34.0041 33.8663L36.2682 32.5591L27.7328 27.6312L25.4688 28.9384Z" fill="#DEA861"/>
<path d="M26.8223 28.1564L35.3577 33.0843L34.9142 33.3404L26.3789 28.4126L26.8223 28.1564Z" fill="#CC8241"/>
<path d="M34.0049 33.8663V35.7361L36.2689 34.429V32.5591L34.0049 33.8663Z" fill="#CC8241"/>
</g>
<defs>
<linearGradient id="paint0_linear_330_12305" x1="17.4344" y1="16.2496" x2="19.276" y2="13.0596" gradientUnits="userSpaceOnUse">
<stop stop-color="#43386B"/>
<stop offset="1" stop-color="#A996EB"/>
</linearGradient>
<linearGradient id="paint1_linear_330_12305" x1="29.0032" y1="38.2917" x2="31.3239" y2="38.2917" gradientUnits="userSpaceOnUse">
<stop stop-color="#CC8241"/>
<stop offset="1" stop-color="#DEA861"/>
</linearGradient>
<linearGradient id="paint2_linear_330_12305" x1="26.2777" y1="27.9686" x2="34.9683" y2="32.9861" gradientUnits="userSpaceOnUse">
<stop stop-color="#DEA861"/>
<stop offset="1" stop-color="#EBCBA0"/>
</linearGradient>
<clipPath id="clip0_330_12305">
<rect width="48" height="48" fill="white"/>
</clipPath>
</defs>
</svg>
