<svg width="49" height="48" viewBox="0 0 49 48" fill="none" xmlns="http://www.w3.org/2000/svg">
<path d="M8.79395 30.0586L12.1966 28.1021L12.1967 28.1024C12.817 27.7737 13.6139 27.8205 14.4834 28.3225C16.4615 29.4645 18.065 32.5284 18.065 35.1658C18.065 36.6159 17.5796 37.6337 16.8144 38.0678L16.815 38.069L13.548 39.9497L8.79395 30.0586Z" fill="url(#paint0_linear_330_12418)"/>
<path d="M22.2568 37.8561L25.6595 35.8996L25.6596 35.8999C26.2799 35.5712 27.0768 35.618 27.9462 36.1199C29.9244 37.262 31.5279 40.3258 31.5279 42.9633C31.5279 44.4133 31.0425 45.4312 30.2773 45.8652L30.2779 45.8664L27.0109 47.7471L22.2568 37.8561Z" fill="url(#paint1_linear_330_12418)"/>
<path d="M5.8457 23.594V7.27258L32.042 8.3959V24.7173C32.042 25.0913 31.857 25.4652 31.4868 25.679L21.1093 31.6704C20.3713 32.0965 19.462 32.0965 18.724 31.6704L6.40089 24.5557C6.03067 24.342 5.84561 23.968 5.8457 23.594Z" fill="url(#paint2_linear_330_12418)"/>
<path d="M31.4868 7.43438L19.1637 0.319601C18.4257 -0.106493 17.5164 -0.106493 16.7784 0.319601L6.40089 6.31098C5.66064 6.73838 5.66064 7.80676 6.40089 8.23416L18.724 15.3489C19.462 15.775 20.3714 15.775 21.1094 15.3489L31.4869 9.35757C32.227 8.93016 32.227 7.86169 31.4868 7.43438Z" fill="url(#paint3_linear_330_12418)"/>
<path d="M27.4907 5.12747L14.2551 12.769L10.7441 10.742L23.9799 3.1004L27.4907 5.12747Z" fill="#DEA861"/>
<path d="M25.3929 3.91483L12.1572 11.5565L12.845 11.9535L26.0806 4.31195L25.3929 3.91483Z" fill="#CC8241"/>
<path d="M14.2551 12.769V15.6685L10.7441 13.6415V10.742L14.2551 12.769Z" fill="#BA5C25"/>
<path d="M42.4221 31.5081L39.9129 20.9883C39.6123 19.7279 38.8062 18.6467 37.684 17.9989L32.2909 14.8812C31.9677 14.6947 31.5989 14.7491 31.3422 14.9515L21.9148 20.3944L20.0244 21.4858L20.7665 27.1627L21.9544 27.8574L30.9656 45.4944L42.062 39.0879C42.1396 39.0561 42.2125 39.014 42.2788 38.9627C42.4892 38.8 42.6315 38.546 42.6315 38.2423V33.2866C42.6313 32.6876 42.5612 32.0907 42.4221 31.5081Z" fill="url(#paint4_linear_330_12418)"/>
<path d="M32.6187 38.3125L34.1992 37.4001C34.2935 37.3457 34.4111 37.4137 34.4111 37.5224V38.9098C34.4111 39.0979 34.3108 39.2717 34.1479 39.3657L32.5673 40.2782C32.4731 40.3326 32.3555 40.2646 32.3555 40.1558V38.7684C32.3555 38.5804 32.4558 38.4067 32.6187 38.3125Z" fill="#E9E5F6"/>
<path d="M40.3961 33.8177L41.9766 32.9052C42.0708 32.8508 42.1885 32.9188 42.1885 33.0276V34.415C42.1885 34.603 42.0882 34.7768 41.9252 34.8709L40.3447 35.7833C40.2505 35.8377 40.1328 35.7697 40.1328 35.661V34.2736C40.1329 34.0855 40.2332 33.9117 40.3961 33.8177Z" fill="#E9E5F6"/>
<path d="M19.69 30.5508V22.1601C19.69 21.5083 20.3956 21.1009 20.9601 21.4269L26.3532 24.5444C27.4754 25.1923 28.2815 26.2735 28.5821 27.5338L31.0914 38.0536C31.2303 38.6363 31.3005 39.2332 31.3005 39.8321V44.7879C31.3005 45.4907 30.5396 45.93 29.9309 45.5786L6.91107 32.2469C6.24151 31.8604 5.8291 31.146 5.8291 30.3729V25.1352C5.8291 24.7122 6.28707 24.4479 6.65335 24.6594L18.2433 31.3841C18.8855 31.7567 19.69 31.2933 19.69 30.5508Z" fill="url(#paint5_linear_330_12418)"/>
<path d="M21.083 31.9353V23.3359L25.4355 25.8527C25.8659 26.1012 26.1694 26.5222 26.2692 27.0091L28.1097 35.9961L21.083 31.9353Z" fill="url(#paint6_linear_330_12418)"/>
<path d="M39.5664 21.8182L29.9004 27.3988L31.8871 35.996L41.5531 30.4153L39.5664 21.8182Z" fill="url(#paint7_linear_330_12418)"/>
<path d="M21.0605 40.7268C21.0605 38.0893 22.664 36.877 24.6422 38.0191C26.6203 39.1612 28.2238 42.225 28.2238 44.8625C28.2238 47.4999 26.6202 48.7122 24.6422 47.5702C22.6641 46.4281 21.0605 43.3643 21.0605 40.7268Z" fill="url(#paint8_linear_330_12418)"/>
<path d="M26 45.9266C26.9841 45.5073 27.181 43.7573 26.4399 42.0178C25.6987 40.2783 24.3001 39.2081 23.316 39.6274C22.3319 40.0467 22.135 41.7968 22.8762 43.5362C23.6173 45.2757 25.0159 46.3459 26 45.9266Z" fill="#E9E5F6"/>
<path d="M25.3416 44.3815C25.8429 44.1679 25.9433 43.2763 25.5657 42.3901C25.1881 41.5039 24.4755 40.9587 23.9742 41.1723C23.4728 41.3859 23.3725 42.2775 23.7501 43.1637C24.1277 44.0499 24.8402 44.5951 25.3416 44.3815Z" fill="#7662BD"/>
<path d="M7.59766 32.9293C7.59766 30.2918 9.20125 29.0796 11.1793 30.2216C13.1574 31.3637 14.7609 34.4276 14.7609 37.065C14.7609 39.7025 13.1574 40.9147 11.1793 39.7727C9.20125 38.6307 7.59766 35.5668 7.59766 32.9293Z" fill="url(#paint9_linear_330_12418)"/>
<path d="M12.5352 38.1367C13.5193 37.7174 13.7162 35.9674 12.975 34.2279C12.2338 32.4884 10.8353 31.4182 9.85117 31.8375C8.86709 32.2568 8.67017 34.0069 9.41134 35.7463C10.1525 37.4858 11.5511 38.556 12.5352 38.1367Z" fill="#E9E5F6"/>
<path d="M10.0439 34.3413C10.0439 33.5047 10.5525 33.1202 11.18 33.4824C11.8075 33.8447 12.3161 34.8165 12.3161 35.6531C12.3161 36.4898 11.8075 36.8742 11.18 36.512C10.5526 36.1497 10.0439 35.1779 10.0439 34.3413Z" fill="#7662BD"/>
<path d="M42.5996 37.746L30.9737 44.1115L28.8311 43.0817V45.574L30.6692 46.6352C30.9937 46.8225 31.3935 46.8225 31.718 46.6352L42.9511 40.1498C43.0974 40.0654 43.1704 39.9177 43.1704 39.7699V37.2776L42.5996 37.746Z" fill="url(#paint10_linear_330_12418)"/>
<path d="M29.3283 42.7946L31.3001 43.933L42.6312 37.3911V36.7131L42.9511 36.8978C43.2435 37.0666 43.2435 37.4887 42.9511 37.6574L31.718 44.1429C31.3935 44.3302 30.9937 44.3302 30.6692 44.1429L28.8311 43.0816L29.3283 42.7946Z" fill="#A996EB"/>
<path d="M35.0274 39.5588L39.7791 36.8154V37.6303C39.7791 38.1481 39.5029 38.6266 39.0544 38.8854L35.7412 40.7983C35.4239 40.9815 35.0273 40.7526 35.0273 40.3862L35.0274 39.5588Z" fill="url(#paint11_linear_330_12418)"/>
<defs>
<linearGradient id="paint0_linear_330_12418" x1="13.7721" y1="32.9433" x2="12.2994" y2="30.3926" gradientUnits="userSpaceOnUse">
<stop stop-color="#43386B"/>
<stop offset="1" stop-color="#7662BD"/>
</linearGradient>
<linearGradient id="paint1_linear_330_12418" x1="27.235" y1="40.7407" x2="25.7622" y2="38.19" gradientUnits="userSpaceOnUse">
<stop stop-color="#43386B"/>
<stop offset="1" stop-color="#7662BD"/>
</linearGradient>
<linearGradient id="paint2_linear_330_12418" x1="22.0105" y1="19.6314" x2="18.412" y2="19.6314" gradientUnits="userSpaceOnUse">
<stop stop-color="#DEA861"/>
<stop offset="1" stop-color="#CC8241"/>
</linearGradient>
<linearGradient id="paint3_linear_330_12418" x1="26.2369" y1="3.62363" x2="12.7605" y2="11.4042" gradientUnits="userSpaceOnUse">
<stop stop-color="#DEA861"/>
<stop offset="1" stop-color="#EBCBA0"/>
</linearGradient>
<linearGradient id="paint4_linear_330_12418" x1="38.3277" y1="39.3897" x2="27.2038" y2="17.8539" gradientUnits="userSpaceOnUse">
<stop stop-color="#AB2C37"/>
<stop offset="1" stop-color="#FF4757"/>
</linearGradient>
<linearGradient id="paint5_linear_330_12418" x1="18.5648" y1="37.9816" x2="18.5648" y2="1.00455" gradientUnits="userSpaceOnUse">
<stop stop-color="#AB2C37"/>
<stop offset="1" stop-color="#FF4757"/>
</linearGradient>
<linearGradient id="paint6_linear_330_12418" x1="24.5964" y1="35.5564" x2="24.5964" y2="24.688" gradientUnits="userSpaceOnUse">
<stop stop-color="#43386B"/>
<stop offset="1" stop-color="#7662BD"/>
</linearGradient>
<linearGradient id="paint7_linear_330_12418" x1="35.7268" y1="35.5037" x2="35.7268" y2="23.3325" gradientUnits="userSpaceOnUse">
<stop stop-color="#43386B"/>
<stop offset="1" stop-color="#7662BD"/>
</linearGradient>
<linearGradient id="paint8_linear_330_12418" x1="24.6423" y1="49.4695" x2="24.6423" y2="36.5463" gradientUnits="userSpaceOnUse">
<stop stop-color="#43386B"/>
<stop offset="1" stop-color="#7662BD"/>
</linearGradient>
<linearGradient id="paint9_linear_330_12418" x1="11.1793" y1="41.6721" x2="11.1793" y2="28.7489" gradientUnits="userSpaceOnUse">
<stop stop-color="#43386B"/>
<stop offset="1" stop-color="#7662BD"/>
</linearGradient>
<linearGradient id="paint10_linear_330_12418" x1="30.8415" y1="42.0267" x2="32.571" y2="42.0267" gradientUnits="userSpaceOnUse">
<stop stop-color="#43386B"/>
<stop offset="1" stop-color="#7662BD"/>
</linearGradient>
<linearGradient id="paint11_linear_330_12418" x1="37.4033" y1="40.7223" x2="37.4033" y2="37.2477" gradientUnits="userSpaceOnUse">
<stop stop-color="#43386B"/>
<stop offset="1" stop-color="#594A8E"/>
</linearGradient>
</defs>
</svg>
