<svg width="48" height="48" viewBox="0 0 48 48" fill="none" xmlns="http://www.w3.org/2000/svg">
<g clip-path="url(#clip0_330_12391)">
<path d="M40.1026 37.678V33.4128L7.89746 34.7938V39.0591C7.89737 39.5188 8.1249 39.9786 8.57996 40.2413L21.3377 47.6071C22.2451 48.131 23.3629 48.131 24.2703 47.6071L39.4201 38.8603C39.8752 38.5976 40.1027 38.1378 40.1026 37.678Z" fill="url(#paint0_linear_330_12391)"/>
<path d="M8.57998 33.6117L23.7298 24.8649C24.6371 24.3411 25.755 24.3411 26.6624 24.8649L39.4202 32.2307C40.3302 32.7561 40.3302 34.0696 39.4202 34.595L24.2704 43.3417C23.363 43.8656 22.2452 43.8656 21.3378 43.3417L8.57998 35.976C7.66995 35.4506 7.66995 34.1371 8.57998 33.6117Z" fill="#A996EB"/>
<path d="M18.4976 30.0367V11.9881L14.8008 12.1466V30.1952C14.8008 30.248 14.8269 30.3008 14.8792 30.331L16.3436 31.1765C16.4478 31.2366 16.5761 31.2366 16.6803 31.1765L18.4193 30.1724C18.4716 30.1422 18.4976 30.0895 18.4976 30.0367Z" fill="url(#paint1_linear_330_12391)"/>
<path d="M14.8791 12.0109L16.6182 11.0068C16.7223 10.9466 16.8507 10.9466 16.9548 11.0068L18.4193 11.8524C18.5237 11.9126 18.5237 12.0635 18.4193 12.1238L16.6802 13.1278C16.5761 13.1879 16.4477 13.1879 16.3436 13.1278L14.8791 12.2823C14.7747 12.222 14.7747 12.0712 14.8791 12.0109Z" fill="#DFDAEF"/>
<path d="M24.6999 1.98769L24.7002 1.98704L21.6067 0.200913C21.3475 -0.0148062 20.9664 -0.0773375 20.6332 0.115038L9.04738 6.80419C8.35157 7.20591 7.92285 7.94841 7.92285 8.75185V13.3803C7.92285 13.6959 8.08776 13.9533 8.32138 14.1005L8.32091 14.1014L8.33545 14.1098C8.34501 14.1156 8.35457 14.1211 8.36441 14.1264L11.4627 15.9152C11.722 16.1319 12.1036 16.1949 12.4374 16.0021L24.0233 9.31304C24.7191 8.91132 25.1478 8.16882 25.1478 7.36538V2.73694C25.1477 2.39963 24.9595 2.12823 24.6999 1.98769Z" fill="url(#paint2_linear_330_12391)"/>
<path d="M12.2826 8.68735L23.8685 1.99829C24.4372 1.66988 25.1482 2.08041 25.1482 2.73713V7.36557C25.1482 8.16901 24.7196 8.91151 24.0237 9.31323L12.4379 16.0023C11.8692 16.3306 11.1582 15.9202 11.1582 15.2634V10.635C11.1581 9.83147 11.5867 9.08907 12.2826 8.68735Z" fill="#7662BD"/>
<path d="M12.5186 10.5721L23.9293 3.98401V7.53179L12.5186 14.1199V10.5721Z" fill="#43386B"/>
<path d="M37.0552 33.8872V32.1582L10.9443 33.2779V35.0069C10.9443 35.3797 11.1287 35.7524 11.4976 35.9654L21.8413 41.9373C22.5769 42.362 23.4832 42.362 24.2189 41.9373L36.5018 34.8457C36.8708 34.6327 37.0552 34.26 37.0552 33.8872Z" fill="url(#paint3_linear_330_12391)"/>
<path d="M11.4976 32.3195L23.7806 25.2279C24.5162 24.8033 25.4225 24.8033 26.1582 25.2279L36.5018 31.1998C37.2396 31.6258 37.2396 32.6907 36.5018 33.1167L24.2188 40.2083C23.4832 40.6329 22.5768 40.6329 21.8412 40.2083L11.4976 34.2364C10.7599 33.8104 10.7599 32.7454 11.4976 32.3195Z" fill="#DFDAEF"/>
<path d="M35.4387 32.146V17.892L12.5605 18.8731V33.1272C12.5605 33.4539 12.7221 33.7805 13.0454 33.9671L22.1084 39.1997C22.753 39.5718 23.5471 39.5718 24.1917 39.1997L34.954 32.9861C35.2771 32.7993 35.4387 32.4727 35.4387 32.146Z" fill="url(#paint4_linear_330_12391)"/>
<path d="M13.0454 18.0333L23.8077 11.8197C24.4522 11.4475 25.2463 11.4475 25.8909 11.8197L34.9539 17.0523C35.6004 17.4255 35.6004 18.3586 34.9539 18.7318L24.1917 24.9454C23.5471 25.3176 22.753 25.3176 22.1083 24.9454L13.0453 19.7129C12.3989 19.3396 12.3989 18.4065 13.0454 18.0333Z" fill="url(#paint5_linear_330_12391)"/>
<path d="M16.5352 16.0186L28.0943 22.6923L31.1605 20.922L19.6013 14.2483L16.5352 16.0186Z" fill="#DEA861"/>
<path d="M18.3673 14.9596L29.9264 21.6333L29.3258 21.9801L17.7666 15.3064L18.3673 14.9596Z" fill="#CC8241"/>
<path d="M28.0938 22.6923V25.2245L31.1599 23.4542V20.922L28.0938 22.6923Z" fill="#CC8241"/>
</g>
<defs>
<linearGradient id="paint0_linear_330_12391" x1="20.23" y1="40.7064" x2="24.654" y2="40.7064" gradientUnits="userSpaceOnUse">
<stop stop-color="#43386B"/>
<stop offset="1" stop-color="#7662BD"/>
</linearGradient>
<linearGradient id="paint1_linear_330_12391" x1="16.2165" y1="21.6048" x2="16.7242" y2="21.6048" gradientUnits="userSpaceOnUse">
<stop stop-color="#C5BAEB"/>
<stop offset="1" stop-color="#D7D1EB"/>
</linearGradient>
<linearGradient id="paint2_linear_330_12391" x1="7.92285" y1="8.05866" x2="25.1477" y2="8.05866" gradientUnits="userSpaceOnUse">
<stop stop-color="#43386B"/>
<stop offset="1" stop-color="#7662BD"/>
</linearGradient>
<linearGradient id="paint3_linear_330_12391" x1="20.9431" y1="37.207" x2="24.5299" y2="37.207" gradientUnits="userSpaceOnUse">
<stop stop-color="#C5BAEB"/>
<stop offset="1" stop-color="#D7D1EB"/>
</linearGradient>
<linearGradient id="paint4_linear_330_12391" x1="21.3214" y1="28.6854" x2="24.4642" y2="28.6854" gradientUnits="userSpaceOnUse">
<stop stop-color="#CC8241"/>
<stop offset="1" stop-color="#DEA861"/>
</linearGradient>
<linearGradient id="paint5_linear_330_12391" x1="17.6304" y1="14.7053" x2="29.3997" y2="21.5004" gradientUnits="userSpaceOnUse">
<stop stop-color="#DEA861"/>
<stop offset="1" stop-color="#EBCBA0"/>
</linearGradient>
<clipPath id="clip0_330_12391">
<rect width="48" height="48" fill="white"/>
</clipPath>
</defs>
</svg>
