<svg width="49" height="48" viewBox="0 0 49 48" fill="none" xmlns="http://www.w3.org/2000/svg">
<g clip-path="url(#clip0_209_9198)">
<path d="M48.4973 25.4932L48.4988 25.4935V23.9015L10.1705 13.6555V15.1497C10.1486 15.4107 10.3291 15.6913 10.7042 15.9079L37.0422 31.1141C37.6912 31.4889 38.6729 31.5295 39.2349 31.205L48.1205 26.0749C48.3883 25.9205 48.5108 25.7108 48.4973 25.4932Z" fill="url(#paint0_linear_209_9198)"/>
<path d="M19.4324 7.92235L10.5469 13.0524C9.98487 13.3769 10.0554 13.9437 10.7043 14.3184L37.0423 29.5247C37.6913 29.8994 38.673 29.9401 39.2351 29.6156L48.1206 24.4855C48.6826 24.1611 48.6121 23.5943 47.9632 23.2195L21.6252 8.01329C20.9761 7.63857 19.9945 7.59789 19.4324 7.92235Z" fill="url(#paint1_linear_209_9198)"/>
<path d="M16.8115 13.2629C17.61 12.8019 18.5938 12.8019 19.3922 13.2629L37.8119 23.8974C38.5911 24.3473 38.5911 25.4721 37.8119 25.922C37.0134 26.3829 36.0296 26.3829 35.2311 25.922L16.8115 15.2875C16.0322 14.8376 16.0322 13.7128 16.8115 13.2629Z" fill="url(#paint2_linear_209_9198)"/>
<path d="M47.9632 23.2195L21.6252 8.01329C20.9762 7.63857 19.9945 7.59789 19.4324 7.92235L16.303 9.7292L44.9911 26.2923L48.1206 24.4854C48.6826 24.161 48.6121 23.5942 47.9632 23.2195Z" fill="url(#paint3_linear_209_9198)"/>
<path d="M44.2161 23.4705L46.3069 22.2634L47.4642 22.9316L45.3734 24.1387C45.0966 24.2984 44.6132 24.2785 44.2937 24.094C43.9741 23.9094 43.9394 23.6303 44.2161 23.4705Z" fill="#565D68"/>
<path d="M40.1856 21.1435L42.2764 19.9363L43.4337 20.6045L41.3428 21.8116C41.066 21.9714 40.5826 21.9514 40.2631 21.7669C39.9436 21.5824 39.9089 21.3033 40.1856 21.1435Z" fill="#565D68"/>
<path d="M36.1551 18.8165L38.246 17.6094L39.4032 18.2775L37.3124 19.4847C37.0357 19.6444 36.5522 19.6244 36.2327 19.4399C35.9131 19.2553 35.8783 18.9763 36.1551 18.8165Z" fill="#565D68"/>
<path d="M32.1246 16.4894L34.2154 15.2823L35.3726 15.9504L33.2818 17.1576C33.0051 17.3173 32.5216 17.2974 32.2021 17.1129C31.8826 16.9284 31.8478 16.6493 32.1246 16.4894Z" fill="#565D68"/>
<path d="M28.094 14.1624L30.1849 12.9553L31.3422 13.6235L29.2513 14.8306C28.9745 14.9904 28.4911 14.9704 28.1716 14.7859C27.8521 14.6013 27.8173 14.3222 28.094 14.1624Z" fill="#565D68"/>
<path d="M24.0635 11.8354L26.1544 10.6283L27.3117 11.2964L25.2209 12.5035C24.9441 12.6633 24.4607 12.6433 24.1412 12.4588C23.8215 12.2743 23.7868 11.9952 24.0635 11.8354Z" fill="#565D68"/>
<path d="M20.033 9.50842L22.1239 8.3013L23.2812 8.96936L21.1904 10.1765C20.9136 10.3362 20.4301 10.3163 20.1106 10.1318C19.791 9.94727 19.7563 9.66817 20.033 9.50842Z" fill="#565D68"/>
<path d="M4.97591 16.5542C4.50069 16.2568 3.87125 16.2721 3.18069 16.6708C1.70019 17.5256 0.5 19.8188 0.5 21.7928C0.5 22.9111 0.885312 23.6869 1.4885 23.994L10.409 29.0526L14.0111 21.6796L4.97591 16.5542Z" fill="url(#paint4_linear_209_9198)"/>
<path d="M9.28315 18.5728C8.76218 18.2468 8.07218 18.2636 7.31515 18.7006C5.69215 19.6376 4.37646 22.1515 4.37646 24.3156C4.37646 25.5415 4.7989 26.392 5.46012 26.7288L9.74871 29.1513C10.8516 29.7743 12.2515 29.3396 12.8075 28.2014L14.8216 24.0788C15.3325 23.0331 14.9406 21.7703 13.9274 21.1977L9.28315 18.5728Z" fill="url(#paint5_linear_209_9198)"/>
<path d="M13.907 21.6283C13.4261 21.3275 12.7891 21.343 12.0905 21.7464C10.5925 22.6113 9.37793 24.9317 9.37793 26.9291C9.37793 28.0608 9.76784 28.8458 10.3781 29.1565L28.7375 39.5425L32.3823 32.0819L13.907 21.6283Z" fill="url(#paint6_linear_209_9198)"/>
<path d="M36.9958 40.2949C37.5953 40.3366 37.9723 39.6609 37.6218 39.1727L32.8426 32.5147C32.8411 32.5125 32.8395 32.5104 32.838 32.5083C32.3503 31.8305 31.526 31.6759 30.5912 32.2155C29.0931 33.0804 27.8787 35.4009 27.8787 37.3983C27.8787 38.8832 28.5501 39.7709 29.5101 39.7736L36.9958 40.2949Z" fill="#EBCBA0"/>
<path d="M34.6753 40.1333L36.9957 40.2949C37.5952 40.3366 37.9722 39.661 37.6217 39.1727L36.1157 37.0747L36.1149 37.0764C35.9118 36.7429 35.5427 36.6534 35.1196 36.8976C34.4783 37.2679 33.9583 38.2614 33.9583 39.1165C33.9583 39.6968 34.1979 40.0632 34.5521 40.124L34.5518 40.1245L34.5555 40.1248C34.5943 40.1313 34.6342 40.1343 34.6753 40.1333Z" fill="#565D68"/>
</g>
<defs>
<linearGradient id="paint0_linear_209_9198" x1="37.035" y1="22.5399" x2="39.4412" y2="22.5399" gradientUnits="userSpaceOnUse">
<stop stop-color="#C5BAEB"/>
<stop offset="1" stop-color="#E9E5F6"/>
</linearGradient>
<linearGradient id="paint1_linear_209_9198" x1="34.2811" y1="15.9126" x2="5.05747" y2="32.7849" gradientUnits="userSpaceOnUse">
<stop stop-color="#C5BAEB"/>
<stop offset="0.4836" stop-color="#E9E5F6"/>
<stop offset="1" stop-color="#F2EFFA"/>
</linearGradient>
<linearGradient id="paint2_linear_209_9198" x1="-4.46423" y1="19.5924" x2="27.8816" y2="19.5924" gradientUnits="userSpaceOnUse">
<stop stop-color="#C5BAEB"/>
<stop offset="0.4836" stop-color="#E9E5F6"/>
<stop offset="1" stop-color="#F2EFFA"/>
</linearGradient>
<linearGradient id="paint3_linear_209_9198" x1="26.7747" y1="20.2381" x2="29.7992" y2="14.9964" gradientUnits="userSpaceOnUse">
<stop stop-color="#C5BAEB"/>
<stop offset="0.4836" stop-color="#E9E5F6"/>
<stop offset="1" stop-color="#F2EFFA"/>
</linearGradient>
<linearGradient id="paint4_linear_209_9198" x1="5.94631" y1="23.7545" x2="7.9085" y2="20.3559" gradientUnits="userSpaceOnUse">
<stop stop-color="#AB2C37"/>
<stop offset="0.6173" stop-color="#FF4F5E"/>
<stop offset="1" stop-color="#FF7A85"/>
</linearGradient>
<linearGradient id="paint5_linear_209_9198" x1="8.55003" y1="25.4414" x2="10.6922" y2="21.7311" gradientUnits="userSpaceOnUse">
<stop stop-color="#C5BAEB"/>
<stop offset="0.4836" stop-color="#E9E5F6"/>
<stop offset="1" stop-color="#F2EFFA"/>
</linearGradient>
<linearGradient id="paint6_linear_209_9198" x1="19.1949" y1="32.1721" x2="21.3023" y2="28.5219" gradientUnits="userSpaceOnUse">
<stop stop-color="#FFC538"/>
<stop offset="0.508" stop-color="#FAD53D"/>
<stop offset="1" stop-color="#F7E041"/>
</linearGradient>
<clipPath id="clip0_209_9198">
<rect width="48" height="48" fill="white" transform="translate(0.5)"/>
</clipPath>
</defs>
</svg>
