<svg width="49" height="48" viewBox="0 0 49 48" fill="none" xmlns="http://www.w3.org/2000/svg">
<g clip-path="url(#clip0_330_12354)">
<path d="M45.0147 35.0023V32.0895L29.5265 22.8658L3.9834 33.2596V34.6987C3.9834 36.502 4.9464 38.1679 6.50893 39.068L21.614 47.7784C22.0782 48.0464 22.7804 48.0755 23.1824 47.8434L44.7443 35.3946C44.9259 35.2896 45.0142 35.1493 45.0147 35.0023Z" fill="url(#paint0_linear_330_12354)"/>
<path d="M29.2693 1.68348L26.7833 0.071071L26.7832 0.0712585C26.6519 -0.0250227 26.472 -0.027554 26.2733 0.0871023L4.71127 12.536C4.30927 12.7681 3.9834 13.3907 3.9834 13.9267V34.2546C3.9834 34.5622 4.09102 34.7736 4.25846 34.8548L6.75174 36.2939L28.6496 2.62145L29.2693 1.68348Z" fill="url(#paint1_linear_330_12354)"/>
<path d="M28.7986 1.7247L7.23666 14.1735C6.83466 14.4056 6.50879 15.0282 6.50879 15.5642V36.155L8.88395 35.4328L29.5264 23.3845V22.8658V2.27492C29.5264 1.73905 29.2005 1.49267 28.7986 1.7247Z" fill="url(#paint2_linear_330_12354)"/>
<path d="M7.85449 15.3707V31.6463L28.1803 19.9111V3.63562L7.85449 15.3707Z" fill="url(#paint3_linear_330_12354)"/>
<path d="M44.6316 31.5763L29.5265 22.8659L6.50879 36.1551L21.6139 44.8655C22.078 45.1335 22.7802 45.1625 23.1822 44.9304L44.7442 32.4817C45.1462 32.2496 45.0957 31.8442 44.6316 31.5763Z" fill="url(#paint4_linear_330_12354)"/>
<path d="M36.8073 28.9495L30.2076 25.124C29.7862 24.8807 29.267 24.8807 28.8455 25.124L10.775 35.557C10.3146 35.8227 10.3146 36.4873 10.775 36.7532L17.3747 40.5787C17.7961 40.822 18.3154 40.822 18.7368 40.5787L36.8073 30.1457C37.2677 29.8798 37.2677 29.2152 36.8073 28.9495Z" fill="#C5BAEB"/>
<path d="M26.2782 37.3437L33.0071 33.4588C33.3644 33.2525 33.8046 33.2525 34.162 33.4588L36.652 34.8964C36.9799 35.0858 36.9799 35.5591 36.652 35.7484L29.9231 39.6333C29.5658 39.8396 29.1255 39.8396 28.7683 39.6333L26.2783 38.1957C25.9502 38.0065 25.9502 37.5331 26.2782 37.3437Z" fill="#C5BAEB"/>
<path d="M11.5997 35.8295L13.8192 34.548C14.0769 34.3993 14.3943 34.3993 14.6519 34.548L15.3102 34.9281C15.5265 35.053 15.5265 35.3651 15.3102 35.49L13.0907 36.7714C12.8331 36.9202 12.5156 36.9202 12.258 36.7714L11.5997 36.3914C11.3834 36.2665 11.3834 35.9543 11.5997 35.8295Z" fill="#E9E5F6"/>
<path d="M15.4317 33.6095L17.6513 32.328C17.9089 32.1792 18.2263 32.1792 18.484 32.328L19.1423 32.7081C19.3586 32.833 19.3586 33.145 19.1423 33.2699L16.9227 34.5514C16.6651 34.7001 16.3477 34.7001 16.0901 34.5514L15.4317 34.1713C15.2155 34.0465 15.2155 33.7344 15.4317 33.6095Z" fill="#E9E5F6"/>
<path d="M19.2647 31.3896L21.4842 30.1081C21.7418 29.9593 22.0593 29.9593 22.3169 30.1081L22.9752 30.4882C23.1915 30.613 23.1915 30.9251 22.9752 31.05L20.7557 32.3315C20.4981 32.4803 20.1806 32.4803 19.923 32.3315L19.2647 31.9514C19.0485 31.8265 19.0485 31.5144 19.2647 31.3896Z" fill="#E9E5F6"/>
<path d="M23.0968 29.1696L25.3163 27.8881C25.5739 27.7394 25.8914 27.7394 26.149 27.8881L26.8073 28.2682C27.0236 28.3931 27.0236 28.7052 26.8073 28.83L24.5878 30.1115C24.3302 30.2603 24.0127 30.2603 23.7551 30.1115L23.0968 29.7314C22.8805 29.6067 22.8805 29.2945 23.0968 29.1696Z" fill="#E9E5F6"/>
<path d="M26.9288 26.9497L29.1483 25.6682C29.406 25.5194 29.7234 25.5194 29.981 25.6682L30.6393 26.0483C30.8556 26.1732 30.8556 26.4853 30.6393 26.6101L28.4198 27.8915C28.1622 28.0403 27.8448 28.0403 27.5871 27.8915L26.9288 27.5114C26.7125 27.3867 26.7125 27.0746 26.9288 26.9497Z" fill="#E9E5F6"/>
<path d="M13.7042 37.0347L15.9237 35.7532C16.1814 35.6045 16.4988 35.6045 16.7564 35.7532L18.073 36.5253C18.2893 36.6502 18.2893 36.9622 18.073 37.0871L15.8535 38.3686C15.5959 38.5174 15.2785 38.5174 15.0208 38.3686L13.7042 37.5966C13.4879 37.4718 13.4879 37.1596 13.7042 37.0347Z" fill="#E9E5F6"/>
<path d="M17.5362 34.8148L19.7558 33.5333C20.0134 33.3846 20.3308 33.3846 20.5885 33.5333L21.9051 34.3054C22.1214 34.4302 22.1214 34.7423 21.9051 34.8672L19.6855 36.1487C19.4279 36.2975 19.1105 36.2975 18.8529 36.1487L17.5362 35.3767C17.32 35.2518 17.32 34.9397 17.5362 34.8148Z" fill="#E9E5F6"/>
<path d="M21.3692 32.5948L23.5888 31.3134C23.8464 31.1647 24.1638 31.1647 24.4215 31.3134L25.7381 32.0854C25.9544 32.2103 25.9544 32.5224 25.7381 32.6472L23.5186 33.9286C23.2609 34.0774 22.9435 34.0774 22.6859 33.9286L21.3692 33.1566C21.153 33.0319 21.153 32.7197 21.3692 32.5948Z" fill="#E9E5F6"/>
<path d="M25.2013 30.3749L27.4208 29.0935C27.6784 28.9447 27.9959 28.9447 28.2535 29.0935L29.5701 29.8655C29.7864 29.9904 29.7864 30.3025 29.5701 30.4273L27.3506 31.7088C27.093 31.8576 26.7755 31.8576 26.5179 31.7088L25.2013 30.9368C24.985 30.8119 24.985 30.4998 25.2013 30.3749Z" fill="#E9E5F6"/>
<path d="M29.0333 28.1549L31.2528 26.8735C31.5105 26.7248 31.8279 26.7248 32.0855 26.8735L33.4021 27.6456C33.6184 27.7705 33.6184 28.0825 33.4021 28.2074L31.1826 29.4889C30.925 29.6376 30.6076 29.6376 30.3499 29.4889L29.0333 28.7169C28.817 28.592 28.817 28.2798 29.0333 28.1549Z" fill="#E9E5F6"/>
<path d="M16.5352 38.6658L18.7547 37.3843C19.0123 37.2357 19.3298 37.2357 19.5874 37.3843L20.904 38.1564C21.1203 38.2813 21.1203 38.5933 20.904 38.7182L18.6845 39.9997C18.4269 40.1485 18.1094 40.1485 17.8518 39.9997L16.5352 39.2277C16.319 39.1028 16.319 38.7907 16.5352 38.6658Z" fill="#E9E5F6"/>
<path d="M20.3673 36.4459L22.5868 35.1644C22.8444 35.0157 23.1619 35.0157 23.4195 35.1644L24.7361 35.9365C24.9524 36.0613 24.9524 36.3734 24.7361 36.4983L22.5166 37.7798C22.259 37.9286 21.9415 37.9286 21.6839 37.7798L20.3673 37.0078C20.151 36.8829 20.151 36.5707 20.3673 36.4459Z" fill="#E9E5F6"/>
<path d="M24.2003 34.2259L26.4198 32.9445C26.6775 32.7958 26.9949 32.7958 27.2525 32.9445L28.5691 33.7165C28.7854 33.8414 28.7854 34.1535 28.5691 34.2783L26.3496 35.5598C26.092 35.7085 25.7745 35.7085 25.5169 35.5598L24.2003 34.7878C23.984 34.6629 23.984 34.3508 24.2003 34.2259Z" fill="#E9E5F6"/>
<path d="M28.0323 32.006L30.2519 30.7245C30.5095 30.5757 30.8269 30.5757 31.0845 30.7245L32.4012 31.4965C32.6175 31.6214 32.6175 31.9335 32.4012 32.0584L30.1816 33.3398C29.924 33.4886 29.6066 33.4886 29.349 33.3398L28.0323 32.5678C27.816 32.4429 27.816 32.1308 28.0323 32.006Z" fill="#E9E5F6"/>
<path d="M31.8644 29.786L34.0839 28.5045C34.3415 28.3557 34.659 28.3557 34.9166 28.5045L36.2332 29.2766C36.4495 29.4014 36.4495 29.7135 36.2332 29.8384L34.0137 31.1199C33.756 31.2686 33.4386 31.2686 33.181 31.1199L31.8644 30.3478C31.6481 30.2231 31.6481 29.9109 31.8644 29.786Z" fill="#E9E5F6"/>
<path d="M28.1803 7.28203V3.63562L7.85449 15.3707V27.6079L28.1803 7.28203Z" fill="url(#paint5_linear_330_12354)"/>
</g>
<defs>
<linearGradient id="paint0_linear_330_12354" x1="22.8361" y1="35.4329" x2="25.5053" y2="35.4329" gradientUnits="userSpaceOnUse">
<stop stop-color="#C5BAEB"/>
<stop offset="1" stop-color="#E9E5F6"/>
</linearGradient>
<linearGradient id="paint1_linear_330_12354" x1="10.0207" y1="19.0247" x2="11.5247" y2="16.4196" gradientUnits="userSpaceOnUse">
<stop stop-color="#C5BAEB"/>
<stop offset="1" stop-color="#E9E5F6"/>
</linearGradient>
<linearGradient id="paint2_linear_330_12354" x1="18.0176" y1="58.5164" x2="18.0176" y2="6.10123" gradientUnits="userSpaceOnUse">
<stop stop-color="#C5BAEB"/>
<stop offset="0.4836" stop-color="#E9E5F6"/>
<stop offset="1" stop-color="#F2EFFA"/>
</linearGradient>
<linearGradient id="paint3_linear_330_12354" x1="18.0175" y1="35.4663" x2="18.0175" y2="-2.6056" gradientUnits="userSpaceOnUse">
<stop stop-color="#0072BC"/>
<stop offset="0.3545" stop-color="#59ACF9"/>
<stop offset="0.6972" stop-color="#70C8FD"/>
<stop offset="0.8982" stop-color="#79D3FE"/>
</linearGradient>
<linearGradient id="paint4_linear_330_12354" x1="40.5551" y1="42.5172" x2="12.4682" y2="26.3013" gradientUnits="userSpaceOnUse">
<stop stop-color="#C5BAEB"/>
<stop offset="0.4836" stop-color="#E9E5F6"/>
<stop offset="1" stop-color="#F2EFFA"/>
</linearGradient>
<linearGradient id="paint5_linear_330_12354" x1="27.509" y1="35.629" x2="16.9647" y2="13.4027" gradientUnits="userSpaceOnUse">
<stop stop-color="white"/>
<stop offset="1" stop-color="white" stop-opacity="0"/>
</linearGradient>
<clipPath id="clip0_330_12354">
<rect width="48" height="48" fill="white" transform="translate(0.5)"/>
</clipPath>
</defs>
</svg>
