<svg width="49" height="48" viewBox="0 0 49 48" fill="none" xmlns="http://www.w3.org/2000/svg">
<g clip-path="url(#clip0_330_12327)">
<path d="M10.7304 11.9967C10.4568 11.9967 10.1797 11.9269 9.9257 11.7804L7.36707 10.3032C6.59579 9.85785 6.3316 8.87169 6.77682 8.10041C7.22213 7.32922 8.20838 7.06503 8.97957 7.51016L11.5382 8.98738C12.3094 9.43269 12.5737 10.4188 12.1284 11.1901C11.8298 11.7073 11.2877 11.9967 10.7304 11.9967Z" fill="#43386B"/>
<path d="M23.3848 4.69089C23.1112 4.69089 22.8341 4.62114 22.5801 4.47461L20.0419 3.00911C19.2707 2.5638 19.0064 1.57764 19.4516 0.80636C19.8968 0.0351728 20.8833 -0.228921 21.6544 0.21611L24.1926 1.68161C24.9638 2.12692 25.2281 3.11308 24.7829 3.88436C24.4843 4.40167 23.9421 4.69089 23.3848 4.69089Z" fill="#43386B"/>
<path d="M11.001 38.269L13.1614 37.0268L13.1614 37.027C13.5553 36.8183 14.0613 36.848 14.6133 37.1666C15.8691 37.8917 16.8873 39.837 16.8873 41.5116C16.8873 42.4322 16.5791 43.0784 16.0933 43.3541L16.0937 43.3548L14.0194 44.5489L11.001 38.269Z" fill="url(#paint0_linear_330_12327)"/>
<path d="M10.2422 40.0916C10.2422 38.4171 11.2603 37.6474 12.5162 38.3725C13.7721 39.0976 14.7902 41.0429 14.7902 42.7175C14.7902 44.392 13.7721 45.1617 12.5162 44.4366C11.2603 43.7114 10.2422 41.7662 10.2422 40.0916Z" fill="url(#paint1_linear_330_12327)"/>
<path d="M13.3852 43.3922C14.0101 43.126 14.1351 42.0149 13.6645 40.9105C13.194 39.8061 12.306 39.1266 11.6811 39.3928C11.0563 39.6591 10.9313 40.7702 11.4019 41.8746C11.8724 42.979 12.7604 43.6585 13.3852 43.3922Z" fill="#E9E5F6"/>
<path d="M11.7949 40.9881C11.7949 40.4569 12.1179 40.2128 12.5162 40.4429C12.9146 40.6728 13.2375 41.2899 13.2375 41.8211C13.2375 42.3523 12.9146 42.5964 12.5162 42.3663C12.1179 42.1363 11.7949 41.5193 11.7949 40.9881Z" fill="#7662BD"/>
<path d="M22.1161 46.9885C21.8923 46.9885 21.6655 46.9315 21.4577 46.8116L13.388 42.1525C12.9799 41.9169 12.7284 41.4813 12.7284 41.0099V13.0601L10.072 11.5264C9.44093 11.1622 9.22474 10.3553 9.58915 9.72423C9.95346 9.09329 10.7602 8.87673 11.3913 9.24141L14.7073 11.1559C15.1154 11.3916 15.367 11.8271 15.367 12.2985V40.2483L22.7771 44.5266C23.4081 44.8909 23.6243 45.6978 23.2599 46.3288C23.0156 46.7518 22.572 46.9885 22.1161 46.9885Z" fill="#7662BD"/>
<path d="M34.7908 39.6946C34.567 39.6946 34.3401 39.6376 34.1324 39.5177L26.0626 34.8586C25.6545 34.6229 25.403 34.1874 25.403 33.716V5.76621L22.7263 4.22064C22.0952 3.85643 21.879 3.04952 22.2434 2.41849C22.6077 1.78755 23.4146 1.57108 24.0456 1.93558L27.382 3.86186C27.7901 4.09755 28.0416 4.53311 28.0416 5.00449V32.9543L35.4517 37.2326C36.0827 37.5969 36.2989 38.4038 35.9345 39.0348C35.6902 39.4579 35.2467 39.6946 34.7908 39.6946Z" fill="#7662BD"/>
<path d="M14.0494 13.6179C13.5927 13.6179 13.1486 13.3806 12.9046 12.9564C12.5411 12.3249 12.7585 11.5183 13.39 11.1549L26.0646 3.86091C26.6963 3.49763 27.5029 3.71485 27.8662 4.34635C28.2297 4.97785 28.0123 5.78448 27.3808 6.14795L14.7062 13.4419C14.4987 13.5611 14.2725 13.6179 14.0494 13.6179Z" fill="#7662BD"/>
<path d="M14.0493 21.3134C13.5932 21.3134 13.1499 21.0768 12.9055 20.6535C12.5412 20.0225 12.7574 19.2156 13.3883 18.8513L26.0629 11.5336C26.6941 11.1694 27.5008 11.3858 27.8651 12.0165C28.2294 12.6476 28.0133 13.4545 27.3822 13.8188L14.7076 21.1364C14.5 21.2563 14.273 21.3134 14.0493 21.3134Z" fill="#7662BD"/>
<path d="M42.4399 39.0984V21.794L14.666 22.985V40.2893C14.666 40.6858 14.8621 41.0823 15.2546 41.3089L26.257 47.6611C27.0395 48.1129 28.0035 48.1129 28.7861 47.6611L41.8514 40.1179C42.2438 39.8914 42.44 39.4949 42.4399 39.0984Z" fill="url(#paint2_linear_330_12327)"/>
<path d="M15.2546 21.9656L28.3199 14.4223C29.1024 13.9706 30.0664 13.9706 30.849 14.4223L41.8514 20.7746C42.6362 21.2276 42.6362 22.3604 41.8514 22.8135L28.7861 30.3567C28.0036 30.8085 27.0395 30.8085 26.257 30.3567L15.2546 24.0045C14.4698 23.5514 14.4698 22.4186 15.2546 21.9656Z" fill="url(#paint3_linear_330_12327)"/>
<path d="M19.4912 19.5197L33.5239 27.6215L37.2463 25.4724L23.2136 17.3706L19.4912 19.5197Z" fill="#DEA861"/>
<path d="M21.7154 18.2341L35.7482 26.3359L35.019 26.7569L20.9863 18.6551L21.7154 18.2341Z" fill="#CC8241"/>
<path d="M33.5234 27.6215V30.6955L37.2459 28.5464V25.4724L33.5234 27.6215Z" fill="#CC8241"/>
</g>
<defs>
<linearGradient id="paint0_linear_330_12327" x1="14.1617" y1="40.1005" x2="13.2266" y2="38.481" gradientUnits="userSpaceOnUse">
<stop stop-color="#43386B"/>
<stop offset="1" stop-color="#7662BD"/>
</linearGradient>
<linearGradient id="paint1_linear_330_12327" x1="12.5162" y1="45.6425" x2="12.5162" y2="37.4374" gradientUnits="userSpaceOnUse">
<stop stop-color="#43386B"/>
<stop offset="1" stop-color="#7662BD"/>
</linearGradient>
<linearGradient id="paint2_linear_330_12327" x1="25.3017" y1="34.8971" x2="29.1169" y2="34.8971" gradientUnits="userSpaceOnUse">
<stop stop-color="#CC8241"/>
<stop offset="1" stop-color="#DEA861"/>
</linearGradient>
<linearGradient id="paint3_linear_330_12327" x1="20.8207" y1="17.9253" x2="35.1087" y2="26.1745" gradientUnits="userSpaceOnUse">
<stop stop-color="#DEA861"/>
<stop offset="1" stop-color="#EBCBA0"/>
</linearGradient>
<clipPath id="clip0_330_12327">
<rect width="48" height="48" fill="white" transform="translate(0.5)"/>
</clipPath>
</defs>
</svg>
