<svg width="80" height="80" viewBox="0 0 80 80" fill="none" xmlns="http://www.w3.org/2000/svg">
<g clip-path="url(#clip0_119_5391)">
<path d="M53.2191 1.30808L51.3123 0.173708C50.9361 -0.0725423 50.4334 -0.0658236 49.8808 0.253239L20.2002 17.3892C19.0347 18.0621 18.0898 19.8675 18.0898 21.4214V77.0268C18.0898 77.9448 18.4197 78.5696 18.93 78.7886L19.8312 79.3362L20.622 79.7992L53.2191 1.30808Z" fill="url(#paint0_linear_119_5391)"/>
<path d="M51.7734 62.6107L22.0927 79.7468C20.9273 80.4198 19.9824 79.7054 19.9824 78.1515V22.5461C19.9824 20.992 20.9273 19.1868 22.0927 18.5139L51.7734 1.37778C52.9388 0.704812 53.8837 1.41919 53.8837 2.97309V58.5786C53.8837 60.1326 52.9388 61.9379 51.7734 62.6107Z" fill="url(#paint1_linear_119_5391)"/>
<path d="M39.6368 15.0911L24.5223 23.794C23.8665 24.1726 23.335 25.1882 23.335 26.0626C23.335 26.9369 23.8665 27.3386 24.5223 26.9602L39.6368 18.2574C40.2926 17.8788 40.8242 16.8632 40.8242 15.9888C40.8242 15.1144 40.2926 14.7127 39.6368 15.0911Z" fill="#43386B"/>
<path d="M49.3437 19.5138L24.5223 34.0415C23.8665 34.4201 23.335 35.4357 23.335 36.3101C23.335 37.1844 23.8665 37.5862 24.5223 37.2077L49.3437 22.6801C49.9995 22.3015 50.5311 21.2859 50.5311 20.4115C50.5311 19.5371 49.9995 19.1352 49.3437 19.5138Z" fill="#43386B"/>
<path d="M49.3437 28.5031L24.5223 43.0307C23.8665 43.4093 23.335 44.425 23.335 45.2993C23.335 46.1737 23.8665 46.5754 24.5223 46.197L49.3437 31.6693C49.9995 31.2907 50.5311 30.2751 50.5311 29.4007C50.5311 28.5264 49.9995 28.1245 49.3437 28.5031Z" fill="#43386B"/>
<path d="M49.3437 37.4926L24.5223 52.0202C23.8665 52.3988 23.335 53.4145 23.335 54.2888C23.335 55.1632 23.8665 55.5651 24.5223 55.1865L49.3437 40.6588C49.9995 40.2802 50.5311 39.2646 50.5311 38.3902C50.5311 37.5159 49.9995 37.114 49.3437 37.4926Z" fill="#43386B"/>
<path d="M47.1729 54.2026L39.1533 54.5315V58.3103L39.1602 58.3153C39.1205 59.3592 39.39 60.2422 39.975 60.6844L45.1889 64.6259C45.7368 65.0401 46.4547 64.9908 47.1729 64.5762C47.8908 64.1617 48.6089 63.3819 49.1568 62.3351L47.1729 54.2026Z" fill="url(#paint2_linear_119_5391)"/>
<path d="M58.1496 35.8803C57.0539 35.1066 55.2775 36.0775 54.1818 38.1711L47.37 51.1859L46.5772 50.6405L43.8097 49.0314L43.8091 49.037C42.7071 48.3797 41.0277 49.4005 39.975 51.4119C38.8794 53.5055 38.8794 55.8739 39.975 56.7023L45.1889 60.6439C45.2913 60.7212 45.4011 60.7772 45.5141 60.8228L45.5118 60.8275L48.2922 62.447L60.7368 37.3814C60.7369 37.3814 58.1577 35.8862 58.1496 35.8803Z" fill="url(#paint3_linear_119_5391)"/>
<path d="M42.9132 58.3977L39.9717 56.6995C39.9729 56.7004 39.9739 56.7015 39.9751 56.7026L45.189 60.6442C45.2914 60.7215 45.4012 60.7774 45.5142 60.8231L45.5118 60.8277L48.2923 62.4473L48.4279 62.174L42.9132 58.3977Z" fill="url(#paint4_linear_119_5391)"/>
<path d="M58.1496 35.8803C57.054 35.1066 55.2776 36.0775 54.1818 38.1711L47.3701 51.1859L50.1111 53.2581L60.737 37.3814C60.737 37.3814 58.1578 35.8862 58.1496 35.8803Z" fill="url(#paint5_linear_119_5391)"/>
<path d="M50.1113 62.2896C49.3932 62.7041 48.6752 62.7535 48.1274 62.3392L42.9135 58.3977C41.8179 57.5694 41.8179 55.2008 42.9135 53.1072C44.0091 51.0138 45.7857 49.988 46.8813 50.8164L50.1113 53.2582L57.1202 39.8664C58.216 37.7728 59.9924 36.7472 61.0881 37.5757C62.1838 38.4039 62.1838 40.7725 61.0881 42.8661L52.0952 60.0485C51.5474 61.0952 50.8293 61.8749 50.1113 62.2896Z" fill="url(#paint6_linear_119_5391)"/>
</g>
<defs>
<linearGradient id="paint0_linear_119_5391" x1="31.4261" y1="29.0614" x2="35.3159" y2="22.3239" gradientUnits="userSpaceOnUse">
<stop offset="0.0319" stop-color="#A996EB"/>
<stop offset="0.2213" stop-color="#BFB3EB"/>
<stop offset="0.4108" stop-color="#D1C9EB"/>
<stop offset="0.5321" stop-color="#D7D1EB"/>
<stop offset="1" stop-color="#E9E5F6"/>
</linearGradient>
<linearGradient id="paint1_linear_119_5391" x1="36.933" y1="120.391" x2="36.933" y2="3.87966" gradientUnits="userSpaceOnUse">
<stop stop-color="#DFDAEF"/>
<stop offset="1" stop-color="white"/>
</linearGradient>
<linearGradient id="paint2_linear_119_5391" x1="44.155" y1="50.1014" x2="44.155" y2="66.8047" gradientUnits="userSpaceOnUse">
<stop stop-color="#7662BD"/>
<stop offset="1" stop-color="#7662BD" stop-opacity="0"/>
</linearGradient>
<linearGradient id="paint3_linear_119_5391" x1="43.4854" y1="58.0359" x2="46.4877" y2="52.8781" gradientUnits="userSpaceOnUse">
<stop stop-color="#2F878A"/>
<stop offset="0.2073" stop-color="#2A928F"/>
<stop offset="0.5729" stop-color="#1BB09C"/>
<stop offset="1" stop-color="#06DAAE"/>
</linearGradient>
<linearGradient id="paint4_linear_119_5391" x1="46.0586" y1="60.9681" x2="41.8331" y2="57.487" gradientUnits="userSpaceOnUse">
<stop offset="0.0319" stop-color="#2F878A"/>
<stop offset="1" stop-color="#2F878A" stop-opacity="0"/>
</linearGradient>
<linearGradient id="paint5_linear_119_5391" x1="48.5107" y1="53.1423" x2="54.8575" y2="42.2389" gradientUnits="userSpaceOnUse">
<stop offset="0.0319" stop-color="#2F878A"/>
<stop offset="1" stop-color="#2F878A" stop-opacity="0"/>
</linearGradient>
<linearGradient id="paint6_linear_119_5391" x1="52.0007" y1="67.0592" x2="52.0007" y2="37.5574" gradientUnits="userSpaceOnUse">
<stop stop-color="#06DAAE"/>
<stop offset="0.1313" stop-color="#11DCB2"/>
<stop offset="0.3631" stop-color="#2FE0BB"/>
<stop offset="0.6679" stop-color="#5FE7CB"/>
<stop offset="1" stop-color="#9BF0DF"/>
</linearGradient>
<clipPath id="clip0_119_5391">
<rect width="80" height="80" fill="white"/>
</clipPath>
</defs>
</svg>
