<svg width="80" height="80" viewBox="0 0 80 80" fill="none" xmlns="http://www.w3.org/2000/svg">
<g clip-path="url(#clip0_119_5410)">
<path d="M24.4869 17.2094L24.4872 17.2086L14.2142 11.4452L14.2064 11.4608C12.6975 10.5221 10.7075 10.5602 8.51812 11.8241C3.81375 14.5403 0 21.8272 0 28.0999C0 31.2996 0.996094 33.6102 2.59266 34.7525L2.58984 34.7583L2.72109 34.8338C2.88766 34.9446 3.05828 35.0463 3.23703 35.1317L12.9658 40.581C14.4948 41.645 16.5648 41.6478 18.8461 40.3308C23.5506 37.6147 27.3644 30.3278 27.3644 24.0552C27.3644 20.668 26.2508 18.2717 24.4869 17.2094Z" fill="url(#paint0_linear_119_5410)"/>
<path d="M27.3647 24.0554C27.3647 30.328 23.5509 37.6149 18.8464 40.331C14.1419 43.0471 10.3281 40.164 10.3281 33.8913C10.3281 27.6187 14.1419 20.3318 18.8464 17.6157C23.5509 14.8996 27.3647 17.7827 27.3647 24.0554Z" fill="url(#paint1_linear_119_5410)"/>
<path d="M30.4373 23.4601L30.4376 23.4595L25.589 20.6185L25.5829 20.6309C24.4006 19.8954 22.8415 19.9251 21.1262 20.9156C17.4403 23.0437 14.4521 28.7531 14.4521 33.6678C14.4521 36.1746 15.2326 37.9851 16.4836 38.8801L16.4814 38.8846L16.5842 38.9438C16.7146 39.0306 16.8484 39.1103 16.9884 39.1773L21.4106 41.7721C22.6086 42.6059 24.2304 42.6081 26.0178 41.5762C29.7037 39.4481 32.6918 33.7388 32.6918 28.8242C32.692 26.1699 31.8195 24.2926 30.4373 23.4601Z" fill="url(#paint2_linear_119_5410)"/>
<path d="M31.3569 34.9683C33.5751 29.7624 32.9857 24.5248 30.0405 23.2698C27.0952 22.0149 22.9094 25.2179 20.6912 30.4238C18.473 35.6298 19.0624 40.8674 22.0076 42.1224C24.9529 43.3773 29.1387 40.1743 31.3569 34.9683Z" fill="white"/>
<path d="M28.6281 44.2716C28.6281 44.2716 27.8325 45.9766 26.3114 46.7166C24.7903 47.4566 23.1231 46.2541 22.3212 45.7455C21.5193 45.2369 21.061 44.3297 21.6339 43.6413C22.2065 42.9527 23.3496 42.4083 24.5578 42.8482C25.7659 43.2879 26.9671 44.3814 28.6281 44.2716Z" fill="url(#paint3_linear_119_5410)"/>
<path d="M49.4645 34.4856C49.4645 34.4856 48.4845 30.2591 47.1981 29.1564C45.9117 28.0539 37.9487 27.5025 34.6409 27.38C33.4172 27.3347 32.3279 27.0012 31.4412 26.5992C29.139 25.555 26.4232 26.1267 24.7129 27.988C23.6325 29.1637 22.6395 30.7464 22.145 32.8317C20.7361 38.7734 23.7989 41.4686 23.7989 41.4686C23.7989 41.4686 30.174 52.9555 33.5429 54.8544C33.5429 54.8544 36.3168 57.9811 38.5775 57.677C39.8398 57.5072 40.13 57.0462 40.5653 56.8108C40.6348 56.8084 41.3618 57.2442 43.3389 57.0609C45.0792 56.8995 45.6387 55.4534 45.6387 55.4534C45.6387 55.4534 47.2592 55.7889 48.4898 55.3994C50.1886 54.8617 51.0489 52.7641 50.9593 51.1523C51.7636 44.4212 49.4645 34.4856 49.4645 34.4856Z" fill="url(#paint4_linear_119_5410)"/>
<path opacity="0.5" d="M42.7898 56.3492C41.416 56.275 40.627 55.8248 39.4018 54.8594C38.1765 53.894 34.9277 49.9136 34.9277 49.9136C34.9277 49.9136 38.4152 55.5689 40.5659 56.8106C40.6354 56.8083 41.3624 57.244 43.3395 57.0608C45.0798 56.8994 45.6393 55.4533 45.6393 55.4533C45.6393 55.4533 44.1634 56.4234 42.7898 56.3492Z" fill="url(#paint5_linear_119_5410)"/>
<path opacity="0.5" d="M53.077 52.0691C53.0718 52.0924 51.5523 52.9547 49.3198 52.0691C47.0873 51.1837 42.6504 44.9937 42.6504 44.9937C42.6504 44.9937 47.867 50.8494 50.3174 51.2577C52.7679 51.666 53.659 50.9337 53.659 50.9337L53.077 52.0691Z" fill="url(#paint6_linear_119_5410)"/>
<path opacity="0.5" d="M50.7241 52.8872L50.3352 52.0746C50.3352 52.0746 50.1181 54.1155 48.1075 54.4136C44.8406 54.898 38.4727 47.2292 38.4727 47.2292C38.4727 47.2292 43.2417 54.0694 45.6384 55.4533C45.6397 55.4536 47.2594 55.7886 48.4895 55.3992C49.6097 55.0447 50.365 54.0119 50.7241 52.8872Z" fill="url(#paint7_linear_119_5410)"/>
<path d="M43.9518 39.59L36.9688 38.9366C36.9688 38.9366 34.8045 41.9177 32.3135 41.6727C29.8226 41.4277 33.212 38.9366 33.212 38.9366C33.212 38.9366 33.7429 34.0363 38.5615 35.0163C43.3802 35.9963 44.197 36.9357 44.197 37.0582C44.1968 37.1807 43.9518 39.59 43.9518 39.59Z" fill="url(#paint8_linear_119_5410)"/>
<path d="M61.5105 42.2917L54.0591 39.2021C54.0591 39.2021 51.6702 35.7105 49.5876 33.628C47.5049 31.5453 45.606 30.8716 43.9521 30.9941C42.2982 31.1166 36.5404 31.6678 36.0196 32.1886C35.499 32.7092 33.0794 36.4458 32.1605 37.4258C31.2418 38.4058 31.3949 39.1716 31.9768 39.7841C32.5587 40.3966 34.6719 40.4885 35.7746 39.5697C36.8771 38.651 37.8879 37.0277 37.8879 37.0277L42.5432 37.9158C42.5432 37.9158 42.7269 48.3291 52.1601 49.1866C61.5932 50.0441 61.5105 42.2917 61.5105 42.2917Z" fill="url(#paint9_linear_119_5410)"/>
<path d="M29.9941 50.3846C29.9941 50.3846 28.2274 51.0318 26.6274 50.4834C25.0274 49.935 24.6938 47.9065 24.4842 46.9804C24.2747 46.0545 24.5897 45.0881 25.4814 45.004C26.3731 44.92 27.5674 45.3406 28.1133 46.5045C28.6592 47.6684 28.7392 49.2909 29.9941 50.3846Z" fill="url(#paint10_linear_119_5410)"/>
<path d="M31.9893 54.046C31.9893 54.046 30.1233 54.2873 28.6839 53.3992C27.2443 52.5109 27.3668 50.459 27.3668 49.5095C27.3668 48.5599 27.8875 47.687 28.7758 47.802C29.6639 47.9168 30.7359 48.5907 31.0115 49.8463C31.2872 51.102 31.007 52.7021 31.9893 54.046Z" fill="url(#paint11_linear_119_5410)"/>
<path d="M35.3072 56.4506C35.3072 56.4506 32.4359 57.2721 30.9964 56.384C29.5568 55.4959 29.6793 53.4438 29.6793 52.4943C29.6793 51.5448 30.2 50.672 31.0883 50.7868C31.9764 50.9017 33.0484 51.5756 33.324 52.8312C33.5997 54.087 34.3248 55.1067 35.3072 56.4506Z" fill="url(#paint12_linear_119_5410)"/>
<path d="M68.8105 43.713L68.8108 43.7124L60.7619 39.1966L60.7558 39.2089C59.5734 38.4735 58.0144 38.5033 56.2991 39.4936C52.6131 41.6218 49.625 47.3311 49.625 52.2458C49.625 54.7527 50.4055 56.5632 51.6564 57.4582L51.6542 57.4627L51.757 57.5219C51.8875 57.6086 52.0212 57.6883 52.1612 57.7554L59.7837 62.0249C60.9819 62.8586 62.6036 62.8608 64.3909 61.8289C68.0769 59.7008 71.065 53.9916 71.065 49.0769C71.065 46.4229 70.1927 44.5454 68.8105 43.713Z" fill="url(#paint13_linear_119_5410)"/>
<path d="M69.7446 55.2364C71.9628 50.0304 71.3734 44.7928 68.4281 43.5379C65.4829 42.283 61.2971 45.4859 59.0789 50.6919C56.8607 55.8979 57.4501 61.1355 60.3953 62.3904C63.3406 63.6453 67.5264 60.4424 69.7446 55.2364Z" fill="white"/>
<path d="M77.1228 45.0467L77.1231 45.0459L66.8501 39.2825L66.8423 39.2983C65.3332 38.3595 63.3434 38.3975 61.154 39.6615C56.4496 42.3778 52.6357 49.6647 52.6357 55.9373C52.6357 59.137 53.6318 61.4476 55.2284 62.59L55.2256 62.5958L55.3568 62.6712C55.5234 62.782 55.6942 62.8837 55.8728 62.9692L65.6015 68.4184C67.1306 69.4825 69.2006 69.4853 71.4818 68.1683C76.1865 65.4523 80.0003 58.1655 80.0003 51.8926C80.0003 48.5053 78.8868 46.1092 77.1228 45.0467Z" fill="url(#paint14_linear_119_5410)"/>
<path d="M80.0004 51.8925C80.0004 58.1652 76.1867 65.4521 71.4821 68.1682C66.7776 70.8843 62.9639 68.0011 62.9639 61.7285C62.9639 55.4558 66.7776 48.1689 71.4821 45.4529C76.1867 42.7368 80.0004 45.6199 80.0004 51.8925Z" fill="url(#paint15_linear_119_5410)"/>
</g>
<defs>
<linearGradient id="paint0_linear_119_5410" x1="6.42141" y1="38.6538" x2="14.4742" y2="24.7058" gradientUnits="userSpaceOnUse">
<stop stop-color="#001D2F"/>
<stop offset="1" stop-color="#00395E"/>
</linearGradient>
<linearGradient id="paint1_linear_119_5410" x1="18.8464" y1="38.378" x2="18.8464" y2="7.13225" gradientUnits="userSpaceOnUse">
<stop stop-color="#001A2F"/>
<stop offset="0.3965" stop-color="#00223F"/>
<stop offset="1" stop-color="#0072BC"/>
</linearGradient>
<linearGradient id="paint2_linear_119_5410" x1="17.9026" y1="41.0656" x2="24.1893" y2="30.1767" gradientUnits="userSpaceOnUse">
<stop stop-color="#A996EB"/>
<stop offset="0.39" stop-color="#C5BAEB"/>
<stop offset="1" stop-color="#F2EFFA"/>
</linearGradient>
<linearGradient id="paint3_linear_119_5410" x1="23.5215" y1="46.4391" x2="26.0005" y2="42.531" gradientUnits="userSpaceOnUse">
<stop stop-color="#DEA861"/>
<stop offset="1" stop-color="#EBCBA0"/>
</linearGradient>
<linearGradient id="paint4_linear_119_5410" x1="47.5479" y1="52.4809" x2="39.6395" y2="41.5651" gradientUnits="userSpaceOnUse">
<stop stop-color="#CC8241"/>
<stop offset="1" stop-color="#DEA861"/>
</linearGradient>
<linearGradient id="paint5_linear_119_5410" x1="44.4343" y1="60.4215" x2="37.8055" y2="48.0642" gradientUnits="userSpaceOnUse">
<stop stop-color="#8B451C"/>
<stop offset="1" stop-color="#8B451C" stop-opacity="0"/>
</linearGradient>
<linearGradient id="paint6_linear_119_5410" x1="52.5959" y1="56.2429" x2="45.5523" y2="43.1122" gradientUnits="userSpaceOnUse">
<stop stop-color="#8B451C"/>
<stop offset="1" stop-color="#8B451C" stop-opacity="0"/>
</linearGradient>
<linearGradient id="paint7_linear_119_5410" x1="50.3586" y1="59.3694" x2="40.8672" y2="43.8802" gradientUnits="userSpaceOnUse">
<stop stop-color="#8B451C"/>
<stop offset="1" stop-color="#8B451C" stop-opacity="0"/>
</linearGradient>
<linearGradient id="paint8_linear_119_5410" x1="41.3482" y1="31.983" x2="35.7318" y2="44.6413" gradientUnits="userSpaceOnUse">
<stop stop-color="#8B451C"/>
<stop offset="1" stop-color="#8B451C" stop-opacity="0"/>
</linearGradient>
<linearGradient id="paint9_linear_119_5410" x1="46.5083" y1="55.6183" x2="46.5083" y2="28.1133" gradientUnits="userSpaceOnUse">
<stop stop-color="#DEA861"/>
<stop offset="1" stop-color="#EBCBA0"/>
</linearGradient>
<linearGradient id="paint10_linear_119_5410" x1="24.7911" y1="48.3593" x2="29.3004" y2="47.3372" gradientUnits="userSpaceOnUse">
<stop stop-color="#DEA861"/>
<stop offset="1" stop-color="#EBCBA0"/>
</linearGradient>
<linearGradient id="paint11_linear_119_5410" x1="27.3643" y1="50.9338" x2="31.9893" y2="50.9338" gradientUnits="userSpaceOnUse">
<stop stop-color="#DEA861"/>
<stop offset="1" stop-color="#EBCBA0"/>
</linearGradient>
<linearGradient id="paint12_linear_119_5410" x1="29.6768" y1="53.7867" x2="35.3072" y2="53.7867" gradientUnits="userSpaceOnUse">
<stop stop-color="#DEA861"/>
<stop offset="1" stop-color="#EBCBA0"/>
</linearGradient>
<linearGradient id="paint13_linear_119_5410" x1="54.6562" y1="60.5147" x2="60.9656" y2="49.5866" gradientUnits="userSpaceOnUse">
<stop stop-color="#A996EB"/>
<stop offset="0.39" stop-color="#C5BAEB"/>
<stop offset="1" stop-color="#F2EFFA"/>
</linearGradient>
<linearGradient id="paint14_linear_119_5410" x1="59.0573" y1="66.4911" x2="67.1101" y2="52.5433" gradientUnits="userSpaceOnUse">
<stop stop-color="#43386B"/>
<stop offset="0.3965" stop-color="#594A8E"/>
<stop offset="1" stop-color="#A996EB"/>
</linearGradient>
<linearGradient id="paint15_linear_119_5410" x1="71.4821" y1="66.2153" x2="71.4821" y2="34.9694" gradientUnits="userSpaceOnUse">
<stop stop-color="#43386B"/>
<stop offset="0.3965" stop-color="#594A8E"/>
<stop offset="1" stop-color="#A996EB"/>
</linearGradient>
<clipPath id="clip0_119_5410">
<rect width="80" height="80" fill="white"/>
</clipPath>
</defs>
</svg>
