<svg width="80" height="80" viewBox="0 0 80 80" fill="none" xmlns="http://www.w3.org/2000/svg">
<g clip-path="url(#clip0_119_5379)">
<path d="M61.1896 6.70548L52.4005 1.69861C47.8854 -0.874051 42.011 -0.614051 35.5875 3.09454C21.3421 11.3191 9.79395 33.3839 9.79395 52.3777C9.79395 62.3905 13.0041 69.5491 18.126 72.8772L18.1252 72.8788L27.9694 78.5044C32.4333 80.857 61.1896 6.70548 61.1896 6.70548Z" fill="url(#paint0_linear_119_5379)"/>
<path d="M70.206 27.6215C70.206 8.62777 58.6579 -0.10239 44.4126 8.12214C30.1673 16.3467 18.6191 38.4115 18.6191 57.4053C18.6191 76.399 30.1673 85.1293 44.4126 76.9046C58.6579 68.6801 70.206 46.6153 70.206 27.6215Z" fill="url(#paint1_linear_119_5379)"/>
<path d="M60.8571 49.4529C60.0024 49.1181 59.5797 48.1542 59.9146 47.2995C60.2471 46.4448 61.2108 46.0222 62.0657 46.357C62.9204 46.6894 63.343 47.6533 63.0105 48.5081C62.7541 49.1658 62.125 49.567 61.46 49.567C61.2607 49.5669 61.0568 49.5289 60.8571 49.4529ZM63.248 42.6198C62.3554 42.4037 61.8068 41.5064 62.0229 40.6137C62.239 39.7209 63.1365 39.1725 64.0291 39.3886C64.9218 39.6022 65.4704 40.502 65.2543 41.3947C65.069 42.1545 64.3902 42.6648 63.6399 42.6648C63.5116 42.665 63.3785 42.6506 63.248 42.6198ZM64.6679 35.5209C63.7513 35.445 63.0699 34.6448 63.146 33.7284C63.2194 32.8144 64.0219 32.1329 64.9361 32.2065C65.85 32.2825 66.5316 33.0826 66.458 33.999C66.3866 34.8681 65.6602 35.5258 64.803 35.5258C64.758 35.5258 64.7129 35.5233 64.6679 35.5209ZM63.0486 26.8384C62.9371 25.929 63.5852 25.0981 64.4946 24.9864C65.4063 24.8748 66.2349 25.5231 66.349 26.4347C66.4605 27.3464 65.8122 28.175 64.9005 28.2865C64.8316 28.2961 64.7629 28.2984 64.6965 28.2984C63.8677 28.2986 63.1507 27.6812 63.0486 26.8384ZM61.2797 20.4067C60.8833 19.5804 61.2347 18.5881 62.0632 18.1915C62.8896 17.7951 63.8819 18.1442 64.2783 18.9726C64.6747 19.8012 64.3258 20.7937 63.4972 21.1903C63.2647 21.2995 63.02 21.3517 62.7804 21.3517C62.1605 21.3515 61.5647 21.005 61.2797 20.4067ZM57.2697 15.6629C56.491 15.1762 56.2535 14.1506 56.7402 13.3744C57.2269 12.5956 58.2525 12.3581 59.0315 12.8448C59.8102 13.3315 60.0452 14.3572 59.5608 15.1361C59.245 15.6394 58.704 15.9172 58.1483 15.9172C57.849 15.917 57.5427 15.8339 57.2697 15.6629ZM49.5608 12.9422C49.4608 12.0304 50.1186 11.209 51.0327 11.1094C51.9444 11.0095 52.7635 11.6697 52.8658 12.5812C52.963 13.4929 52.3054 14.3145 51.3915 14.4142C51.3321 14.4212 51.2702 14.4237 51.2108 14.4237C50.3727 14.4237 49.6533 13.7944 49.5608 12.9422Z" fill="#43386B"/>
<path d="M36.2519 73.9998C34.065 74 32.0052 73.4681 30.1524 72.3983C25.116 69.4906 22.2275 62.9166 22.2275 54.362C22.2275 46.7895 24.4294 38.4119 28.4278 30.7723C32.4483 23.0906 37.8297 17.0314 43.5808 13.7111C44.3761 13.2519 45.3924 13.5245 45.8511 14.3194C46.31 15.1144 46.0375 16.1308 45.2427 16.5897C34.3849 22.8586 25.5513 39.8031 25.5513 54.3622C25.5513 61.6972 27.8339 67.222 31.8143 69.52C35.0039 71.3613 39.1829 70.9766 43.5808 68.4375C48.5321 65.5788 53.278 60.3305 56.9436 53.6592C57.3858 52.8548 58.3966 52.5611 59.2005 53.0031C60.0049 53.4452 60.2988 54.4556 59.8566 55.26C55.9025 62.4559 50.7125 68.1581 45.2427 71.3159C42.1513 73.1008 39.0944 73.9997 36.2519 73.9998Z" fill="#43386B"/>
<path d="M51.5452 50.8765C51.137 50.8765 50.7283 50.7273 50.4075 50.4258L42.75 43.2324V27.2555C42.75 26.3376 43.4941 25.5935 44.412 25.5935C45.33 25.5935 46.0741 26.3376 46.0741 27.2555V41.7944L52.6836 48.0032C53.3525 48.6316 53.3855 49.6835 52.7569 50.3524C52.4297 50.7005 51.9878 50.8765 51.5452 50.8765Z" fill="#43386B"/>
<path d="M43.083 10.9773L47.118 14.0276L43.1128 21.6801L43.083 10.9773Z" fill="#43386B"/>
</g>
<defs>
<linearGradient id="paint0_linear_119_5379" x1="25.7975" y1="46.8297" x2="59.89" y2="-12.2201" gradientUnits="userSpaceOnUse">
<stop offset="0.0319" stop-color="#A996EB"/>
<stop offset="0.2213" stop-color="#BFB3EB"/>
<stop offset="0.4108" stop-color="#D1C9EB"/>
<stop offset="0.5321" stop-color="#D7D1EB"/>
<stop offset="1" stop-color="#E9E5F6"/>
</linearGradient>
<linearGradient id="paint1_linear_119_5379" x1="44.4126" y1="65.7529" x2="44.4126" y2="-40.7719" gradientUnits="userSpaceOnUse">
<stop stop-color="#DFDAEF"/>
<stop offset="1" stop-color="white"/>
</linearGradient>
<clipPath id="clip0_119_5379">
<rect width="80" height="80" fill="white"/>
</clipPath>
</defs>
</svg>
