<svg width="80" height="80" viewBox="0 0 80 80" fill="none" xmlns="http://www.w3.org/2000/svg">
<g clip-path="url(#clip0_119_5434)">
<path d="M43.0821 38.6043L25.6572 38.2412L15.583 76.5695L21.5358 80L26.9269 74.8437L28.2674 76.2515L34.2202 79.682L43.0821 38.6043Z" fill="url(#paint0_linear_119_5434)"/>
<path d="M49.6474 28.3892L36.9629 42.7181L45.7868 66.0749L51.7324 69.5243L49.6474 28.3892Z" fill="url(#paint1_linear_119_5434)"/>
<path d="M30.3979 46.3966L43.0824 46.0786L34.2207 79.6822L29.261 74.5922L21.5361 80.0002L30.3979 46.3966Z" fill="url(#paint2_linear_119_5434)"/>
<path d="M55.5927 31.8386L42.9082 46.1675L51.7321 69.5244L56.6918 58.7075L64.4166 55.1955L55.5927 31.8386Z" fill="url(#paint3_linear_119_5434)"/>
<path d="M55.47 5.08008L48.6023 1.11789C45.6308 -0.575232 41.7648 -0.404138 37.5375 2.03664C28.1625 7.4493 20.5625 21.9704 20.5625 34.4704C20.5625 41.0599 22.6752 45.7712 26.0459 47.9613L26.0455 47.9624L33.6075 52.3316C36.5452 53.8801 55.47 5.08008 55.47 5.08008Z" fill="url(#paint4_linear_119_5434)"/>
<path d="M61.4031 18.8452C61.4031 6.34519 53.8031 0.599719 44.4281 6.01238C35.0531 11.425 27.4531 25.9461 27.4531 38.4461C27.4531 50.9461 35.0531 56.6916 44.4281 51.2789C53.8031 45.8663 61.4031 31.3452 61.4031 18.8452Z" fill="url(#paint5_linear_119_5434)"/>
<path d="M61.4031 18.8451C61.4031 14.9063 60.648 11.6391 59.3211 9.17944L36.2773 53.2087C38.6967 53.5812 41.4741 52.9844 44.4281 51.2788C45.6691 50.5623 46.8786 49.6848 48.0439 48.6749L61.0158 23.8896C61.2688 22.1901 61.4031 20.4998 61.4031 18.8451Z" fill="url(#paint6_linear_119_5434)"/>
<path d="M44.4281 6.01238C43.6784 6.44519 42.9403 6.93691 42.2164 7.4805L27.5966 35.4144C27.5023 36.4341 27.4531 37.4466 27.4531 38.4461C27.4531 45.0143 29.5522 49.716 32.9039 51.9153L56.8903 6.08504C53.7895 3.40644 49.3542 3.16832 44.4281 6.01238Z" fill="url(#paint7_linear_119_5434)"/>
<path d="M57.9347 20.8479C57.9347 10.9024 51.8878 6.33104 44.4288 10.6376C36.9697 14.9442 30.9229 26.4978 30.9229 36.4432C30.9229 46.3887 36.9697 50.9601 44.4288 46.6535C51.888 42.3471 57.9347 30.7935 57.9347 20.8479Z" fill="url(#paint8_linear_119_5434)"/>
<path d="M51.8442 9.3125C53.9571 11.2706 55.2409 14.7103 55.2409 19.2914C55.2409 29.2369 49.194 40.7906 41.735 45.097C38.9959 46.6784 36.4479 47.0613 34.3193 46.422C36.7937 48.715 40.4053 48.9762 44.4286 46.6534C51.8878 42.3469 57.9345 30.7933 57.9345 20.8478C57.9347 14.5542 55.5126 10.4142 51.8442 9.3125Z" fill="url(#paint9_linear_119_5434)"/>
<path d="M54.6489 23.2044C55.128 22.3052 55.0675 21.3826 54.6498 21.0769L54.65 21.0768L54.6478 21.0755C54.6156 21.0523 54.5815 21.0319 54.5451 21.0162L50.175 18.4912C50.1672 18.4863 50.1592 18.4818 50.1512 18.4774L50.1462 18.4744L50.1461 18.4746C49.997 18.3941 49.8103 18.3833 49.5919 18.4671L47.8631 19.1302L47.5658 18.4987C47.4897 18.3369 47.3867 18.2293 47.267 18.1694L42.8506 15.6199L42.8505 15.6208C42.3303 15.3266 41.4669 15.9826 41.1295 17.0885L39.3901 22.7919C39.2281 23.3235 38.9147 23.8079 38.5523 24.0874L34.663 27.0865C33.7503 27.7904 33.3858 29.4963 34.0462 29.9733L36.8606 32.0062C37.123 32.1957 37.2425 32.6176 37.1806 33.1348L36.5162 38.6832C36.4428 39.2971 36.6161 39.7043 36.9051 39.8541V39.8543L41.3142 42.399L41.3147 42.3983C41.6394 42.5938 42.1258 42.4473 42.5714 41.8776L46.0501 37.4305C46.3744 37.0162 46.7615 36.7926 47.0858 36.8327L50.5645 37.2627C51.3809 37.3637 52.335 35.8885 52.179 34.7665L51.5147 29.9852C51.4528 29.5396 51.5725 28.9794 51.8347 28.4871L54.6489 23.2044Z" fill="url(#paint10_linear_119_5434)"/>
<path d="M47.5658 18.4987L49.3051 22.1937C49.4672 22.5381 49.7806 22.6607 50.143 22.5217L54.0323 21.0296C54.945 20.6795 55.3095 21.9646 54.649 23.2043L51.8347 28.4871C51.5725 28.9795 51.4528 29.5396 51.5147 29.9853L52.179 34.7665C52.335 35.8885 51.3808 37.3637 50.5645 37.2628L47.0858 36.8328C46.7615 36.7928 46.3744 37.0164 46.0501 37.4307L42.5714 41.8778C41.755 42.9214 40.8009 42.5479 40.9567 41.2459L41.6211 35.6975C41.683 35.1804 41.5633 34.7584 41.3011 34.569L38.4867 32.536C37.8262 32.059 38.1906 30.3531 39.1034 29.6492L42.9928 26.6501C43.3551 26.3706 43.6686 25.8862 43.8306 25.3548L45.57 19.6514C45.9783 18.3124 47.1576 17.6317 47.5658 18.4987Z" fill="url(#paint11_linear_119_5434)"/>
<path d="M52.1794 34.7664L51.515 29.9851C51.4531 29.5395 51.5728 28.9794 51.835 28.4872L54.6494 23.2044C55.3098 21.9647 54.9453 20.6795 54.0327 21.0297L52.8906 21.4678L41.9297 42.4106C42.1384 42.3222 42.3595 42.1487 42.5716 41.8776L46.0503 37.4306C46.3745 37.0162 46.7617 36.7926 47.0859 36.8326L50.5647 37.2626C51.3813 37.3636 52.3353 35.8884 52.1794 34.7664Z" fill="url(#paint12_linear_119_5434)"/>
<path d="M47.5657 18.4988C47.1576 17.6316 45.9782 18.3125 45.5699 19.651L43.8306 25.3544C43.6684 25.8858 43.3551 26.3703 42.9928 26.6497L39.1034 29.6489C38.1907 30.3527 37.8262 32.0586 38.4867 32.5358L41.301 34.5686C41.4826 34.6997 41.5937 34.9438 41.6257 35.2521L48.9049 21.3438L47.5657 18.4988Z" fill="url(#paint13_linear_119_5434)"/>
<path d="M49.3052 22.1938C49.4672 22.5381 49.7806 22.6608 50.143 22.5217L54.0323 21.0297C54.2309 20.9535 54.4036 20.9549 54.5453 21.0163L50.1752 18.4913C50.1673 18.4864 50.1594 18.4819 50.1514 18.4775L50.1464 18.4745L50.1462 18.4747C49.9972 18.3942 49.8105 18.3835 49.592 18.4672L47.8633 19.1303L49.3052 22.1938Z" fill="url(#paint14_linear_119_5434)"/>
<path d="M39.1034 29.6491L42.9928 26.65C43.3551 26.3705 43.6686 25.8861 43.8306 25.3545L45.57 19.6511C45.9022 18.5622 46.7445 17.9086 47.267 18.1697L42.8506 15.6202L42.8505 15.6211C42.3303 15.3269 41.4669 15.9828 41.1295 17.0887L39.3901 22.7922C39.2281 23.3237 38.9147 23.8081 38.5523 24.0877L34.663 27.0867C33.7503 27.7906 33.3858 29.4966 34.0462 29.9736L38.4867 32.5359C37.8262 32.0587 38.1906 30.353 39.1034 29.6491Z" fill="url(#paint15_linear_119_5434)"/>
</g>
<defs>
<linearGradient id="paint0_linear_119_5434" x1="31.2307" y1="54.0943" x2="16.6335" y2="109.089" gradientUnits="userSpaceOnUse">
<stop stop-color="#AB2C37"/>
<stop offset="0.2054" stop-color="#B6303B"/>
<stop offset="0.5676" stop-color="#D43947"/>
<stop offset="1" stop-color="#FF4757"/>
</linearGradient>
<linearGradient id="paint1_linear_119_5434" x1="49.7677" y1="53.044" x2="62.9602" y2="88.7487" gradientUnits="userSpaceOnUse">
<stop stop-color="#AB2C37"/>
<stop offset="0.2054" stop-color="#B6303B"/>
<stop offset="0.5676" stop-color="#D43947"/>
<stop offset="1" stop-color="#FF4757"/>
</linearGradient>
<linearGradient id="paint2_linear_119_5434" x1="36.2736" y1="48.43" x2="26.4699" y2="84.5583" gradientUnits="userSpaceOnUse">
<stop stop-color="#FF4757"/>
<stop offset="0.3032" stop-color="#FF5261"/>
<stop offset="0.8361" stop-color="#FF707C"/>
<stop offset="1" stop-color="#FF7A85"/>
</linearGradient>
<linearGradient id="paint3_linear_119_5434" x1="48.7645" y1="39.1311" x2="60.9284" y2="67.8158" gradientUnits="userSpaceOnUse">
<stop stop-color="#FF4757"/>
<stop offset="0.3032" stop-color="#FF5261"/>
<stop offset="0.8361" stop-color="#FF707C"/>
<stop offset="1" stop-color="#FF7A85"/>
</linearGradient>
<linearGradient id="paint4_linear_119_5434" x1="28.8931" y1="35.9041" x2="39.8105" y2="16.9948" gradientUnits="userSpaceOnUse">
<stop stop-color="#E37A34"/>
<stop offset="1" stop-color="#FFC538"/>
</linearGradient>
<linearGradient id="paint5_linear_119_5434" x1="44.4281" y1="43.94" x2="44.4281" y2="-26.1653" gradientUnits="userSpaceOnUse">
<stop stop-color="#F7E041"/>
<stop offset="1" stop-color="#FCF3B3"/>
</linearGradient>
<linearGradient id="paint6_linear_119_5434" x1="64.1041" y1="40.6077" x2="45.1084" y2="29.6405" gradientUnits="userSpaceOnUse">
<stop stop-color="white"/>
<stop offset="1" stop-color="white" stop-opacity="0"/>
</linearGradient>
<linearGradient id="paint7_linear_119_5434" x1="56.1412" y1="35.4002" x2="24.6133" y2="17.1974" gradientUnits="userSpaceOnUse">
<stop stop-color="white"/>
<stop offset="1" stop-color="white" stop-opacity="0"/>
</linearGradient>
<linearGradient id="paint8_linear_119_5434" x1="44.4288" y1="36.1742" x2="44.4288" y2="-9.50787" gradientUnits="userSpaceOnUse">
<stop stop-color="#FFC538"/>
<stop offset="1" stop-color="#F7E041"/>
</linearGradient>
<linearGradient id="paint9_linear_119_5434" x1="39.8548" y1="45.2344" x2="56.1037" y2="17.0908" gradientUnits="userSpaceOnUse">
<stop stop-color="#E37A34"/>
<stop offset="1" stop-color="#FFC538"/>
</linearGradient>
<linearGradient id="paint10_linear_119_5434" x1="38.3965" y1="39.9454" x2="41.6934" y2="34.2351" gradientUnits="userSpaceOnUse">
<stop stop-color="#E37A34"/>
<stop offset="1" stop-color="#FFC538"/>
</linearGradient>
<linearGradient id="paint11_linear_119_5434" x1="46.568" y1="38.0217" x2="46.568" y2="17.0682" gradientUnits="userSpaceOnUse">
<stop stop-color="#F7E041"/>
<stop offset="1" stop-color="#FCF3B3"/>
</linearGradient>
<linearGradient id="paint12_linear_119_5434" x1="58.5022" y1="37.6375" x2="46.1188" y2="30.4878" gradientUnits="userSpaceOnUse">
<stop stop-color="white"/>
<stop offset="1" stop-color="white" stop-opacity="0"/>
</linearGradient>
<linearGradient id="paint13_linear_119_5434" x1="49.7642" y1="29.7805" x2="38.3071" y2="23.1657" gradientUnits="userSpaceOnUse">
<stop stop-color="white"/>
<stop offset="1" stop-color="white" stop-opacity="0"/>
</linearGradient>
<linearGradient id="paint14_linear_119_5434" x1="47.3084" y1="22.3225" x2="54.9159" y2="17.9303" gradientUnits="userSpaceOnUse">
<stop stop-color="#E37A34"/>
<stop offset="1" stop-color="#FFC538"/>
</linearGradient>
<linearGradient id="paint15_linear_119_5434" x1="37.9847" y1="28.3266" x2="46.4215" y2="13.7136" gradientUnits="userSpaceOnUse">
<stop stop-color="#E37A34"/>
<stop offset="1" stop-color="#FFC538"/>
</linearGradient>
<clipPath id="clip0_119_5434">
<rect width="80" height="80" fill="white"/>
</clipPath>
</defs>
</svg>
