<svg width="49" height="48" viewBox="0 0 49 48" fill="none" xmlns="http://www.w3.org/2000/svg">
<g clip-path="url(#clip0_329_12201)">
<path d="M39.1416 2.31329L35.5089 0.196795L35.5087 0.197076C34.9553 -0.106487 34.2405 -0.0700178 33.4595 0.38092L11.8788 12.8258C10.1232 13.8393 8.7002 16.5584 8.7002 18.8991V39.5986C8.7002 40.9355 9.16491 41.8588 9.89026 42.2168L13.4009 44.2655L39.1416 2.31329Z" fill="url(#paint0_linear_329_12201)"/>
<path d="M16.2744 43.7109V44.9398C16.2744 45.3117 16.4627 45.5895 16.7214 45.7443V45.7444L20.4412 47.892L21.4339 39.4993L16.2744 43.7109Z" fill="#C5BAEB"/>
<path d="M37.1218 2.51377L15.5409 14.9586C13.7854 15.9721 12.3623 18.6913 12.3623 21.0319V41.7315C12.3623 44.0721 13.7854 45.148 15.5409 44.1345L19.9366 41.598V47.0552C19.9366 48.0412 21.2585 48.3662 21.7156 47.4927L26.9034 37.5804L37.1217 31.6895C38.8771 30.676 40.3003 27.9569 40.3003 25.6162V4.91677C40.3004 2.57602 38.8772 1.50024 37.1218 2.51377Z" fill="url(#paint1_linear_329_12201)"/>
<path d="M31.06 14.8497L29.2724 14.2683L19.2637 25.3816L21.7748 27.1955C22.0088 27.3645 22.1155 27.7411 22.0603 28.2025L21.4675 33.1531C21.4018 33.7008 21.5565 34.0642 21.8145 34.1979L21.8144 34.198L25.7484 36.4686L25.7487 36.4679L26.6084 29.012L37.554 17.3895L31.3623 16.1056L31.06 14.8497Z" fill="url(#paint2_linear_329_12201)"/>
<path d="M31.3268 15.1433L32.8787 18.4401C33.0234 18.7474 33.3029 18.8568 33.6263 18.7327L37.0966 17.4015C37.911 17.0891 38.2362 18.2358 37.6469 19.3418L35.1358 24.0554C34.9018 24.4946 34.795 24.9945 34.8503 25.392L35.443 29.6581C35.5822 30.6592 34.7308 31.9755 34.0024 31.8854L30.8984 31.5017C30.6092 31.466 30.2636 31.6655 29.9743 32.0352L26.8704 36.0031C26.1419 36.9342 25.2906 36.601 25.4297 35.4393L26.0225 30.4886C26.0777 30.0273 25.9709 29.6507 25.7369 29.4816L23.2257 27.6678C22.6364 27.2421 22.9616 25.7199 23.776 25.092L27.2463 22.416C27.5696 22.1666 27.8492 21.7344 27.9939 21.2601L29.5459 16.1712C29.9102 14.9772 30.9625 14.3697 31.3268 15.1433Z" fill="url(#paint3_linear_329_12201)"/>
<path d="M32.8784 18.4402C33.0231 18.7474 33.3026 18.8568 33.626 18.7328L37.0963 17.4015C37.2735 17.3336 37.4275 17.3348 37.554 17.3895L33.6548 15.1366C33.6478 15.1323 33.6407 15.1283 33.6335 15.1243L33.629 15.1218L33.6288 15.122C33.4958 15.0501 33.3292 15.0405 33.1343 15.1153L31.5918 15.7071L32.8784 18.4402Z" fill="url(#paint4_linear_329_12201)"/>
<path d="M23.7761 25.092L27.2464 22.4161C27.5698 22.1667 27.8493 21.7345 27.994 21.2603L29.546 16.1714C29.8424 15.1998 30.5941 14.6167 31.0602 14.8495V14.8495L27.1197 12.5746L27.1195 12.5755C26.6553 12.3129 25.8849 12.8982 25.584 13.885L24.0319 18.9738C23.8873 19.4481 23.6077 19.8803 23.2844 20.1296L19.8141 22.8055C18.9997 23.4336 18.6745 24.9557 19.2638 25.3813L23.2259 27.6676C22.6366 27.2421 22.9618 25.72 23.7761 25.092Z" fill="url(#paint5_linear_329_12201)"/>
</g>
<defs>
<linearGradient id="paint0_linear_329_12201" x1="16.7251" y1="22.1016" x2="18.6105" y2="18.8359" gradientUnits="userSpaceOnUse">
<stop stop-color="#C5BAEB"/>
<stop offset="1" stop-color="#E9E5F6"/>
</linearGradient>
<linearGradient id="paint1_linear_329_12201" x1="26.3313" y1="63.2797" x2="26.3313" y2="15.7951" gradientUnits="userSpaceOnUse">
<stop stop-color="#C5BAEB"/>
<stop offset="1" stop-color="#D7D1EB"/>
</linearGradient>
<linearGradient id="paint2_linear_329_12201" x1="21.5099" y1="33.3349" x2="24.4512" y2="28.2405" gradientUnits="userSpaceOnUse">
<stop stop-color="#CC8241"/>
<stop offset="1" stop-color="#FFA538"/>
</linearGradient>
<linearGradient id="paint3_linear_329_12201" x1="30.4364" y1="32.5626" x2="30.4364" y2="19.3644" gradientUnits="userSpaceOnUse">
<stop stop-color="#FFC538"/>
<stop offset="1" stop-color="#F7E041"/>
</linearGradient>
<linearGradient id="paint4_linear_329_12201" x1="31.0969" y1="18.5551" x2="37.8847" y2="14.6362" gradientUnits="userSpaceOnUse">
<stop stop-color="#FFA538"/>
<stop offset="1" stop-color="#F9E667"/>
</linearGradient>
<linearGradient id="paint5_linear_329_12201" x1="22.7779" y1="23.912" x2="30.3057" y2="10.8735" gradientUnits="userSpaceOnUse">
<stop stop-color="#FFA538"/>
<stop offset="1" stop-color="#F9E667"/>
</linearGradient>
<clipPath id="clip0_329_12201">
<rect width="48" height="48" fill="white" transform="translate(0.5)"/>
</clipPath>
</defs>
</svg>
