<svg width="49" height="48" viewBox="0 0 49 48" fill="none" xmlns="http://www.w3.org/2000/svg">
<path d="M41.7633 1.096L41.7627 1.09572C41.7333 1.07791 41.7038 1.06019 41.6734 1.04435L40.2078 0.200878L40.2076 0.201159C39.6428 -0.108684 38.9133 -0.0714656 38.1163 0.388753L9.38856 16.9746C7.59691 18.0091 6.14453 20.7841 6.14453 23.1729V44.2982C6.14453 45.6626 6.61881 46.6048 7.35906 46.9702L8.70034 47.7446L41.7633 1.096Z" fill="url(#paint0_linear_329_12251)"/>
<path d="M39.6115 31.0246L10.8837 47.6106C9.09202 48.6449 7.63965 47.547 7.63965 45.1581V24.0329C7.63965 21.6441 9.09202 18.8691 10.8837 17.8346L39.6115 1.24865C41.4032 0.214307 42.8555 1.31221 42.8555 3.70106V24.8263C42.8555 27.2152 41.4032 29.9902 39.6115 31.0246Z" fill="#594A8E"/>
<path d="M20.8321 17.0158L19.7799 16.6736L13.8887 23.2149L15.3667 24.2825C15.5045 24.382 15.5674 24.6037 15.5348 24.8752L15.1859 27.7891C15.1473 28.1116 15.2383 28.3254 15.3902 28.4041V28.4042L17.7057 29.7407L17.7059 29.7404L18.212 25.3517L24.6545 18.5107L21.01 17.755L20.8321 17.0158Z" fill="url(#paint1_linear_329_12251)"/>
<path d="M20.9893 17.1887L21.9028 19.1292C21.9879 19.31 22.1524 19.3744 22.3429 19.3014L24.3855 18.5178C24.8648 18.334 25.0563 19.0089 24.7094 19.66L23.2313 22.4344C23.0936 22.693 23.0308 22.9872 23.0632 23.2212L23.4122 25.7322C23.4941 26.3215 22.9929 27.0962 22.5642 27.0432L20.7372 26.8173C20.5669 26.7963 20.3635 26.9137 20.1933 27.1314L18.3663 29.4669C17.9375 30.015 17.4364 29.8188 17.5183 29.135L17.8672 26.221C17.8998 25.9494 17.8369 25.7278 17.6991 25.6283L16.2211 24.5607C15.8742 24.3101 16.0656 23.4142 16.545 23.0446L18.5876 21.4695C18.7779 21.3227 18.9425 21.0683 19.0277 20.7891L19.9412 17.7937C20.1556 17.0909 20.7749 16.7333 20.9893 17.1887Z" fill="url(#paint2_linear_329_12251)"/>
<path d="M21.9026 19.1291C21.9878 19.31 22.1523 19.3744 22.3427 19.3013L24.3853 18.5178C24.4897 18.4777 24.5802 18.4785 24.6548 18.5107L22.3597 17.1846C22.3555 17.1821 22.3514 17.1798 22.3472 17.1774L22.3446 17.1759L22.3445 17.176C22.2662 17.1337 22.1681 17.1281 22.0534 17.1721L21.1455 17.5204L21.9026 19.1291Z" fill="url(#paint3_linear_329_12251)"/>
<path d="M16.5451 23.0446L18.5877 21.4695C18.778 21.3227 18.9426 21.0683 19.0278 20.7891L19.9413 17.7938C20.1156 17.222 20.5581 16.8787 20.8325 17.0158L18.5131 15.6768L18.513 15.6773C18.2398 15.5227 17.7863 15.8673 17.6091 16.4481L16.6956 19.4435C16.6105 19.7226 16.446 19.977 16.2556 20.1238L14.2129 21.6989C13.7336 22.0686 13.5422 22.9645 13.889 23.215L16.2211 24.5607C15.8743 24.3101 16.0657 23.4142 16.5451 23.0446Z" fill="url(#paint4_linear_329_12251)"/>
<path d="M31.4659 10.8856L30.4137 10.5435L24.5225 17.0848L26.0005 18.1524C26.1382 18.2519 26.2011 18.4735 26.1686 18.7451L25.8197 21.659C25.7811 21.9813 25.8721 22.1953 26.024 22.274L28.3395 23.6106L28.3397 23.6102L28.8456 19.2216L35.2882 12.3806L31.6437 11.6249L31.4659 10.8856Z" fill="url(#paint5_linear_329_12251)"/>
<path d="M31.6231 11.0586L32.5366 12.9991C32.6217 13.1799 32.7862 13.2443 32.9766 13.1713L35.0193 12.3878C35.4986 12.2038 35.69 12.8788 35.3432 13.5298L33.8651 16.3043C33.7274 16.5628 33.6645 16.857 33.697 17.091L34.046 19.6021C34.1279 20.1914 33.6267 20.9661 33.198 20.9131L31.371 20.6873C31.2007 20.6663 30.9973 20.7836 30.827 21.0013L29 23.3368C28.5713 23.8849 28.0702 23.6888 28.1521 23.0049L28.501 20.0909C28.5335 19.8193 28.4706 19.5977 28.3329 19.4982L26.8549 18.4306C26.508 18.18 26.6994 17.2841 27.1788 16.9145L29.2214 15.3394C29.4117 15.1926 29.5763 14.9382 29.6615 14.659L30.575 11.6636C30.7893 10.9608 31.4087 10.6031 31.6231 11.0586Z" fill="url(#paint6_linear_329_12251)"/>
<path d="M32.5364 12.9991C32.6215 13.1799 32.7861 13.2443 32.9765 13.1713L35.0191 12.3877C35.1235 12.3477 35.214 12.3484 35.2885 12.3806L32.9935 11.0545C32.9893 11.052 32.9851 11.0496 32.981 11.0473L32.9784 11.0458L32.9783 11.0459C32.9 11.0036 32.8019 10.998 32.6872 11.0419L31.7793 11.3902L32.5364 12.9991Z" fill="url(#paint7_linear_329_12251)"/>
<path d="M27.1788 16.9145L29.2214 15.3394C29.4117 15.1926 29.5763 14.9382 29.6615 14.659L30.575 11.6637C30.7493 11.0918 31.1918 10.7486 31.4662 10.8857L29.1469 9.54664L29.1468 9.54721C28.8736 9.39261 28.4201 9.73714 28.2429 10.318L27.3294 13.3133C27.2443 13.5925 27.0798 13.8469 26.8894 13.9937L24.8467 15.5688C24.3674 15.9384 24.176 16.8344 24.5228 17.0849L26.8549 18.4306C26.508 18.18 26.6994 17.284 27.1788 16.9145Z" fill="url(#paint8_linear_329_12251)"/>
<path d="M17.0489 31.1593L15.9967 30.8171L10.1055 37.3585L11.5835 38.4261C11.7212 38.5255 11.7842 38.7472 11.7516 39.0188L11.4027 41.9327C11.3641 42.255 11.4551 42.469 11.607 42.5477V42.5478L13.9225 43.8843L13.9227 43.8839L14.4287 39.4953L20.8713 32.6543L17.2268 31.8985L17.0489 31.1593Z" fill="url(#paint9_linear_329_12251)"/>
<path d="M17.2061 31.3323L18.1196 33.2728C18.2047 33.4536 18.3692 33.518 18.5596 33.445L20.6023 32.6614C21.0816 32.4776 21.2731 33.1525 20.9262 33.8036L19.4481 36.578C19.3104 36.8366 19.2475 37.1308 19.28 37.3648L19.629 39.8759C19.7108 40.4652 19.2097 41.24 18.781 41.1869L16.954 40.961C16.7837 40.94 16.5803 41.0574 16.4101 41.2751L14.5831 43.6106C14.1543 44.1587 13.6532 43.9625 13.7351 43.2787L14.084 40.3647C14.1166 40.0931 14.0537 39.8715 13.9159 39.772L12.4379 38.7044C12.091 38.4538 12.2824 37.5579 12.7618 37.1883L14.8044 35.6132C14.9947 35.4664 15.1592 35.212 15.2444 34.9328L16.1579 31.9374C16.3723 31.2344 16.9917 30.8768 17.2061 31.3323Z" fill="url(#paint10_linear_329_12251)"/>
<path d="M18.1194 33.2728C18.2046 33.4536 18.3691 33.518 18.5595 33.445L20.6021 32.6614C20.7065 32.6214 20.7971 32.6221 20.8716 32.6543L18.5765 31.3282C18.5723 31.3257 18.5682 31.3233 18.564 31.321L18.5614 31.3195L18.5613 31.3196C18.483 31.2773 18.3849 31.2717 18.2702 31.3156L17.3623 31.6639L18.1194 33.2728Z" fill="url(#paint11_linear_329_12251)"/>
<path d="M12.7618 37.1881L14.8044 35.613C14.9947 35.4662 15.1592 35.2119 15.2445 34.9327L16.158 31.9374C16.3323 31.3655 16.7748 31.0223 17.0492 31.1593L14.7299 29.8203L14.7298 29.8209C14.4566 29.6664 14.0031 30.0108 13.8259 30.5917L12.9124 33.587C12.8273 33.8662 12.6628 34.1205 12.4724 34.2673L10.4297 35.8424C9.9504 36.2121 9.75896 37.108 10.1058 37.3585L12.4379 38.7042C12.0911 38.4536 12.2825 37.5578 12.7618 37.1881Z" fill="url(#paint12_linear_329_12251)"/>
<path d="M27.6827 25.0292L26.6305 24.687L20.7393 31.2283L22.2173 32.296C22.355 32.3954 22.4179 32.6171 22.3854 32.8886L22.0365 35.8026C21.9979 36.125 22.0889 36.3388 22.2408 36.4176V36.4177L24.5563 37.7542L24.5565 37.7538L25.0624 33.3652L31.505 26.5241L27.8605 25.7684L27.6827 25.0292Z" fill="url(#paint13_linear_329_12251)"/>
<path d="M27.8399 25.2021L28.7534 27.1426C28.8385 27.3234 29.003 27.3879 29.1934 27.3148L31.2361 26.5313C31.7154 26.3474 31.9068 27.0223 31.56 27.6734L30.0819 30.4479C29.9442 30.7064 29.8813 31.0006 29.9138 31.2346L30.2627 33.7457C30.3446 34.335 29.8435 35.1098 29.4148 35.0567L27.5878 34.8309C27.4175 34.8098 27.2141 34.9272 27.0438 35.1449L25.2168 37.4804C24.7881 38.0285 24.287 37.8324 24.3689 37.1485L24.7178 34.2346C24.7503 33.963 24.6874 33.7414 24.5497 33.6419L23.0717 32.5743C22.7248 32.3238 22.9162 31.4278 23.3956 31.0582L25.4382 29.4831C25.6285 29.3363 25.7931 29.0819 25.8783 28.8027L26.7918 25.8073C27.0062 25.1043 27.6255 24.7467 27.8399 25.2021Z" fill="url(#paint14_linear_329_12251)"/>
<path d="M28.7532 27.1425C28.8383 27.3234 29.0029 27.3878 29.1933 27.3148L31.2359 26.5312C31.3403 26.4912 31.4309 26.4919 31.5053 26.5242L29.2103 25.1981C29.2061 25.1955 29.202 25.1932 29.1978 25.1908L29.1952 25.1893L29.1951 25.1894C29.1168 25.1472 29.0187 25.1415 28.904 25.1855L27.9961 25.5338L28.7532 27.1425Z" fill="url(#paint15_linear_329_12251)"/>
<path d="M23.3957 31.058L25.4383 29.4829C25.6286 29.3361 25.7932 29.0817 25.8783 28.8025L26.7918 25.8072C26.9663 25.2354 27.4087 24.8921 27.6831 25.0292L25.3637 23.6903L25.3636 23.6907C25.0904 23.5362 24.6369 23.8807 24.4597 24.4615L23.5462 27.4569C23.4611 27.7359 23.2966 27.9904 23.1062 28.1372L21.0635 29.7123C20.5842 30.0819 20.3928 30.9779 20.7396 31.2284L23.0717 32.5741C22.725 32.3235 22.9163 31.4276 23.3957 31.058Z" fill="url(#paint16_linear_329_12251)"/>
<path d="M38.3458 18.8976L37.2936 18.5554L31.4023 25.0967L32.8804 26.1644C33.0181 26.2638 33.081 26.4855 33.0485 26.757L32.6996 29.671C32.6609 29.9934 32.752 30.2072 32.9038 30.286L35.2194 31.6226L35.2196 31.6222L35.7255 27.2336L42.1681 20.3925L38.5236 19.6368L38.3458 18.8976Z" fill="url(#paint17_linear_329_12251)"/>
<path d="M38.503 19.0705L39.4165 21.0111C39.5016 21.1919 39.6661 21.2563 39.8565 21.1833L41.8991 20.3997C42.3785 20.2159 42.5699 20.8908 42.2231 21.5419L40.745 24.3163C40.6073 24.5749 40.5445 24.8691 40.5769 25.1031L40.9258 27.6141C41.0078 28.2034 40.5066 28.9781 40.0779 28.9251L38.2509 28.6992C38.0806 28.6782 37.8772 28.7956 37.7069 29.0133L35.8799 31.3488C35.4512 31.8968 34.9501 31.7007 35.032 31.0169L35.3809 28.1029C35.4134 27.8313 35.3505 27.6097 35.2128 27.5102L33.7347 26.4426C33.3879 26.192 33.5793 25.2961 34.0587 24.9264L36.1013 23.3513C36.2916 23.2045 36.4562 22.9502 36.5413 22.671L37.4548 19.6756C37.6692 18.9727 38.2887 18.6151 38.503 19.0705Z" fill="url(#paint18_linear_329_12251)"/>
<path d="M39.4164 21.0109C39.5015 21.1918 39.6661 21.2562 39.8565 21.1832L41.8991 20.3996C42.0034 20.3596 42.094 20.3603 42.1685 20.3926L39.8734 19.0665C39.8693 19.0639 39.8651 19.0616 39.861 19.0593L39.8583 19.0578L39.8582 19.0578C39.78 19.0156 39.6819 19.0099 39.5671 19.0539L38.6592 19.4022L39.4164 21.0109Z" fill="url(#paint19_linear_329_12251)"/>
<path d="M34.0587 24.9264L36.1013 23.3513C36.2916 23.2045 36.4562 22.9502 36.5413 22.671L37.4548 19.6757C37.6292 19.1038 38.0717 18.7606 38.3461 18.8976L36.0267 17.5586L36.0267 17.5592C35.7535 17.4046 35.3 17.7491 35.1228 18.33L34.2093 21.3253C34.1242 21.6044 33.9597 21.8588 33.7692 22.0056L31.7266 23.5807C31.2473 23.9504 31.0558 24.8464 31.4027 25.0969L33.7347 26.4425C33.388 26.192 33.5793 25.2961 34.0587 24.9264Z" fill="url(#paint20_linear_329_12251)"/>
<defs>
<linearGradient id="paint0_linear_329_12251" x1="14.558" y1="27.4206" x2="18.0265" y2="21.4129" gradientUnits="userSpaceOnUse">
<stop stop-color="#43386B"/>
<stop offset="1" stop-color="#A996EB"/>
</linearGradient>
<linearGradient id="paint1_linear_329_12251" x1="15.2109" y1="27.8963" x2="16.9421" y2="24.8977" gradientUnits="userSpaceOnUse">
<stop stop-color="#CC8241"/>
<stop offset="1" stop-color="#FFA538"/>
</linearGradient>
<linearGradient id="paint2_linear_329_12251" x1="20.4652" y1="27.4417" x2="20.4652" y2="19.6732" gradientUnits="userSpaceOnUse">
<stop stop-color="#FFC538"/>
<stop offset="1" stop-color="#F7E041"/>
</linearGradient>
<linearGradient id="paint3_linear_329_12251" x1="20.8539" y1="19.1968" x2="24.8493" y2="16.8901" gradientUnits="userSpaceOnUse">
<stop stop-color="#FFA538"/>
<stop offset="1" stop-color="#F9E667"/>
</linearGradient>
<linearGradient id="paint4_linear_329_12251" x1="15.9575" y1="22.35" x2="20.3884" y2="14.6755" gradientUnits="userSpaceOnUse">
<stop stop-color="#FFA538"/>
<stop offset="1" stop-color="#F9E667"/>
</linearGradient>
<linearGradient id="paint5_linear_329_12251" x1="25.8447" y1="21.7661" x2="27.5759" y2="18.7676" gradientUnits="userSpaceOnUse">
<stop stop-color="#CC8241"/>
<stop offset="1" stop-color="#FFA538"/>
</linearGradient>
<linearGradient id="paint6_linear_329_12251" x1="31.099" y1="21.3116" x2="31.099" y2="13.5431" gradientUnits="userSpaceOnUse">
<stop stop-color="#FFC538"/>
<stop offset="1" stop-color="#F7E041"/>
</linearGradient>
<linearGradient id="paint7_linear_329_12251" x1="31.4877" y1="13.0668" x2="35.4831" y2="10.76" gradientUnits="userSpaceOnUse">
<stop stop-color="#FFA538"/>
<stop offset="1" stop-color="#F9E667"/>
</linearGradient>
<linearGradient id="paint8_linear_329_12251" x1="26.5912" y1="16.2199" x2="31.022" y2="8.54539" gradientUnits="userSpaceOnUse">
<stop stop-color="#FFA538"/>
<stop offset="1" stop-color="#F9E667"/>
</linearGradient>
<linearGradient id="paint9_linear_329_12251" x1="11.4276" y1="42.0399" x2="13.1589" y2="39.0413" gradientUnits="userSpaceOnUse">
<stop stop-color="#CC8241"/>
<stop offset="1" stop-color="#FFA538"/>
</linearGradient>
<linearGradient id="paint10_linear_329_12251" x1="16.6819" y1="41.5853" x2="16.6819" y2="33.8167" gradientUnits="userSpaceOnUse">
<stop stop-color="#FFC538"/>
<stop offset="1" stop-color="#F7E041"/>
</linearGradient>
<linearGradient id="paint11_linear_329_12251" x1="17.0708" y1="33.3403" x2="21.0662" y2="31.0336" gradientUnits="userSpaceOnUse">
<stop stop-color="#FFA538"/>
<stop offset="1" stop-color="#F9E667"/>
</linearGradient>
<linearGradient id="paint12_linear_329_12251" x1="12.1743" y1="36.4935" x2="16.6051" y2="28.819" gradientUnits="userSpaceOnUse">
<stop stop-color="#FFA538"/>
<stop offset="1" stop-color="#F9E667"/>
</linearGradient>
<linearGradient id="paint13_linear_329_12251" x1="22.0615" y1="35.9097" x2="23.7927" y2="32.9111" gradientUnits="userSpaceOnUse">
<stop stop-color="#CC8241"/>
<stop offset="1" stop-color="#FFA538"/>
</linearGradient>
<linearGradient id="paint14_linear_329_12251" x1="27.3158" y1="35.4552" x2="27.3158" y2="27.6866" gradientUnits="userSpaceOnUse">
<stop stop-color="#FFC538"/>
<stop offset="1" stop-color="#F7E041"/>
</linearGradient>
<linearGradient id="paint15_linear_329_12251" x1="27.7045" y1="27.2102" x2="31.6999" y2="24.9035" gradientUnits="userSpaceOnUse">
<stop stop-color="#FFA538"/>
<stop offset="1" stop-color="#F9E667"/>
</linearGradient>
<linearGradient id="paint16_linear_329_12251" x1="22.8081" y1="30.3634" x2="27.239" y2="22.6889" gradientUnits="userSpaceOnUse">
<stop stop-color="#FFA538"/>
<stop offset="1" stop-color="#F9E667"/>
</linearGradient>
<linearGradient id="paint17_linear_329_12251" x1="32.7245" y1="29.7781" x2="34.4558" y2="26.7795" gradientUnits="userSpaceOnUse">
<stop stop-color="#CC8241"/>
<stop offset="1" stop-color="#FFA538"/>
</linearGradient>
<linearGradient id="paint18_linear_329_12251" x1="37.9789" y1="29.3236" x2="37.9789" y2="21.5551" gradientUnits="userSpaceOnUse">
<stop stop-color="#FFC538"/>
<stop offset="1" stop-color="#F7E041"/>
</linearGradient>
<linearGradient id="paint19_linear_329_12251" x1="38.3678" y1="21.0786" x2="42.3631" y2="18.7719" gradientUnits="userSpaceOnUse">
<stop stop-color="#FFA538"/>
<stop offset="1" stop-color="#F9E667"/>
</linearGradient>
<linearGradient id="paint20_linear_329_12251" x1="33.4712" y1="24.2318" x2="37.902" y2="16.5574" gradientUnits="userSpaceOnUse">
<stop stop-color="#FFA538"/>
<stop offset="1" stop-color="#F9E667"/>
</linearGradient>
</defs>
</svg>
