<svg width="49" height="48" viewBox="0 0 49 48" fill="none" xmlns="http://www.w3.org/2000/svg">
<g clip-path="url(#clip0_329_12281)">
<path d="M15.1921 10.3257L15.1923 10.3253L9.02853 6.86721L9.02384 6.87658C8.1185 6.31333 6.9245 6.33621 5.61087 7.09455C2.78825 8.7243 0.5 13.0964 0.5 16.86C0.5 18.7798 1.09766 20.1662 2.05559 20.8516L2.05391 20.8551L2.13266 20.9004C2.23259 20.9668 2.33497 21.0279 2.44222 21.0791L8.27947 24.3487C9.19691 24.9871 10.4389 24.9888 11.8077 24.1986C14.6304 22.5689 16.9186 18.1968 16.9186 14.4332C16.9186 12.4009 16.2505 10.9631 15.1921 10.3257Z" fill="url(#paint0_linear_329_12281)"/>
<path d="M16.9182 14.4332C16.9182 18.1968 14.63 22.5689 11.8073 24.1986C8.98454 25.8282 6.69629 24.0983 6.69629 20.3347C6.69629 16.5711 8.98454 12.199 11.8073 10.5694C14.63 8.93971 16.9182 10.6696 16.9182 14.4332Z" fill="url(#paint1_linear_329_12281)"/>
<path d="M18.762 14.0762L18.7622 14.0758L15.853 12.3713L15.8494 12.3787C15.14 11.9374 14.2045 11.9552 13.1753 12.5495C10.9638 13.8264 9.1709 17.252 9.1709 20.2008C9.1709 21.7049 9.63918 22.7912 10.3897 23.3282L10.3884 23.3309L10.4501 23.3665C10.5284 23.4185 10.6086 23.4663 10.6926 23.5065L13.346 25.0634C14.0647 25.5637 15.0379 25.565 16.1103 24.9459C18.3218 23.669 20.1147 20.2435 20.1147 17.2946C20.1148 15.7021 19.5913 14.5757 18.762 14.0762Z" fill="url(#paint2_linear_329_12281)"/>
<path d="M19.3141 20.9811C20.6451 17.8575 20.2914 14.715 18.5243 13.962C16.7571 13.209 14.2456 15.1308 12.9147 18.2544C11.5838 21.378 11.9374 24.5205 13.7046 25.2735C15.4717 26.0265 17.9832 24.1047 19.3141 20.9811Z" fill="white"/>
<path d="M17.6772 26.5632C17.6772 26.5632 17.1999 27.5862 16.2872 28.0302C15.3746 28.4742 14.3742 27.7527 13.8931 27.4475C13.412 27.1423 13.137 26.598 13.4807 26.185C13.8243 25.7718 14.5102 25.4452 15.2351 25.7091C15.9599 25.9729 16.6807 26.6291 17.6772 26.5632Z" fill="url(#paint3_linear_329_12281)"/>
<path d="M30.1785 20.6914C30.1785 20.6914 29.5905 18.1554 28.8187 17.4938C28.0468 16.8323 23.269 16.5015 21.2843 16.428C20.5501 16.4008 19.8966 16.2007 19.3645 15.9595C17.9832 15.333 16.3538 15.676 15.3276 16.7928C14.6793 17.4982 14.0835 18.4478 13.7868 19.699C12.9414 23.2641 14.7791 24.8812 14.7791 24.8812C14.7791 24.8812 18.6042 31.7733 20.6256 32.9126C20.6256 32.9126 22.2899 34.7886 23.6463 34.6062C24.4037 34.5043 24.5778 34.2277 24.839 34.0865C24.8807 34.0851 25.3169 34.3465 26.5031 34.2366C27.5473 34.1397 27.883 33.2721 27.883 33.2721C27.883 33.2721 28.8553 33.4733 29.5937 33.2396C30.6129 32.917 31.1291 31.6584 31.0754 30.6914C31.5579 26.6527 30.1785 20.6914 30.1785 20.6914Z" fill="url(#paint4_linear_329_12281)"/>
<path opacity="0.5" d="M26.1733 33.8096C25.349 33.7651 24.8756 33.495 24.1405 32.9157C23.4053 32.3365 21.4561 29.9482 21.4561 29.9482C21.4561 29.9482 23.5486 33.3414 24.8389 34.0865C24.8806 34.0851 25.3169 34.3465 26.5031 34.2366C27.5473 34.1397 27.883 33.2721 27.883 33.2721C27.883 33.2721 26.9974 33.8541 26.1733 33.8096Z" fill="url(#paint5_linear_329_12281)"/>
<path opacity="0.5" d="M32.3458 31.2416C32.3427 31.2556 31.431 31.773 30.0915 31.2416C28.752 30.7103 26.0898 26.9963 26.0898 26.9963C26.0898 26.9963 29.2198 30.5098 30.6901 30.7548C32.1603 30.9997 32.695 30.5603 32.695 30.5603L32.3458 31.2416Z" fill="url(#paint6_linear_329_12281)"/>
<path opacity="0.5" d="M30.9348 31.7324L30.7015 31.2448C30.7015 31.2448 30.5713 32.4694 29.3649 32.6483C27.4048 32.9389 23.584 28.3376 23.584 28.3376C23.584 28.3376 26.4454 32.4417 27.8835 33.2721C27.8842 33.2723 28.856 33.4733 29.5941 33.2396C30.2662 33.0269 30.7194 32.4072 30.9348 31.7324Z" fill="url(#paint7_linear_329_12281)"/>
<path d="M26.8713 23.7541L22.6815 23.3621C22.6815 23.3621 21.3829 25.1507 19.8883 25.0037C18.3937 24.8567 20.4274 23.3621 20.4274 23.3621C20.4274 23.3621 20.7459 20.4219 23.6371 21.0099C26.5283 21.5979 27.0184 22.1615 27.0184 22.235C27.0183 22.3085 26.8713 23.7541 26.8713 23.7541Z" fill="url(#paint8_linear_329_12281)"/>
<path d="M37.4061 25.375L32.9353 23.5212C32.9353 23.5212 31.5019 21.4263 30.2523 20.1768C29.0027 18.9272 27.8634 18.523 26.8711 18.5965C25.8787 18.67 22.424 19.0007 22.1116 19.3132C21.7992 19.6255 20.3475 21.8675 19.7961 22.4555C19.2449 23.0435 19.3367 23.503 19.6859 23.8705C20.035 24.238 21.303 24.2931 21.9646 23.7418C22.6261 23.1906 23.2325 22.2166 23.2325 22.2166L26.0257 22.7495C26.0257 22.7495 26.136 28.9975 31.7958 29.512C37.4557 30.0265 37.4061 25.375 37.4061 25.375Z" fill="url(#paint9_linear_329_12281)"/>
<path d="M18.4966 30.2309C18.4966 30.2309 17.4366 30.6192 16.4766 30.2902C15.5166 29.9611 15.3165 28.7441 15.1907 28.1884C15.065 27.6328 15.254 27.053 15.7891 27.0026C16.3241 26.9521 17.0406 27.2045 17.3682 27.9028C17.6957 28.6012 17.7437 29.5747 18.4966 30.2309Z" fill="url(#paint10_linear_329_12281)"/>
<path d="M19.694 32.4276C19.694 32.4276 18.5743 32.5724 17.7107 32.0395C16.847 31.5065 16.9205 30.2754 16.9205 29.7057C16.9205 29.136 17.2329 28.6122 17.7658 28.6812C18.2987 28.7501 18.9419 29.1544 19.1073 29.9078C19.2727 30.6612 19.1046 31.6213 19.694 32.4276Z" fill="url(#paint11_linear_329_12281)"/>
<path d="M21.6839 33.8704C21.6839 33.8704 19.9612 34.3634 19.0974 33.8305C18.2337 33.2976 18.3072 32.0664 18.3072 31.4967C18.3072 30.927 18.6196 30.4033 19.1526 30.4722C19.6854 30.5411 20.3287 30.9454 20.494 31.6988C20.6594 32.4523 21.0945 33.0641 21.6839 33.8704Z" fill="url(#paint12_linear_329_12281)"/>
<path d="M41.7867 26.2278L41.7869 26.2274L36.9575 23.518L36.9539 23.5254C36.2445 23.0841 35.309 23.102 34.2798 23.6962C32.0683 24.9731 30.2754 28.3987 30.2754 31.3475C30.2754 32.8516 30.7437 33.9379 31.4942 34.4749L31.4929 34.4776L31.5546 34.5132C31.6329 34.5652 31.7131 34.613 31.7971 34.6532L36.3706 37.2149C37.0895 37.7152 38.0625 37.7165 39.135 37.0974C41.3465 35.8205 43.1394 32.395 43.1394 29.4462C43.1394 27.8537 42.616 26.7272 41.7867 26.2278Z" fill="url(#paint13_linear_329_12281)"/>
<path d="M42.3473 33.1417C43.6783 30.0182 43.3246 26.8756 41.5575 26.1226C39.7903 25.3697 37.2789 27.2915 35.9479 30.415C34.617 33.5386 34.9706 36.6812 36.7378 37.4342C38.5049 38.1871 41.0164 36.2653 42.3473 33.1417Z" fill="white"/>
<path d="M46.7733 27.0281L46.7735 27.0276L40.6097 23.5695L40.605 23.579C39.6996 23.0158 38.5056 23.0385 37.192 23.797C34.3694 25.4267 32.0811 29.7988 32.0811 33.5624C32.0811 35.4823 32.6787 36.8686 33.6366 37.554L33.635 37.5575L33.7137 37.6028C33.8136 37.6693 33.9161 37.7303 34.0233 37.7816L39.8605 41.0511C40.778 41.6895 42.02 41.6912 43.3887 40.901C46.2115 39.2714 48.4998 34.8993 48.4998 31.1356C48.4998 29.1032 47.8317 27.6656 46.7733 27.0281Z" fill="url(#paint14_linear_329_12281)"/>
<path d="M48.5003 31.1356C48.5003 34.8992 46.212 39.2713 43.3893 40.9009C40.5666 42.5306 38.2783 40.8007 38.2783 37.0371C38.2783 33.2735 40.5666 28.9014 43.3893 27.2718C46.212 25.6421 48.5003 27.372 48.5003 31.1356Z" fill="url(#paint15_linear_329_12281)"/>
</g>
<defs>
<linearGradient id="paint0_linear_329_12281" x1="4.35284" y1="23.1924" x2="9.18453" y2="14.8236" gradientUnits="userSpaceOnUse">
<stop stop-color="#001D2F"/>
<stop offset="1" stop-color="#00395E"/>
</linearGradient>
<linearGradient id="paint1_linear_329_12281" x1="11.8073" y1="23.0268" x2="11.8073" y2="4.2793" gradientUnits="userSpaceOnUse">
<stop stop-color="#001A2F"/>
<stop offset="0.3965" stop-color="#00223F"/>
<stop offset="1" stop-color="#0072BC"/>
</linearGradient>
<linearGradient id="paint2_linear_329_12281" x1="11.2412" y1="24.6395" x2="15.0132" y2="18.1061" gradientUnits="userSpaceOnUse">
<stop stop-color="#A996EB"/>
<stop offset="0.39" stop-color="#C5BAEB"/>
<stop offset="1" stop-color="#F2EFFA"/>
</linearGradient>
<linearGradient id="paint3_linear_329_12281" x1="14.6133" y1="27.8637" x2="16.1007" y2="25.5188" gradientUnits="userSpaceOnUse">
<stop stop-color="#DEA861"/>
<stop offset="1" stop-color="#EBCBA0"/>
</linearGradient>
<linearGradient id="paint4_linear_329_12281" x1="29.0286" y1="31.4886" x2="24.2835" y2="24.9391" gradientUnits="userSpaceOnUse">
<stop stop-color="#CC8241"/>
<stop offset="1" stop-color="#DEA861"/>
</linearGradient>
<linearGradient id="paint5_linear_329_12281" x1="27.16" y1="36.253" x2="23.1827" y2="28.8386" gradientUnits="userSpaceOnUse">
<stop stop-color="#8B451C"/>
<stop offset="1" stop-color="#8B451C" stop-opacity="0"/>
</linearGradient>
<linearGradient id="paint6_linear_329_12281" x1="32.0571" y1="33.7459" x2="27.831" y2="25.8675" gradientUnits="userSpaceOnUse">
<stop stop-color="#8B451C"/>
<stop offset="1" stop-color="#8B451C" stop-opacity="0"/>
</linearGradient>
<linearGradient id="paint7_linear_329_12281" x1="30.7155" y1="35.6217" x2="25.0207" y2="26.3282" gradientUnits="userSpaceOnUse">
<stop stop-color="#8B451C"/>
<stop offset="1" stop-color="#8B451C" stop-opacity="0"/>
</linearGradient>
<linearGradient id="paint8_linear_329_12281" x1="25.3091" y1="19.1899" x2="21.9393" y2="26.7849" gradientUnits="userSpaceOnUse">
<stop stop-color="#8B451C"/>
<stop offset="1" stop-color="#8B451C" stop-opacity="0"/>
</linearGradient>
<linearGradient id="paint9_linear_329_12281" x1="28.4048" y1="33.371" x2="28.4048" y2="16.868" gradientUnits="userSpaceOnUse">
<stop stop-color="#DEA861"/>
<stop offset="1" stop-color="#EBCBA0"/>
</linearGradient>
<linearGradient id="paint10_linear_329_12281" x1="15.3749" y1="29.0157" x2="18.0804" y2="28.4025" gradientUnits="userSpaceOnUse">
<stop stop-color="#DEA861"/>
<stop offset="1" stop-color="#EBCBA0"/>
</linearGradient>
<linearGradient id="paint11_linear_329_12281" x1="16.919" y1="30.5603" x2="19.694" y2="30.5603" gradientUnits="userSpaceOnUse">
<stop stop-color="#DEA861"/>
<stop offset="1" stop-color="#EBCBA0"/>
</linearGradient>
<linearGradient id="paint12_linear_329_12281" x1="18.3057" y1="32.2721" x2="21.6839" y2="32.2721" gradientUnits="userSpaceOnUse">
<stop stop-color="#DEA861"/>
<stop offset="1" stop-color="#EBCBA0"/>
</linearGradient>
<linearGradient id="paint13_linear_329_12281" x1="33.2941" y1="36.3088" x2="37.0798" y2="29.752" gradientUnits="userSpaceOnUse">
<stop stop-color="#A996EB"/>
<stop offset="0.39" stop-color="#C5BAEB"/>
<stop offset="1" stop-color="#F2EFFA"/>
</linearGradient>
<linearGradient id="paint14_linear_329_12281" x1="35.934" y1="39.8947" x2="40.7657" y2="31.526" gradientUnits="userSpaceOnUse">
<stop stop-color="#43386B"/>
<stop offset="0.3965" stop-color="#594A8E"/>
<stop offset="1" stop-color="#A996EB"/>
</linearGradient>
<linearGradient id="paint15_linear_329_12281" x1="43.3893" y1="39.7293" x2="43.3893" y2="20.9817" gradientUnits="userSpaceOnUse">
<stop stop-color="#43386B"/>
<stop offset="0.3965" stop-color="#594A8E"/>
<stop offset="1" stop-color="#A996EB"/>
</linearGradient>
<clipPath id="clip0_329_12281">
<rect width="48" height="48" fill="white" transform="translate(0.5)"/>
</clipPath>
</defs>
</svg>
