<svg width="49" height="48" viewBox="0 0 49 48" fill="none" xmlns="http://www.w3.org/2000/svg">
<path d="M34.8392 0.784703L33.6952 0.104078C33.4695 -0.0436719 33.1679 -0.0396406 32.8363 0.151797L15.0279 10.4334C14.3286 10.8371 13.7617 11.9203 13.7617 12.8527V46.216C13.7617 46.7667 13.9596 47.1416 14.2657 47.273L14.8065 47.6016L15.2809 47.8794L34.8392 0.784703Z" fill="url(#paint0_linear_329_12184)"/>
<path d="M33.972 37.5663L16.1636 47.848C15.4644 48.2517 14.8975 47.8231 14.8975 46.8908V13.5275C14.8975 12.5951 15.4644 11.512 16.1636 11.1082L33.972 0.826522C34.6713 0.422741 35.2382 0.851366 35.2382 1.78371V35.147C35.2382 36.0794 34.6713 37.1626 33.972 37.5663Z" fill="url(#paint1_linear_329_12184)"/>
<path d="M32.6453 8.28324L21.5454 14.6996C21.1519 14.9267 20.833 15.5361 20.833 16.0607C20.833 16.5854 21.1519 16.8265 21.5454 16.5993L32.6453 10.183C33.0388 9.95584 33.3577 9.34646 33.3577 8.82184C33.3577 8.29721 33.0388 8.05609 32.6453 8.28324Z" fill="#43386B"/>
<path d="M27.5052 15.5203L21.5454 18.9422C21.1519 19.1693 20.833 19.7787 20.833 20.3033C20.833 20.828 21.1519 21.0691 21.5454 20.8419L27.5052 17.4201C27.8987 17.1929 28.2176 16.5835 28.2176 16.0589C28.2175 15.5343 27.8986 15.2931 27.5052 15.5203Z" fill="#43386B"/>
<path d="M32.6453 17.8772L21.5454 24.2935C21.1519 24.5207 20.833 25.1301 20.833 25.6547C20.833 26.1793 21.1519 26.4204 21.5454 26.1933L32.6453 19.7769C33.0388 19.5498 33.3577 18.9404 33.3577 18.4158C33.3577 17.8912 33.0388 17.6501 32.6453 17.8772Z" fill="#43386B"/>
<path d="M27.5052 25.1143L21.5454 28.5362C21.1519 28.7633 20.833 29.3727 20.833 29.8973C20.833 30.422 21.1519 30.6631 21.5454 30.4359L27.5052 27.014C27.8987 26.7869 28.2176 26.1775 28.2176 25.6529C28.2175 25.1283 27.8986 24.8871 27.5052 25.1143Z" fill="#43386B"/>
<path d="M32.6453 27.4712L21.5454 33.8876C21.1519 34.1147 20.833 34.7241 20.833 35.2487C20.833 35.7734 21.1519 36.0144 21.5454 35.7873L32.6453 29.371C33.0388 29.1438 33.3577 28.5344 33.3577 28.0098C33.3577 27.4852 33.0388 27.2441 32.6453 27.4712Z" fill="#43386B"/>
<path d="M27.5052 34.7083L21.5454 38.1302C21.1519 38.3573 20.833 38.9667 20.833 39.4913C20.833 40.0159 21.1519 40.2571 21.5454 40.0299L27.5052 36.608C27.8987 36.3809 28.2176 35.7715 28.2176 35.2469C28.2175 34.7223 27.8986 34.4811 27.5052 34.7083Z" fill="#43386B"/>
<path d="M19.1332 17.2089C19.5125 16.3185 19.4117 15.4228 18.908 15.2081C18.4042 14.9935 17.6883 15.5413 17.309 16.4316C16.9296 17.3219 17.0304 18.2177 17.5342 18.4323C18.0379 18.647 18.7538 18.0992 19.1332 17.2089Z" fill="#9BF0DF"/>
<path d="M19.1312 27.246C19.5106 26.3556 19.4097 25.4599 18.906 25.2452C18.4023 25.0306 17.6864 25.5784 17.307 26.4687C16.9277 27.359 17.0285 28.2548 17.5322 28.4694C18.0359 28.6841 18.7518 28.1363 19.1312 27.246Z" fill="#FF4757"/>
<path d="M19.357 36.2164C19.357 37.057 18.846 38.0334 18.2156 38.3973C17.5853 38.7612 17.0742 38.3749 17.0742 37.5344C17.0742 36.6939 17.5853 35.7175 18.2156 35.3535C18.8459 34.9896 19.357 35.3759 19.357 36.2164Z" fill="#59ACF9"/>
<defs>
<linearGradient id="paint0_linear_329_12184" x1="21.7634" y1="17.4367" x2="24.0974" y2="13.3942" gradientUnits="userSpaceOnUse">
<stop offset="0.0319" stop-color="#A996EB"/>
<stop offset="0.2213" stop-color="#BFB3EB"/>
<stop offset="0.4108" stop-color="#D1C9EB"/>
<stop offset="0.5321" stop-color="#D7D1EB"/>
<stop offset="1" stop-color="#E9E5F6"/>
</linearGradient>
<linearGradient id="paint1_linear_329_12184" x1="25.0678" y1="72.2344" x2="25.0678" y2="2.32765" gradientUnits="userSpaceOnUse">
<stop stop-color="#DFDAEF"/>
<stop offset="1" stop-color="white"/>
</linearGradient>
</defs>
</svg>
