<svg width="49" height="48" viewBox="0 0 49 48" fill="none" xmlns="http://www.w3.org/2000/svg">
<g clip-path="url(#clip0_329_12211)">
<path d="M38.5266 1.63307L35.9548 0.13579C35.6604 -0.0569604 35.2669 -0.0517104 34.8344 0.197946L11.6057 13.6091C10.6936 14.1358 9.9541 15.5486 9.9541 16.7648V40.3765C9.9541 41.095 10.2123 41.5839 10.6116 41.7554L12.3965 42.7934L13.0153 43.1556L13.9242 43.2309V45.9853C13.9242 46.1979 14.0338 46.3563 14.1834 46.4441L14.1828 46.4448L16.7527 47.9274L38.5266 1.63307Z" fill="url(#paint0_linear_329_12211)"/>
<path d="M37.395 1.68769L14.1662 15.0988C13.2541 15.6254 12.5146 17.0383 12.5146 18.2545V41.8662C12.5146 43.0824 13.2541 43.6414 14.1662 43.1148L16.4849 41.7761V47.4636C16.4849 48.0127 17.2126 48.2063 17.4855 47.7297L23.072 37.973L37.3949 29.7037C38.307 29.1771 39.0465 27.7642 39.0465 26.548V2.93625C39.0466 1.72003 38.3071 1.16109 37.395 1.68769Z" fill="url(#paint1_linear_329_12211)"/>
<path d="M32.8118 20.7432C32.6303 19.9975 32.0858 19.7933 31.2145 20.1303C30.3433 20.4674 28.3209 21.801 28.3209 21.801C28.3209 21.801 28.5853 19.1384 28.1653 17.991C27.7452 16.8437 26.8274 16.7073 26.0339 17.0435C25.2405 17.3797 25.3961 18.7186 25.3805 19.3291C25.3656 19.9142 25.2792 23.7411 23.0949 26.3566C22.911 26.5768 22.7979 26.8945 22.7979 27.1649V35.5757C22.7979 35.9614 23.0324 36.1387 23.3216 35.9717L30.3934 31.8888C30.8529 31.6235 31.2719 31.0061 31.4253 30.3401C31.4276 30.3298 31.4301 30.3194 31.4323 30.3089C31.6658 29.2614 31.5179 28.7815 31.5179 28.7815C31.5179 28.7815 32.1452 27.7715 32.2719 27.0354C32.4436 26.0379 32.253 25.4945 32.253 25.4945C32.253 25.4945 32.6769 24.7259 32.7703 23.9668C32.8637 23.2076 32.5836 22.7521 32.5836 22.7521C32.5836 22.7521 32.9933 21.4889 32.8118 20.7432Z" fill="url(#paint2_linear_329_12211)"/>
<path d="M21.5898 26.8075L19.5062 28.0104C19.2169 28.1775 18.9824 28.6255 18.9824 29.0112V37.7788C18.9824 38.1645 19.2169 38.3418 19.5062 38.1748L21.5898 36.9719C21.879 36.8049 22.1136 36.3568 22.1136 35.9711V27.2035C22.1136 26.8177 21.879 26.6404 21.5898 26.8075Z" fill="url(#paint3_linear_329_12211)"/>
<path d="M32.7721 18.3259L35.8733 16.4659L32.3917 14.4566C32.3795 14.4493 32.3674 14.4419 32.3549 14.4353L32.339 14.4262L32.3387 14.4278C32.0641 14.2919 31.6885 14.314 31.2156 14.4969C31.0489 14.5614 30.84 14.6625 30.6113 14.7836L30.9291 13.4322L27.4103 11.4024L27.41 11.4037C26.9895 11.1812 26.4917 11.2165 26.0349 11.4101C25.2415 11.7463 25.3971 13.0853 25.3815 13.6958C25.3665 14.2808 25.2802 18.1077 23.0958 20.7232C22.912 20.9434 22.7988 21.2611 22.7988 21.5315V29.9423C22.7988 30.1492 22.8675 30.2932 22.9747 30.3593L22.974 30.3624L26.4724 32.3814L27.5234 27.913L30.3944 26.2554C30.8538 25.9902 31.2729 25.3727 31.4263 24.7067C31.4286 24.6964 31.431 24.686 31.4333 24.6755C31.6666 23.628 31.5189 23.1481 31.5189 23.1481C31.5189 23.1481 32.1462 22.1381 32.2728 21.402C32.4446 20.4045 32.2539 19.8611 32.2539 19.8611C32.2539 19.8611 32.6778 19.0926 32.7712 18.3334C32.7717 18.3309 32.7718 18.3285 32.7721 18.3259Z" fill="url(#paint4_linear_329_12211)"/>
<path d="M26.807 32.3496L33.8787 28.2667C34.3382 28.0015 34.7573 27.3839 34.9106 26.7179C34.913 26.7076 34.9154 26.6972 34.9177 26.6867C35.151 25.6393 35.0033 25.1594 35.0033 25.1594C35.0033 25.1594 35.6305 24.1494 35.7572 23.4132C35.929 22.4157 35.7383 21.8723 35.7383 21.8723C35.7383 21.8723 36.1622 21.1037 36.2556 20.3445C36.349 19.5854 36.0689 19.1299 36.0689 19.1299C36.0689 19.1299 36.4786 17.8666 36.2971 17.1209C36.1156 16.3752 35.571 16.171 34.6999 16.508C33.8287 16.845 31.8062 18.1787 31.8062 18.1787C31.8062 18.1787 32.0707 15.516 31.6507 14.3687C31.2306 13.2214 30.3127 13.085 29.5193 13.4212C28.7259 13.7574 28.8814 15.0963 28.8658 15.7068C28.8509 16.2919 28.7646 20.1189 26.5802 22.7343C26.3964 22.9544 26.2832 23.2722 26.2832 23.5424V31.9533C26.2832 32.3393 26.5178 32.5166 26.807 32.3496Z" fill="white"/>
<path d="M21.9333 21.147L21.9325 21.1504C21.8404 21.0965 21.7214 21.0981 21.5898 21.1741L19.5062 22.377C19.2169 22.5441 18.9824 22.9921 18.9824 23.3778V32.1454C18.9824 32.3617 19.0578 32.5092 19.1737 32.5704L19.1728 32.5741L22.6536 34.5833L25.4169 23.1583L21.9333 21.147Z" fill="url(#paint5_linear_329_12211)"/>
<path d="M22.9906 34.5524L25.0742 33.3495C25.3634 33.1826 25.598 32.7344 25.598 32.3487V23.5811C25.598 23.1955 25.3634 23.0182 25.0742 23.1851L22.9906 24.3881C22.7013 24.5551 22.4668 25.0031 22.4668 25.3888V34.1564C22.4669 34.5422 22.7014 34.7195 22.9906 34.5524Z" fill="url(#paint6_linear_329_12211)"/>
</g>
<defs>
<linearGradient id="paint0_linear_329_12211" x1="18.4223" y1="23.0636" x2="20.7751" y2="18.9884" gradientUnits="userSpaceOnUse">
<stop offset="0.0319" stop-color="#A996EB"/>
<stop offset="0.2213" stop-color="#BFB3EB"/>
<stop offset="0.4108" stop-color="#D1C9EB"/>
<stop offset="0.5321" stop-color="#D7D1EB"/>
<stop offset="1" stop-color="#E9E5F6"/>
</linearGradient>
<linearGradient id="paint1_linear_329_12211" x1="25.7807" y1="43.1213" x2="25.7807" y2="-16.8369" gradientUnits="userSpaceOnUse">
<stop stop-color="#DFDAEF"/>
<stop offset="1" stop-color="white"/>
</linearGradient>
<linearGradient id="paint2_linear_329_12211" x1="27.8279" y1="25.1519" x2="27.8279" y2="37.0926" gradientUnits="userSpaceOnUse">
<stop stop-color="#7662BD"/>
<stop offset="1" stop-color="#7662BD" stop-opacity="0"/>
</linearGradient>
<linearGradient id="paint3_linear_329_12211" x1="20.548" y1="27.1124" x2="20.548" y2="39.053" gradientUnits="userSpaceOnUse">
<stop stop-color="#7662BD"/>
<stop offset="1" stop-color="#7662BD" stop-opacity="0"/>
</linearGradient>
<linearGradient id="paint4_linear_329_12211" x1="25.4942" y1="24.0669" x2="30.7097" y2="14.2155" gradientUnits="userSpaceOnUse">
<stop stop-color="#A996EB"/>
<stop offset="0.4278" stop-color="#BBADEB"/>
<stop offset="1" stop-color="#D7D1EB"/>
</linearGradient>
<linearGradient id="paint5_linear_329_12211" x1="22.605" y1="25.7259" x2="23.6191" y2="23.9694" gradientUnits="userSpaceOnUse">
<stop stop-color="#0072BC"/>
<stop offset="1" stop-color="#0197F8"/>
</linearGradient>
<linearGradient id="paint6_linear_329_12211" x1="24.0324" y1="33.205" x2="24.0324" y2="25.2495" gradientUnits="userSpaceOnUse">
<stop stop-color="#2F97F7"/>
<stop offset="1" stop-color="#59ACF9"/>
</linearGradient>
<clipPath id="clip0_329_12211">
<rect width="48" height="48" fill="white" transform="translate(0.5)"/>
</clipPath>
</defs>
</svg>
