<svg width="49" height="48" viewBox="0 0 49 48" fill="none" xmlns="http://www.w3.org/2000/svg">
<g clip-path="url(#clip0_329_12223)">
<path d="M47.3943 17.0208C47.0259 16.333 45.9972 15.7521 45.0966 15.7235C44.6006 15.7078 44.248 15.8634 44.0919 16.1207L44.0907 16.1201L43.2185 17.5255L43.2208 17.5266C43.0781 17.7391 43.074 18.0255 43.2459 18.3465C43.6143 19.0344 44.643 19.6152 45.5436 19.6438C46.0641 19.6604 46.4264 19.4882 46.5696 19.2076L47.3963 17.8756L47.3958 17.8753C47.5624 17.6599 47.5756 17.3592 47.3943 17.0208Z" fill="url(#paint0_linear_329_12223)"/>
<path d="M38.8458 32.7724V13.9307L8.60449 15.2275V34.0691C8.6044 34.5008 8.81805 34.9325 9.24537 35.1793L21.2252 42.0959C22.0772 42.5878 23.1269 42.5878 23.9789 42.0959L38.2049 33.8825C38.6322 33.6358 38.8458 33.2041 38.8458 32.7724Z" fill="url(#paint1_linear_329_12223)"/>
<path d="M9.24539 14.1174L23.4714 5.90409C24.3234 5.41218 25.3731 5.41218 26.2251 5.90409L38.205 12.8207C39.0595 13.3141 39.0595 14.5475 38.205 15.0408L23.979 23.2541C23.127 23.746 22.0772 23.746 21.2252 23.2541L9.24539 16.3375C8.39086 15.8441 8.39086 14.6107 9.24539 14.1174Z" fill="url(#paint2_linear_329_12223)"/>
<path d="M13.8584 11.4544L29.1378 20.2759L33.1909 17.9359L17.9115 9.11426L13.8584 11.4544Z" fill="#DEA861"/>
<path d="M16.2803 10.0544L31.5597 18.876L30.7657 19.3344L15.4863 10.5129L16.2803 10.0544Z" fill="#CC8241"/>
<path d="M29.1367 20.2758V23.6229L33.1898 21.2829V17.9358L29.1367 20.2758Z" fill="#CC8241"/>
<path d="M1.43037 14.4678L10.7229 19.8329C11.1977 20.107 11.4902 20.6136 11.4902 21.1619C11.4902 21.6393 10.9733 21.9377 10.5598 21.699L1.26734 16.334C0.7925 16.0599 0.5 15.5533 0.5 15.005C0.5 14.5275 1.01684 14.229 1.43037 14.4678Z" fill="url(#paint3_linear_329_12223)"/>
<path d="M4.82695 20.3843L14.1194 25.7494C14.5942 26.0235 14.8867 26.5301 14.8867 27.0784C14.8867 27.5558 14.3699 27.8542 13.9563 27.6156L4.66383 22.2505C4.18898 21.9764 3.89648 21.4698 3.89648 20.9215C3.89658 20.444 4.41342 20.1456 4.82695 20.3843Z" fill="url(#paint4_linear_329_12223)"/>
<path d="M46.0997 18.6362L46.1001 18.6354L42.9452 16.8191L42.945 16.8196C41.6996 16.1597 40.0997 16.2537 38.3544 17.2613C34.3832 19.5541 31.1641 25.705 31.1641 30.9999C31.1641 33.911 32.1384 35.9544 33.6745 36.8258L33.6734 36.8282L36.556 38.4924L36.559 38.4863C37.826 39.2437 39.4883 39.189 41.31 38.1372C45.2811 35.8445 48.5004 29.6935 48.5004 24.3986C48.5004 21.5573 47.5726 19.5414 46.0997 18.6362Z" fill="url(#paint5_linear_329_12223)"/>
<path d="M47.0688 31.0174C49.4587 25.4087 48.8237 19.7659 45.6506 18.4139C42.4775 17.0619 37.9679 20.5126 35.5781 26.1213C33.1883 31.7301 33.8233 37.3729 36.9963 38.7249C40.1694 40.0769 44.679 36.6261 47.0688 31.0174Z" fill="#A996EB"/>
<path d="M45.4714 30.3364C47.1965 26.2879 46.7381 22.2148 44.4477 21.2389C42.1573 20.263 38.9021 22.7538 37.1771 26.8023C35.4521 30.8508 35.9105 34.9239 38.2009 35.8999C40.4913 36.8758 43.7464 34.3849 45.4714 30.3364Z" fill="#F2EFFA"/>
<path d="M45.7456 22.3948C44.8348 20.9264 43.1889 20.5449 41.3096 21.6298V28.5501L45.7456 22.3948Z" fill="#FF4757"/>
<path d="M42.3148 27.9698C42.3148 27.2297 41.8648 26.8895 41.3097 27.2099C40.7546 27.5304 40.3047 28.3902 40.3047 29.1303C40.3047 29.8705 40.7547 30.2106 41.3097 29.8901C41.8648 29.5696 42.3148 28.7099 42.3148 27.9698Z" fill="#594A8E"/>
<path d="M40.918 29.7563V23.407C40.918 23.1907 41.0933 23.0154 41.3096 23.0154C41.5258 23.0154 41.7012 23.1907 41.7012 23.407V27.3438L43.8206 24.4231C43.9476 24.2483 44.1923 24.2089 44.3674 24.3362C44.5424 24.4632 44.5813 24.708 44.4544 24.8831L40.918 29.7563Z" fill="#594A8E"/>
<path d="M41.5435 17.1508V15.7222L38.7842 15.908V17.4004L38.7861 17.4002C38.7793 17.5892 38.8883 17.7706 39.1213 17.9051C39.6206 18.1934 40.4928 18.1572 41.0693 17.8244C41.4026 17.632 41.563 17.3828 41.5435 17.1508Z" fill="#594A8E"/>
<path d="M42.3104 14.8428V13.0403L38.0166 13.3295V15.2313L38.0195 15.231C38.0089 15.5251 38.1787 15.8075 38.5411 16.0168C39.3181 16.4653 40.6754 16.4091 41.5725 15.8911C42.0911 15.5917 42.3406 15.2037 42.3104 14.8428Z" fill="url(#paint6_linear_329_12223)"/>
<path d="M40.3271 14.3615C41.5116 14.2171 42.4056 13.5569 42.324 12.8868C42.2423 12.2166 41.2159 11.7904 40.0314 11.9347C38.8469 12.079 37.9529 12.7393 38.0346 13.4094C38.1162 14.0796 39.1426 14.5058 40.3271 14.3615Z" fill="#FF7A85"/>
<path d="M36.2832 20.3845L35.0069 19.4741L33.043 22.6603L34.3895 23.6209L34.3908 23.6187C34.5937 23.7747 34.8793 23.7972 35.2107 23.6463C35.9207 23.3227 36.5664 22.3334 36.6527 21.4365C36.7026 20.9181 36.5539 20.5454 36.2832 20.3845Z" fill="url(#paint7_linear_329_12223)"/>
<path d="M34.9231 21.5659C35.4189 20.6551 35.4032 19.6893 34.8879 19.4087C34.3726 19.1282 33.5529 19.6392 33.057 20.55C32.5612 21.4608 32.5769 22.4266 33.0922 22.7072C33.6075 22.9877 34.4272 22.4767 34.9231 21.5659Z" fill="#06DAAE"/>
</g>
<defs>
<linearGradient id="paint0_linear_329_12223" x1="43.1154" y1="17.6836" x2="47.5256" y2="17.6836" gradientUnits="userSpaceOnUse">
<stop stop-color="#236568"/>
<stop offset="1" stop-color="#2F878A"/>
</linearGradient>
<linearGradient id="paint1_linear_329_12223" x1="20.185" y1="28.1977" x2="24.3392" y2="28.1977" gradientUnits="userSpaceOnUse">
<stop stop-color="#CC8241"/>
<stop offset="1" stop-color="#DEA861"/>
</linearGradient>
<linearGradient id="paint2_linear_329_12223" x1="15.306" y1="9.71821" x2="30.8633" y2="18.7002" gradientUnits="userSpaceOnUse">
<stop stop-color="#DEA861"/>
<stop offset="1" stop-color="#EBCBA0"/>
</linearGradient>
<linearGradient id="paint3_linear_329_12223" x1="12.3224" y1="21.9772" x2="1.28253" y2="15.1834" gradientUnits="userSpaceOnUse">
<stop stop-color="#43386B"/>
<stop offset="1" stop-color="#7662BD"/>
</linearGradient>
<linearGradient id="paint4_linear_329_12223" x1="15.719" y1="27.8937" x2="4.67911" y2="21.0998" gradientUnits="userSpaceOnUse">
<stop stop-color="#43386B"/>
<stop offset="1" stop-color="#7662BD"/>
</linearGradient>
<linearGradient id="paint5_linear_329_12223" x1="40.32" y1="26.8544" x2="43.2752" y2="21.7359" gradientUnits="userSpaceOnUse">
<stop stop-color="#43386B"/>
<stop offset="1" stop-color="#7662BD"/>
</linearGradient>
<linearGradient id="paint6_linear_329_12223" x1="38.0166" y1="14.68" x2="42.8577" y2="14.68" gradientUnits="userSpaceOnUse">
<stop stop-color="#AB2C37"/>
<stop offset="1" stop-color="#FF7A85"/>
</linearGradient>
<linearGradient id="paint7_linear_329_12223" x1="34.0061" y1="23.3532" x2="36.4523" y2="19.926" gradientUnits="userSpaceOnUse">
<stop stop-color="#236568"/>
<stop offset="1" stop-color="#2F878A"/>
</linearGradient>
<clipPath id="clip0_329_12223">
<rect width="48" height="48" fill="white" transform="translate(0.5)"/>
</clipPath>
</defs>
</svg>
