<?xml version="1.0" standalone="no"?>
<!DOCTYPE svg PUBLIC "-//W3C//DTD SVG 1.1//EN" "http://www.w3.org/Graphics/SVG/1.1/DTD/svg11.dtd" >
<svg xmlns="http://www.w3.org/2000/svg">
<metadata>Generated by IcoMoon</metadata>
<defs>
<font id="icons" horiz-adv-x="1024">
<font-face units-per-em="1024" ascent="960" descent="-64" />
<missing-glyph horiz-adv-x="1024" />
<glyph unicode="&#x20;" horiz-adv-x="512" d="" />
<glyph unicode="&#xe908;" glyph-name="calendar" d="M265.541 946.733c30.371 0 54.992-24.621 54.992-54.993v-43.615h383.050v43.615c0 30.372 24.624 54.993 54.996 54.993s54.989-24.621 54.989-54.993v-43.623c20.289-0.039 38.318-0.261 53.699-1.518 19.838-1.621 40.059-5.233 59.651-15.215 28.904-14.726 52.401-38.224 67.127-67.125 9.981-19.591 13.592-39.81 15.217-59.654 1.529-18.704 1.522-41.33 1.522-67.172v-477.456c0-25.846 0.007-48.469-1.522-67.174-1.625-19.845-5.236-40.059-15.217-59.651-14.725-28.904-38.223-52.401-67.127-67.127-19.593-9.981-39.813-13.592-59.651-15.217-18.705-1.529-41.335-1.529-67.174-1.522h-576.066c-25.842-0.007-48.469-0.007-67.172 1.522-19.844 1.625-40.062 5.236-59.653 15.217-28.902 14.725-52.4 38.223-67.126 67.127-9.982 19.593-13.594 39.806-15.215 59.651-1.528 18.705-1.527 41.329-1.526 67.174v477.456c-0.001 25.842-0.002 48.469 1.526 67.172 1.621 19.844 5.233 40.063 15.215 59.654 14.726 28.901 38.224 52.399 67.126 67.125 19.591 9.983 39.81 13.595 59.653 15.215 15.378 1.257 33.407 1.479 53.694 1.518v43.623c0 30.372 24.621 54.993 54.993 54.993zM226.098 738.141c-28.52 0-46.603-0.043-60.287-1.161-13.042-1.065-17.176-2.827-18.678-3.593-8.206-4.181-14.879-10.854-19.060-19.060-0.765-1.502-2.527-5.636-3.593-18.678-0.9-11.013-1.103-24.876-1.148-44.737h777.454c-0.041 19.861-0.246 33.724-1.147 44.737-1.065 13.042-2.826 17.177-3.591 18.678-4.185 8.206-10.854 14.879-19.060 19.060-1.502 0.766-5.639 2.528-18.678 3.593-13.687 1.118-31.771 1.161-60.286 1.161h-571.926zM900.799 540.926h-777.48v-378.881c0-28.522 0.042-46.599 1.161-60.286 1.066-13.039 2.828-17.176 3.593-18.678 4.181-8.206 10.854-14.875 19.060-19.060 1.503-0.765 5.636-2.526 18.678-3.591 13.684-1.12 31.767-1.161 60.287-1.161h571.926c28.515 0 46.599 0.041 60.286 1.161 13.039 1.065 17.176 2.826 18.678 3.591 8.206 4.185 14.875 10.854 19.060 19.060 0.765 1.502 2.526 5.639 3.591 18.678 1.12 13.687 1.161 31.764 1.161 60.286v378.881zM698.86 437.589c21.47-21.476 21.47-56.295 0-77.771l-197.218-197.214c-21.476-21.477-56.295-21.477-77.771 0l-98.607 98.604c-21.476 21.478-21.476 56.297 0 77.773s56.295 21.476 77.771 0l59.722-59.722 158.329 158.33c21.476 21.476 56.295 21.476 77.775 0z" />
<glyph unicode="&#xe909;" glyph-name="cart" d="M170.665 686.338l-138.368 138.325 60.373 60.373 138.325-138.368h650.327c6.647 0 13.205-1.553 19.149-4.538s11.106-7.317 15.078-12.652c3.972-5.335 6.639-11.524 7.795-18.073 1.152-6.55 0.759-13.278-1.148-19.649l-102.4-341.335c-2.637-8.789-8.034-16.499-15.398-21.982-7.364-5.478-16.299-8.439-25.476-8.439h-522.924v-85.333h469.335v-85.333h-512.002c-11.316 0-22.168 4.497-30.17 12.497-8.001 8.004-12.497 18.854-12.497 30.17v494.338zM255.998 661.335v-256.002h491.18l76.8 256.002h-567.98zM234.665-21.333c-16.974 0-33.253 6.746-45.255 18.748s-18.745 28.279-18.745 45.252c0 16.977 6.743 33.254 18.745 45.257s28.281 18.743 45.255 18.743c16.974 0 33.252-6.741 45.255-18.743s18.745-28.279 18.745-45.257c0-16.973-6.743-33.25-18.745-45.252s-28.281-18.748-45.255-18.748zM746.667-21.333c-16.977 0-33.254 6.746-45.257 18.748s-18.743 28.279-18.743 45.252c0 16.977 6.741 33.254 18.743 45.257s28.279 18.743 45.257 18.743c16.973 0 33.25-6.741 45.252-18.743s18.748-28.279 18.748-45.257c0-16.973-6.746-33.25-18.748-45.252s-28.279-18.748-45.252-18.748z" />
<glyph unicode="&#xe90a;" glyph-name="chack-regular" horiz-adv-x="1408" d="M544.909 286.975l672.841 673.025 126.25-126.115-800.799-800.854-543.104 543.1 127.958 127.83 416.854-416.986z" />
<glyph unicode="&#xe90b;" glyph-name="check-bold" d="M718.865 573.46c16.269-17.045 15.642-44.052-1.404-60.325l-234.671-224c-16.486-15.735-42.432-15.735-58.919 0l-117.332 112c-17.045 16.273-17.673 43.281-1.402 60.326s43.279 17.673 60.323 1.404l87.873-83.883 205.205 195.881c17.045 16.27 44.053 15.642 60.326-1.403z" />
<glyph unicode="&#xe90c;" glyph-name="contact" d="M980.471 934.366h-715.269c-24.029-0.028-43.503-19.501-43.531-43.531v-197.288l-32.708 49.061c-14.972 22.584-45.081 29.359-68.283 15.364l-67.292-40.458c-22.038-12.93-38.204-33.899-45.101-58.501-24.548-89.386-6.334-243.382 219.702-469.45 179.754-179.568 313.777-227.931 406.149-227.931 21.385-0.098 42.687 2.681 63.332 8.262 24.592 6.898 45.561 23.042 58.519 45.049l40.406 67.363c13.938 23.184 7.17 53.232-15.365 68.198l-161.131 107.411c-22.104 14.62-51.731 9.814-68.080-11.045l-46.911-60.309c-4.904-6.454-13.798-8.334-20.894-4.422l-8.93 4.918c-29.379 16.012-65.943 35.949-139.792 109.798-7.99 7.99-15.227 15.467-22.021 22.619h667.199c23.969-0.016 43.436 19.358 43.529 43.327v528.035c-0.028 24.030-19.5 43.503-43.529 43.531zM458.75 157.077l8.671-4.764c21.8-12.188 49.24-6.533 64.442 13.282l46.911 60.311c5.334 6.793 14.985 8.36 22.193 3.603l161.131-107.411c7.319-4.878 9.521-14.646 5.001-22.191l-40.406-67.363c-8.439-14.469-22.146-25.111-38.256-29.703-80.694-22.193-221.919-3.416-436.264 210.944-214.342 214.358-233.049 355.57-210.909 436.196 4.587 16.107 15.224 29.815 29.685 38.256l67.362 40.424c7.548 4.509 17.308 2.311 22.191-5.001l107.46-161.131c4.766-7.208 3.198-16.866-3.603-22.193l-60.329-46.927c-19.811-15.197-25.468-42.633-13.281-64.426l4.779-8.671c17.070-31.309 38.29-70.263 115.64-147.596s116.289-98.567 147.579-115.64zM989.861 362.801c-0.056-5.136-4.257-9.258-9.388-9.218h-697.998c-22.17 25.353-41.288 53.22-56.965 83.032l-4.917 8.96c-3.921 7.082-2.045 15.97 4.405 20.862l60.328 46.927c20.866 16.344 25.672 45.975 11.045 68.080l-40.56 60.874v248.518c-0.028 2.499 0.952 4.903 2.718 6.67s4.17 2.747 6.67 2.718h715.271c2.497 0.028 4.904-0.952 6.67-2.718s2.746-4.171 2.718-6.67v-528.035h0.002zM921.679 855.327l-285.307-216.374c-8.071-5.865-19.002-5.865-27.075 0l-285.2 216.374c-7.512 5.699-18.225 4.227-23.922-3.287-5.699-7.514-4.229-18.227 3.286-23.924l285.235-216.355c20.294-14.992 47.991-14.992 68.285 0l285.321 216.355c3.612 2.737 5.986 6.797 6.6 11.287s-0.579 9.038-3.323 12.645c-5.697 7.5-16.391 8.966-23.899 3.279zM477.151 610.325l-174.874-187.266c-6.428-6.896-6.051-17.701 0.845-24.131s17.701-6.051 24.129 0.845l174.876 187.352c5.779 6.97 5.108 17.238-1.524 23.401-6.633 6.165-16.924 6.077-23.452-0.2zM769.645 610.327c-6.43 6.896-17.231 7.277-24.129 0.845-6.896-6.43-7.277-17.231-0.845-24.129l174.822-187.269c6.43-6.896 17.233-7.275 24.131-0.845 6.896 6.43 7.275 17.233 0.842 24.131l-174.822 187.266z" />
<glyph unicode="&#xe90d;" glyph-name="copy" horiz-adv-x="922" d="M520.269 960h145.331c13.578 0 26.604-5.394 36.204-14.996l204.8-204.8c9.6-9.602 14.996-22.625 14.996-36.204v-298.936c0-26.988 0-50.273-1.567-69.448-1.654-20.244-5.304-40.376-15.176-59.75-14.725-28.902-38.221-52.398-67.123-67.123-19.374-9.871-39.506-13.522-59.75-15.176-19.174-1.567-42.46-1.567-69.453-1.567h-94.131v-102.4c0-84.833-68.767-153.6-153.6-153.6h-307.2c-84.831 0-153.6 68.767-153.6 153.6v460.8c0 84.831 68.769 153.6 153.6 153.6h153.6v42.933c-0.001 26.99-0.002 50.274 1.565 69.452 1.654 20.241 5.305 40.374 15.176 59.747 14.726 28.902 38.224 52.4 67.126 67.126 19.373 9.871 39.506 13.522 59.747 15.176 19.178 1.567 42.462 1.566 69.454 1.565zM307.2 601.6h-153.6c-28.277 0-51.2-22.923-51.2-51.2v-460.8c0-28.278 22.923-51.2 51.2-51.2h307.2c28.277 0 51.2 22.922 51.2 51.2v102.4c-23.502 0.015-43.994 0.159-61.186 1.567-20.241 1.654-40.374 5.304-59.747 15.176-28.902 14.725-52.4 38.221-67.126 67.123-9.871 19.374-13.522 39.506-15.176 59.75-1.567 19.174-1.566 42.46-1.565 69.453v196.531zM459.153 856.375c-13.91-1.136-19.066-3.065-21.598-4.356-9.634-4.909-17.466-12.741-22.375-22.375-1.29-2.532-3.219-7.688-4.355-21.598-1.185-14.507-1.225-33.567-1.225-63.087v-337.92c0-29.522 0.040-48.579 1.225-63.089 1.136-13.906 3.065-19.062 4.355-21.596 4.909-9.636 12.742-17.464 22.375-22.374 2.531-1.29 7.688-3.22 21.598-4.357 14.506-1.183 33.567-1.224 63.087-1.224h184.32c29.522 0 48.579 0.041 63.089 1.224 13.906 1.137 19.062 3.067 21.596 4.357 9.636 4.91 17.464 12.739 22.374 22.374 1.29 2.534 3.22 7.69 4.357 21.596 1.183 14.51 1.224 33.567 1.224 63.089v194.56h-124.513c-12.923-0.002-25.508-0.003-36.163 0.867-11.704 0.956-25.518 3.213-39.414 10.294-19.267 9.817-34.934 25.482-44.749 44.75-7.081 13.897-9.339 27.707-10.296 39.411-0.87 10.658-0.865 23.243-0.865 36.165v124.512h-40.96c-29.519 0-48.58-0.040-63.087-1.225zM665.6 836.392v-101.672c0-15.182 0.041-23.49 0.527-29.459 0.020-0.238 0.041-0.462 0.056-0.675 0.215-0.020 0.44-0.039 0.676-0.059 5.97-0.487 14.28-0.527 29.46-0.527h101.673l-132.393 132.392z" />
<glyph unicode="&#xe90e;" glyph-name="fav" d="M512.043 766.764c100.224 89.984 255.104 86.997 351.659-9.728 96.512-96.768 99.84-250.881 10.069-351.404l-361.813-362.325-361.728 362.325c-89.771 100.523-86.4 254.892 10.069 351.404 96.64 96.597 251.221 99.84 351.744 9.728zM803.285 696.748c-64 64.085-167.253 66.688-234.24 6.528l-56.96-51.115-57.003 51.072c-67.2 60.245-170.24 57.6-234.41-6.571-63.573-63.573-66.773-165.334-8.192-232.577l299.52-299.989 299.52 299.947c58.624 67.285 55.424 168.918-8.235 232.705z" />
<glyph unicode="&#xe90f;" glyph-name="fav-fill" d="M512.043 766.764c100.224 89.984 255.104 86.997 351.659-9.728 96.512-96.768 99.84-250.881 10.069-351.404l-361.813-362.325-361.728 362.325c-89.771 100.523-86.4 254.892 10.069 351.404 96.64 96.597 251.221 99.84 351.744 9.728z" />
<glyph unicode="&#xe910;" glyph-name="filter" d="M224.781 717.696l191.232-310.754v-278.942c0-11.888 3.31-23.538 9.558-33.648s15.189-18.278 25.82-23.594c10.631-5.315 22.53-7.568 34.371-6.498 11.837 1.066 23.142 5.409 32.652 12.539l64 47.998c16.128 12.097 25.6 31.041 25.6 51.2v230.945l191.232 310.754c8.946 14.546 13.857 31.216 14.21 48.291 0.358 17.075-3.845 33.936-12.176 48.845s-20.489 27.325-35.216 35.968c-14.732 8.643-31.502 13.2-48.579 13.201h-410.944c-17.078-0.001-33.848-4.558-48.578-13.201s-26.888-21.059-35.22-35.968c-8.331-14.909-12.535-31.77-12.177-48.845s5.265-33.745 14.214-48.291zM544.014 175.998l-64-47.998v288c0 5.921-1.638 11.725-4.738 16.77l-195.999 318.462c-2.962 4.853-4.581 10.407-4.689 16.092s1.296 11.296 4.071 16.259c2.775 4.963 6.819 9.099 11.718 11.984s10.478 4.415 16.164 4.434h410.944c5.688-0.008 11.273-1.532 16.179-4.415s8.955-7.020 11.734-11.986c2.774-4.966 4.18-10.583 4.063-16.271-0.112-5.688-1.741-11.244-4.71-16.095l-196.003-318.462c-3.1-5.046-4.738-10.85-4.734-16.77v-240.002z" />
<glyph unicode="&#xe911;" glyph-name="close" d="M415.563 448l-403.546 403.546 96.437 96.437 403.546-403.546 403.547 403.546 96.437-96.437-403.546-403.546 403.546-403.546-96.437-96.437-403.547 403.546-403.546-403.546-96.437 96.437 403.546 403.546z" />
<glyph unicode="&#xe912;" glyph-name="list_arrow-down" d="M512 320l-181.036 181.035 60.373 60.33 120.663-120.703 120.661 120.703 60.373-60.33-181.035-181.035z" />
<glyph unicode="&#xe917;" glyph-name="procent" d="M746.667 64c-39.607 0-77.589 15.731-105.596 43.738s-43.738 65.988-43.738 105.596c0 39.607 15.731 77.589 43.738 105.596s65.988 43.738 105.596 43.738c39.607 0 77.589-15.731 105.596-43.738s43.738-65.988 43.738-105.596c0-39.607-15.731-77.589-43.738-105.596s-65.988-43.738-105.596-43.738zM746.667 149.333c16.973 0 33.254 6.741 45.257 18.743s18.743 28.284 18.743 45.257c0 16.973-6.741 33.254-18.743 45.257s-28.284 18.743-45.257 18.743c-16.973 0-33.254-6.741-45.257-18.743s-18.743-28.284-18.743-45.257c0-16.973 6.741-33.254 18.743-45.257s28.284-18.743 45.257-18.743zM277.333 533.333c-19.611 0-39.029 3.863-57.147 11.367s-34.58 18.505-48.447 32.372c-13.867 13.867-24.867 30.329-32.372 48.447s-11.367 37.536-11.367 57.147c0 19.611 3.863 39.029 11.367 57.147s18.505 34.58 32.372 48.447c13.867 13.867 30.329 24.867 48.447 32.372s37.536 11.367 57.147 11.367c39.606 0 77.589-15.733 105.594-43.739s43.739-65.989 43.739-105.594c0-39.606-15.733-77.589-43.739-105.594s-65.989-43.739-105.594-43.739zM277.333 618.667c16.974 0 33.253 6.743 45.255 18.745s18.745 28.281 18.745 45.255c0 16.974-6.743 33.253-18.745 45.255s-28.281 18.745-45.255 18.745c-16.974 0-33.253-6.743-45.255-18.745s-18.745-28.281-18.745-45.255c0-16.974 6.743-33.253 18.745-45.255s28.281-18.745 45.255-18.745zM813.696 810.027l60.331-60.331-663.68-663.723-60.331 60.331 663.68 663.723z" />
<glyph unicode="&#xe918;" glyph-name="question" horiz-adv-x="1084" d="M542.118 854.588c-224.552 0-406.588-182.036-406.588-406.588 0-224.551 182.036-406.588 406.588-406.588s406.588 182.037 406.588 406.588c0 224.552-182.037 406.588-406.588 406.588zM45.176 448c0 274.453 222.488 496.941 496.941 496.941 274.45 0 496.941-222.488 496.941-496.941 0-274.45-222.491-496.941-496.941-496.941-274.453 0-496.941 222.491-496.941 496.941zM540.461 591.059c-25.666 0-47.347-17.554-53.479-41.378-6.219-24.163-30.848-38.709-55.011-32.49s-38.709 30.848-32.49 55.011c16.157 62.775 73.088 109.21 140.98 109.21 80.397 0 145.571-65.173 145.571-145.569 0-44.849-21.787-74.646-45.176-97.219-9.535-9.2-20.39-18.2-30.316-26.426-1.464-1.214-2.909-2.411-4.325-3.589-11.586-9.638-22.801-19.195-33.808-30.201-17.642-17.642-46.247-17.642-63.889 0s-17.642 46.247 0 63.889c14.092 14.092 27.974 25.84 39.917 35.774 1.58 1.314 3.108 2.582 4.589 3.811 10.245 8.504 18.195 15.103 25.085 21.753 14.259 13.762 17.569 21.612 17.569 32.207 0 30.495-24.721 55.216-55.216 55.216zM495.285 259.765c0 24.949 20.226 45.176 45.176 45.176h0.502c24.951 0 45.176-20.227 45.176-45.176s-20.226-45.176-45.176-45.176h-0.502c-24.95 0-45.176 20.227-45.176 45.176z" />
<glyph unicode="&#xe919;" glyph-name="search" d="M769.323 251.008l182.741-182.699-60.373-60.373-182.699 182.741c-67.981-54.494-152.533-84.134-239.659-84.011-211.968 0-384 172.032-384 384s172.032 384 384 384c211.968 0 384-172.032 384-384 0.124-87.125-29.517-171.678-84.011-239.659zM683.733 282.667c54.148 55.684 84.39 130.33 84.267 208 0 165.035-133.675 298.667-298.667 298.667-165.035 0-298.667-133.632-298.667-298.667 0-164.992 133.632-298.667 298.667-298.667 77.67-0.124 152.316 30.118 208 84.267l6.4 6.4z" />
<glyph unicode="&#xe91a;" glyph-name="slider_arrow-left" d="M653.924 178.076c-7.69-7.69-20.159-7.69-27.849 0l-256 256c-7.69 7.69-7.69 20.159 0 27.849l256 256c7.69 7.69 20.159 7.69 27.849 0s7.69-20.159 0-27.849l-242.076-242.076 242.076-242.076c7.69-7.69 7.69-20.159 0-27.849z" />
<glyph unicode="&#xe91b;" glyph-name="slider_arrow-right" d="M370.076 717.924c7.69 7.69 20.159 7.69 27.849 0l256-256c7.69-7.69 7.69-20.159 0-27.849l-256-256c-7.69-7.69-20.159-7.69-27.849 0s-7.69 20.159 0 27.849l242.076 242.076-242.076 242.076c-7.69 7.69-7.69 20.159 0 27.849z" />
<glyph unicode="&#xe91c;" glyph-name="stars" d="M512 180.907l-300.926-168.448 67.2 338.261-253.227 234.155 342.486 40.619 144.468 313.173 144.469-313.173 342.485-40.619-253.227-234.155 67.2-338.261-300.928 168.448zM512 278.699l181.205-101.419-40.491 203.648 152.448 141.013-206.208 24.448-86.955 188.544-86.953-188.587-206.208-24.405 152.448-141.013-40.491-203.648 181.204 101.419z" />
<glyph unicode="&#xe921;" glyph-name="upload" d="M738.4 811.096c-50.566 50.564-132.548 50.564-183.112 0l-379.297-379.297c-86.682-86.682-86.682-227.217 0-313.899s227.219-86.682 313.901 0l395.112 395.112c21.67 21.67 56.806 21.67 78.477 0s21.67-56.805 0-78.476l-395.114-395.113c-130.022-130.022-340.829-130.022-470.851 0s-130.022 340.829 0 470.851l379.297 379.297c93.905 93.905 246.157 93.905 340.058 0 93.907-93.905 93.907-246.154 0-340.059l-378.687-378.69c-57.788-57.786-151.48-57.786-209.267 0-57.788 57.792-57.788 151.481 0 209.268l345.23 345.23c21.67 21.67 56.805 21.67 78.474 0s21.67-56.804 0-78.475l-345.229-345.227c-14.447-14.451-14.447-37.875 0-52.32s37.87-14.445 52.317 0l378.691 378.688c50.56 50.564 50.56 132.545 0 183.109z" />
<glyph unicode="&#xe922;" glyph-name="user" d="M170.667 21.333c0 90.526 35.962 177.348 99.974 241.361 64.012 64.009 150.832 99.972 241.359 99.972 90.526 0 177.348-35.964 241.361-99.972 64.009-64.013 99.972-150.835 99.972-241.361h-85.333c0 67.895-26.97 133.009-74.982 181.018-48.009 48.013-113.122 74.982-181.018 74.982s-133.010-26.97-181.019-74.982c-48.009-48.009-74.981-113.122-74.981-181.018h-85.333zM512 405.333c-141.44 0-256 114.56-256 256s114.56 256 256 256c141.44 0 256-114.56 256-256s-114.56-256-256-256zM512 490.667c94.293 0 170.667 76.373 170.667 170.667s-76.373 170.667-170.667 170.667c-94.293 0-170.667-76.373-170.667-170.667s76.373-170.667 170.667-170.667z" />
<glyph unicode="&#xe924;" glyph-name="warning" horiz-adv-x="1067" d="M533.333 21.333c-235.642 0-426.667 191.027-426.667 426.667 0 235.642 191.025 426.667 426.667 426.667 235.639 0 426.667-191.025 426.667-426.667 0-235.639-191.027-426.667-426.667-426.667zM533.333 106.667c188.514 0 341.333 152.819 341.333 341.333s-152.819 341.333-341.333 341.333c-188.513 0-341.333-152.82-341.333-341.333s152.82-341.333 341.333-341.333zM490.667 320h85.333v-85.333h-85.333v85.333zM490.667 661.333h85.333v-256h-85.333v256z" />
</font>
</defs>
</svg>
