<svg width="48" height="49" viewBox="0 0 48 49" fill="none" xmlns="http://www.w3.org/2000/svg">
<g clip-path="url(#clip0_329_12147)">
<path d="M39.9591 35.9019V11.4121L0.652344 13.0977V37.5875C0.65225 38.1487 0.929938 38.7098 1.48531 39.0305L17.0563 48.0205C18.1638 48.6598 19.5282 48.6598 20.6355 48.0205L39.126 37.345C39.6815 37.0242 39.9591 36.463 39.9591 35.9019Z" fill="url(#paint0_linear_329_12147)"/>
<path d="M1.48541 11.655L19.9758 0.979531C21.0832 0.340156 22.4476 0.340156 23.555 0.979531L39.126 9.9695C40.2367 10.6108 40.2367 12.2139 39.126 12.8551L20.6356 23.5305C19.5282 24.1699 18.1638 24.1699 17.0564 23.5305L1.48541 14.5407C0.374656 13.8994 0.374656 12.2963 1.48541 11.655Z" fill="url(#paint1_linear_329_12147)"/>
<path d="M7.48047 8.19329L27.3401 19.6593L32.6082 16.6178L12.7485 5.15186L7.48047 8.19329Z" fill="#DEA861"/>
<path d="M10.6296 6.37402L30.4892 17.84L29.4573 18.4358L9.59766 6.9698L10.6296 6.37402Z" fill="#CC8241"/>
<path d="M27.3408 19.6592V24.0098L32.6089 20.9682V16.6177L27.3408 19.6592Z" fill="#CC8241"/>
<path d="M45.0555 16.8689L42.1044 15.165C40.6835 14.1803 38.7315 14.2386 36.5928 15.6022C32.7129 18.0758 29.58 24.1216 29.4551 29.3693C29.4008 31.6521 29.9076 33.4488 30.8005 34.6355L30.7992 34.6375L35.5757 40.745C35.6618 40.855 35.7597 40.9372 35.8663 40.9944L38.8269 42.7037L45.0555 16.8689Z" fill="url(#paint2_linear_329_12147)"/>
<path d="M47.3475 22.7352C47.3475 17.0673 43.8055 14.5474 39.5117 17.2848C35.6319 19.7583 32.499 25.8041 32.3741 31.0519C32.3198 33.3347 32.8265 35.1313 33.7195 36.3181L33.7182 36.3201L38.4946 42.4275C39.1648 43.2844 40.5525 42.4831 41.2227 40.8525L45.9992 29.2296L45.9979 29.2291C46.8476 27.1193 47.3475 24.8614 47.3475 22.7352Z" fill="url(#paint3_linear_329_12147)"/>
<path d="M45.327 21.3576L43.1239 20.0893L43.1238 20.0897C42.2542 19.6288 41.1371 19.6945 39.9183 20.3981C37.1454 21.9991 34.8975 26.2942 34.8975 29.9916C34.8975 32.0242 35.5778 33.4512 36.6505 34.0597L36.6497 34.0613L38.6627 35.2235L45.327 21.3576Z" fill="url(#paint4_linear_329_12147)"/>
<path d="M46.0083 30.0091C47.677 26.0926 47.2336 22.1524 45.0179 21.2083C42.8022 20.2642 39.6532 22.6738 37.9844 26.5903C36.3157 30.5067 36.7591 34.447 38.9748 35.3911C41.1905 36.3352 44.3395 33.9256 46.0083 30.0091Z" fill="#F2EFFA"/>
</g>
<defs>
<linearGradient id="paint0_linear_329_12147" x1="15.7043" y1="29.956" x2="21.1038" y2="29.956" gradientUnits="userSpaceOnUse">
<stop stop-color="#CC8241"/>
<stop offset="1" stop-color="#DEA861"/>
</linearGradient>
<linearGradient id="paint1_linear_329_12147" x1="9.36275" y1="5.93713" x2="29.5836" y2="17.6116" gradientUnits="userSpaceOnUse">
<stop stop-color="#DEA861"/>
<stop offset="1" stop-color="#EBCBA0"/>
</linearGradient>
<linearGradient id="paint2_linear_329_12147" x1="36.4931" y1="29.8513" x2="41.7097" y2="20.8159" gradientUnits="userSpaceOnUse">
<stop stop-color="#AB2C37"/>
<stop offset="1" stop-color="#FF7A85"/>
</linearGradient>
<linearGradient id="paint3_linear_329_12147" x1="32.3702" y1="34.123" x2="50.7198" y2="34.123" gradientUnits="userSpaceOnUse">
<stop stop-color="#FF4757"/>
<stop offset="1" stop-color="#FF7A85"/>
</linearGradient>
<linearGradient id="paint4_linear_329_12147" x1="39.6316" y1="26.1389" x2="41.6952" y2="22.5647" gradientUnits="userSpaceOnUse">
<stop stop-color="#C5BAEB"/>
<stop offset="1" stop-color="#D7D1EB"/>
</linearGradient>
<clipPath id="clip0_329_12147">
<rect width="48" height="48" fill="white" transform="translate(0 0.5)"/>
</clipPath>
</defs>
</svg>
