<svg width="48" height="48" viewBox="0 0 48 48" fill="none" xmlns="http://www.w3.org/2000/svg">
<path d="M34.3392 0.784703L33.1952 0.104078C32.9695 -0.0436719 32.6679 -0.0396406 32.3363 0.151797L14.5279 10.4334C13.8286 10.8371 13.2617 11.9203 13.2617 12.8527V46.216C13.2617 46.7667 13.4596 47.1416 13.7657 47.273L14.3065 47.6016L14.7809 47.8794L34.3392 0.784703Z" fill="url(#paint0_linear_329_12101)"/>
<path d="M33.472 37.5661L15.6636 47.8477C14.9644 48.2515 14.3975 47.8229 14.3975 46.8905V13.5272C14.3975 12.5948 14.9644 11.5117 15.6636 11.1079L33.472 0.826278C34.1713 0.422497 34.7382 0.851122 34.7382 1.78347V35.1467C34.7382 36.0792 34.1713 37.1624 33.472 37.5661Z" fill="url(#paint1_linear_329_12101)"/>
<path d="M32.1453 8.28324L21.0454 14.6996C20.6519 14.9267 20.333 15.5361 20.333 16.0607C20.333 16.5854 20.6519 16.8265 21.0454 16.5993L32.1453 10.183C32.5388 9.95584 32.8577 9.34646 32.8577 8.82184C32.8577 8.29721 32.5388 8.05609 32.1453 8.28324Z" fill="#43386B"/>
<path d="M27.0052 15.5205L21.0454 18.9424C20.6519 19.1696 20.333 19.779 20.333 20.3036C20.333 20.8282 20.6519 21.0693 21.0454 20.8422L27.0052 17.4203C27.3987 17.1931 27.7176 16.5838 27.7176 16.0591C27.7175 15.5345 27.3986 15.2934 27.0052 15.5205Z" fill="#43386B"/>
<path d="M32.1453 17.8774L21.0454 24.2938C20.6519 24.5209 20.333 25.1303 20.333 25.6549C20.333 26.1796 20.6519 26.4207 21.0454 26.1935L32.1453 19.7772C32.5388 19.55 32.8577 18.9407 32.8577 18.416C32.8577 17.8914 32.5388 17.6504 32.1453 17.8774Z" fill="#43386B"/>
<path d="M27.0052 25.1148L21.0454 28.5367C20.6519 28.7638 20.333 29.3732 20.333 29.8978C20.333 30.4224 20.6519 30.6636 21.0454 30.4364L27.0052 27.0145C27.3987 26.7874 27.7176 26.178 27.7176 25.6534C27.7175 25.1288 27.3986 24.8876 27.0052 25.1148Z" fill="#43386B"/>
<path d="M32.1453 27.4712L21.0454 33.8876C20.6519 34.1147 20.333 34.7241 20.333 35.2487C20.333 35.7734 20.6519 36.0144 21.0454 35.7873L32.1453 29.371C32.5388 29.1438 32.8577 28.5344 32.8577 28.0098C32.8577 27.4852 32.5388 27.2441 32.1453 27.4712Z" fill="#43386B"/>
<path d="M27.0052 34.7085L21.0454 38.1304C20.6519 38.3576 20.333 38.9669 20.333 39.4916C20.333 40.0162 20.6519 40.2573 21.0454 40.0302L27.0052 36.6083C27.3987 36.3811 27.7176 35.7718 27.7176 35.2471C27.7175 34.7225 27.3986 34.4814 27.0052 34.7085Z" fill="#43386B"/>
<path d="M18.6332 17.2091C19.0125 16.3188 18.9117 15.423 18.408 15.2084C17.9042 14.9937 17.1883 15.5415 16.809 16.4318C16.4296 17.3222 16.5304 18.2179 17.0342 18.4326C17.5379 18.6472 18.2538 18.0994 18.6332 17.2091Z" fill="#9BF0DF"/>
<path d="M18.6312 27.2462C19.0106 26.3559 18.9097 25.4601 18.406 25.2455C17.9023 25.0309 17.1864 25.5786 16.807 26.469C16.4277 27.3593 16.5285 28.2551 17.0322 28.4697C17.5359 28.6843 18.2518 28.1366 18.6312 27.2462Z" fill="#FF4757"/>
<path d="M18.857 36.2166C18.857 37.0572 18.346 38.0336 17.7156 38.3975C17.0853 38.7615 16.5742 38.3751 16.5742 37.5347C16.5742 36.6941 17.0853 35.7177 17.7156 35.3538C18.3459 34.9898 18.857 35.3762 18.857 36.2166Z" fill="#59ACF9"/>
<defs>
<linearGradient id="paint0_linear_329_12101" x1="21.2634" y1="17.4367" x2="23.5974" y2="13.3942" gradientUnits="userSpaceOnUse">
<stop offset="0.0319" stop-color="#A996EB"/>
<stop offset="0.2213" stop-color="#BFB3EB"/>
<stop offset="0.4108" stop-color="#D1C9EB"/>
<stop offset="0.5321" stop-color="#D7D1EB"/>
<stop offset="1" stop-color="#E9E5F6"/>
</linearGradient>
<linearGradient id="paint1_linear_329_12101" x1="24.5678" y1="72.2342" x2="24.5678" y2="2.32741" gradientUnits="userSpaceOnUse">
<stop stop-color="#DFDAEF"/>
<stop offset="1" stop-color="white"/>
</linearGradient>
</defs>
</svg>
