<svg width="48" height="49" viewBox="0 0 48 49" fill="none" xmlns="http://www.w3.org/2000/svg">
<g clip-path="url(#clip0_329_12089)">
<path d="M16.8627 15.5276C16.3318 15.5276 15.9014 15.0972 15.9014 14.5663V8.48668C15.9014 5.41796 17.5523 2.55849 20.2098 1.02418C21.4204 0.325273 22.8658 0.325273 24.0764 1.02418C25.2869 1.72309 26.0096 2.97493 26.0096 4.37274V9.8529C26.0096 10.3838 25.5793 10.8142 25.0483 10.8142C24.5173 10.8142 24.087 10.3838 24.087 9.8529V4.37274C24.087 3.66999 23.7237 3.04065 23.1151 2.68927C22.5065 2.3379 21.7799 2.3379 21.1712 2.68927C19.1066 3.8813 17.8241 6.10271 17.8241 8.48668V14.5663C17.824 15.0972 17.3936 15.5276 16.8627 15.5276Z" fill="url(#paint0_linear_329_12089)"/>
<path d="M12.0275 44.2113L11.3213 17.1682L35.2575 3.34863L36.7334 4.19632L12.0275 44.2113Z" fill="url(#paint1_linear_329_12089)"/>
<path d="M36.7332 4.19629L39.627 34.6804L15.6907 48.5L12.7969 18.0159L36.7332 4.19629Z" fill="url(#paint2_linear_329_12089)"/>
<path d="M12.0273 44.2114L15.6907 48.5002L12.7969 18.0161L12.0273 17.5718V44.2114Z" fill="url(#paint3_linear_329_12089)"/>
<path d="M12.0277 17.5714V44.211H8.37305L11.3215 17.168L12.0277 17.5714Z" fill="url(#paint4_linear_329_12089)"/>
<path d="M22.1807 17.8739C22.5346 17.0432 22.4406 16.2074 21.9706 16.0072C21.5006 15.8069 20.8327 16.318 20.4788 17.1487C20.1248 17.9794 20.2189 18.8152 20.6888 19.0154C21.1588 19.2157 21.8267 18.7046 22.1807 17.8739Z" fill="#CC8241"/>
<path d="M30.3711 13.1596C30.725 12.3289 30.6309 11.4932 30.161 11.293C29.691 11.0928 29.0231 11.6038 28.6692 12.4345C28.3152 13.2651 28.4093 14.1008 28.8793 14.3011C29.3492 14.5013 30.0171 13.9903 30.3711 13.1596Z" fill="#CC8241"/>
<path d="M21.3236 18.1188C20.7927 18.1188 20.3623 17.6884 20.3623 17.1575V11.078C20.3623 8.00927 22.0132 5.1498 24.6709 3.61549C25.8815 2.91658 27.3268 2.91658 28.5374 3.61549C29.748 4.31439 30.4707 5.56624 30.4707 6.96405V12.4442C30.4707 12.9751 30.0404 13.4055 29.5094 13.4055C28.9784 13.4055 28.5481 12.9751 28.5481 12.4442V6.96396C28.5481 6.26121 28.1847 5.63186 27.5761 5.28049C26.9674 4.92902 26.2407 4.92921 25.6323 5.28049C23.5676 6.47252 22.285 8.69393 22.285 11.078V17.1575C22.2849 17.6884 21.8545 18.1188 21.3236 18.1188Z" fill="url(#paint5_linear_329_12089)"/>
</g>
<defs>
<linearGradient id="paint0_linear_329_12089" x1="20.9554" y1="15.5276" x2="20.9554" y2="0.500023" gradientUnits="userSpaceOnUse">
<stop stop-color="#C5BAEB"/>
<stop offset="0.3795" stop-color="#C7BDEC"/>
<stop offset="0.6307" stop-color="#CFC6EE"/>
<stop offset="0.8439" stop-color="#DBD5F2"/>
<stop offset="1" stop-color="#E9E5F6"/>
</linearGradient>
<linearGradient id="paint1_linear_329_12089" x1="2.39667" y1="36.0462" x2="55.6274" y2="5.31345" gradientUnits="userSpaceOnUse">
<stop stop-color="#DEA861"/>
<stop offset="1" stop-color="#EBCBA0"/>
</linearGradient>
<linearGradient id="paint2_linear_329_12089" x1="26.2119" y1="53.4317" x2="26.2119" y2="2.22641" gradientUnits="userSpaceOnUse">
<stop stop-color="#DEA861"/>
<stop offset="1" stop-color="#EBCBA0"/>
</linearGradient>
<linearGradient id="paint3_linear_329_12089" x1="13.859" y1="48.5002" x2="13.859" y2="12.541" gradientUnits="userSpaceOnUse">
<stop stop-color="#CC8241"/>
<stop offset="1" stop-color="#DEA861"/>
</linearGradient>
<linearGradient id="paint4_linear_329_12089" x1="10.2004" y1="47.2213" x2="10.2004" y2="15.9655" gradientUnits="userSpaceOnUse">
<stop stop-color="#DEA861"/>
<stop offset="1" stop-color="#EBCBA0"/>
</linearGradient>
<linearGradient id="paint5_linear_329_12089" x1="25.4165" y1="18.1188" x2="25.4165" y2="3.09124" gradientUnits="userSpaceOnUse">
<stop stop-color="#C5BAEB"/>
<stop offset="0.1485" stop-color="#CCC2ED"/>
<stop offset="0.6795" stop-color="#E1DCF4"/>
<stop offset="1" stop-color="#E9E5F6"/>
</linearGradient>
<clipPath id="clip0_329_12089">
<rect width="48" height="48" fill="white" transform="translate(0 0.5)"/>
</clipPath>
</defs>
</svg>
