<svg width="48" height="49" viewBox="0 0 48 49" fill="none" xmlns="http://www.w3.org/2000/svg">
<g clip-path="url(#clip0_329_12118)">
<path d="M44.5147 35.5022V32.5894L29.0265 23.3657L3.4834 33.7595V35.1986C3.4834 37.0018 4.4464 38.6678 6.00893 39.5679L21.114 48.2783C21.5782 48.5463 22.2804 48.5754 22.6824 48.3433L44.2443 35.8945C44.4259 35.7895 44.5142 35.6492 44.5147 35.5022Z" fill="url(#paint0_linear_329_12118)"/>
<path d="M28.7693 2.18348L26.2833 0.571071L26.2832 0.571259C26.1519 0.474977 25.972 0.472446 25.7733 0.587102L4.21127 13.036C3.80927 13.2681 3.4834 13.8907 3.4834 14.4267V34.7546C3.4834 35.0622 3.59102 35.2736 3.75846 35.3548L6.25174 36.7939L28.1496 3.12145L28.7693 2.18348Z" fill="url(#paint1_linear_329_12118)"/>
<path d="M28.2986 2.22452L6.73666 14.6733C6.33466 14.9054 6.00879 15.528 6.00879 16.064V36.6549L8.38395 35.9326L29.0264 23.8843V23.3656V2.77474C29.0264 2.23886 28.7005 1.99249 28.2986 2.22452Z" fill="url(#paint2_linear_329_12118)"/>
<path d="M7.35449 15.8708V32.1465L27.6803 20.4112V4.13574L7.35449 15.8708Z" fill="url(#paint3_linear_329_12118)"/>
<path d="M44.1316 32.0761L29.0265 23.3657L6.00879 36.6549L21.1139 45.3653C21.578 45.6333 22.2802 45.6623 22.6822 45.4303L44.2442 32.9815C44.6462 32.7494 44.5957 32.3441 44.1316 32.0761Z" fill="url(#paint4_linear_329_12118)"/>
<path d="M36.3073 29.4493L29.7076 25.6239C29.2862 25.3806 28.767 25.3806 28.3455 25.6239L10.275 36.0568C9.81459 36.3226 9.81459 36.9872 10.275 37.2531L16.8747 41.0786C17.2961 41.3218 17.8154 41.3218 18.2368 41.0786L36.3073 30.6456C36.7677 30.3797 36.7677 29.7151 36.3073 29.4493Z" fill="#C5BAEB"/>
<path d="M25.7782 37.8439L32.5071 33.959C32.8644 33.7526 33.3046 33.7526 33.662 33.959L36.152 35.3965C36.4799 35.5859 36.4799 36.0592 36.152 36.2485L29.4231 40.1334C29.0658 40.3398 28.6255 40.3398 28.2683 40.1334L25.7783 38.6959C25.4502 38.5066 25.4502 38.0332 25.7782 37.8439Z" fill="#C5BAEB"/>
<path d="M11.0997 36.3296L13.3192 35.0481C13.5769 34.8993 13.8943 34.8993 14.1519 35.0481L14.8102 35.4282C15.0265 35.553 15.0265 35.8651 14.8102 35.99L12.5907 37.2715C12.3331 37.4203 12.0156 37.4203 11.758 37.2715L11.0997 36.8914C10.8834 36.7665 10.8834 36.4544 11.0997 36.3296Z" fill="#E9E5F6"/>
<path d="M14.9317 34.1094L17.1513 32.8279C17.4089 32.6791 17.7263 32.6791 17.984 32.8279L18.6423 33.208C18.8586 33.3328 18.8586 33.6449 18.6423 33.7698L16.4227 35.0513C16.1651 35.2 15.8477 35.2 15.5901 35.0513L14.9317 34.6712C14.7155 34.5464 14.7155 34.2342 14.9317 34.1094Z" fill="#E9E5F6"/>
<path d="M18.7647 31.8896L20.9842 30.6082C21.2418 30.4594 21.5593 30.4594 21.8169 30.6082L22.4752 30.9882C22.6915 31.1131 22.6915 31.4252 22.4752 31.5501L20.2557 32.8315C19.9981 32.9803 19.6806 32.9803 19.423 32.8315L18.7647 32.4515C18.5485 32.3266 18.5485 32.0145 18.7647 31.8896Z" fill="#E9E5F6"/>
<path d="M22.5968 29.6698L24.8163 28.3884C25.0739 28.2397 25.3914 28.2397 25.649 28.3884L26.3073 28.7684C26.5236 28.8933 26.5236 29.2054 26.3073 29.3303L24.0878 30.6117C23.8302 30.7605 23.5127 30.7605 23.2551 30.6117L22.5968 30.2317C22.3805 30.1069 22.3805 29.7947 22.5968 29.6698Z" fill="#E9E5F6"/>
<path d="M26.4288 27.4497L28.6483 26.1682C28.906 26.0194 29.2234 26.0194 29.481 26.1682L30.1393 26.5483C30.3556 26.6732 30.3556 26.9853 30.1393 27.1101L27.9198 28.3915C27.6622 28.5403 27.3448 28.5403 27.0871 28.3915L26.4288 28.0114C26.2125 27.8867 26.2125 27.5746 26.4288 27.4497Z" fill="#E9E5F6"/>
<path d="M13.2042 37.5351L15.4237 36.2537C15.6814 36.1049 15.9988 36.1049 16.2564 36.2537L17.573 37.0257C17.7893 37.1506 17.7893 37.4627 17.573 37.5876L15.3535 38.869C15.0959 39.0178 14.7785 39.0178 14.5208 38.869L13.2042 38.097C12.9879 37.9722 12.9879 37.66 13.2042 37.5351Z" fill="#E9E5F6"/>
<path d="M17.0362 35.3149L19.2558 34.0335C19.5134 33.8847 19.8308 33.8847 20.0885 34.0335L21.4051 34.8055C21.6214 34.9304 21.6214 35.2425 21.4051 35.3673L19.1855 36.6488C18.9279 36.7976 18.6105 36.7976 18.3529 36.6488L17.0362 35.8768C16.82 35.7519 16.82 35.4398 17.0362 35.3149Z" fill="#E9E5F6"/>
<path d="M20.8692 33.0951L23.0888 31.8137C23.3464 31.665 23.6638 31.665 23.9215 31.8137L25.2381 32.5857C25.4544 32.7106 25.4544 33.0227 25.2381 33.1475L23.0186 34.4289C22.7609 34.5777 22.4435 34.5777 22.1859 34.4289L20.8692 33.6569C20.653 33.5322 20.653 33.22 20.8692 33.0951Z" fill="#E9E5F6"/>
<path d="M24.7013 30.875L26.9208 29.5935C27.1784 29.4447 27.4959 29.4447 27.7535 29.5935L29.0701 30.3656C29.2864 30.4904 29.2864 30.8025 29.0701 30.9274L26.8506 32.2089C26.593 32.3576 26.2755 32.3576 26.0179 32.2089L24.7013 31.4368C24.485 31.312 24.485 30.9999 24.7013 30.875Z" fill="#E9E5F6"/>
<path d="M28.5333 28.6552L30.7528 27.3738C31.0105 27.225 31.3279 27.225 31.5855 27.3738L32.9021 28.1458C33.1184 28.2707 33.1184 28.5828 32.9021 28.7077L30.6826 29.9891C30.425 30.1378 30.1076 30.1378 29.8499 29.9891L28.5333 29.2171C28.317 29.0922 28.317 28.78 28.5333 28.6552Z" fill="#E9E5F6"/>
<path d="M16.0352 39.1659L18.2547 37.8845C18.5123 37.7358 18.8298 37.7358 19.0874 37.8845L20.404 38.6565C20.6203 38.7814 20.6203 39.0935 20.404 39.2183L18.1845 40.4998C17.9269 40.6486 17.6094 40.6486 17.3518 40.4998L16.0352 39.7278C15.819 39.6029 15.819 39.2908 16.0352 39.1659Z" fill="#E9E5F6"/>
<path d="M19.8673 36.9458L22.0868 35.6643C22.3444 35.5155 22.6619 35.5155 22.9195 35.6643L24.2361 36.4364C24.4524 36.5612 24.4524 36.8733 24.2361 36.9982L22.0166 38.2797C21.759 38.4284 21.4415 38.4284 21.1839 38.2797L19.8673 37.5076C19.651 37.3828 19.651 37.0706 19.8673 36.9458Z" fill="#E9E5F6"/>
<path d="M23.7003 34.726L25.9198 33.4445C26.1775 33.2958 26.4949 33.2958 26.7525 33.4445L28.0691 34.2166C28.2854 34.3414 28.2854 34.6535 28.0691 34.7784L25.8496 36.0599C25.592 36.2086 25.2745 36.2086 25.0169 36.0599L23.7003 35.2878C23.484 35.163 23.484 34.8509 23.7003 34.726Z" fill="#E9E5F6"/>
<path d="M27.5323 32.5063L29.7519 31.2249C30.0095 31.0761 30.3269 31.0761 30.5845 31.2249L31.9012 31.9969C32.1175 32.1218 32.1175 32.4339 31.9012 32.5587L29.6816 33.8402C29.424 33.989 29.1066 33.989 28.849 33.8402L27.5323 33.0682C27.316 32.9433 27.316 32.6311 27.5323 32.5063Z" fill="#E9E5F6"/>
<path d="M31.3644 30.2861L33.5839 29.0047C33.8415 28.8559 34.159 28.8559 34.4166 29.0047L35.7332 29.7767C35.9495 29.9016 35.9495 30.2137 35.7332 30.3385L33.5137 31.62C33.256 31.7687 32.9386 31.7687 32.681 31.62L31.3644 30.848C31.1481 30.7232 31.1481 30.411 31.3644 30.2861Z" fill="#E9E5F6"/>
<path d="M27.6803 7.78215V4.13574L7.35449 15.8708V28.108L27.6803 7.78215Z" fill="url(#paint5_linear_329_12118)"/>
</g>
<defs>
<linearGradient id="paint0_linear_329_12118" x1="22.3361" y1="35.9328" x2="25.0053" y2="35.9328" gradientUnits="userSpaceOnUse">
<stop stop-color="#C5BAEB"/>
<stop offset="1" stop-color="#E9E5F6"/>
</linearGradient>
<linearGradient id="paint1_linear_329_12118" x1="9.52071" y1="19.5247" x2="11.0247" y2="16.9196" gradientUnits="userSpaceOnUse">
<stop stop-color="#C5BAEB"/>
<stop offset="1" stop-color="#E9E5F6"/>
</linearGradient>
<linearGradient id="paint2_linear_329_12118" x1="17.5176" y1="59.0162" x2="17.5176" y2="6.60105" gradientUnits="userSpaceOnUse">
<stop stop-color="#C5BAEB"/>
<stop offset="0.4836" stop-color="#E9E5F6"/>
<stop offset="1" stop-color="#F2EFFA"/>
</linearGradient>
<linearGradient id="paint3_linear_329_12118" x1="17.5175" y1="35.9664" x2="17.5175" y2="-2.10548" gradientUnits="userSpaceOnUse">
<stop stop-color="#0072BC"/>
<stop offset="0.3545" stop-color="#59ACF9"/>
<stop offset="0.6972" stop-color="#70C8FD"/>
<stop offset="0.8982" stop-color="#79D3FE"/>
</linearGradient>
<linearGradient id="paint4_linear_329_12118" x1="40.0551" y1="43.017" x2="11.9682" y2="26.8011" gradientUnits="userSpaceOnUse">
<stop stop-color="#C5BAEB"/>
<stop offset="0.4836" stop-color="#E9E5F6"/>
<stop offset="1" stop-color="#F2EFFA"/>
</linearGradient>
<linearGradient id="paint5_linear_329_12118" x1="27.009" y1="36.1292" x2="16.4647" y2="13.9028" gradientUnits="userSpaceOnUse">
<stop stop-color="white"/>
<stop offset="1" stop-color="white" stop-opacity="0"/>
</linearGradient>
<clipPath id="clip0_329_12118">
<rect width="48" height="48" fill="white" transform="translate(0 0.5)"/>
</clipPath>
</defs>
</svg>
