<svg width="48" height="48" viewBox="0 0 48 48" fill="none" xmlns="http://www.w3.org/2000/svg">
<path d="M8.11914 13.4013L31.3309 0V34.5987L8.11914 48V13.4013Z" fill="url(#paint0_linear_329_12162)"/>
<path d="M15.1533 14.303L24.2968 9.02393V10.3482L15.1533 15.6272V14.303Z" fill="#594A8E"/>
<path d="M11.7783 21.0307L27.6719 11.8218V13.1461L11.7783 22.355V21.0307Z" fill="#594A8E"/>
<path d="M11.7783 24.0155L27.6719 14.8066V16.131L11.7783 25.3397V24.0155Z" fill="#594A8E"/>
<path d="M11.7783 26.9999L27.6719 17.791V19.1152L11.7783 28.3241V26.9999Z" fill="#594A8E"/>
<path d="M11.7783 32.5712L27.6719 23.3623V24.6866L11.7783 33.8955V32.5712Z" fill="#594A8E"/>
<path d="M11.7783 38.5409L27.6719 29.332V30.6563L11.7783 39.8651V38.5409Z" fill="#594A8E"/>
<path d="M11.7783 35.556L27.6719 26.3472V27.6715L11.7783 36.8804V35.556Z" fill="#594A8E"/>
<path d="M39.4485 22.3224C39.3723 22.2648 39.2909 22.2201 39.207 22.1853L35.8778 20.2942C35.34 19.8876 34.5658 20.0613 34.2532 20.6587L28.0454 32.6124L27.9793 32.5624C27.7817 32.413 27.5651 32.3118 27.3421 32.2509L27.3404 32.2477L24.4087 30.5341C24.2488 30.4132 24.0763 30.3242 23.8983 30.2615L23.8919 30.2578L23.8927 30.2593C23.042 29.963 22.0576 30.3128 21.6136 31.1609C21.1881 31.9739 21.4127 32.9754 22.1447 33.5288L27.7933 37.799L31.364 39.8273L39.7571 23.6989C40.0047 23.2263 39.874 22.6441 39.4485 22.3224Z" fill="url(#paint1_linear_329_12162)"/>
<path d="M27.9791 32.5626C27.7815 32.4133 27.565 32.312 27.342 32.2511L27.3403 32.2479L24.4086 30.5343C24.2487 30.4134 24.0762 30.3244 23.8982 30.2617L23.8918 30.2581L23.8927 30.2596C23.042 29.9632 22.0576 30.313 21.6136 31.1611C21.1881 31.9741 21.4126 32.9756 22.1447 33.529L27.7933 37.7992L31.364 39.8275L27.9791 32.5626Z" fill="url(#paint2_linear_329_12162)"/>
<path d="M31.3637 39.8273L25.715 35.557C24.983 35.0037 24.7584 34.0022 25.1839 33.1893C25.7217 32.1616 27.0537 31.8629 27.9789 32.5624L31.3636 35.1213L37.8234 22.6869C38.136 22.0896 38.9102 21.9159 39.4481 22.3224C39.8736 22.6441 40.0042 23.2263 39.7569 23.6989L31.3637 39.8273Z" fill="#06DAAE"/>
<defs>
<linearGradient id="paint0_linear_329_12162" x1="19.725" y1="50.8467" x2="19.725" y2="14.4863" gradientUnits="userSpaceOnUse">
<stop stop-color="#D7D1EB"/>
<stop offset="1" stop-color="#E9E5F6"/>
</linearGradient>
<linearGradient id="paint1_linear_329_12162" x1="34.2724" y1="22.0112" x2="35.3522" y2="20.1409" gradientUnits="userSpaceOnUse">
<stop stop-color="#236568"/>
<stop offset="1" stop-color="#2F878A"/>
</linearGradient>
<linearGradient id="paint2_linear_329_12162" x1="26.812" y1="34.933" x2="27.6802" y2="33.4291" gradientUnits="userSpaceOnUse">
<stop stop-color="#236568"/>
<stop offset="1" stop-color="#2F878A"/>
</linearGradient>
</defs>
</svg>
