<svg width="78" height="78" viewBox="0 0 78 78" fill="none" xmlns="http://www.w3.org/2000/svg">
<path d="M38.588 76.5881C59.3472 76.5881 76.176 59.7594 76.176 39.0001C76.176 18.2408 59.3472 1.41211 38.588 1.41211C17.8287 1.41211 1 18.2408 1 39.0001C1 59.7594 17.8287 76.5881 38.588 76.5881Z" stroke="url(#paint0_linear_119_5156)" stroke-width="1.925" stroke-miterlimit="10"/>
<path d="M34.1595 22.8436C34.2628 22.5484 34.3522 22.3245 34.4194 22.0941C35.3222 19.0133 36.2218 15.9318 37.1221 12.851C37.1295 12.8248 37.132 12.7928 37.1484 12.774C37.3001 12.6001 37.4509 12.2943 37.6092 12.2902C37.8109 12.2844 38.0823 12.4788 38.2135 12.6641C38.6916 13.343 39.1418 14.0441 39.569 14.7567C40.7539 16.7321 41.9224 18.7165 43.095 20.6993C43.3328 21.1019 43.4132 21.1232 43.6961 20.7616C44.4431 19.8063 45.1409 18.8092 45.9297 17.8908C46.5579 17.1601 47.2737 16.5009 47.9896 15.8539C48.1987 15.6653 48.5414 15.6243 48.8227 15.516C48.8793 15.8104 49.0023 16.1089 48.9818 16.3984C48.7727 19.3405 48.6718 22.2835 48.8522 25.2306C48.9006 26.0194 48.9482 26.8091 49.0277 27.5955C49.1113 28.4204 48.8137 29.0747 48.2643 29.6684C47.0261 31.0058 45.4435 31.7315 43.7518 32.276C41.9019 32.8705 39.9987 33.1846 38.0676 33.3543C37.9995 33.3601 37.9315 33.3601 37.8634 33.3658C37.6256 33.3847 37.3837 33.3445 37.3804 33.0706C37.3796 32.9804 37.6338 32.8361 37.7896 32.8025C40.6768 32.1834 43.4902 31.3527 46.0855 29.907C46.6062 29.6168 47.0892 29.2543 47.5681 28.896C47.7337 28.7722 47.8658 28.5745 47.956 28.3835C48.1019 28.0743 48.0224 27.7931 47.6616 27.7193C46.7719 27.5356 45.8789 27.2658 44.981 27.2379C40.1873 27.092 35.7429 28.3843 31.5707 30.6819C30.5137 31.2641 30.5023 31.0682 30.4129 30.0358C30.1021 26.4524 29.4092 22.9534 28.112 19.5882C27.9898 19.2708 27.8184 18.9699 27.7184 18.646C27.6618 18.4623 27.629 18.1277 27.7192 18.0712C27.9119 17.949 28.2112 17.8826 28.4285 17.94C28.7065 18.0121 28.9607 18.2097 29.2017 18.386C30.9114 19.6382 32.4981 21.0281 33.8962 22.6263C33.9479 22.6828 34.0168 22.7255 34.1595 22.8436ZM47.7223 17.2782C47.6394 17.3783 47.5591 17.4816 47.4722 17.5783C46.1331 19.0773 44.9318 20.6796 43.8658 22.3844C43.5214 22.9346 43.1868 22.9821 42.7883 22.4672C42.348 21.8973 41.9331 21.2979 41.5837 20.6689C40.4005 18.5336 39.2517 16.3779 38.0856 14.2327C38.0094 14.0933 37.8905 13.9777 37.7224 13.7612C37.5584 14.4238 37.4345 14.9642 37.2902 15.4988C36.6022 18.0507 35.9274 20.6066 35.2099 23.1502C34.8901 24.2859 34.5613 24.413 33.6363 23.675C32.4662 22.7411 31.378 21.7054 30.2546 20.7132C30.1111 20.5861 29.9693 20.4565 29.8274 20.3286C29.7971 20.3483 29.7667 20.3672 29.7364 20.3868C30.6253 23.411 31.1952 26.495 31.4789 29.7578C36.4218 26.6771 41.6575 25.256 47.4484 26.2482C47.1614 23.1953 47.2688 20.2573 47.7223 17.2782Z" fill="url(#paint1_linear_119_5156)"/>
<path d="M24.086 49.6117C24.3411 49.5338 24.528 49.5486 24.6732 49.5994C24.8191 49.6511 24.9495 49.7396 25.0618 49.8462C25.1012 49.884 25.1389 49.9241 25.175 49.9659C25.193 49.9873 25.2111 50.0094 25.2283 50.0316C25.2373 50.043 25.2463 50.0553 25.2554 50.0668C25.2603 50.0734 25.28 50.093 25.28 50.1004C25.5842 50.5285 25.8006 50.9368 25.4595 51.478C24.6674 52.7334 23.9138 54.0135 23.148 55.2861C23.1471 55.2877 23.1463 55.2886 23.1455 55.2902C23.0864 55.3894 23.2259 55.4862 23.2997 55.3976C23.3808 55.3 23.462 55.2016 23.5407 55.1024C24.6789 53.6584 25.7957 52.1955 26.9626 50.7745C27.4308 50.2038 28.0245 49.7626 28.7961 49.6199C29.211 49.5428 29.5087 49.6486 29.8309 49.9249C30.7797 50.7408 30.6632 51.1787 29.9007 52.28C28.8363 53.8175 27.7924 55.3657 27.0069 57.068C26.5354 58.0889 26.2599 59.1696 26.1319 60.2865C26.1164 60.4185 26.1254 60.5538 26.1287 60.7432C26.1295 60.8047 26.1885 60.8515 26.2484 60.8342C26.9175 60.6473 27.4464 60.3078 27.9614 59.8674C28.0253 59.8133 28.1229 59.8625 28.1163 59.9462C28.104 60.1077 28.0901 60.2668 28.0106 60.3799C27.708 60.808 27.3923 61.2582 26.9839 61.5722C26.2869 62.1085 25.4251 61.769 25.0741 60.9121C24.6026 59.7584 24.7502 58.5915 24.947 57.4124C25.1348 56.289 25.6744 55.3091 26.136 54.2956C26.1746 54.2111 26.2107 54.1258 26.2451 54.0397C26.0991 53.9479 26.1336 53.97 25.9884 53.8782C25.8679 54.0102 25.7474 54.143 25.6301 54.2783C24.05 56.1045 22.5707 58.0061 21.2931 60.0602C21.1923 60.2225 20.9323 60.3947 20.7659 60.3767C20.5969 60.3586 20.3919 60.1397 20.3083 59.9593C19.7335 58.7235 20.1968 57.5337 20.5584 56.3652C20.7741 55.6682 21.1439 55.0188 21.4383 54.3464C21.544 54.1045 21.6367 53.8568 21.7343 53.6117C21.7458 53.583 21.7367 53.551 21.7121 53.5321C21.6875 53.5133 21.6539 53.5125 21.6293 53.5313C21.5695 53.5756 21.5063 53.6174 21.4612 53.674C20.5141 54.8515 19.5867 56.0462 18.6199 57.2082C17.8294 58.1586 17.1997 59.2016 16.6503 60.3021C16.3879 60.8285 16.1739 60.8187 15.7704 60.4095C14.7889 59.4124 14.8414 58.2717 15.3383 57.1155C15.9623 55.6649 16.6667 54.2488 17.3276 52.8138C17.5629 52.303 17.7778 51.7831 17.9598 51.2247C17.982 51.1566 17.9229 51.0902 17.8524 51.1017C16.9586 51.2542 16.2772 51.7675 15.6835 52.4022C15.0751 53.0524 14.6405 53.7978 14.6331 54.7302C14.6323 54.8122 14.5355 54.8548 14.4756 54.799C14.1788 54.5235 14.0132 53.9799 14.146 53.5256C14.2961 53.0114 14.483 52.4866 14.7643 52.0356C15.3826 51.0426 16.1689 50.2005 17.2235 49.6338C18.2837 49.0648 19.3686 49.3321 19.7868 50.3005C20.0049 50.8064 19.9237 51.3108 19.7909 51.82C19.5014 52.9245 19.0061 53.9364 18.4436 54.9228C18.1697 55.4025 17.9311 55.9019 17.6769 56.3923L17.6999 56.4062C17.7409 56.4317 17.7934 56.4226 17.8229 56.3849C17.9672 56.2029 18.114 56.0225 18.2542 55.838C19.2603 54.5137 20.2525 53.1779 21.2767 51.8675C21.6957 51.3312 22.0311 50.7745 22.5904 50.3858C23.052 50.0652 23.2021 50.0102 23.3079 49.9577C23.3743 49.9249 23.6326 49.8003 23.6834 49.7765C23.8409 49.7011 24.0245 49.6306 24.086 49.6117Z" fill="url(#paint2_linear_119_5156)"/>
<path d="M51.7883 58.9794C51.9228 58.8728 52.0704 58.7785 52.1909 58.6571C53.17 57.6723 54.2237 56.7564 54.9912 55.5756C55.0806 55.4378 55.3332 55.3164 55.4955 55.3328C55.8408 55.3681 56.1917 55.4616 56.5107 55.6002C56.8699 55.756 56.8781 56.1897 56.5706 56.4702C55.7686 57.2008 55.3799 58.1799 54.9798 59.1491C54.9625 59.1918 54.9847 59.25 54.9953 59.391C55.366 59.218 55.6866 59.0573 56.0154 58.9162C56.7797 58.5882 57.1503 58.0823 57.3332 57.1992C57.5628 56.0872 58.1507 55.0483 58.6001 53.9848C58.7509 53.6264 58.951 53.2894 59.179 52.845C58.9174 52.8851 58.7657 52.9138 58.6132 52.9302C58.2253 52.9712 57.8662 52.7252 57.7686 52.348C57.6702 51.9676 57.8161 51.7117 58.2163 51.5781C58.2901 51.5535 58.4238 51.528 58.4467 51.5608C58.7805 52.0364 59.2602 51.7503 59.662 51.765C59.8325 51.7716 60.0383 51.5026 60.1868 51.3255C60.623 50.8048 61.0322 50.2611 61.466 49.7388C61.698 49.46 61.9981 49.4165 62.3106 49.6043C62.6361 49.8003 62.9657 49.9955 63.2683 50.2242C63.584 50.462 63.5914 50.6449 63.3462 50.9811C63.3339 50.9983 63.3093 51.0016 63.2913 50.9901C62.9403 50.7507 62.6763 51.0459 62.1884 51.8929C62.3655 51.8929 62.5049 51.8954 62.6435 51.8921C62.9526 51.8847 63.2593 51.8831 63.3749 52.2578C63.461 52.5366 63.2552 52.977 62.9526 53.1623C62.8731 53.2115 62.7837 53.2525 62.6935 53.2763C62.4155 53.3509 62.3876 53.3288 62.3081 53.0409C61.6004 52.8245 61.1888 53.1164 60.8879 53.7535C60.2376 55.1319 59.5201 56.4784 58.8674 57.8552C58.7149 58.1774 58.6804 58.5653 58.6411 58.9285C58.5812 59.4747 58.8247 59.6493 59.3274 59.4082C59.6939 59.2328 60.0351 58.9999 60.3754 58.7736C61.1921 58.2291 61.9998 57.6698 62.8165 57.1254C62.9912 57.0089 63.1912 56.9318 63.3798 56.8359C63.4217 56.8917 63.411 56.8769 63.4528 56.9327C63.3561 57.0352 63.2495 57.1311 63.1658 57.2426C63.0576 57.3861 62.7025 57.4296 62.9502 57.7363C62.9608 57.7494 62.8846 57.8478 62.8354 57.8912C61.853 58.7481 60.928 59.651 59.7169 60.2422C58.7403 60.7186 57.6636 60.2545 57.3922 59.2975C57.3742 59.2328 57.3512 59.1696 57.311 59.045C57.1733 59.1352 57.0585 59.2155 56.9396 59.2893C56.2795 59.6969 55.6431 60.1544 54.9502 60.4947C54.1655 60.8801 53.3922 60.3545 53.3553 59.4706C53.3439 59.2024 53.3832 58.9326 53.4054 58.5661C53.2553 58.7252 53.1479 58.8277 53.0528 58.9417C52.7403 59.318 52.4574 59.7231 52.1163 60.0716C51.5809 60.6177 51.1627 60.6169 50.6059 60.0798C50.3861 59.8683 50.2328 59.587 50.0114 59.2861C49.676 59.5116 49.3447 59.769 48.9823 59.9683C48.619 60.1684 48.2254 60.3143 47.8425 60.4767C47.7834 60.5021 47.708 60.5046 47.6432 60.4956C46.993 60.4078 46.2705 59.6059 46.2205 58.9507C46.1566 58.1159 46.3271 57.3246 46.619 56.5505C46.665 56.4284 46.7002 56.3013 46.765 56.0995C46.6363 56.1692 46.5666 56.1848 46.5329 56.2283C45.8007 57.1598 45.0709 58.0938 44.346 59.031C44.2722 59.127 44.2263 59.2442 44.1697 59.3533C44.0524 59.5821 43.9647 59.8043 44.3148 59.8994C44.0852 60.4349 43.7859 60.5193 43.3612 60.193C42.6338 59.6346 42.3993 58.758 42.756 57.6772C43.1865 56.3718 43.6236 55.0639 44.4165 53.9159C44.4665 53.8429 44.4821 53.7461 44.5379 53.5961C44.3599 53.6199 44.2378 53.6363 44.1098 53.6527C44.0951 53.6166 44.059 53.5731 44.068 53.5436C44.223 53.0196 44.7281 53.1106 45.0979 52.968C45.3251 52.8802 45.503 52.9368 45.6506 53.1664C45.7564 53.3312 45.9368 53.4542 46.0983 53.5756C46.6067 53.9561 46.6707 54.1775 46.4222 54.7572C46.3911 54.8294 46.3681 54.9048 46.305 55.0778C46.4657 54.9606 46.5485 54.9073 46.624 54.8441C47.2734 54.3054 47.9253 53.7691 48.5698 53.2246C48.7699 53.0557 48.9519 53.0442 49.1487 53.2197C49.2504 53.3107 49.3587 53.3935 49.4653 53.4788C50.2074 54.0791 50.2426 54.2086 49.7482 55.0409C49.3726 55.6731 48.9446 56.2734 48.5649 56.904C48.1574 57.5805 47.9466 58.3201 47.9269 59.1163C47.9196 59.4074 48.0442 59.5444 48.2779 59.3927C48.824 59.0392 49.3546 58.6563 49.8523 58.2381C49.9925 58.1208 49.9843 57.8355 50.063 57.6346C50.4993 56.5227 51.2709 55.633 52.0179 54.731C52.3394 54.3431 52.6993 53.988 53.0388 53.6149C53.6227 52.9745 54.3434 52.8425 55.1265 53.1188C55.5718 53.2763 56.0007 53.5059 56.3992 53.7617C56.5878 53.8831 56.7337 54.1274 56.8067 54.3472C56.8379 54.4407 56.6591 54.6613 56.5255 54.7367C56.3631 54.8277 56.245 54.7506 56.2139 54.5153C56.1638 54.143 55.7907 54.0463 55.4242 54.2988C54.359 55.0344 53.4431 55.929 52.7084 56.9933C52.3558 57.5042 52.0737 58.0634 51.7695 58.6071C51.7203 58.6948 51.7252 58.8121 51.7055 58.9162C51.7334 58.9392 51.7604 58.9589 51.7883 58.9794Z" fill="url(#paint3_linear_119_5156)"/>
<path d="M39.4092 58.0822C39.0656 58.4651 38.7294 58.8546 38.3751 59.2277C38.0471 59.5729 37.72 59.9239 37.3559 60.2289C36.9041 60.6078 36.5375 60.552 36.1554 60.1002C36.0414 59.9657 35.9356 59.8206 35.8454 59.6697C35.7561 59.5205 35.6913 59.3565 35.6109 59.1875C35.0222 59.5606 34.4564 59.937 33.8725 60.2822C33.5134 60.4938 33.146 60.7349 32.6876 60.5979C32.0447 60.4052 31.7282 59.8435 31.8315 59.0777C31.8504 58.9374 31.8717 58.7972 31.8922 58.657C31.8602 58.6422 31.8283 58.6267 31.7963 58.6119C31.6593 58.7882 31.5281 58.9702 31.383 59.14C31.0648 59.5114 30.7483 59.8846 30.4146 60.2404C30.162 60.5094 29.8553 60.5405 29.5191 60.3806C28.7352 60.0067 27.9152 58.7439 28.5802 57.5598C29.1305 56.5816 29.8176 55.6771 30.4794 54.7661C30.7819 54.3495 31.1764 54.0002 31.5208 53.6132C32.1177 52.9432 32.859 52.8612 33.6487 53.1359C34.0824 53.2868 34.4982 53.5148 34.8828 53.7674C35.0705 53.8903 35.214 54.1372 35.2837 54.3569C35.3133 54.4496 35.1271 54.6661 34.9918 54.7415C34.8327 54.8301 34.7122 54.7718 34.6901 54.5226C34.6548 54.1339 34.2678 54.0445 33.8692 54.32C32.8951 54.9924 32.0636 55.8182 31.3568 56.7603C30.8861 57.3876 30.3432 57.9821 30.1891 58.7948C30.1792 58.8464 30.1817 58.8997 30.1735 59.0326C30.3375 58.9186 30.4654 58.8538 30.563 58.757C31.5872 57.7402 32.6819 56.7874 33.4707 55.5541C33.5478 55.4328 33.7635 55.3139 33.8971 55.3319C34.2694 55.3803 34.6482 55.4639 34.9959 55.6033C35.3305 55.7378 35.3534 56.1962 35.0673 56.452C34.2448 57.1867 33.8619 58.1822 33.4453 59.1588C33.4314 59.1916 33.4486 59.2376 33.4584 59.3696C33.688 59.2818 33.9029 59.2244 34.0931 59.1211C34.5236 58.8874 34.9484 58.6398 35.3616 58.3766C35.4592 58.3142 35.5355 58.1765 35.5666 58.0592C36.0767 56.1568 36.9984 54.507 38.5178 53.2212C39.109 52.7202 39.7281 52.9342 40.3185 53.1974C40.713 53.3729 41.0688 53.6337 41.4706 53.8739C41.5994 53.7386 41.7519 53.6025 41.8749 53.4426C42.0938 53.1581 42.362 53.0999 42.667 53.2589C43.0032 53.4344 43.3345 53.6222 43.6477 53.8346C43.7117 53.878 43.7429 54.115 43.6953 54.1577C42.8441 54.9096 42.4973 55.9609 42.0405 56.9399C41.1254 58.9014 40.2759 60.8948 39.3255 62.839C38.9311 63.6459 38.5301 64.4995 37.7208 65.0177C37.0886 65.422 36.4129 65.6262 35.6823 65.2941C35.2821 65.112 35.1599 64.7447 35.073 64.2478C35.2444 64.3568 35.3436 64.4101 35.4313 64.4782C35.9684 64.8931 36.5072 64.7873 36.8606 64.1846C37.7929 62.5938 38.558 60.9276 39.123 59.1703C39.2345 58.8243 39.3772 58.4881 39.5051 58.1478C39.4723 58.1248 39.4403 58.1035 39.4092 58.0822ZM36.9041 59.2597C37.0894 59.19 37.1952 59.1793 37.2567 59.1219C37.5625 58.8333 37.8717 58.5463 38.1513 58.2331C38.9926 57.2876 39.8241 56.3331 40.6498 55.3745C40.8237 55.1728 41.0615 54.9121 40.8376 54.6579C40.6236 54.4143 40.3505 54.5808 40.1045 54.7349C38.6703 55.6296 37.7306 56.9194 37.1058 58.461C37.0139 58.6873 36.9828 58.9407 36.9041 59.2597Z" fill="url(#paint4_linear_119_5156)"/>
<path d="M56.4538 40.7432V40.4046C56.4538 40.3619 56.4153 40.3283 56.3726 40.3349C55.7404 40.4374 55.182 40.7039 54.6695 41.0565C53.7945 41.6575 53.1057 42.4218 52.8392 43.482C52.7449 43.8576 52.608 44.2832 52.9393 44.603C53.2583 44.9121 53.6256 44.6899 53.9782 44.5997C55.0049 44.3381 55.8749 43.7862 56.7031 43.1565C56.813 43.0737 56.8802 42.922 56.9417 42.7908C58.0085 40.5087 59.0696 38.2242 60.1372 35.9429C60.2119 35.7839 60.3217 35.6404 60.4251 35.4969C60.7613 35.0278 60.9548 34.9442 61.5025 35.1352C61.8797 35.2664 62.2414 35.4518 62.589 35.6502C62.6842 35.7043 62.7604 35.9036 62.7399 36.0167C62.7219 36.1184 62.5587 36.1939 62.4578 36.28C62.3422 36.3784 62.1831 36.453 62.1167 36.5768C61.2065 38.2799 60.3086 39.9896 59.4115 41.7002C59.3812 41.7576 59.3648 41.8215 59.3656 41.8978C59.3664 41.9576 59.4411 41.9863 59.4845 41.9445C59.7732 41.6649 60.0569 41.3812 60.3554 41.113C61.2975 40.2668 62.2463 39.4296 63.1926 38.5883C63.4402 38.3685 63.678 38.3972 63.9191 38.6317C64.0355 38.7449 64.161 38.8498 64.2946 38.9425C64.5907 39.1467 64.8736 39.3927 64.7161 39.7707C64.6251 39.9888 64.3857 40.1446 64.1971 40.3217C64.1716 40.3455 64.1323 40.348 64.1052 40.3258L64.0732 40.3004C64.0503 40.2816 64.0413 40.2504 64.0511 40.2225C64.0642 40.1864 64.0782 40.1471 64.0954 40.0979C64.111 40.0544 64.0806 40.006 64.0339 40.0036C63.4599 39.9741 62.9408 40.1356 62.5308 40.4849C61.8896 41.031 61.3025 41.6436 60.7268 42.261C60.621 42.375 60.6104 42.6686 60.6735 42.8334C60.9277 43.491 61.2205 44.1347 61.5173 44.7752C61.6419 45.0441 61.8199 45.2344 62.0757 44.9679C62.1036 44.9392 62.1503 44.9392 62.1774 44.9687C62.5103 45.3221 62.3283 45.8895 61.8273 46.0708C61.3213 46.2536 60.6678 46.0839 60.3709 45.6247C60.0101 45.0654 59.7043 44.4709 59.3746 43.8912C59.3451 43.8387 59.3172 43.7862 59.2656 43.687C59.2418 43.6419 59.1787 43.637 59.1475 43.6772C58.7047 44.2569 58.298 44.7866 57.8962 45.3205C57.8585 45.3705 57.8445 45.4451 57.8371 45.5099C57.7838 45.9888 57.5985 46.115 57.1549 45.9043C56.6818 45.6804 56.3562 45.2959 56.0971 44.8055C56.0782 44.7702 56.0356 44.7571 56.0012 44.7768C55.788 44.8998 55.569 45.0294 55.3452 45.1491C54.5735 45.5632 53.7839 45.9273 52.8901 45.9756C51.9069 46.0289 51.3149 45.2762 51.1156 44.5743C50.7023 43.1163 51.2944 41.9675 52.1144 40.8744C52.8491 39.8953 53.6756 39.004 54.8819 38.6038C55.1065 38.5292 55.4272 38.5153 55.6207 38.6227C56.1619 38.9228 56.7162 39.241 57.1582 39.6649C57.6256 40.1126 57.4788 40.48 56.8736 40.6752C56.7736 40.7071 56.6777 40.7531 56.5514 40.8088C56.5063 40.8269 56.4538 40.7932 56.4538 40.7432Z" fill="url(#paint5_linear_119_5156)"/>
<path d="M23.7121 49.6493C24.3837 49.2868 24.6584 49.0556 24.8478 48.4357C24.8486 48.4332 24.8495 48.4307 24.8503 48.4283C25.6465 46.6087 26.341 44.7383 27.9523 43.4082C28.8962 42.6292 29.7637 41.7576 30.6698 40.9327C30.7715 40.84 30.9027 40.781 31.1192 40.644C31.0675 40.8662 31.0667 40.9786 31.0183 41.063C30.5927 41.8027 30.1836 42.5546 29.7186 43.2688C29.3832 43.7838 28.9708 44.2594 28.341 44.4291C28.1787 44.4726 27.9802 44.3791 27.7982 44.3553C27.6932 44.3414 27.5579 44.2971 27.4849 44.343C26.9987 44.653 26.9946 45.1491 27.462 45.4951C27.5546 45.5632 27.6432 45.6354 27.7277 45.7141C28.1942 46.1495 28.6879 46.1798 29.193 45.7936C29.5399 45.5288 29.8859 45.2623 30.2262 44.9884C31.4513 44.0044 32.432 42.8441 32.8969 41.3058C33.1602 40.4366 33.243 39.6125 32.4558 38.9343C32.1384 38.6604 31.662 38.6826 31.3726 38.986C31.2783 39.0844 31.1799 39.1795 31.0806 39.2722C30.2237 40.0725 29.3668 40.8736 28.5067 41.6707C28.3599 41.8068 28.1983 41.9281 28.0442 42.0561C28.0155 42.0274 27.9868 41.9987 27.9573 41.97C28.3517 41.3673 28.7322 40.7539 29.1528 40.1701C29.2299 40.0626 29.4743 40.084 29.6342 40.0249C29.7367 39.9864 29.9121 39.888 29.9039 39.8535C29.8531 39.6428 29.8129 39.3812 29.667 39.2517C29.3939 39.0081 29.0602 38.8244 28.733 38.6531C28.3082 38.4308 27.7834 38.5899 27.5555 39.0114C26.7568 40.4849 25.9532 41.9568 25.1971 43.4525C24.8667 44.1069 24.3288 44.4849 23.7285 44.8096C23.3808 44.9974 23.2751 44.9113 23.2898 44.4972C23.3202 43.6132 23.6268 42.8137 24.0967 42.0815C24.5379 41.3943 25.0233 40.7359 25.4891 40.0643C25.7654 39.6658 25.7064 39.437 25.2906 39.2041C25.0381 39.0622 24.7937 38.9064 24.5567 38.7392C24.1549 38.4538 23.8769 38.453 23.5022 38.7359C23.4899 38.9179 23.5202 39.0877 23.4612 39.2172C23.3439 39.4763 23.1832 39.7166 23.0332 39.9601C22.3403 41.0811 21.8089 42.2635 21.5957 43.578C21.4096 44.7252 21.8745 45.5517 22.9454 45.9133C23.0127 45.9363 23.0979 45.9322 23.1693 45.9158C23.4637 45.8494 23.7564 45.7731 24.0934 45.6895C24.0106 45.9076 23.9458 46.0855 23.8761 46.261C23.43 47.3885 22.9815 48.5144 22.5379 49.6419C22.4452 49.8772 22.3952 50.261 22.7125 50.1683C22.7232 50.165 22.7314 50.1634 22.7421 50.1593L23.7121 49.6493Z" fill="url(#paint6_linear_119_5156)"/>
<path d="M12.2653 44.8884L12.3538 45.0639C12.3809 45.1189 12.4506 45.1353 12.5006 45.0992C12.9057 44.8097 13.3173 44.5612 13.6552 44.2365C15.8651 42.1094 18.0586 39.966 20.2488 37.8192C20.503 37.5699 20.7244 37.2862 20.9261 36.9541C20.9687 36.8844 20.9138 36.7958 20.8326 36.8024C20.4841 36.8319 20.1348 36.859 19.7879 36.8983C18.7326 37.0189 17.6764 37.1353 16.6236 37.2764C15.305 37.4535 14.3874 36.6753 14.444 35.3813C14.4497 35.2444 14.5268 35.1116 14.5924 34.9771C14.6195 34.9221 14.6892 34.9033 14.7392 34.9394C14.8278 35.0025 14.9155 35.0665 15.0114 35.114C15.2738 35.2444 15.5379 35.4412 15.8142 35.4666C17.9995 35.6675 20.1709 35.6093 22.3021 35.0066C22.5103 34.9476 22.7268 34.9008 22.9417 34.8828C23.3156 34.8508 23.6214 34.9558 23.7297 35.374C23.7518 35.4601 23.7838 35.5445 23.8297 35.6208C24.2258 36.2768 24.2446 36.3309 23.7043 36.9156C23.0843 37.5863 22.4226 38.2185 21.7846 38.8721C21.0614 39.6125 20.3537 40.3694 19.6207 41.1C18.5768 42.1398 17.5157 43.1607 16.4637 44.1914C16.4153 44.239 16.3702 44.2898 16.3234 44.3448C16.2685 44.4095 16.3152 44.5096 16.4005 44.5088C16.7826 44.5047 17.1385 44.494 17.4919 44.5145C18.2217 44.5555 18.9565 44.5818 19.6781 44.69C20.4948 44.813 21.0589 45.3591 21.528 46.002C21.6042 46.1061 21.6387 46.2529 21.6534 46.3849C21.6592 46.4349 21.6264 46.4882 21.5936 46.5424C21.5682 46.5842 21.5165 46.6014 21.4706 46.5825C21.4066 46.5563 21.3697 46.5612 21.3304 46.4899C21.2279 46.1406 20.9392 46.0889 20.6555 46.0577C18.9638 45.8716 17.2787 45.9339 15.6084 46.2636C14.9319 46.3972 14.2661 46.5801 13.5945 46.7392C13.5436 46.7515 13.4797 46.7785 13.4403 46.7613C12.827 46.503 12.2103 46.1996 11.943 45.5395C11.8741 45.3698 11.9906 45.1246 12.0512 44.9015C12.0644 44.8548 12.1095 44.8245 12.1578 44.8302L12.1874 44.8335C12.2218 44.8376 12.2505 44.8581 12.2653 44.8884Z" fill="url(#paint7_linear_119_5156)"/>
<path d="M40.1026 45.0245C40.3945 44.9638 40.6003 44.9031 40.8094 44.8802C41.7951 44.7711 42.7807 44.6096 43.768 44.5981C44.2411 44.5924 44.734 44.8408 45.1858 45.0458C45.5622 45.2164 45.6474 45.5878 45.5039 45.9896C45.2801 46.6145 44.9545 46.8744 44.3904 46.8474C44.5921 46.5792 44.7823 46.3267 44.9734 46.0741C44.9463 46.0192 44.9185 45.9642 44.8914 45.9085C44.2354 45.9683 43.5712 45.9782 42.9259 46.0971C41.2932 46.3972 39.6655 46.726 38.0452 47.0843C37.2203 47.2664 36.6102 46.8859 36.0411 46.4169C35.6648 46.1077 35.7886 45.6534 36.2232 45.5723C36.4274 45.6223 36.6291 45.6953 36.8365 45.7149C36.9956 45.7297 37.1613 45.6534 37.322 45.66C37.7804 45.678 38.0182 45.423 38.1748 45.0352C38.4806 44.2775 38.766 43.51 39.1096 42.7695C40.0099 40.8302 40.9538 38.9098 41.8476 36.9672C42.2051 36.1906 42.4683 35.3706 42.7996 34.581C42.8422 34.4785 43.0595 34.3547 43.1505 34.3834C43.4703 34.4859 43.7975 34.6105 44.0698 34.8007C44.4478 35.0648 44.4871 35.3879 44.3322 35.8569C43.6589 37.8848 42.5839 39.7281 41.6762 41.6477C41.1588 42.7424 40.6528 43.8412 40.1026 45.0245Z" fill="url(#paint8_linear_119_5156)"/>
<path d="M50.603 40.1939C50.5817 40.2078 50.5521 40.2004 50.539 40.1783C50.2914 39.756 50.0134 39.7207 49.4673 40.0381C48.7399 40.4956 48.2037 41.1213 47.8133 41.9831C47.4935 42.7703 47.1049 43.5387 47.063 44.4284C47.0606 44.5792 47.1213 44.8531 47.2205 44.8925C47.3927 44.9605 47.6338 44.8982 47.7518 44.7883C48.8014 43.8658 49.71 42.8868 50.2053 41.5707C50.2791 41.3739 50.3094 41.1607 50.3603 40.9557C50.3029 40.9204 50.307 40.9229 50.2496 40.8884C49.9995 41.1115 49.7494 41.3353 49.5034 41.5543C49.4878 41.5682 49.4632 41.5551 49.4656 41.5338C49.5075 41.127 49.9371 40.5129 50.2922 40.4399C50.4242 40.4128 50.6153 40.4768 50.7235 40.5662C51.268 41.0139 51.4287 41.7174 51.04 42.4997C50.4488 43.6895 49.6977 44.7867 48.6038 45.5813C47.4402 46.4259 45.7232 45.6748 45.4862 44.2357C45.2172 42.6022 45.7625 41.2025 46.7883 39.9635C47.0827 39.6084 47.3796 39.2361 47.7592 38.9704C48.89 38.1783 50.1151 38.5358 50.7662 39.4337C51.0056 39.7642 50.949 39.9667 50.603 40.1939Z" fill="url(#paint9_linear_119_5156)"/>
<path d="M25.0438 37.8242C24.7108 37.8373 24.5436 37.6094 24.7117 37.324C25.0331 36.7771 25.4054 36.258 25.7785 35.7439C26.0975 35.3043 26.487 35.1559 27.0027 35.4782C27.2635 35.6414 27.5882 35.6988 27.8678 35.8373C28.1179 35.9612 28.1926 36.144 27.9654 36.3876C27.3742 37.0222 26.7149 37.4987 25.799 37.5479C25.53 37.5626 25.2693 37.7373 25.0438 37.8242Z" fill="url(#paint10_linear_119_5156)"/>
<path d="M47.7225 17.2782C47.2691 20.2581 47.1616 23.1953 47.4503 26.2482C41.6594 25.256 36.4229 26.6771 31.4808 29.7578C31.1971 26.4958 30.6272 23.4118 29.7383 20.3868C29.7686 20.3672 29.799 20.3483 29.8293 20.3286C29.972 20.4573 30.113 20.5869 30.2565 20.7132C31.3799 21.7054 32.4681 22.741 33.6382 23.675C34.5632 24.413 34.892 24.2867 35.2118 23.1502C35.9285 20.6066 36.6041 18.0506 37.2921 15.4988C37.4364 14.9642 37.5603 14.4238 37.7243 13.7612C37.8924 13.9769 38.0113 14.0933 38.0875 14.2327C39.2544 16.3779 40.4024 18.5328 41.5856 20.6689C41.9341 21.2979 42.3499 21.8973 42.7902 22.4672C43.1887 22.9821 43.5233 22.9346 43.8677 22.3843C44.9329 20.6796 46.135 19.0781 47.4741 17.5783C47.5593 17.4816 47.6389 17.3783 47.7225 17.2782Z" fill="url(#paint11_linear_119_5156)"/>
<defs>
<linearGradient id="paint0_linear_119_5156" x1="11.2846" y1="11.6965" x2="65.8917" y2="66.3037" gradientUnits="userSpaceOnUse">
<stop stop-color="#AE6F2E"/>
<stop offset="1" stop-color="#FCF5AF"/>
</linearGradient>
<linearGradient id="paint1_linear_119_5156" x1="28.5952" y1="13.8021" x2="50.3215" y2="36.6199" gradientUnits="userSpaceOnUse">
<stop stop-color="#A67A36"/>
<stop offset="1" stop-color="#F8EFA1"/>
</linearGradient>
<linearGradient id="paint2_linear_119_5156" x1="14.815" y1="50.2339" x2="27.1189" y2="66.9695" gradientUnits="userSpaceOnUse">
<stop stop-color="#A67A36"/>
<stop offset="1" stop-color="#F8EFA1"/>
</linearGradient>
<linearGradient id="paint3_linear_119_5156" x1="43.5043" y1="50.2888" x2="52.8426" y2="68.4673" gradientUnits="userSpaceOnUse">
<stop stop-color="#A67A36"/>
<stop offset="1" stop-color="#F8EFA1"/>
</linearGradient>
<linearGradient id="paint4_linear_119_5156" x1="29.0066" y1="53.8181" x2="41.5872" y2="69.7968" gradientUnits="userSpaceOnUse">
<stop stop-color="#A67A36"/>
<stop offset="1" stop-color="#F8EFA1"/>
</linearGradient>
<linearGradient id="paint5_linear_119_5156" x1="51.5813" y1="35.8362" x2="62.6872" y2="50.1104" gradientUnits="userSpaceOnUse">
<stop stop-color="#A67A36"/>
<stop offset="1" stop-color="#F8EFA1"/>
</linearGradient>
<linearGradient id="paint6_linear_119_5156" x1="22.0582" y1="39.3606" x2="34.0849" y2="51.6745" gradientUnits="userSpaceOnUse">
<stop stop-color="#A67A36"/>
<stop offset="1" stop-color="#F8EFA1"/>
</linearGradient>
<linearGradient id="paint7_linear_119_5156" x1="12.4537" y1="35.7303" x2="24.7001" y2="48.7407" gradientUnits="userSpaceOnUse">
<stop stop-color="#A67A36"/>
<stop offset="1" stop-color="#F8EFA1"/>
</linearGradient>
<linearGradient id="paint8_linear_119_5156" x1="36.2426" y1="35.2938" x2="49.0512" y2="45.438" gradientUnits="userSpaceOnUse">
<stop stop-color="#A67A36"/>
<stop offset="1" stop-color="#F8EFA1"/>
</linearGradient>
<linearGradient id="paint9_linear_119_5156" x1="45.6724" y1="39.063" x2="53.1577" y2="45.1735" gradientUnits="userSpaceOnUse">
<stop stop-color="#A67A36"/>
<stop offset="1" stop-color="#F8EFA1"/>
</linearGradient>
<linearGradient id="paint10_linear_119_5156" x1="24.7962" y1="35.4854" x2="27.2445" y2="38.9623" gradientUnits="userSpaceOnUse">
<stop stop-color="#A67A36"/>
<stop offset="1" stop-color="#F8EFA1"/>
</linearGradient>
<linearGradient id="paint11_linear_119_5156" x1="30.5224" y1="14.9087" x2="46.8404" y2="33.9066" gradientUnits="userSpaceOnUse">
<stop stop-color="#A67A36"/>
<stop offset="1" stop-color="#F8EFA1"/>
</linearGradient>
</defs>
</svg>
