<svg width="80" height="80" viewBox="0 0 80 80" fill="none" xmlns="http://www.w3.org/2000/svg">
<path d="M67.3275 7.7681L67.3291 7.76622L59.7353 3.40951C53.4067 -0.161275 45.1878 0.2181 36.2031 5.40529C16.2087 16.9492 0 47.9189 0 74.5781L7.59375 78.9375L29.9253 66.0443L35.5083 62.8211C35.5083 57.1637 38.6972 50.6612 42.8086 47.6356C42.8106 47.7351 42.8155 47.8322 42.8155 47.9336L52.0855 53.2501L57.6684 50.0268L80 37.1337C80 22.4531 75.0834 12.1436 67.3275 7.7681Z" fill="url(#paint0_linear_209_7198)"/>
<path d="M43.7969 9.76482C23.8023 21.3086 7.59375 52.2783 7.59375 78.9375L29.9253 66.0443C29.9253 55.8297 36.1358 43.9634 43.7969 39.5403C51.4578 35.1172 57.6684 39.8122 57.6684 50.0268L80 37.1337C80 10.4745 63.7912 -1.77909 43.7969 9.76482Z" fill="url(#paint1_linear_209_7198)"/>
<path d="M43.7971 17.2086C26.886 26.9721 13.1768 53.1661 13.1768 75.7142L29.9255 66.0443C29.9255 55.8296 36.136 43.9634 43.7971 39.5403C51.458 35.1171 57.6686 39.8121 57.6686 50.0268L74.4174 40.357C74.4172 17.8089 60.7082 7.44496 43.7971 17.2086Z" fill="url(#paint2_linear_209_7198)"/>
<path d="M43.7971 24.6525C29.9694 32.6359 18.7598 54.0539 18.7598 72.4909L29.9255 66.0444C29.9255 55.8297 36.136 43.9634 43.7971 39.5403C51.458 35.1172 57.6687 39.8122 57.6687 50.0269L68.8345 43.5803C68.8345 25.1433 57.6248 16.6691 43.7971 24.6525Z" fill="url(#paint3_linear_209_7198)"/>
<path d="M43.7967 32.0964C33.0523 38.2996 24.3423 54.9418 24.3423 69.2676L35.5081 62.8211C35.5081 56.7175 39.219 49.6271 43.7967 46.9842C48.3743 44.3412 52.0853 47.1465 52.0853 53.2501L63.251 46.8036C63.251 32.4778 54.541 25.8931 43.7967 32.0964Z" fill="#0197F8"/>
<path d="M43.7969 39.5403C36.1358 43.9634 29.9253 55.8295 29.9253 66.0444L35.5083 62.8211C35.5083 56.7175 39.2192 49.6272 43.7969 46.9842C48.3745 44.3413 52.0854 47.1466 52.0854 53.2502L57.6684 50.0269C57.6683 39.8122 51.4578 35.1172 43.7969 39.5403Z" fill="url(#paint4_linear_209_7198)"/>
<path d="M43.7968 46.9842C43.4625 47.1772 43.1336 47.3965 42.8096 47.6348C42.8116 47.7344 42.8154 47.8323 42.8154 47.9336L52.0854 53.2501C52.0854 47.1465 48.3744 44.3412 43.7968 46.9842Z" fill="#43386B"/>
<defs>
<linearGradient id="paint0_linear_209_7198" x1="28.2928" y1="65.1065" x2="55.6723" y2="17.6837" gradientUnits="userSpaceOnUse">
<stop stop-color="#93111B"/>
<stop offset="1" stop-color="#FF7A85"/>
</linearGradient>
<linearGradient id="paint1_linear_209_7198" x1="43.7969" y1="85.2037" x2="43.7969" y2="14.1906" gradientUnits="userSpaceOnUse">
<stop stop-color="#93111B"/>
<stop offset="1" stop-color="#FF4757"/>
</linearGradient>
<linearGradient id="paint2_linear_209_7198" x1="43.7971" y1="73.5707" x2="43.7971" y2="15.8495" gradientUnits="userSpaceOnUse">
<stop stop-color="#FFA538"/>
<stop offset="1" stop-color="#F7E041"/>
</linearGradient>
<linearGradient id="paint3_linear_209_7198" x1="43.7971" y1="87.3848" x2="43.7971" y2="30.9147" gradientUnits="userSpaceOnUse">
<stop stop-color="#2F878A"/>
<stop offset="1" stop-color="#06DAAE"/>
</linearGradient>
<linearGradient id="paint4_linear_209_7198" x1="43.7969" y1="70.6625" x2="43.7969" y2="27.4723" gradientUnits="userSpaceOnUse">
<stop stop-color="#43386B"/>
<stop offset="1" stop-color="#594A8E"/>
</linearGradient>
</defs>
</svg>
