<svg width="80" height="80" viewBox="0 0 80 80" fill="none" xmlns="http://www.w3.org/2000/svg">
<g clip-path="url(#clip0_209_7285)">
<path d="M43.5146 53.7191L29.9854 54.9277V76.6282H29.9855C29.9752 77.5343 30.5163 78.4008 31.6349 79.0466C34.081 80.4588 38.3536 80.2818 41.178 78.651C42.7638 77.7355 43.5557 76.5563 43.5125 75.4483L43.5144 75.4482L43.5146 53.7191Z" fill="url(#paint0_linear_209_7285)"/>
<path d="M66.1147 2.19863L62.8747 0.276915C62.2744 -0.11621 61.4721 -0.105428 60.5902 0.40379L13.2247 27.7502C11.3647 28.8241 9.85693 31.705 9.85693 34.1849V74.591C9.85693 76.0561 10.4297 76.9053 11.1976 77.4025L14.0949 79.1264L66.1147 2.19863Z" fill="url(#paint1_linear_209_7285)"/>
<path d="M63.8077 51.6967L16.442 79.0431C14.582 80.117 13.0742 78.9771 13.0742 76.4971V36.0912C13.0742 33.6112 14.582 30.7303 16.442 29.6565L63.8077 2.30994C65.6677 1.23603 67.1755 2.37588 67.1755 4.85588V45.262C67.1753 47.7418 65.6675 50.6228 63.8077 51.6967Z" fill="url(#paint2_linear_209_7285)"/>
<path d="M21.5419 25.8087C20.9971 25.8087 20.5557 25.3671 20.5557 24.8224V18.2601C20.5557 17.9077 20.7436 17.5821 21.0488 17.4059C21.3539 17.2296 21.7299 17.2296 22.035 17.4059L31.6652 22.9659C32.1369 23.2382 32.2986 23.8413 32.0261 24.3132C31.7539 24.7846 31.1504 24.9465 30.6788 24.6742L22.5282 19.9684V24.8224C22.5283 25.367 22.0868 25.8087 21.5419 25.8087Z" fill="#43386B"/>
<path d="M25.796 28.113L25.7944 26.3717L40.7999 23.1266V24.8971H40.799C40.7962 25.0347 40.6952 25.1791 40.4993 25.2922L31.2132 30.691C30.8496 30.9008 30.2996 30.9236 29.9847 30.7419L26.0072 28.4455C25.8546 28.3574 25.7858 28.2372 25.7965 28.1128L25.796 28.113Z" fill="url(#paint3_linear_209_7285)"/>
<path d="M36.6096 20.5209L40.5871 22.8173C40.902 22.999 40.8624 23.3166 40.499 23.5265L31.2129 28.9252C30.8493 29.1351 30.2993 29.1579 29.9845 28.9762L26.007 26.6798C25.6921 26.498 25.7317 26.1804 26.0951 25.9705L35.3812 20.5718C35.7448 20.3618 36.2948 20.339 36.6096 20.5209Z" fill="url(#paint4_linear_209_7285)"/>
<path d="M50.8847 8.82162C50.3398 8.82162 49.8984 8.38006 49.8984 7.83537V1.27303C49.8984 0.920684 50.0864 0.595059 50.3916 0.418809C50.6967 0.242559 51.0727 0.242559 51.3778 0.418809L61.008 5.97881C61.4797 6.25115 61.6414 6.85428 61.3689 7.32615C61.0967 7.79772 60.4934 7.95943 60.0216 7.68709L51.8711 2.98131V7.83522C51.8711 8.3799 51.4295 8.82162 50.8847 8.82162Z" fill="#43386B"/>
<path d="M55.1388 11.1261L55.1372 9.3848L70.1427 6.13965V7.91012H70.1417C70.1389 8.04777 70.038 8.19215 69.842 8.30527L60.556 13.704C60.1924 13.9139 59.6424 13.9367 59.3275 13.755L55.35 11.4586C55.1974 11.3704 55.1286 11.2503 55.1392 11.1259L55.1388 11.1261Z" fill="url(#paint5_linear_209_7285)"/>
<path d="M65.9524 3.53385L69.9299 5.83026C70.2447 6.01198 70.2052 6.32963 69.8418 6.53948L60.5557 11.9382C60.1921 12.1481 59.6421 12.1709 59.3272 11.9892L55.3497 9.69276C55.0349 9.51104 55.0744 9.19338 55.4379 8.98354L64.724 3.58479C65.0876 3.37479 65.6376 3.35213 65.9524 3.53385Z" fill="url(#paint6_linear_209_7285)"/>
<path d="M50.4882 42.3186C50.4882 35.7019 46.4652 32.6605 41.5027 35.5257C38.431 37.2991 35.7207 40.9202 34.1001 44.991C33.1429 45.9669 32.518 46.8161 32.5174 47.3199H32.5171V52.6941C32.5171 53.728 32.6152 54.6746 32.7999 55.525C32.9107 56.0352 33.0526 56.5108 33.2232 56.95C34.0188 58.9989 35.4329 60.2824 37.2196 60.5139C40.5726 60.9485 43.9622 57.6089 43.9622 57.6089C47.7285 54.0077 50.4882 47.7977 50.4882 42.3186Z" fill="url(#paint7_linear_209_7285)"/>
<path d="M50.2248 31.3306L47.3312 29.6784C45.7632 28.8042 43.7323 28.9006 41.5118 30.1827C36.5493 33.0478 32.5264 40.7344 32.5264 47.3511C32.5264 51.0963 33.8159 53.6947 35.8346 54.7261L38.5956 56.3127L50.2248 31.3306Z" fill="url(#paint8_linear_209_7285)"/>
<path d="M53.4075 38.6403C53.4075 32.0236 49.3845 28.9824 44.422 31.8474C39.4595 34.7125 35.4365 42.3991 35.4365 49.0158C35.4365 55.6325 39.4595 58.6738 44.422 55.8088C49.3845 52.9438 53.4075 45.2571 53.4075 38.6403Z" fill="url(#paint9_linear_209_7285)"/>
<path d="M42.0294 48.1352L38.6718 50.0738L38.2296 51.7557C38.1096 52.2121 37.8263 52.6282 37.5121 52.8096C36.9499 53.1341 36.5741 52.5793 36.803 51.7625L39.2029 43.198C39.4077 42.4672 39.8636 41.8093 40.3666 41.5189C40.8691 41.2288 41.3246 41.3596 41.5297 41.8528L43.9263 47.6152C44.1613 48.18 43.7768 49.1928 43.2011 49.5252C42.8797 49.7108 42.5899 49.6197 42.4671 49.2946L42.0294 48.1352ZM41.5025 46.745L40.3558 43.7154L39.2089 48.0693L41.5025 46.745Z" fill="#43386B"/>
<path d="M45.1797 39.9582C45.1797 39.2854 45.5887 38.5036 46.0934 38.2122L48.4652 36.843C50.8311 35.4771 52.4531 36.4416 52.4531 39.3619C52.4531 42.2822 50.8311 45.1197 48.4652 46.4857L46.0934 47.8549C45.5887 48.1463 45.1797 47.8369 45.1797 47.1641V39.9582ZM48.3825 44.7013C49.8186 43.8722 50.7587 42.186 50.7587 40.3401C50.7587 38.4943 49.8186 37.8936 48.3825 38.7227L46.8534 39.6055V45.584L48.3825 44.7013Z" fill="#43386B"/>
</g>
<defs>
<linearGradient id="paint0_linear_209_7285" x1="29.9854" y1="66.8596" x2="43.5146" y2="66.8596" gradientUnits="userSpaceOnUse">
<stop offset="0.0319" stop-color="#43386B"/>
<stop offset="0.1931" stop-color="#4F437A"/>
<stop offset="0.5027" stop-color="#6E60A1"/>
<stop offset="0.9254" stop-color="#A08DDF"/>
<stop offset="1" stop-color="#A996EB"/>
</linearGradient>
<linearGradient id="paint1_linear_209_7285" x1="23.1627" y1="42.8403" x2="27.439" y2="35.4336" gradientUnits="userSpaceOnUse">
<stop offset="0.0319" stop-color="#A996EB"/>
<stop offset="0.2213" stop-color="#BFB3EB"/>
<stop offset="0.4108" stop-color="#D1C9EB"/>
<stop offset="0.5321" stop-color="#D7D1EB"/>
<stop offset="1" stop-color="#E9E5F6"/>
</linearGradient>
<linearGradient id="paint2_linear_209_7285" x1="51.7803" y1="60.8643" x2="24.7569" y2="14.0584" gradientUnits="userSpaceOnUse">
<stop stop-color="#DFDAEF"/>
<stop offset="1" stop-color="white"/>
</linearGradient>
<linearGradient id="paint3_linear_209_7285" x1="29.0993" y1="26.9958" x2="31.2494" y2="26.9958" gradientUnits="userSpaceOnUse">
<stop offset="0.0319" stop-color="#43386B"/>
<stop offset="0.2653" stop-color="#4C407A"/>
<stop offset="0.7109" stop-color="#6453A1"/>
<stop offset="1" stop-color="#7662BD"/>
</linearGradient>
<linearGradient id="paint4_linear_209_7285" x1="24.5576" y1="29.7943" x2="38.0428" y2="22.0087" gradientUnits="userSpaceOnUse">
<stop offset="0.0319" stop-color="#43386B"/>
<stop offset="0.1931" stop-color="#4F437A"/>
<stop offset="0.5027" stop-color="#6E60A1"/>
<stop offset="0.9254" stop-color="#A08DDF"/>
<stop offset="1" stop-color="#A996EB"/>
</linearGradient>
<linearGradient id="paint5_linear_209_7285" x1="58.4422" y1="10.0089" x2="60.5922" y2="10.0089" gradientUnits="userSpaceOnUse">
<stop offset="0.0319" stop-color="#43386B"/>
<stop offset="0.2653" stop-color="#4C407A"/>
<stop offset="0.7109" stop-color="#6453A1"/>
<stop offset="1" stop-color="#7662BD"/>
</linearGradient>
<linearGradient id="paint6_linear_209_7285" x1="53.9005" y1="12.8073" x2="67.3855" y2="5.02167" gradientUnits="userSpaceOnUse">
<stop offset="0.0319" stop-color="#43386B"/>
<stop offset="0.1931" stop-color="#4F437A"/>
<stop offset="0.5027" stop-color="#6E60A1"/>
<stop offset="0.9254" stop-color="#A08DDF"/>
<stop offset="1" stop-color="#A996EB"/>
</linearGradient>
<linearGradient id="paint7_linear_209_7285" x1="41.5026" y1="39.545" x2="41.5026" y2="65.9221" gradientUnits="userSpaceOnUse">
<stop offset="0.0319" stop-color="#7662BD"/>
<stop offset="1" stop-color="#7662BD" stop-opacity="0"/>
</linearGradient>
<linearGradient id="paint8_linear_209_7285" x1="38.3751" y1="44.2211" x2="46.9862" y2="29.3063" gradientUnits="userSpaceOnUse">
<stop stop-color="#CC8241"/>
<stop offset="0.3876" stop-color="#E5A23D"/>
<stop offset="0.7699" stop-color="#F8BC39"/>
<stop offset="1" stop-color="#FFC538"/>
</linearGradient>
<linearGradient id="paint9_linear_209_7285" x1="44.422" y1="60.5421" x2="44.422" y2="30.6872" gradientUnits="userSpaceOnUse">
<stop stop-color="#FFC538"/>
<stop offset="0.5463" stop-color="#FAD73E"/>
<stop offset="1" stop-color="#F7E041"/>
</linearGradient>
<clipPath id="clip0_209_7285">
<rect width="80" height="80" fill="white"/>
</clipPath>
</defs>
</svg>
