<svg width="81" height="80" viewBox="0 0 81 80" fill="none" xmlns="http://www.w3.org/2000/svg">
<g clip-path="url(#clip0_209_7260)">
<path d="M47.1155 7.79489L39.4941 3.44332C35.3641 1.14082 30.0152 1.39473 24.1667 4.77129C11.0959 12.3179 0.5 32.5633 0.5 49.9911C0.5 59.8555 3.89656 66.6992 9.21344 69.416L16.4853 73.5947L47.1155 7.79489Z" fill="url(#paint0_linear_209_7260)"/>
<path d="M55.4975 27.0477C55.4975 9.62003 44.9016 1.60957 31.8308 9.15597C18.76 16.7025 8.16406 36.948 8.16406 54.3757C8.16406 71.8035 18.76 79.8138 31.8308 72.2674C44.9016 64.721 55.4975 44.4753 55.4975 27.0477Z" fill="url(#paint1_linear_209_7260)"/>
<path d="M25.3805 65.0074C23.7539 65.0074 22.2258 64.6141 20.8554 63.8229C17.0629 61.6334 14.8877 56.6238 14.8877 50.079C14.8877 37.9218 22.3272 23.7359 31.4716 18.4563C35.6046 16.0704 39.63 15.7663 42.8069 17.6005C46.5994 19.7902 48.7746 24.7996 48.7746 31.3445C48.7746 43.5016 41.335 57.6876 32.1903 62.9671C29.8405 64.3237 27.5247 65.0074 25.3805 65.0074ZM38.2791 17.8573C36.3844 17.8573 34.3135 18.4755 32.1902 19.7013C23.4422 24.752 16.325 38.3795 16.325 50.0791C16.325 56.0966 18.2383 60.6523 21.5739 62.5782C24.2872 64.1449 27.8024 63.8406 31.4716 61.7224C40.2199 56.6716 47.3371 43.0443 47.3371 31.3446C47.3371 25.3273 45.4238 20.7715 42.0882 18.8455C40.9447 18.1854 39.6586 17.8573 38.2791 17.8573Z" fill="#43386B"/>
<path d="M35.3829 38.661C35.3829 36.0454 33.7926 34.843 31.8308 35.9757C29.8691 37.1084 28.2788 40.147 28.2788 42.7626C28.2788 45.3782 29.8691 46.5805 31.8308 45.4479C33.7926 44.3152 35.3829 41.2766 35.3829 38.661Z" fill="url(#paint2_linear_209_7260)"/>
<path d="M28.5112 53.5632C27.6145 53.5632 26.7691 53.3449 26.0087 52.906C23.9463 51.7152 22.7637 49.0276 22.7637 45.5318C22.7637 39.1651 26.6701 31.7299 31.4715 28.9579C33.7098 27.6654 35.9051 27.5085 37.653 28.5174C39.7154 29.7082 40.898 32.3959 40.898 35.8916C40.898 42.2584 36.9916 49.6935 32.1902 52.4656C30.9257 53.1957 29.6751 53.5632 28.5112 53.5632ZM35.148 29.3013C34.2343 29.3013 33.2279 29.6037 32.1902 30.2027C27.7849 32.7462 24.201 39.6229 24.201 45.532C24.201 48.5002 25.1218 50.7343 26.7274 51.6613C28.0118 52.4027 29.6962 52.246 31.4716 51.221C35.877 48.6776 39.4609 41.8009 39.4609 35.8918C39.4609 32.9235 38.5401 30.6895 36.9345 29.7624C36.4005 29.4543 35.7976 29.3013 35.148 29.3013Z" fill="#FF4757"/>
<path d="M31.8311 25.6837C31.434 25.6837 31.1123 25.362 31.1123 24.965V13.3522C31.1123 12.9551 31.434 12.6334 31.8311 12.6334C32.2281 12.6334 32.5498 12.9551 32.5498 13.3522V24.9651C32.5496 25.362 32.2279 25.6837 31.8311 25.6837Z" fill="#43386B"/>
<path d="M31.8311 68.7899C31.434 68.7899 31.1123 68.4682 31.1123 68.0712V56.4584C31.1123 56.0613 31.434 55.7396 31.8311 55.7396C32.2281 55.7396 32.5498 56.0613 32.5498 56.4584V68.0712C32.5496 68.4682 32.2279 68.7899 31.8311 68.7899Z" fill="#43386B"/>
<path d="M11.4342 53.2069C11.1861 53.2069 10.9443 53.078 10.8112 52.8474C10.6128 52.5036 10.7306 52.0641 11.0743 51.8656L19.0445 47.2641C19.3878 47.0656 19.8278 47.183 20.0262 47.5272C20.2247 47.871 20.1068 48.3105 19.7631 48.5089L11.7929 53.1105C11.6798 53.1758 11.5562 53.2069 11.4342 53.2069Z" fill="#43386B"/>
<path d="M43.9674 34.3528C43.7193 34.3528 43.4776 34.2239 43.3444 33.9933C43.146 33.6496 43.2638 33.21 43.6076 33.0116L51.5777 28.4099C51.9208 28.2119 52.361 28.3288 52.5594 28.673C52.7579 29.0167 52.6401 29.4563 52.2963 29.6547L44.3261 34.2564C44.213 34.3217 44.0896 34.3528 43.9674 34.3528Z" fill="#43386B"/>
<path d="M80.4998 78.0639L62.9297 67.9197L58.3745 55.2723L75.9447 65.4164L80.4998 78.0639Z" fill="url(#paint3_linear_209_7260)"/>
<path d="M77.1258 68.3012C76.882 68.3012 76.6348 68.2391 76.4084 68.1084L31.112 41.9564C30.4245 41.5594 30.1889 40.6805 30.5859 39.993C30.9827 39.3058 31.8616 39.0695 32.5494 39.4669L77.8458 65.6187C78.5333 66.0158 78.7689 66.8947 78.3719 67.5822C78.1058 68.0434 77.6227 68.3012 77.1258 68.3012Z" fill="#DEA861"/>
<path d="M80.4998 58.0288L62.9297 47.8848L58.3745 55.2724L75.9447 65.4165L80.4998 58.0288Z" fill="url(#paint4_linear_209_7260)"/>
</g>
<defs>
<linearGradient id="paint0_linear_209_7260" x1="15.9047" y1="41.7466" x2="38.5852" y2="2.4627" gradientUnits="userSpaceOnUse">
<stop offset="0.0319" stop-color="#A996EB"/>
<stop offset="0.2213" stop-color="#BFB3EB"/>
<stop offset="0.4108" stop-color="#D1C9EB"/>
<stop offset="0.5321" stop-color="#D7D1EB"/>
<stop offset="1" stop-color="#E9E5F6"/>
</linearGradient>
<linearGradient id="paint1_linear_209_7260" x1="31.8308" y1="84.7341" x2="31.8308" y2="6.09988" gradientUnits="userSpaceOnUse">
<stop stop-color="#DFDAEF"/>
<stop offset="1" stop-color="white"/>
</linearGradient>
<linearGradient id="paint2_linear_209_7260" x1="31.8308" y1="47.319" x2="31.8308" y2="35.517" gradientUnits="userSpaceOnUse">
<stop stop-color="#AB2C37"/>
<stop offset="0.0732" stop-color="#B3343F"/>
<stop offset="0.4827" stop-color="#DC5A65"/>
<stop offset="0.8056" stop-color="#F6717C"/>
<stop offset="1" stop-color="#FF7A85"/>
</linearGradient>
<linearGradient id="paint3_linear_209_7260" x1="69.4372" y1="80.6039" x2="69.4372" y2="54.1031" gradientUnits="userSpaceOnUse">
<stop stop-color="#DFDAEF"/>
<stop offset="1" stop-color="white"/>
</linearGradient>
<linearGradient id="paint4_linear_209_7260" x1="69.4354" y1="63.0794" x2="76.7246" y2="50.4545" gradientUnits="userSpaceOnUse">
<stop stop-color="#DFDAEF"/>
<stop offset="1" stop-color="white"/>
</linearGradient>
<clipPath id="clip0_209_7260">
<rect width="80" height="80" fill="white" transform="translate(0.5)"/>
</clipPath>
</defs>
</svg>
